<?xml version="1.0" encoding="utf-8" standalone="no"?>
<!DOCTYPE svg PUBLIC "-//W3C//DTD SVG 1.1//EN"
  "http://www.w3.org/Graphics/SVG/1.1/DTD/svg11.dtd">
<svg xmlns:xlink="http://www.w3.org/1999/xlink" width="515.262172pt" height="322.278125pt" viewBox="0 0 515.262172 322.278125" xmlns="http://www.w3.org/2000/svg" version="1.1">
 <metadata>
  <rdf:RDF xmlns:dc="http://purl.org/dc/elements/1.1/" xmlns:cc="http://creativecommons.org/ns#" xmlns:rdf="http://www.w3.org/1999/02/22-rdf-syntax-ns#">
   <cc:Work>
    <dc:type rdf:resource="http://purl.org/dc/dcmitype/StillImage"/>
    <dc:date>2024-01-08T19:29:38.445755</dc:date>
    <dc:format>image/svg+xml</dc:format>
    <dc:creator>
     <cc:Agent>
      <dc:title>Matplotlib v3.8.2, https://matplotlib.org/</dc:title>
     </cc:Agent>
    </dc:creator>
   </cc:Work>
  </rdf:RDF>
 </metadata>
 <defs>
  <style type="text/css">*{stroke-linejoin: round; stroke-linecap: butt}</style>
 </defs>
 <g id="figure_1">
  <g id="patch_1">
   <path d="M 0 322.278125 
L 515.262172 322.278125 
L 515.262172 0 
L 0 0 
z
" style="fill: #ffffff"/>
  </g>
  <g id="axes_1">
   <g id="patch_2">
    <path d="M 61.341563 284.4 
L 264.250653 284.4 
L 264.250653 7.2 
L 61.341563 7.2 
z
" style="fill: #ffffff"/>
   </g>
   <g id="PolyCollection_1">
    <defs>
     <path id="m3ac103f19c" d="M 70.564703 -302.478125 
L 70.564703 -213.734015 
L 91.060571 -120.813712 
L 111.556439 -124.989905 
L 132.052306 -119.277469 
L 152.548174 -102.384394 
L 173.044042 -110.882202 
L 193.53991 -70.393634 
L 214.035777 -108.210557 
L 234.531645 -79.368721 
L 255.027513 -74.642538 
L 255.027513 -155.565607 
L 255.027513 -155.565607 
L 234.531645 -134.933223 
L 214.035777 -183.54051 
L 193.53991 -210.005271 
L 173.044042 -205.247394 
L 152.548174 -214.778064 
L 132.052306 -239.835224 
L 111.556439 -199.117338 
L 91.060571 -195.985193 
L 70.564703 -302.478125 
z
" style="stroke: #edd1cb; stroke-opacity: 0.2"/>
    </defs>
    <g clip-path="url(#p86b1c43a60)">
     <use xlink:href="#m3ac103f19c" x="0" y="322.278125" style="fill: #edd1cb; fill-opacity: 0.2; stroke: #edd1cb; stroke-opacity: 0.2"/>
    </g>
   </g>
   <g id="PolyCollection_2">
    <defs>
     <path id="m24a57f769e" d="M 70.564703 -245.54766 
L 70.564703 -187.036207 
L 91.060571 -143.633626 
L 111.556439 -148.845224 
L 132.052306 -102.867549 
L 152.548174 -89.183793 
L 173.044042 -94.223334 
L 193.53991 -50.478125 
L 214.035777 -62.823204 
L 234.531645 -73.12125 
L 255.027513 -73.794249 
L 255.027513 -104.705537 
L 255.027513 -104.705537 
L 234.531645 -139.975441 
L 214.035777 -126.124658 
L 193.53991 -97.471487 
L 173.044042 -146.544576 
L 152.548174 -147.002533 
L 132.052306 -158.902494 
L 111.556439 -206.066587 
L 91.060571 -202.920657 
L 70.564703 -245.54766 
z
" style="stroke: #e7c1be; stroke-opacity: 0.2"/>
    </defs>
    <g clip-path="url(#p86b1c43a60)">
     <use xlink:href="#m24a57f769e" x="0" y="322.278125" style="fill: #e7c1be; fill-opacity: 0.2; stroke: #e7c1be; stroke-opacity: 0.2"/>
    </g>
   </g>
   <g id="PolyCollection_3">
    <defs>
     <path id="m40433adea1" d="M 70.564703 -277.868414 
L 70.564703 -214.970715 
L 91.060571 -184.443713 
L 111.556439 -130.411499 
L 132.052306 -114.671453 
L 152.548174 -77.832168 
L 173.044042 -73.27803 
L 193.53991 -75.504781 
L 214.035777 -68.200286 
L 234.531645 -63.335769 
L 255.027513 -58.24287 
L 255.027513 -97.265176 
L 255.027513 -97.265176 
L 234.531645 -89.685606 
L 214.035777 -114.115818 
L 193.53991 -107.03633 
L 173.044042 -127.001874 
L 152.548174 -132.649654 
L 132.052306 -154.251942 
L 111.556439 -178.215146 
L 91.060571 -231.29301 
L 70.564703 -277.868414 
z
" style="stroke: #e1b1b4; stroke-opacity: 0.2"/>
    </defs>
    <g clip-path="url(#p86b1c43a60)">
     <use xlink:href="#m40433adea1" x="0" y="322.278125" style="fill: #e1b1b4; fill-opacity: 0.2; stroke: #e1b1b4; stroke-opacity: 0.2"/>
    </g>
   </g>
   <g id="PolyCollection_4">
    <defs>
     <path id="mdf3ac66835" d="M 70.564703 -302.478125 
L 70.564703 -281.597158 
L 91.060571 -187.622767 
L 111.556439 -168.654984 
L 132.052306 -127.71198 
L 152.548174 -101.665948 
L 173.044042 -107.780923 
L 193.53991 -77.295422 
L 214.035777 -66.999411 
L 234.531645 -52.420368 
L 255.027513 -62.947734 
L 255.027513 -97.868354 
L 255.027513 -97.868354 
L 234.531645 -82.381949 
L 214.035777 -103.916504 
L 193.53991 -119.034932 
L 173.044042 -147.742992 
L 152.548174 -133.91765 
L 132.052306 -183.30909 
L 111.556439 -217.888882 
L 91.060571 -216.858631 
L 70.564703 -302.478125 
z
" style="stroke: #d9a1ab; stroke-opacity: 0.2"/>
    </defs>
    <g clip-path="url(#p86b1c43a60)">
     <use xlink:href="#mdf3ac66835" x="0" y="322.278125" style="fill: #d9a1ab; fill-opacity: 0.2; stroke: #d9a1ab; stroke-opacity: 0.2"/>
    </g>
   </g>
   <g id="PolyCollection_5">
    <defs>
     <path id="m3316ab0fa6" d="M 70.564703 -302.478125 
L 70.564703 -302.478125 
L 91.060571 -228.596263 
L 111.556439 -183.802454 
L 132.052306 -143.735676 
L 152.548174 -139.53805 
L 173.044042 -110.88345 
L 193.53991 -88.365607 
L 214.035777 -103.214597 
L 234.531645 -76.556614 
L 255.027513 -67.478291 
L 255.027513 -100.402567 
L 255.027513 -100.402567 
L 234.531645 -98.01025 
L 214.035777 -137.376919 
L 193.53991 -124.966099 
L 173.044042 -137.264283 
L 152.548174 -167.736935 
L 132.052306 -176.43587 
L 111.556439 -234.619332 
L 91.060571 -255.709205 
L 70.564703 -302.478125 
z
" style="stroke: #cf91a3; stroke-opacity: 0.2"/>
    </defs>
    <g clip-path="url(#p86b1c43a60)">
     <use xlink:href="#m3316ab0fa6" x="0" y="322.278125" style="fill: #cf91a3; fill-opacity: 0.2; stroke: #cf91a3; stroke-opacity: 0.2"/>
    </g>
   </g>
   <g id="PolyCollection_6">
    <defs>
     <path id="mefcbb4046d" d="M 70.564703 -302.478125 
L 70.564703 -302.478125 
L 91.060571 -238.40388 
L 111.556439 -184.79438 
L 132.052306 -166.815533 
L 152.548174 -127.300744 
L 173.044042 -131.575559 
L 193.53991 -99.6944 
L 214.035777 -87.614821 
L 234.531645 -76.868197 
L 255.027513 -89.003268 
L 255.027513 -125.732572 
L 255.027513 -125.732572 
L 234.531645 -102.254024 
L 214.035777 -124.449164 
L 193.53991 -138.010874 
L 173.044042 -155.976582 
L 152.548174 -165.742755 
L 132.052306 -184.631811 
L 111.556439 -224.906301 
L 91.060571 -266.65959 
L 70.564703 -302.478125 
z
" style="stroke: #c4829c; stroke-opacity: 0.2"/>
    </defs>
    <g clip-path="url(#p86b1c43a60)">
     <use xlink:href="#mefcbb4046d" x="0" y="322.278125" style="fill: #c4829c; fill-opacity: 0.2; stroke: #c4829c; stroke-opacity: 0.2"/>
    </g>
   </g>
   <g id="PolyCollection_7">
    <defs>
     <path id="m4f90b40984" d="M 70.564703 -302.478125 
L 70.564703 -302.478125 
L 91.060571 -254.750624 
L 111.556439 -206.394002 
L 132.052306 -182.11592 
L 152.548174 -149.536632 
L 173.044042 -135.829933 
L 193.53991 -127.70601 
L 214.035777 -111.855375 
L 234.531645 -86.597165 
L 255.027513 -82.889481 
L 255.027513 -119.180908 
L 255.027513 -119.180908 
L 234.531645 -124.890051 
L 214.035777 -159.424772 
L 193.53991 -154.998571 
L 173.044042 -166.950927 
L 152.548174 -188.627781 
L 132.052306 -212.342068 
L 111.556439 -247.856973 
L 91.060571 -291.628211 
L 70.564703 -302.478125 
z
" style="stroke: #b97596; stroke-opacity: 0.2"/>
    </defs>
    <g clip-path="url(#p86b1c43a60)">
     <use xlink:href="#m4f90b40984" x="0" y="322.278125" style="fill: #b97596; fill-opacity: 0.2; stroke: #b97596; stroke-opacity: 0.2"/>
    </g>
   </g>
   <g id="PolyCollection_8">
    <defs>
     <path id="m0e129d113b" d="M 70.564703 -302.478125 
L 70.564703 -302.478125 
L 91.060571 -302.478125 
L 111.556439 -229.350125 
L 132.052306 -192.302431 
L 152.548174 -176.001626 
L 173.044042 -137.924112 
L 193.53991 -140.434172 
L 214.035777 -113.248438 
L 234.531645 -105.556376 
L 255.027513 -80.033277 
L 255.027513 -112.662412 
L 255.027513 -112.662412 
L 234.531645 -131.383512 
L 214.035777 -139.480534 
L 193.53991 -175.310584 
L 173.044042 -168.745597 
L 152.548174 -197.201797 
L 132.052306 -222.236309 
L 111.556439 -258.149749 
L 91.060571 -302.478125 
L 70.564703 -302.478125 
z
" style="stroke: #a9678f; stroke-opacity: 0.2"/>
    </defs>
    <g clip-path="url(#p86b1c43a60)">
     <use xlink:href="#m0e129d113b" x="0" y="322.278125" style="fill: #a9678f; fill-opacity: 0.2; stroke: #a9678f; stroke-opacity: 0.2"/>
    </g>
   </g>
   <g id="PolyCollection_9">
    <defs>
     <path id="ma74acc42a3" d="M 70.564703 -302.478125 
L 70.564703 -302.478125 
L 91.060571 -293.08169 
L 111.556439 -261.816141 
L 132.052306 -218.878462 
L 152.548174 -182.767826 
L 173.044042 -164.733931 
L 193.53991 -139.948388 
L 214.035777 -133.283927 
L 234.531645 -109.994152 
L 255.027513 -102.329687 
L 255.027513 -132.593302 
L 255.027513 -132.593302 
L 234.531645 -132.792595 
L 214.035777 -159.640625 
L 193.53991 -176.759474 
L 173.044042 -201.408347 
L 152.548174 -201.415975 
L 132.052306 -240.579223 
L 111.556439 -276.446053 
L 91.060571 -302.478125 
L 70.564703 -302.478125 
z
" style="stroke: #995a88; stroke-opacity: 0.2"/>
    </defs>
    <g clip-path="url(#p86b1c43a60)">
     <use xlink:href="#ma74acc42a3" x="0" y="322.278125" style="fill: #995a88; fill-opacity: 0.2; stroke: #995a88; stroke-opacity: 0.2"/>
    </g>
   </g>
   <g id="PolyCollection_10">
    <defs>
     <path id="mdcb7c592bc" d="M 70.564703 -302.478125 
L 70.564703 -302.478125 
L 91.060571 -302.478125 
L 111.556439 -276.794536 
L 132.052306 -213.612323 
L 152.548174 -195.895959 
L 173.044042 -177.511756 
L 193.53991 -154.546687 
L 214.035777 -139.891236 
L 234.531645 -133.045804 
L 255.027513 -123.766255 
L 255.027513 -151.042844 
L 255.027513 -151.042844 
L 234.531645 -162.441254 
L 214.035777 -163.622536 
L 193.53991 -180.861955 
L 173.044042 -192.69177 
L 152.548174 -224.947872 
L 132.052306 -232.84742 
L 111.556439 -298.003632 
L 91.060571 -302.478125 
L 70.564703 -302.478125 
z
" style="stroke: #894f80; stroke-opacity: 0.2"/>
    </defs>
    <g clip-path="url(#p86b1c43a60)">
     <use xlink:href="#mdcb7c592bc" x="0" y="322.278125" style="fill: #894f80; fill-opacity: 0.2; stroke: #894f80; stroke-opacity: 0.2"/>
    </g>
   </g>
   <g id="PolyCollection_11">
    <defs>
     <path id="m19fea09028" d="M 70.564703 -302.478125 
L 70.564703 -302.478125 
L 91.060571 -302.478125 
L 111.556439 -286.883117 
L 132.052306 -241.500876 
L 152.548174 -214.971959 
L 173.044042 -182.691266 
L 193.53991 -179.865761 
L 214.035777 -147.20657 
L 234.531645 -131.380371 
L 255.027513 -121.564864 
L 255.027513 -143.04318 
L 255.027513 -143.04318 
L 234.531645 -156.802479 
L 214.035777 -175.958503 
L 193.53991 -213.880336 
L 173.044042 -213.579686 
L 152.548174 -244.833 
L 132.052306 -257.02605 
L 111.556439 -300.318025 
L 91.060571 -302.478125 
L 70.564703 -302.478125 
z
" style="stroke: #774576; stroke-opacity: 0.2"/>
    </defs>
    <g clip-path="url(#p86b1c43a60)">
     <use xlink:href="#m19fea09028" x="0" y="322.278125" style="fill: #774576; fill-opacity: 0.2; stroke: #774576; stroke-opacity: 0.2"/>
    </g>
   </g>
   <g id="PolyCollection_12">
    <defs>
     <path id="m36f614ecd7" d="M 70.564703 -302.478125 
L 70.564703 -302.478125 
L 91.060571 -302.478125 
L 111.556439 -289.949545 
L 132.052306 -241.980103 
L 152.548174 -222.308336 
L 173.044042 -211.501732 
L 193.53991 -183.650009 
L 214.035777 -163.912626 
L 234.531645 -151.156291 
L 255.027513 -123.619271 
L 255.027513 -153.66701 
L 255.027513 -153.66701 
L 234.531645 -171.114607 
L 214.035777 -184.073001 
L 193.53991 -208.144758 
L 173.044042 -231.372403 
L 152.548174 -243.694356 
L 132.052306 -262.439933 
L 111.556439 -302.478125 
L 91.060571 -302.478125 
L 70.564703 -302.478125 
z
" style="stroke: #643a6b; stroke-opacity: 0.2"/>
    </defs>
    <g clip-path="url(#p86b1c43a60)">
     <use xlink:href="#m36f614ecd7" x="0" y="322.278125" style="fill: #643a6b; fill-opacity: 0.2; stroke: #643a6b; stroke-opacity: 0.2"/>
    </g>
   </g>
   <g id="PolyCollection_13">
    <defs>
     <path id="mbf7388d157" d="M 70.564703 -302.478125 
L 70.564703 -302.478125 
L 91.060571 -302.478125 
L 111.556439 -302.478125 
L 132.052306 -268.964 
L 152.548174 -234.042124 
L 173.044042 -201.279476 
L 193.53991 -196.522804 
L 214.035777 -164.426528 
L 234.531645 -149.245288 
L 255.027513 -144.16338 
L 255.027513 -170.431136 
L 255.027513 -170.431136 
L 234.531645 -173.521736 
L 214.035777 -189.247077 
L 193.53991 -220.80612 
L 173.044042 -223.732209 
L 152.548174 -258.233314 
L 132.052306 -292.345502 
L 111.556439 -302.478125 
L 91.060571 -302.478125 
L 70.564703 -302.478125 
z
" style="stroke: #50305d; stroke-opacity: 0.2"/>
    </defs>
    <g clip-path="url(#p86b1c43a60)">
     <use xlink:href="#mbf7388d157" x="0" y="322.278125" style="fill: #50305d; fill-opacity: 0.2; stroke: #50305d; stroke-opacity: 0.2"/>
    </g>
   </g>
   <g id="PolyCollection_14">
    <defs>
     <path id="mc13daedf9f" d="M 70.564703 -302.478125 
L 70.564703 -302.478125 
L 91.060571 -302.478125 
L 111.556439 -302.478125 
L 132.052306 -279.593064 
L 152.548174 -250.211059 
L 173.044042 -214.718945 
L 193.53991 -203.518661 
L 214.035777 -195.629793 
L 234.531645 -165.633133 
L 255.027513 -156.6225 
L 255.027513 -166.34677 
L 255.027513 -166.34677 
L 234.531645 -181.891841 
L 214.035777 -214.821517 
L 193.53991 -214.997787 
L 173.044042 -234.286555 
L 152.548174 -266.827582 
L 132.052306 -294.405771 
L 111.556439 -302.478125 
L 91.060571 -302.478125 
L 70.564703 -302.478125 
z
" style="stroke: #3f284f; stroke-opacity: 0.2"/>
    </defs>
    <g clip-path="url(#p86b1c43a60)">
     <use xlink:href="#mc13daedf9f" x="0" y="322.278125" style="fill: #3f284f; fill-opacity: 0.2; stroke: #3f284f; stroke-opacity: 0.2"/>
    </g>
   </g>
   <g id="PolyCollection_15">
    <defs>
     <path id="m0214b69a45" d="M 70.564703 -302.478125 
L 70.564703 -302.478125 
L 91.060571 -302.478125 
L 111.556439 -302.478125 
L 132.052306 -292.921067 
L 152.548174 -257.49725 
L 173.044042 -231.488919 
L 193.53991 -212.389832 
L 214.035777 -185.469513 
L 234.531645 -169.853069 
L 255.027513 -164.173195 
L 255.027513 -183.688911 
L 255.027513 -183.688911 
L 234.531645 -187.037287 
L 214.035777 -206.762911 
L 193.53991 -225.586702 
L 173.044042 -245.74329 
L 152.548174 -282.193983 
L 132.052306 -302.478125 
L 111.556439 -302.478125 
L 91.060571 -302.478125 
L 70.564703 -302.478125 
z
" style="stroke: #2d1e3e; stroke-opacity: 0.2"/>
    </defs>
    <g clip-path="url(#p86b1c43a60)">
     <use xlink:href="#m0214b69a45" x="0" y="322.278125" style="fill: #2d1e3e; fill-opacity: 0.2; stroke: #2d1e3e; stroke-opacity: 0.2"/>
    </g>
   </g>
   <g id="matplotlib.axis_1">
    <g id="xtick_1">
     <g id="line2d_1">
      <defs>
       <path id="m146b64b704" d="M 0 0 
L 0 3.5 
" style="stroke: #000000; stroke-width: 0.8"/>
      </defs>
      <g>
       <use xlink:href="#m146b64b704" x="91.060571" y="284.4" style="stroke: #000000; stroke-width: 0.8"/>
      </g>
     </g>
     <g id="text_1">
      <!-- 20 -->
      <g transform="translate(84.698071 298.998437) scale(0.1 -0.1)">
       <defs>
        <path id="DejaVuSans-32" d="M 1228 531 
L 3431 531 
L 3431 0 
L 469 0 
L 469 531 
Q 828 903 1448 1529 
Q 2069 2156 2228 2338 
Q 2531 2678 2651 2914 
Q 2772 3150 2772 3378 
Q 2772 3750 2511 3984 
Q 2250 4219 1831 4219 
Q 1534 4219 1204 4116 
Q 875 4013 500 3803 
L 500 4441 
Q 881 4594 1212 4672 
Q 1544 4750 1819 4750 
Q 2544 4750 2975 4387 
Q 3406 4025 3406 3419 
Q 3406 3131 3298 2873 
Q 3191 2616 2906 2266 
Q 2828 2175 2409 1742 
Q 1991 1309 1228 531 
z
" transform="scale(0.015625)"/>
        <path id="DejaVuSans-30" d="M 2034 4250 
Q 1547 4250 1301 3770 
Q 1056 3291 1056 2328 
Q 1056 1369 1301 889 
Q 1547 409 2034 409 
Q 2525 409 2770 889 
Q 3016 1369 3016 2328 
Q 3016 3291 2770 3770 
Q 2525 4250 2034 4250 
z
M 2034 4750 
Q 2819 4750 3233 4129 
Q 3647 3509 3647 2328 
Q 3647 1150 3233 529 
Q 2819 -91 2034 -91 
Q 1250 -91 836 529 
Q 422 1150 422 2328 
Q 422 3509 836 4129 
Q 1250 4750 2034 4750 
z
" transform="scale(0.015625)"/>
       </defs>
       <use xlink:href="#DejaVuSans-32"/>
       <use xlink:href="#DejaVuSans-30" x="63.623047"/>
      </g>
     </g>
    </g>
    <g id="xtick_2">
     <g id="line2d_2">
      <g>
       <use xlink:href="#m146b64b704" x="132.052306" y="284.4" style="stroke: #000000; stroke-width: 0.8"/>
      </g>
     </g>
     <g id="text_2">
      <!-- 40 -->
      <g transform="translate(125.689806 298.998437) scale(0.1 -0.1)">
       <defs>
        <path id="DejaVuSans-34" d="M 2419 4116 
L 825 1625 
L 2419 1625 
L 2419 4116 
z
M 2253 4666 
L 3047 4666 
L 3047 1625 
L 3713 1625 
L 3713 1100 
L 3047 1100 
L 3047 0 
L 2419 0 
L 2419 1100 
L 313 1100 
L 313 1709 
L 2253 4666 
z
" transform="scale(0.015625)"/>
       </defs>
       <use xlink:href="#DejaVuSans-34"/>
       <use xlink:href="#DejaVuSans-30" x="63.623047"/>
      </g>
     </g>
    </g>
    <g id="xtick_3">
     <g id="line2d_3">
      <g>
       <use xlink:href="#m146b64b704" x="173.044042" y="284.4" style="stroke: #000000; stroke-width: 0.8"/>
      </g>
     </g>
     <g id="text_3">
      <!-- 60 -->
      <g transform="translate(166.681542 298.998437) scale(0.1 -0.1)">
       <defs>
        <path id="DejaVuSans-36" d="M 2113 2584 
Q 1688 2584 1439 2293 
Q 1191 2003 1191 1497 
Q 1191 994 1439 701 
Q 1688 409 2113 409 
Q 2538 409 2786 701 
Q 3034 994 3034 1497 
Q 3034 2003 2786 2293 
Q 2538 2584 2113 2584 
z
M 3366 4563 
L 3366 3988 
Q 3128 4100 2886 4159 
Q 2644 4219 2406 4219 
Q 1781 4219 1451 3797 
Q 1122 3375 1075 2522 
Q 1259 2794 1537 2939 
Q 1816 3084 2150 3084 
Q 2853 3084 3261 2657 
Q 3669 2231 3669 1497 
Q 3669 778 3244 343 
Q 2819 -91 2113 -91 
Q 1303 -91 875 529 
Q 447 1150 447 2328 
Q 447 3434 972 4092 
Q 1497 4750 2381 4750 
Q 2619 4750 2861 4703 
Q 3103 4656 3366 4563 
z
" transform="scale(0.015625)"/>
       </defs>
       <use xlink:href="#DejaVuSans-36"/>
       <use xlink:href="#DejaVuSans-30" x="63.623047"/>
      </g>
     </g>
    </g>
    <g id="xtick_4">
     <g id="line2d_4">
      <g>
       <use xlink:href="#m146b64b704" x="214.035777" y="284.4" style="stroke: #000000; stroke-width: 0.8"/>
      </g>
     </g>
     <g id="text_4">
      <!-- 80 -->
      <g transform="translate(207.673277 298.998437) scale(0.1 -0.1)">
       <defs>
        <path id="DejaVuSans-38" d="M 2034 2216 
Q 1584 2216 1326 1975 
Q 1069 1734 1069 1313 
Q 1069 891 1326 650 
Q 1584 409 2034 409 
Q 2484 409 2743 651 
Q 3003 894 3003 1313 
Q 3003 1734 2745 1975 
Q 2488 2216 2034 2216 
z
M 1403 2484 
Q 997 2584 770 2862 
Q 544 3141 544 3541 
Q 544 4100 942 4425 
Q 1341 4750 2034 4750 
Q 2731 4750 3128 4425 
Q 3525 4100 3525 3541 
Q 3525 3141 3298 2862 
Q 3072 2584 2669 2484 
Q 3125 2378 3379 2068 
Q 3634 1759 3634 1313 
Q 3634 634 3220 271 
Q 2806 -91 2034 -91 
Q 1263 -91 848 271 
Q 434 634 434 1313 
Q 434 1759 690 2068 
Q 947 2378 1403 2484 
z
M 1172 3481 
Q 1172 3119 1398 2916 
Q 1625 2713 2034 2713 
Q 2441 2713 2670 2916 
Q 2900 3119 2900 3481 
Q 2900 3844 2670 4047 
Q 2441 4250 2034 4250 
Q 1625 4250 1398 4047 
Q 1172 3844 1172 3481 
z
" transform="scale(0.015625)"/>
       </defs>
       <use xlink:href="#DejaVuSans-38"/>
       <use xlink:href="#DejaVuSans-30" x="63.623047"/>
      </g>
     </g>
    </g>
    <g id="xtick_5">
     <g id="line2d_5">
      <g>
       <use xlink:href="#m146b64b704" x="255.027513" y="284.4" style="stroke: #000000; stroke-width: 0.8"/>
      </g>
     </g>
     <g id="text_5">
      <!-- 100 -->
      <g transform="translate(245.483763 298.998437) scale(0.1 -0.1)">
       <defs>
        <path id="DejaVuSans-31" d="M 794 531 
L 1825 531 
L 1825 4091 
L 703 3866 
L 703 4441 
L 1819 4666 
L 2450 4666 
L 2450 531 
L 3481 531 
L 3481 0 
L 794 0 
L 794 531 
z
" transform="scale(0.015625)"/>
       </defs>
       <use xlink:href="#DejaVuSans-31"/>
       <use xlink:href="#DejaVuSans-30" x="63.623047"/>
       <use xlink:href="#DejaVuSans-30" x="127.246094"/>
      </g>
     </g>
    </g>
    <g id="text_6">
     <!-- Library size |R| -->
     <g transform="translate(125.596889 312.720312) scale(0.1 -0.1)">
      <defs>
       <path id="DejaVuSans-4c" d="M 628 4666 
L 1259 4666 
L 1259 531 
L 3531 531 
L 3531 0 
L 628 0 
L 628 4666 
z
" transform="scale(0.015625)"/>
       <path id="DejaVuSans-69" d="M 603 3500 
L 1178 3500 
L 1178 0 
L 603 0 
L 603 3500 
z
M 603 4863 
L 1178 4863 
L 1178 4134 
L 603 4134 
L 603 4863 
z
" transform="scale(0.015625)"/>
       <path id="DejaVuSans-62" d="M 3116 1747 
Q 3116 2381 2855 2742 
Q 2594 3103 2138 3103 
Q 1681 3103 1420 2742 
Q 1159 2381 1159 1747 
Q 1159 1113 1420 752 
Q 1681 391 2138 391 
Q 2594 391 2855 752 
Q 3116 1113 3116 1747 
z
M 1159 2969 
Q 1341 3281 1617 3432 
Q 1894 3584 2278 3584 
Q 2916 3584 3314 3078 
Q 3713 2572 3713 1747 
Q 3713 922 3314 415 
Q 2916 -91 2278 -91 
Q 1894 -91 1617 61 
Q 1341 213 1159 525 
L 1159 0 
L 581 0 
L 581 4863 
L 1159 4863 
L 1159 2969 
z
" transform="scale(0.015625)"/>
       <path id="DejaVuSans-72" d="M 2631 2963 
Q 2534 3019 2420 3045 
Q 2306 3072 2169 3072 
Q 1681 3072 1420 2755 
Q 1159 2438 1159 1844 
L 1159 0 
L 581 0 
L 581 3500 
L 1159 3500 
L 1159 2956 
Q 1341 3275 1631 3429 
Q 1922 3584 2338 3584 
Q 2397 3584 2469 3576 
Q 2541 3569 2628 3553 
L 2631 2963 
z
" transform="scale(0.015625)"/>
       <path id="DejaVuSans-61" d="M 2194 1759 
Q 1497 1759 1228 1600 
Q 959 1441 959 1056 
Q 959 750 1161 570 
Q 1363 391 1709 391 
Q 2188 391 2477 730 
Q 2766 1069 2766 1631 
L 2766 1759 
L 2194 1759 
z
M 3341 1997 
L 3341 0 
L 2766 0 
L 2766 531 
Q 2569 213 2275 61 
Q 1981 -91 1556 -91 
Q 1019 -91 701 211 
Q 384 513 384 1019 
Q 384 1609 779 1909 
Q 1175 2209 1959 2209 
L 2766 2209 
L 2766 2266 
Q 2766 2663 2505 2880 
Q 2244 3097 1772 3097 
Q 1472 3097 1187 3025 
Q 903 2953 641 2809 
L 641 3341 
Q 956 3463 1253 3523 
Q 1550 3584 1831 3584 
Q 2591 3584 2966 3190 
Q 3341 2797 3341 1997 
z
" transform="scale(0.015625)"/>
       <path id="DejaVuSans-79" d="M 2059 -325 
Q 1816 -950 1584 -1140 
Q 1353 -1331 966 -1331 
L 506 -1331 
L 506 -850 
L 844 -850 
Q 1081 -850 1212 -737 
Q 1344 -625 1503 -206 
L 1606 56 
L 191 3500 
L 800 3500 
L 1894 763 
L 2988 3500 
L 3597 3500 
L 2059 -325 
z
" transform="scale(0.015625)"/>
       <path id="DejaVuSans-20" transform="scale(0.015625)"/>
       <path id="DejaVuSans-73" d="M 2834 3397 
L 2834 2853 
Q 2591 2978 2328 3040 
Q 2066 3103 1784 3103 
Q 1356 3103 1142 2972 
Q 928 2841 928 2578 
Q 928 2378 1081 2264 
Q 1234 2150 1697 2047 
L 1894 2003 
Q 2506 1872 2764 1633 
Q 3022 1394 3022 966 
Q 3022 478 2636 193 
Q 2250 -91 1575 -91 
Q 1294 -91 989 -36 
Q 684 19 347 128 
L 347 722 
Q 666 556 975 473 
Q 1284 391 1588 391 
Q 1994 391 2212 530 
Q 2431 669 2431 922 
Q 2431 1156 2273 1281 
Q 2116 1406 1581 1522 
L 1381 1569 
Q 847 1681 609 1914 
Q 372 2147 372 2553 
Q 372 3047 722 3315 
Q 1072 3584 1716 3584 
Q 2034 3584 2315 3537 
Q 2597 3491 2834 3397 
z
" transform="scale(0.015625)"/>
       <path id="DejaVuSans-7a" d="M 353 3500 
L 3084 3500 
L 3084 2975 
L 922 459 
L 3084 459 
L 3084 0 
L 275 0 
L 275 525 
L 2438 3041 
L 353 3041 
L 353 3500 
z
" transform="scale(0.015625)"/>
       <path id="DejaVuSans-65" d="M 3597 1894 
L 3597 1613 
L 953 1613 
Q 991 1019 1311 708 
Q 1631 397 2203 397 
Q 2534 397 2845 478 
Q 3156 559 3463 722 
L 3463 178 
Q 3153 47 2828 -22 
Q 2503 -91 2169 -91 
Q 1331 -91 842 396 
Q 353 884 353 1716 
Q 353 2575 817 3079 
Q 1281 3584 2069 3584 
Q 2775 3584 3186 3129 
Q 3597 2675 3597 1894 
z
M 3022 2063 
Q 3016 2534 2758 2815 
Q 2500 3097 2075 3097 
Q 1594 3097 1305 2825 
Q 1016 2553 972 2059 
L 3022 2063 
z
" transform="scale(0.015625)"/>
       <path id="DejaVuSans-7c" d="M 1344 4891 
L 1344 -1509 
L 813 -1509 
L 813 4891 
L 1344 4891 
z
" transform="scale(0.015625)"/>
       <path id="DejaVuSans-52" d="M 2841 2188 
Q 3044 2119 3236 1894 
Q 3428 1669 3622 1275 
L 4263 0 
L 3584 0 
L 2988 1197 
Q 2756 1666 2539 1819 
Q 2322 1972 1947 1972 
L 1259 1972 
L 1259 0 
L 628 0 
L 628 4666 
L 2053 4666 
Q 2853 4666 3247 4331 
Q 3641 3997 3641 3322 
Q 3641 2881 3436 2590 
Q 3231 2300 2841 2188 
z
M 1259 4147 
L 1259 2491 
L 2053 2491 
Q 2509 2491 2742 2702 
Q 2975 2913 2975 3322 
Q 2975 3731 2742 3939 
Q 2509 4147 2053 4147 
L 1259 4147 
z
" transform="scale(0.015625)"/>
      </defs>
      <use xlink:href="#DejaVuSans-4c"/>
      <use xlink:href="#DejaVuSans-69" x="55.712891"/>
      <use xlink:href="#DejaVuSans-62" x="83.496094"/>
      <use xlink:href="#DejaVuSans-72" x="146.972656"/>
      <use xlink:href="#DejaVuSans-61" x="188.085938"/>
      <use xlink:href="#DejaVuSans-72" x="249.365234"/>
      <use xlink:href="#DejaVuSans-79" x="290.478516"/>
      <use xlink:href="#DejaVuSans-20" x="349.658203"/>
      <use xlink:href="#DejaVuSans-73" x="381.445312"/>
      <use xlink:href="#DejaVuSans-69" x="433.544922"/>
      <use xlink:href="#DejaVuSans-7a" x="461.328125"/>
      <use xlink:href="#DejaVuSans-65" x="513.818359"/>
      <use xlink:href="#DejaVuSans-20" x="575.341797"/>
      <use xlink:href="#DejaVuSans-7c" x="607.128906"/>
      <use xlink:href="#DejaVuSans-52" x="640.820312"/>
      <use xlink:href="#DejaVuSans-7c" x="710.302734"/>
     </g>
    </g>
   </g>
   <g id="matplotlib.axis_2">
    <g id="ytick_1">
     <g id="line2d_6">
      <defs>
       <path id="mecb8b9de99" d="M 0 0 
L -3.5 0 
" style="stroke: #000000; stroke-width: 0.8"/>
      </defs>
      <g>
       <use xlink:href="#mecb8b9de99" x="61.341563" y="270.371604" style="stroke: #000000; stroke-width: 0.8"/>
      </g>
     </g>
     <g id="text_7">
      <!-- 0.60 -->
      <g transform="translate(32.075938 274.170823) scale(0.1 -0.1)">
       <defs>
        <path id="DejaVuSans-2e" d="M 684 794 
L 1344 794 
L 1344 0 
L 684 0 
L 684 794 
z
" transform="scale(0.015625)"/>
       </defs>
       <use xlink:href="#DejaVuSans-30"/>
       <use xlink:href="#DejaVuSans-2e" x="63.623047"/>
       <use xlink:href="#DejaVuSans-36" x="95.410156"/>
       <use xlink:href="#DejaVuSans-30" x="159.033203"/>
      </g>
     </g>
    </g>
    <g id="ytick_2">
     <g id="line2d_7">
      <g>
       <use xlink:href="#mecb8b9de99" x="61.341563" y="239.050154" style="stroke: #000000; stroke-width: 0.8"/>
      </g>
     </g>
     <g id="text_8">
      <!-- 0.65 -->
      <g transform="translate(32.075938 242.849372) scale(0.1 -0.1)">
       <defs>
        <path id="DejaVuSans-35" d="M 691 4666 
L 3169 4666 
L 3169 4134 
L 1269 4134 
L 1269 2991 
Q 1406 3038 1543 3061 
Q 1681 3084 1819 3084 
Q 2600 3084 3056 2656 
Q 3513 2228 3513 1497 
Q 3513 744 3044 326 
Q 2575 -91 1722 -91 
Q 1428 -91 1123 -41 
Q 819 9 494 109 
L 494 744 
Q 775 591 1075 516 
Q 1375 441 1709 441 
Q 2250 441 2565 725 
Q 2881 1009 2881 1497 
Q 2881 1984 2565 2268 
Q 2250 2553 1709 2553 
Q 1456 2553 1204 2497 
Q 953 2441 691 2322 
L 691 4666 
z
" transform="scale(0.015625)"/>
       </defs>
       <use xlink:href="#DejaVuSans-30"/>
       <use xlink:href="#DejaVuSans-2e" x="63.623047"/>
       <use xlink:href="#DejaVuSans-36" x="95.410156"/>
       <use xlink:href="#DejaVuSans-35" x="159.033203"/>
      </g>
     </g>
    </g>
    <g id="ytick_3">
     <g id="line2d_8">
      <g>
       <use xlink:href="#mecb8b9de99" x="61.341563" y="207.728703" style="stroke: #000000; stroke-width: 0.8"/>
      </g>
     </g>
     <g id="text_9">
      <!-- 0.70 -->
      <g transform="translate(32.075938 211.527922) scale(0.1 -0.1)">
       <defs>
        <path id="DejaVuSans-37" d="M 525 4666 
L 3525 4666 
L 3525 4397 
L 1831 0 
L 1172 0 
L 2766 4134 
L 525 4134 
L 525 4666 
z
" transform="scale(0.015625)"/>
       </defs>
       <use xlink:href="#DejaVuSans-30"/>
       <use xlink:href="#DejaVuSans-2e" x="63.623047"/>
       <use xlink:href="#DejaVuSans-37" x="95.410156"/>
       <use xlink:href="#DejaVuSans-30" x="159.033203"/>
      </g>
     </g>
    </g>
    <g id="ytick_4">
     <g id="line2d_9">
      <g>
       <use xlink:href="#mecb8b9de99" x="61.341563" y="176.407253" style="stroke: #000000; stroke-width: 0.8"/>
      </g>
     </g>
     <g id="text_10">
      <!-- 0.75 -->
      <g transform="translate(32.075938 180.206471) scale(0.1 -0.1)">
       <use xlink:href="#DejaVuSans-30"/>
       <use xlink:href="#DejaVuSans-2e" x="63.623047"/>
       <use xlink:href="#DejaVuSans-37" x="95.410156"/>
       <use xlink:href="#DejaVuSans-35" x="159.033203"/>
      </g>
     </g>
    </g>
    <g id="ytick_5">
     <g id="line2d_10">
      <g>
       <use xlink:href="#mecb8b9de99" x="61.341563" y="145.085802" style="stroke: #000000; stroke-width: 0.8"/>
      </g>
     </g>
     <g id="text_11">
      <!-- 0.80 -->
      <g transform="translate(32.075938 148.885021) scale(0.1 -0.1)">
       <use xlink:href="#DejaVuSans-30"/>
       <use xlink:href="#DejaVuSans-2e" x="63.623047"/>
       <use xlink:href="#DejaVuSans-38" x="95.410156"/>
       <use xlink:href="#DejaVuSans-30" x="159.033203"/>
      </g>
     </g>
    </g>
    <g id="ytick_6">
     <g id="line2d_11">
      <g>
       <use xlink:href="#mecb8b9de99" x="61.341563" y="113.764352" style="stroke: #000000; stroke-width: 0.8"/>
      </g>
     </g>
     <g id="text_12">
      <!-- 0.85 -->
      <g transform="translate(32.075938 117.56357) scale(0.1 -0.1)">
       <use xlink:href="#DejaVuSans-30"/>
       <use xlink:href="#DejaVuSans-2e" x="63.623047"/>
       <use xlink:href="#DejaVuSans-38" x="95.410156"/>
       <use xlink:href="#DejaVuSans-35" x="159.033203"/>
      </g>
     </g>
    </g>
    <g id="ytick_7">
     <g id="line2d_12">
      <g>
       <use xlink:href="#mecb8b9de99" x="61.341563" y="82.442901" style="stroke: #000000; stroke-width: 0.8"/>
      </g>
     </g>
     <g id="text_13">
      <!-- 0.90 -->
      <g transform="translate(32.075938 86.24212) scale(0.1 -0.1)">
       <defs>
        <path id="DejaVuSans-39" d="M 703 97 
L 703 672 
Q 941 559 1184 500 
Q 1428 441 1663 441 
Q 2288 441 2617 861 
Q 2947 1281 2994 2138 
Q 2813 1869 2534 1725 
Q 2256 1581 1919 1581 
Q 1219 1581 811 2004 
Q 403 2428 403 3163 
Q 403 3881 828 4315 
Q 1253 4750 1959 4750 
Q 2769 4750 3195 4129 
Q 3622 3509 3622 2328 
Q 3622 1225 3098 567 
Q 2575 -91 1691 -91 
Q 1453 -91 1209 -44 
Q 966 3 703 97 
z
M 1959 2075 
Q 2384 2075 2632 2365 
Q 2881 2656 2881 3163 
Q 2881 3666 2632 3958 
Q 2384 4250 1959 4250 
Q 1534 4250 1286 3958 
Q 1038 3666 1038 3163 
Q 1038 2656 1286 2365 
Q 1534 2075 1959 2075 
z
" transform="scale(0.015625)"/>
       </defs>
       <use xlink:href="#DejaVuSans-30"/>
       <use xlink:href="#DejaVuSans-2e" x="63.623047"/>
       <use xlink:href="#DejaVuSans-39" x="95.410156"/>
       <use xlink:href="#DejaVuSans-30" x="159.033203"/>
      </g>
     </g>
    </g>
    <g id="ytick_8">
     <g id="line2d_13">
      <g>
       <use xlink:href="#mecb8b9de99" x="61.341563" y="51.121451" style="stroke: #000000; stroke-width: 0.8"/>
      </g>
     </g>
     <g id="text_14">
      <!-- 0.95 -->
      <g transform="translate(32.075938 54.920669) scale(0.1 -0.1)">
       <use xlink:href="#DejaVuSans-30"/>
       <use xlink:href="#DejaVuSans-2e" x="63.623047"/>
       <use xlink:href="#DejaVuSans-39" x="95.410156"/>
       <use xlink:href="#DejaVuSans-35" x="159.033203"/>
      </g>
     </g>
    </g>
    <g id="ytick_9">
     <g id="line2d_14">
      <g>
       <use xlink:href="#mecb8b9de99" x="61.341563" y="19.8" style="stroke: #000000; stroke-width: 0.8"/>
      </g>
     </g>
     <g id="text_15">
      <!-- 1.00 -->
      <g transform="translate(32.075938 23.599219) scale(0.1 -0.1)">
       <use xlink:href="#DejaVuSans-31"/>
       <use xlink:href="#DejaVuSans-2e" x="63.623047"/>
       <use xlink:href="#DejaVuSans-30" x="95.410156"/>
       <use xlink:href="#DejaVuSans-30" x="159.033203"/>
      </g>
     </g>
    </g>
    <g id="text_16">
     <!-- Proportion of binding sites included by the greedy algorithm -->
     <g transform="translate(14.798438 296.564844) rotate(-90) scale(0.1 -0.1)">
      <defs>
       <path id="DejaVuSans-50" d="M 1259 4147 
L 1259 2394 
L 2053 2394 
Q 2494 2394 2734 2622 
Q 2975 2850 2975 3272 
Q 2975 3691 2734 3919 
Q 2494 4147 2053 4147 
L 1259 4147 
z
M 628 4666 
L 2053 4666 
Q 2838 4666 3239 4311 
Q 3641 3956 3641 3272 
Q 3641 2581 3239 2228 
Q 2838 1875 2053 1875 
L 1259 1875 
L 1259 0 
L 628 0 
L 628 4666 
z
" transform="scale(0.015625)"/>
       <path id="DejaVuSans-6f" d="M 1959 3097 
Q 1497 3097 1228 2736 
Q 959 2375 959 1747 
Q 959 1119 1226 758 
Q 1494 397 1959 397 
Q 2419 397 2687 759 
Q 2956 1122 2956 1747 
Q 2956 2369 2687 2733 
Q 2419 3097 1959 3097 
z
M 1959 3584 
Q 2709 3584 3137 3096 
Q 3566 2609 3566 1747 
Q 3566 888 3137 398 
Q 2709 -91 1959 -91 
Q 1206 -91 779 398 
Q 353 888 353 1747 
Q 353 2609 779 3096 
Q 1206 3584 1959 3584 
z
" transform="scale(0.015625)"/>
       <path id="DejaVuSans-70" d="M 1159 525 
L 1159 -1331 
L 581 -1331 
L 581 3500 
L 1159 3500 
L 1159 2969 
Q 1341 3281 1617 3432 
Q 1894 3584 2278 3584 
Q 2916 3584 3314 3078 
Q 3713 2572 3713 1747 
Q 3713 922 3314 415 
Q 2916 -91 2278 -91 
Q 1894 -91 1617 61 
Q 1341 213 1159 525 
z
M 3116 1747 
Q 3116 2381 2855 2742 
Q 2594 3103 2138 3103 
Q 1681 3103 1420 2742 
Q 1159 2381 1159 1747 
Q 1159 1113 1420 752 
Q 1681 391 2138 391 
Q 2594 391 2855 752 
Q 3116 1113 3116 1747 
z
" transform="scale(0.015625)"/>
       <path id="DejaVuSans-74" d="M 1172 4494 
L 1172 3500 
L 2356 3500 
L 2356 3053 
L 1172 3053 
L 1172 1153 
Q 1172 725 1289 603 
Q 1406 481 1766 481 
L 2356 481 
L 2356 0 
L 1766 0 
Q 1100 0 847 248 
Q 594 497 594 1153 
L 594 3053 
L 172 3053 
L 172 3500 
L 594 3500 
L 594 4494 
L 1172 4494 
z
" transform="scale(0.015625)"/>
       <path id="DejaVuSans-6e" d="M 3513 2113 
L 3513 0 
L 2938 0 
L 2938 2094 
Q 2938 2591 2744 2837 
Q 2550 3084 2163 3084 
Q 1697 3084 1428 2787 
Q 1159 2491 1159 1978 
L 1159 0 
L 581 0 
L 581 3500 
L 1159 3500 
L 1159 2956 
Q 1366 3272 1645 3428 
Q 1925 3584 2291 3584 
Q 2894 3584 3203 3211 
Q 3513 2838 3513 2113 
z
" transform="scale(0.015625)"/>
       <path id="DejaVuSans-66" d="M 2375 4863 
L 2375 4384 
L 1825 4384 
Q 1516 4384 1395 4259 
Q 1275 4134 1275 3809 
L 1275 3500 
L 2222 3500 
L 2222 3053 
L 1275 3053 
L 1275 0 
L 697 0 
L 697 3053 
L 147 3053 
L 147 3500 
L 697 3500 
L 697 3744 
Q 697 4328 969 4595 
Q 1241 4863 1831 4863 
L 2375 4863 
z
" transform="scale(0.015625)"/>
       <path id="DejaVuSans-64" d="M 2906 2969 
L 2906 4863 
L 3481 4863 
L 3481 0 
L 2906 0 
L 2906 525 
Q 2725 213 2448 61 
Q 2172 -91 1784 -91 
Q 1150 -91 751 415 
Q 353 922 353 1747 
Q 353 2572 751 3078 
Q 1150 3584 1784 3584 
Q 2172 3584 2448 3432 
Q 2725 3281 2906 2969 
z
M 947 1747 
Q 947 1113 1208 752 
Q 1469 391 1925 391 
Q 2381 391 2643 752 
Q 2906 1113 2906 1747 
Q 2906 2381 2643 2742 
Q 2381 3103 1925 3103 
Q 1469 3103 1208 2742 
Q 947 2381 947 1747 
z
" transform="scale(0.015625)"/>
       <path id="DejaVuSans-67" d="M 2906 1791 
Q 2906 2416 2648 2759 
Q 2391 3103 1925 3103 
Q 1463 3103 1205 2759 
Q 947 2416 947 1791 
Q 947 1169 1205 825 
Q 1463 481 1925 481 
Q 2391 481 2648 825 
Q 2906 1169 2906 1791 
z
M 3481 434 
Q 3481 -459 3084 -895 
Q 2688 -1331 1869 -1331 
Q 1566 -1331 1297 -1286 
Q 1028 -1241 775 -1147 
L 775 -588 
Q 1028 -725 1275 -790 
Q 1522 -856 1778 -856 
Q 2344 -856 2625 -561 
Q 2906 -266 2906 331 
L 2906 616 
Q 2728 306 2450 153 
Q 2172 0 1784 0 
Q 1141 0 747 490 
Q 353 981 353 1791 
Q 353 2603 747 3093 
Q 1141 3584 1784 3584 
Q 2172 3584 2450 3431 
Q 2728 3278 2906 2969 
L 2906 3500 
L 3481 3500 
L 3481 434 
z
" transform="scale(0.015625)"/>
       <path id="DejaVuSans-63" d="M 3122 3366 
L 3122 2828 
Q 2878 2963 2633 3030 
Q 2388 3097 2138 3097 
Q 1578 3097 1268 2742 
Q 959 2388 959 1747 
Q 959 1106 1268 751 
Q 1578 397 2138 397 
Q 2388 397 2633 464 
Q 2878 531 3122 666 
L 3122 134 
Q 2881 22 2623 -34 
Q 2366 -91 2075 -91 
Q 1284 -91 818 406 
Q 353 903 353 1747 
Q 353 2603 823 3093 
Q 1294 3584 2113 3584 
Q 2378 3584 2631 3529 
Q 2884 3475 3122 3366 
z
" transform="scale(0.015625)"/>
       <path id="DejaVuSans-6c" d="M 603 4863 
L 1178 4863 
L 1178 0 
L 603 0 
L 603 4863 
z
" transform="scale(0.015625)"/>
       <path id="DejaVuSans-75" d="M 544 1381 
L 544 3500 
L 1119 3500 
L 1119 1403 
Q 1119 906 1312 657 
Q 1506 409 1894 409 
Q 2359 409 2629 706 
Q 2900 1003 2900 1516 
L 2900 3500 
L 3475 3500 
L 3475 0 
L 2900 0 
L 2900 538 
Q 2691 219 2414 64 
Q 2138 -91 1772 -91 
Q 1169 -91 856 284 
Q 544 659 544 1381 
z
M 1991 3584 
L 1991 3584 
z
" transform="scale(0.015625)"/>
       <path id="DejaVuSans-68" d="M 3513 2113 
L 3513 0 
L 2938 0 
L 2938 2094 
Q 2938 2591 2744 2837 
Q 2550 3084 2163 3084 
Q 1697 3084 1428 2787 
Q 1159 2491 1159 1978 
L 1159 0 
L 581 0 
L 581 4863 
L 1159 4863 
L 1159 2956 
Q 1366 3272 1645 3428 
Q 1925 3584 2291 3584 
Q 2894 3584 3203 3211 
Q 3513 2838 3513 2113 
z
" transform="scale(0.015625)"/>
       <path id="DejaVuSans-6d" d="M 3328 2828 
Q 3544 3216 3844 3400 
Q 4144 3584 4550 3584 
Q 5097 3584 5394 3201 
Q 5691 2819 5691 2113 
L 5691 0 
L 5113 0 
L 5113 2094 
Q 5113 2597 4934 2840 
Q 4756 3084 4391 3084 
Q 3944 3084 3684 2787 
Q 3425 2491 3425 1978 
L 3425 0 
L 2847 0 
L 2847 2094 
Q 2847 2600 2669 2842 
Q 2491 3084 2119 3084 
Q 1678 3084 1418 2786 
Q 1159 2488 1159 1978 
L 1159 0 
L 581 0 
L 581 3500 
L 1159 3500 
L 1159 2956 
Q 1356 3278 1631 3431 
Q 1906 3584 2284 3584 
Q 2666 3584 2933 3390 
Q 3200 3197 3328 2828 
z
" transform="scale(0.015625)"/>
      </defs>
      <use xlink:href="#DejaVuSans-50"/>
      <use xlink:href="#DejaVuSans-72" x="58.552734"/>
      <use xlink:href="#DejaVuSans-6f" x="97.416016"/>
      <use xlink:href="#DejaVuSans-70" x="158.597656"/>
      <use xlink:href="#DejaVuSans-6f" x="222.074219"/>
      <use xlink:href="#DejaVuSans-72" x="283.255859"/>
      <use xlink:href="#DejaVuSans-74" x="324.369141"/>
      <use xlink:href="#DejaVuSans-69" x="363.578125"/>
      <use xlink:href="#DejaVuSans-6f" x="391.361328"/>
      <use xlink:href="#DejaVuSans-6e" x="452.542969"/>
      <use xlink:href="#DejaVuSans-20" x="515.921875"/>
      <use xlink:href="#DejaVuSans-6f" x="547.708984"/>
      <use xlink:href="#DejaVuSans-66" x="608.890625"/>
      <use xlink:href="#DejaVuSans-20" x="644.095703"/>
      <use xlink:href="#DejaVuSans-62" x="675.882812"/>
      <use xlink:href="#DejaVuSans-69" x="739.359375"/>
      <use xlink:href="#DejaVuSans-6e" x="767.142578"/>
      <use xlink:href="#DejaVuSans-64" x="830.521484"/>
      <use xlink:href="#DejaVuSans-69" x="893.998047"/>
      <use xlink:href="#DejaVuSans-6e" x="921.78125"/>
      <use xlink:href="#DejaVuSans-67" x="985.160156"/>
      <use xlink:href="#DejaVuSans-20" x="1048.636719"/>
      <use xlink:href="#DejaVuSans-73" x="1080.423828"/>
      <use xlink:href="#DejaVuSans-69" x="1132.523438"/>
      <use xlink:href="#DejaVuSans-74" x="1160.306641"/>
      <use xlink:href="#DejaVuSans-65" x="1199.515625"/>
      <use xlink:href="#DejaVuSans-73" x="1261.039062"/>
      <use xlink:href="#DejaVuSans-20" x="1313.138672"/>
      <use xlink:href="#DejaVuSans-69" x="1344.925781"/>
      <use xlink:href="#DejaVuSans-6e" x="1372.708984"/>
      <use xlink:href="#DejaVuSans-63" x="1436.087891"/>
      <use xlink:href="#DejaVuSans-6c" x="1491.068359"/>
      <use xlink:href="#DejaVuSans-75" x="1518.851562"/>
      <use xlink:href="#DejaVuSans-64" x="1582.230469"/>
      <use xlink:href="#DejaVuSans-65" x="1645.707031"/>
      <use xlink:href="#DejaVuSans-64" x="1707.230469"/>
      <use xlink:href="#DejaVuSans-20" x="1770.707031"/>
      <use xlink:href="#DejaVuSans-62" x="1802.494141"/>
      <use xlink:href="#DejaVuSans-79" x="1865.970703"/>
      <use xlink:href="#DejaVuSans-20" x="1925.150391"/>
      <use xlink:href="#DejaVuSans-74" x="1956.9375"/>
      <use xlink:href="#DejaVuSans-68" x="1996.146484"/>
      <use xlink:href="#DejaVuSans-65" x="2059.525391"/>
      <use xlink:href="#DejaVuSans-20" x="2121.048828"/>
      <use xlink:href="#DejaVuSans-67" x="2152.835938"/>
      <use xlink:href="#DejaVuSans-72" x="2216.3125"/>
      <use xlink:href="#DejaVuSans-65" x="2255.175781"/>
      <use xlink:href="#DejaVuSans-65" x="2316.699219"/>
      <use xlink:href="#DejaVuSans-64" x="2378.222656"/>
      <use xlink:href="#DejaVuSans-79" x="2441.699219"/>
      <use xlink:href="#DejaVuSans-20" x="2500.878906"/>
      <use xlink:href="#DejaVuSans-61" x="2532.666016"/>
      <use xlink:href="#DejaVuSans-6c" x="2593.945312"/>
      <use xlink:href="#DejaVuSans-67" x="2621.728516"/>
      <use xlink:href="#DejaVuSans-6f" x="2685.205078"/>
      <use xlink:href="#DejaVuSans-72" x="2746.386719"/>
      <use xlink:href="#DejaVuSans-69" x="2787.5"/>
      <use xlink:href="#DejaVuSans-74" x="2815.283203"/>
      <use xlink:href="#DejaVuSans-68" x="2854.492188"/>
      <use xlink:href="#DejaVuSans-6d" x="2917.871094"/>
     </g>
     <!-- compared to the optimal solution -->
     <g transform="translate(25.99625 229.197656) rotate(-90) scale(0.1 -0.1)">
      <use xlink:href="#DejaVuSans-63"/>
      <use xlink:href="#DejaVuSans-6f" x="54.980469"/>
      <use xlink:href="#DejaVuSans-6d" x="116.162109"/>
      <use xlink:href="#DejaVuSans-70" x="213.574219"/>
      <use xlink:href="#DejaVuSans-61" x="277.050781"/>
      <use xlink:href="#DejaVuSans-72" x="338.330078"/>
      <use xlink:href="#DejaVuSans-65" x="377.193359"/>
      <use xlink:href="#DejaVuSans-64" x="438.716797"/>
      <use xlink:href="#DejaVuSans-20" x="502.193359"/>
      <use xlink:href="#DejaVuSans-74" x="533.980469"/>
      <use xlink:href="#DejaVuSans-6f" x="573.189453"/>
      <use xlink:href="#DejaVuSans-20" x="634.371094"/>
      <use xlink:href="#DejaVuSans-74" x="666.158203"/>
      <use xlink:href="#DejaVuSans-68" x="705.367188"/>
      <use xlink:href="#DejaVuSans-65" x="768.746094"/>
      <use xlink:href="#DejaVuSans-20" x="830.269531"/>
      <use xlink:href="#DejaVuSans-6f" x="862.056641"/>
      <use xlink:href="#DejaVuSans-70" x="923.238281"/>
      <use xlink:href="#DejaVuSans-74" x="986.714844"/>
      <use xlink:href="#DejaVuSans-69" x="1025.923828"/>
      <use xlink:href="#DejaVuSans-6d" x="1053.707031"/>
      <use xlink:href="#DejaVuSans-61" x="1151.119141"/>
      <use xlink:href="#DejaVuSans-6c" x="1212.398438"/>
      <use xlink:href="#DejaVuSans-20" x="1240.181641"/>
      <use xlink:href="#DejaVuSans-73" x="1271.96875"/>
      <use xlink:href="#DejaVuSans-6f" x="1324.068359"/>
      <use xlink:href="#DejaVuSans-6c" x="1385.25"/>
      <use xlink:href="#DejaVuSans-75" x="1413.033203"/>
      <use xlink:href="#DejaVuSans-74" x="1476.412109"/>
      <use xlink:href="#DejaVuSans-69" x="1515.621094"/>
      <use xlink:href="#DejaVuSans-6f" x="1543.404297"/>
      <use xlink:href="#DejaVuSans-6e" x="1604.585938"/>
     </g>
    </g>
   </g>
   <g id="line2d_15">
    <path d="M 70.564703 56.341692 
L 91.060571 167.010817 
L 111.556439 162.834624 
L 132.052306 140.611309 
L 152.548174 168.27859 
L 173.044042 164.997296 
L 193.53991 182.074944 
L 214.035777 173.797132 
L 234.531645 215.0619 
L 255.027513 206.61008 
" clip-path="url(#p86b1c43a60)" style="fill: none; stroke: #edd1cb; stroke-width: 1.5; stroke-linecap: square"/>
   </g>
   <g id="line2d_16">
    <path d="M 70.564703 108.69326 
L 91.060571 149.436004 
L 111.556439 141.368357 
L 132.052306 191.711444 
L 152.548174 206.723594 
L 173.044042 202.800503 
L 193.53991 250.913296 
L 214.035777 229.044297 
L 234.531645 214.620882 
L 255.027513 233.5689 
" clip-path="url(#p86b1c43a60)" style="fill: none; stroke: #e7c1be; stroke-width: 1.5; stroke-linecap: square"/>
   </g>
   <g id="line2d_17">
    <path d="M 70.564703 75.979745 
L 91.060571 111.632449 
L 111.556439 167.366482 
L 132.052306 188.787726 
L 152.548174 217.983706 
L 173.044042 220.619037 
L 193.53991 231.205169 
L 214.035777 230.32343 
L 234.531645 246.713895 
L 255.027513 244.373635 
" clip-path="url(#p86b1c43a60)" style="fill: none; stroke: #e1b1b4; stroke-width: 1.5; stroke-linecap: square"/>
   </g>
   <g id="line2d_18">
    <path d="M 70.564703 26.760322 
L 91.060571 120.691211 
L 111.556439 129.804363 
L 132.052306 166.719098 
L 152.548174 204.930137 
L 173.044042 194.623257 
L 193.53991 225.381569 
L 214.035777 237.417819 
L 234.531645 254.51629 
L 255.027513 243.208069 
" clip-path="url(#p86b1c43a60)" style="fill: none; stroke: #d9a1ab; stroke-width: 1.5; stroke-linecap: square"/>
   </g>
   <g id="line2d_19">
    <path d="M 70.564703 19.8 
L 91.060571 79.219928 
L 111.556439 114.37338 
L 132.052306 162.686902 
L 152.548174 168.592512 
L 173.044042 198.51873 
L 193.53991 216.706372 
L 214.035777 201.173103 
L 234.531645 235.484582 
L 255.027513 238.98448 
" clip-path="url(#p86b1c43a60)" style="fill: none; stroke: #cf91a3; stroke-width: 1.5; stroke-linecap: square"/>
   </g>
   <g id="line2d_20">
    <path d="M 70.564703 19.8 
L 91.060571 70.589882 
L 111.556439 117.068948 
L 132.052306 146.617977 
L 152.548174 175.063698 
L 173.044042 179.83917 
L 193.53991 203.32997 
L 214.035777 217.020133 
L 234.531645 231.788247 
L 255.027513 215.749352 
" clip-path="url(#p86b1c43a60)" style="fill: none; stroke: #c4829c; stroke-width: 1.5; stroke-linecap: square"/>
   </g>
   <g id="line2d_21">
    <path d="M 70.564703 19.8 
L 91.060571 48.298533 
L 111.556439 94.59112 
L 132.052306 126.516014 
L 152.548174 154.325488 
L 173.044042 171.671665 
L 193.53991 181.007168 
L 214.035777 190.05331 
L 234.531645 217.179286 
L 255.027513 220.94471 
" clip-path="url(#p86b1c43a60)" style="fill: none; stroke: #b97596; stroke-width: 1.5; stroke-linecap: square"/>
   </g>
   <g id="line2d_22">
    <path d="M 70.564703 19.8 
L 91.060571 19.8 
L 111.556439 77.055701 
L 132.052306 115.383459 
L 152.548174 135.834058 
L 173.044042 167.742862 
L 193.53991 164.829179 
L 214.035777 195.491223 
L 234.531645 202.856672 
L 255.027513 227.196574 
" clip-path="url(#p86b1c43a60)" style="fill: none; stroke: #a9678f; stroke-width: 1.5; stroke-linecap: square"/>
   </g>
   <g id="line2d_23">
    <path d="M 70.564703 19.8 
L 91.060571 22.932145 
L 111.556439 53.061523 
L 132.052306 92.829897 
L 152.548174 130.010719 
L 173.044042 142.084584 
L 193.53991 164.878826 
L 214.035777 176.495252 
L 234.531645 201.49205 
L 255.027513 206.15703 
" clip-path="url(#p86b1c43a60)" style="fill: none; stroke: #995a88; stroke-width: 1.5; stroke-linecap: square"/>
   </g>
   <g id="line2d_24">
    <path d="M 70.564703 19.8 
L 91.060571 19.8 
L 111.556439 33.760418 
L 132.052306 98.377781 
L 152.548174 112.596656 
L 173.044042 137.146959 
L 193.53991 154.553608 
L 214.035777 170.507801 
L 234.531645 173.983273 
L 255.027513 186.013552 
" clip-path="url(#p86b1c43a60)" style="fill: none; stroke: #894f80; stroke-width: 1.5; stroke-linecap: square"/>
   </g>
   <g id="line2d_25">
    <path d="M 70.564703 19.8 
L 91.060571 19.8 
L 111.556439 28.677554 
L 132.052306 73.096182 
L 152.548174 93.721122 
L 173.044042 124.231353 
L 193.53991 126.976124 
L 214.035777 160.894875 
L 234.531645 176.925755 
L 255.027513 190.810198 
" clip-path="url(#p86b1c43a60)" style="fill: none; stroke: #774576; stroke-width: 1.5; stroke-linecap: square"/>
   </g>
   <g id="line2d_26">
    <path d="M 70.564703 19.8 
L 91.060571 19.8 
L 111.556439 26.06429 
L 132.052306 68.970304 
L 152.548174 89.625227 
L 173.044042 101.241121 
L 193.53991 126.557968 
L 214.035777 147.936152 
L 234.531645 161.944207 
L 255.027513 183.980409 
" clip-path="url(#p86b1c43a60)" style="fill: none; stroke: #643a6b; stroke-width: 1.5; stroke-linecap: square"/>
   </g>
   <g id="line2d_27">
    <path d="M 70.564703 19.8 
L 91.060571 19.8 
L 111.556439 19.8 
L 132.052306 41.650321 
L 152.548174 76.430156 
L 173.044042 109.641646 
L 193.53991 113.409129 
L 214.035777 145.123208 
L 234.531645 161.884902 
L 255.027513 165.581234 
" clip-path="url(#p86b1c43a60)" style="fill: none; stroke: #50305d; stroke-width: 1.5; stroke-linecap: square"/>
   </g>
   <g id="line2d_28">
    <path d="M 70.564703 19.8 
L 91.060571 19.8 
L 111.556439 19.8 
L 132.052306 35.224704 
L 152.548174 64.70053 
L 173.044042 97.647687 
L 193.53991 113.455573 
L 214.035777 117.584251 
L 234.531645 148.044733 
L 255.027513 160.795387 
" clip-path="url(#p86b1c43a60)" style="fill: none; stroke: #3f284f; stroke-width: 1.5; stroke-linecap: square"/>
   </g>
   <g id="line2d_29">
    <path d="M 70.564703 19.8 
L 91.060571 19.8 
L 111.556439 19.8 
L 132.052306 24.578529 
L 152.548174 52.881575 
L 173.044042 83.817051 
L 193.53991 103.33317 
L 214.035777 126.085904 
L 234.531645 142.804858 
L 255.027513 148.052801 
" clip-path="url(#p86b1c43a60)" style="fill: none; stroke: #2d1e3e; stroke-width: 1.5; stroke-linecap: square"/>
   </g>
   <g id="line2d_30"/>
   <g id="line2d_31"/>
   <g id="line2d_32"/>
   <g id="line2d_33"/>
   <g id="line2d_34"/>
   <g id="line2d_35"/>
   <g id="patch_3">
    <path d="M 61.341563 284.4 
L 61.341563 7.2 
" style="fill: none; stroke: #000000; stroke-width: 0.8; stroke-linejoin: miter; stroke-linecap: square"/>
   </g>
   <g id="patch_4">
    <path d="M 264.250653 284.4 
L 264.250653 7.2 
" style="fill: none; stroke: #000000; stroke-width: 0.8; stroke-linejoin: miter; stroke-linecap: square"/>
   </g>
   <g id="patch_5">
    <path d="M 61.341563 284.4 
L 264.250653 284.4 
" style="fill: none; stroke: #000000; stroke-width: 0.8; stroke-linejoin: miter; stroke-linecap: square"/>
   </g>
   <g id="patch_6">
    <path d="M 61.341563 7.2 
L 264.250653 7.2 
" style="fill: none; stroke: #000000; stroke-width: 0.8; stroke-linejoin: miter; stroke-linecap: square"/>
   </g>
   <g id="legend_1">
    <g id="patch_7">
     <path d="M 68.341563 279.4 
L 189.1525 279.4 
Q 191.1525 279.4 191.1525 277.4 
L 191.1525 175.653125 
Q 191.1525 173.653125 189.1525 173.653125 
L 68.341563 173.653125 
Q 66.341563 173.653125 66.341563 175.653125 
L 66.341563 277.4 
Q 66.341563 279.4 68.341563 279.4 
z
" style="fill: #ffffff; opacity: 0.8; stroke: #cccccc; stroke-linejoin: miter"/>
    </g>
    <g id="text_17">
     <!-- Sequence length L (bp) -->
     <g transform="translate(70.341563 185.251563) scale(0.1 -0.1)">
      <defs>
       <path id="DejaVuSans-53" d="M 3425 4513 
L 3425 3897 
Q 3066 4069 2747 4153 
Q 2428 4238 2131 4238 
Q 1616 4238 1336 4038 
Q 1056 3838 1056 3469 
Q 1056 3159 1242 3001 
Q 1428 2844 1947 2747 
L 2328 2669 
Q 3034 2534 3370 2195 
Q 3706 1856 3706 1288 
Q 3706 609 3251 259 
Q 2797 -91 1919 -91 
Q 1588 -91 1214 -16 
Q 841 59 441 206 
L 441 856 
Q 825 641 1194 531 
Q 1563 422 1919 422 
Q 2459 422 2753 634 
Q 3047 847 3047 1241 
Q 3047 1584 2836 1778 
Q 2625 1972 2144 2069 
L 1759 2144 
Q 1053 2284 737 2584 
Q 422 2884 422 3419 
Q 422 4038 858 4394 
Q 1294 4750 2059 4750 
Q 2388 4750 2728 4690 
Q 3069 4631 3425 4513 
z
" transform="scale(0.015625)"/>
       <path id="DejaVuSans-71" d="M 947 1747 
Q 947 1113 1208 752 
Q 1469 391 1925 391 
Q 2381 391 2643 752 
Q 2906 1113 2906 1747 
Q 2906 2381 2643 2742 
Q 2381 3103 1925 3103 
Q 1469 3103 1208 2742 
Q 947 2381 947 1747 
z
M 2906 525 
Q 2725 213 2448 61 
Q 2172 -91 1784 -91 
Q 1150 -91 751 415 
Q 353 922 353 1747 
Q 353 2572 751 3078 
Q 1150 3584 1784 3584 
Q 2172 3584 2448 3432 
Q 2725 3281 2906 2969 
L 2906 3500 
L 3481 3500 
L 3481 -1331 
L 2906 -1331 
L 2906 525 
z
" transform="scale(0.015625)"/>
       <path id="DejaVuSans-28" d="M 1984 4856 
Q 1566 4138 1362 3434 
Q 1159 2731 1159 2009 
Q 1159 1288 1364 580 
Q 1569 -128 1984 -844 
L 1484 -844 
Q 1016 -109 783 600 
Q 550 1309 550 2009 
Q 550 2706 781 3412 
Q 1013 4119 1484 4856 
L 1984 4856 
z
" transform="scale(0.015625)"/>
       <path id="DejaVuSans-29" d="M 513 4856 
L 1013 4856 
Q 1481 4119 1714 3412 
Q 1947 2706 1947 2009 
Q 1947 1309 1714 600 
Q 1481 -109 1013 -844 
L 513 -844 
Q 928 -128 1133 580 
Q 1338 1288 1338 2009 
Q 1338 2731 1133 3434 
Q 928 4138 513 4856 
z
" transform="scale(0.015625)"/>
      </defs>
      <use xlink:href="#DejaVuSans-53"/>
      <use xlink:href="#DejaVuSans-65" x="63.476562"/>
      <use xlink:href="#DejaVuSans-71" x="125"/>
      <use xlink:href="#DejaVuSans-75" x="188.476562"/>
      <use xlink:href="#DejaVuSans-65" x="251.855469"/>
      <use xlink:href="#DejaVuSans-6e" x="313.378906"/>
      <use xlink:href="#DejaVuSans-63" x="376.757812"/>
      <use xlink:href="#DejaVuSans-65" x="431.738281"/>
      <use xlink:href="#DejaVuSans-20" x="493.261719"/>
      <use xlink:href="#DejaVuSans-6c" x="525.048828"/>
      <use xlink:href="#DejaVuSans-65" x="552.832031"/>
      <use xlink:href="#DejaVuSans-6e" x="614.355469"/>
      <use xlink:href="#DejaVuSans-67" x="677.734375"/>
      <use xlink:href="#DejaVuSans-74" x="741.210938"/>
      <use xlink:href="#DejaVuSans-68" x="780.419922"/>
      <use xlink:href="#DejaVuSans-20" x="843.798828"/>
      <use xlink:href="#DejaVuSans-4c" x="875.585938"/>
      <use xlink:href="#DejaVuSans-20" x="931.298828"/>
      <use xlink:href="#DejaVuSans-28" x="963.085938"/>
      <use xlink:href="#DejaVuSans-62" x="1002.099609"/>
      <use xlink:href="#DejaVuSans-70" x="1065.576172"/>
      <use xlink:href="#DejaVuSans-29" x="1129.052734"/>
     </g>
    </g>
    <g id="line2d_36">
     <path d="M 105.203281 196.429688 
L 115.203281 196.429688 
L 125.203281 196.429688 
" style="fill: none; stroke: #e4b9b9; stroke-width: 1.5; stroke-linecap: square"/>
    </g>
    <g id="text_18">
     <!-- 50 -->
     <g transform="translate(133.203281 199.929688) scale(0.1 -0.1)">
      <use xlink:href="#DejaVuSans-35"/>
      <use xlink:href="#DejaVuSans-30" x="63.623047"/>
     </g>
    </g>
    <g id="line2d_37">
     <path d="M 105.203281 211.107813 
L 115.203281 211.107813 
L 125.203281 211.107813 
" style="fill: none; stroke: #cf91a3; stroke-width: 1.5; stroke-linecap: square"/>
    </g>
    <g id="text_19">
     <!-- 100 -->
     <g transform="translate(133.203281 214.607813) scale(0.1 -0.1)">
      <use xlink:href="#DejaVuSans-31"/>
      <use xlink:href="#DejaVuSans-30" x="63.623047"/>
      <use xlink:href="#DejaVuSans-30" x="127.246094"/>
     </g>
    </g>
    <g id="line2d_38">
     <path d="M 105.203281 225.785938 
L 115.203281 225.785938 
L 125.203281 225.785938 
" style="fill: none; stroke: #b16e92; stroke-width: 1.5; stroke-linecap: square"/>
    </g>
    <g id="text_20">
     <!-- 150 -->
     <g transform="translate(133.203281 229.285938) scale(0.1 -0.1)">
      <use xlink:href="#DejaVuSans-31"/>
      <use xlink:href="#DejaVuSans-35" x="63.623047"/>
      <use xlink:href="#DejaVuSans-30" x="127.246094"/>
     </g>
    </g>
    <g id="line2d_39">
     <path d="M 105.203281 240.464063 
L 115.203281 240.464063 
L 125.203281 240.464063 
" style="fill: none; stroke: #894f80; stroke-width: 1.5; stroke-linecap: square"/>
    </g>
    <g id="text_21">
     <!-- 200 -->
     <g transform="translate(133.203281 243.964063) scale(0.1 -0.1)">
      <use xlink:href="#DejaVuSans-32"/>
      <use xlink:href="#DejaVuSans-30" x="63.623047"/>
      <use xlink:href="#DejaVuSans-30" x="127.246094"/>
     </g>
    </g>
    <g id="line2d_40">
     <path d="M 105.203281 255.142188 
L 115.203281 255.142188 
L 125.203281 255.142188 
" style="fill: none; stroke: #5b3665; stroke-width: 1.5; stroke-linecap: square"/>
    </g>
    <g id="text_22">
     <!-- 250 -->
     <g transform="translate(133.203281 258.642188) scale(0.1 -0.1)">
      <use xlink:href="#DejaVuSans-32"/>
      <use xlink:href="#DejaVuSans-35" x="63.623047"/>
      <use xlink:href="#DejaVuSans-30" x="127.246094"/>
     </g>
    </g>
    <g id="line2d_41">
     <path d="M 105.203281 269.820312 
L 115.203281 269.820312 
L 125.203281 269.820312 
" style="fill: none; stroke: #2d1e3e; stroke-width: 1.5; stroke-linecap: square"/>
    </g>
    <g id="text_23">
     <!-- 300 -->
     <g transform="translate(133.203281 273.320312) scale(0.1 -0.1)">
      <defs>
       <path id="DejaVuSans-33" d="M 2597 2516 
Q 3050 2419 3304 2112 
Q 3559 1806 3559 1356 
Q 3559 666 3084 287 
Q 2609 -91 1734 -91 
Q 1441 -91 1130 -33 
Q 819 25 488 141 
L 488 750 
Q 750 597 1062 519 
Q 1375 441 1716 441 
Q 2309 441 2620 675 
Q 2931 909 2931 1356 
Q 2931 1769 2642 2001 
Q 2353 2234 1838 2234 
L 1294 2234 
L 1294 2753 
L 1863 2753 
Q 2328 2753 2575 2939 
Q 2822 3125 2822 3475 
Q 2822 3834 2567 4026 
Q 2313 4219 1838 4219 
Q 1578 4219 1281 4162 
Q 984 4106 628 3988 
L 628 4550 
Q 988 4650 1302 4700 
Q 1616 4750 1894 4750 
Q 2613 4750 3031 4423 
Q 3450 4097 3450 3541 
Q 3450 3153 3228 2886 
Q 3006 2619 2597 2516 
z
" transform="scale(0.015625)"/>
      </defs>
      <use xlink:href="#DejaVuSans-33"/>
      <use xlink:href="#DejaVuSans-30" x="63.623047"/>
      <use xlink:href="#DejaVuSans-30" x="127.246094"/>
     </g>
    </g>
   </g>
  </g>
  <g id="axes_2">
   <g id="patch_8">
    <path d="M 304.832472 284.4 
L 507.741562 284.4 
L 507.741562 7.2 
L 304.832472 7.2 
z
" style="fill: #ffffff"/>
   </g>
   <g id="PolyCollection_16">
    <defs>
     <path id="m1fe9e3aa8c" d="M 314.055612 -302.478125 
L 314.055612 -213.603509 
L 327.231527 -187.036207 
L 340.407442 -214.10689 
L 353.583357 -281.597158 
L 366.759272 -302.478125 
L 379.935187 -302.478125 
L 393.111102 -302.478125 
L 406.287017 -302.478125 
L 419.462932 -302.478125 
L 432.638847 -302.478125 
L 445.814762 -302.478125 
L 458.990677 -302.478125 
L 472.166592 -302.478125 
L 485.342507 -302.478125 
L 498.518422 -302.478125 
L 498.518422 -302.478125 
L 498.518422 -302.478125 
L 485.342507 -302.478125 
L 472.166592 -302.478125 
L 458.990677 -302.478125 
L 445.814762 -302.478125 
L 432.638847 -302.478125 
L 419.462932 -302.478125 
L 406.287017 -302.478125 
L 393.111102 -302.478125 
L 379.935187 -302.478125 
L 366.759272 -302.478125 
L 353.583357 -302.478125 
L 340.407442 -277.868414 
L 327.231527 -244.011417 
L 314.055612 -302.478125 
z
" style="stroke: #edd1cb; stroke-opacity: 0.2"/>
    </defs>
    <g clip-path="url(#p46504a420c)">
     <use xlink:href="#m1fe9e3aa8c" x="0" y="322.278125" style="fill: #edd1cb; fill-opacity: 0.2; stroke: #edd1cb; stroke-opacity: 0.2"/>
    </g>
   </g>
   <g id="PolyCollection_17">
    <defs>
     <path id="mf2ba71666e" d="M 314.055612 -192.931352 
L 314.055612 -120.813712 
L 327.231527 -142.135914 
L 340.407442 -183.238312 
L 353.583357 -188.423372 
L 366.759272 -230.288707 
L 379.935187 -236.542249 
L 393.111102 -254.192505 
L 406.287017 -302.478125 
L 419.462932 -293.08169 
L 432.638847 -302.478125 
L 445.814762 -302.478125 
L 458.990677 -302.478125 
L 472.166592 -302.478125 
L 485.342507 -302.478125 
L 498.518422 -302.478125 
L 498.518422 -302.478125 
L 498.518422 -302.478125 
L 485.342507 -302.478125 
L 472.166592 -302.478125 
L 458.990677 -302.478125 
L 445.814762 -302.478125 
L 432.638847 -302.478125 
L 419.462932 -302.478125 
L 406.287017 -302.478125 
L 393.111102 -291.628211 
L 379.935187 -267.155129 
L 366.759272 -255.418363 
L 353.583357 -215.553571 
L 340.407442 -233.950588 
L 327.231527 -201.432267 
L 314.055612 -192.931352 
z
" style="stroke: #e4b8b8; stroke-opacity: 0.2"/>
    </defs>
    <g clip-path="url(#p46504a420c)">
     <use xlink:href="#mf2ba71666e" x="0" y="322.278125" style="fill: #e4b8b8; fill-opacity: 0.2; stroke: #e4b8b8; stroke-opacity: 0.2"/>
    </g>
   </g>
   <g id="PolyCollection_18">
    <defs>
     <path id="m4e6d4b60df" d="M 314.055612 -199.117338 
L 314.055612 -119.769664 
L 327.231527 -149.96283 
L 340.407442 -133.73295 
L 353.583357 -167.444947 
L 366.759272 -184.239649 
L 379.935187 -184.815968 
L 393.111102 -204.680616 
L 406.287017 -230.013899 
L 419.462932 -261.53293 
L 432.638847 -275.720657 
L 445.814762 -286.877403 
L 458.990677 -289.949545 
L 472.166592 -302.478125 
L 485.342507 -302.478125 
L 498.518422 -302.478125 
L 498.518422 -302.478125 
L 498.518422 -302.478125 
L 485.342507 -302.478125 
L 472.166592 -302.478125 
L 458.990677 -302.478125 
L 445.814762 -300.242807 
L 432.638847 -298.059563 
L 419.462932 -276.535288 
L 406.287017 -258.218812 
L 393.111102 -249.020359 
L 379.935187 -224.049558 
L 366.759272 -234.367021 
L 353.583357 -217.262791 
L 340.407442 -179.247148 
L 327.231527 -209.352967 
L 314.055612 -199.117338 
z
" style="stroke: #d8a0aa; stroke-opacity: 0.2"/>
    </defs>
    <g clip-path="url(#p46504a420c)">
     <use xlink:href="#m4e6d4b60df" x="0" y="322.278125" style="fill: #d8a0aa; fill-opacity: 0.2; stroke: #d8a0aa; stroke-opacity: 0.2"/>
    </g>
   </g>
   <g id="PolyCollection_19">
    <defs>
     <path id="mdccdc71d5c" d="M 314.055612 -237.754585 
L 314.055612 -123.49095 
L 327.231527 -103.092999 
L 340.407442 -115.362966 
L 353.583357 -128.090959 
L 366.759272 -143.721153 
L 379.935187 -166.680993 
L 393.111102 -182.481461 
L 406.287017 -191.272643 
L 419.462932 -218.099707 
L 432.638847 -213.838427 
L 445.814762 -241.344269 
L 458.990677 -241.376347 
L 472.166592 -268.43773 
L 485.342507 -279.46362 
L 498.518422 -292.921067 
L 498.518422 -300.912052 
L 498.518422 -300.912052 
L 485.342507 -294.360161 
L 472.166592 -292.352737 
L 458.990677 -263.277634 
L 445.814762 -257.242317 
L 432.638847 -232.731901 
L 419.462932 -240.161704 
L 406.287017 -222.463486 
L 393.111102 -212.574575 
L 379.935187 -184.310326 
L 366.759272 -174.881144 
L 353.583357 -184.108248 
L 340.407442 -156.807826 
L 327.231527 -160.835565 
L 314.055612 -237.754585 
z
" style="stroke: #c8879e; stroke-opacity: 0.2"/>
    </defs>
    <g clip-path="url(#p46504a420c)">
     <use xlink:href="#mdccdc71d5c" x="0" y="322.278125" style="fill: #c8879e; fill-opacity: 0.2; stroke: #c8879e; stroke-opacity: 0.2"/>
    </g>
   </g>
   <g id="PolyCollection_20">
    <defs>
     <path id="m9150faa875" d="M 314.055612 -210.087303 
L 314.055612 -101.263907 
L 327.231527 -89.098188 
L 340.407442 -78.703427 
L 353.583357 -102.157359 
L 366.759272 -139.129583 
L 379.935187 -127.53452 
L 393.111102 -151.010504 
L 406.287017 -175.768392 
L 419.462932 -182.187717 
L 432.638847 -195.329476 
L 445.814762 -214.637961 
L 458.990677 -221.939157 
L 472.166592 -233.805674 
L 485.342507 -250.579336 
L 498.518422 -256.053632 
L 498.518422 -282.478741 
L 498.518422 -282.478741 
L 485.342507 -265.983315 
L 472.166592 -257.236551 
L 458.990677 -243.427773 
L 445.814762 -243.989675 
L 432.638847 -225.281832 
L 419.462932 -202.035832 
L 406.287017 -197.621537 
L 393.111102 -187.755625 
L 379.935187 -166.733758 
L 366.759272 -166.7189 
L 353.583357 -134.167811 
L 340.407442 -131.689144 
L 327.231527 -144.077798 
L 314.055612 -210.087303 
z
" style="stroke: #b57294; stroke-opacity: 0.2"/>
    </defs>
    <g clip-path="url(#p46504a420c)">
     <use xlink:href="#m9150faa875" x="0" y="322.278125" style="fill: #b57294; fill-opacity: 0.2; stroke: #b57294; stroke-opacity: 0.2"/>
    </g>
   </g>
   <g id="PolyCollection_21">
    <defs>
     <path id="mb913e9ba47" d="M 314.055612 -207.999207 
L 314.055612 -111.939301 
L 327.231527 -92.514891 
L 340.407442 -74.746567 
L 353.583357 -107.9302 
L 366.759272 -110.308665 
L 379.935187 -131.809106 
L 393.111102 -135.437042 
L 406.287017 -139.343931 
L 419.462932 -164.843939 
L 432.638847 -176.645923 
L 445.814762 -183.407503 
L 458.990677 -211.284239 
L 472.166592 -201.885559 
L 485.342507 -214.416337 
L 498.518422 -231.555067 
L 498.518422 -245.843919 
L 498.518422 -245.843919 
L 485.342507 -235.240609 
L 472.166592 -223.50569 
L 458.990677 -231.126344 
L 445.814762 -212.89376 
L 432.638847 -192.630961 
L 419.462932 -198.763338 
L 406.287017 -168.887473 
L 393.111102 -167.274984 
L 379.935187 -155.285943 
L 366.759272 -136.992132 
L 353.583357 -147.143023 
L 340.407442 -126.82134 
L 327.231527 -145.588322 
L 314.055612 -207.999207 
z
" style="stroke: #9d5d89; stroke-opacity: 0.2"/>
    </defs>
    <g clip-path="url(#p46504a420c)">
     <use xlink:href="#mb913e9ba47" x="0" y="322.278125" style="fill: #9d5d89; fill-opacity: 0.2; stroke: #9d5d89; stroke-opacity: 0.2"/>
    </g>
   </g>
   <g id="PolyCollection_22">
    <defs>
     <path id="m81a5e2c875" d="M 314.055612 -207.059563 
L 314.055612 -77.261981 
L 327.231527 -52.420801 
L 340.407442 -75.405488 
L 353.583357 -77.172087 
L 366.759272 -87.815589 
L 379.935187 -98.751975 
L 393.111102 -127.97317 
L 406.287017 -140.429726 
L 419.462932 -140.350129 
L 432.638847 -154.850993 
L 445.814762 -180.09432 
L 458.990677 -184.09598 
L 472.166592 -196.394766 
L 485.342507 -203.462411 
L 498.518422 -211.305408 
L 498.518422 -224.985572 
L 498.518422 -224.985572 
L 485.342507 -214.525707 
L 472.166592 -221.353819 
L 458.990677 -208.411111 
L 445.814762 -214.449758 
L 432.638847 -181.508849 
L 419.462932 -176.289254 
L 406.287017 -176.663276 
L 393.111102 -154.43156 
L 379.935187 -137.571279 
L 366.759272 -124.457412 
L 353.583357 -118.219692 
L 340.407442 -107.372927 
L 327.231527 -95.913159 
L 314.055612 -207.059563 
z
" style="stroke: #834c7d; stroke-opacity: 0.2"/>
    </defs>
    <g clip-path="url(#p46504a420c)">
     <use xlink:href="#m81a5e2c875" x="0" y="322.278125" style="fill: #834c7d; fill-opacity: 0.2; stroke: #834c7d; stroke-opacity: 0.2"/>
    </g>
   </g>
   <g id="PolyCollection_23">
    <defs>
     <path id="m2187a16f99" d="M 314.055612 -185.39556 
L 314.055612 -107.082612 
L 327.231527 -63.679229 
L 340.407442 -69.100025 
L 353.583357 -65.420674 
L 366.759272 -103.239766 
L 379.935187 -87.334204 
L 393.111102 -111.465642 
L 406.287017 -115.100141 
L 419.462932 -132.885028 
L 432.638847 -139.88187 
L 445.814762 -147.675432 
L 458.990677 -164.758218 
L 472.166592 -164.615289 
L 485.342507 -195.746418 
L 498.518422 -186.016752 
L 498.518422 -207.307186 
L 498.518422 -207.307186 
L 485.342507 -214.803269 
L 472.166592 -190.186715 
L 458.990677 -184.324331 
L 445.814762 -175.483315 
L 432.638847 -162.624288 
L 419.462932 -159.457919 
L 406.287017 -141.540695 
L 393.111102 -157.030814 
L 379.935187 -121.842102 
L 366.759272 -137.808856 
L 353.583357 -104.536848 
L 340.407442 -114.587017 
L 327.231527 -126.648572 
L 314.055612 -185.39556 
z
" style="stroke: #653b6c; stroke-opacity: 0.2"/>
    </defs>
    <g clip-path="url(#p46504a420c)">
     <use xlink:href="#m2187a16f99" x="0" y="322.278125" style="fill: #653b6c; fill-opacity: 0.2; stroke: #653b6c; stroke-opacity: 0.2"/>
    </g>
   </g>
   <g id="PolyCollection_24">
    <defs>
     <path id="m1e18827f9b" d="M 314.055612 -134.933223 
L 314.055612 -79.098387 
L 327.231527 -71.089475 
L 340.407442 -62.029975 
L 353.583357 -52.312976 
L 366.759272 -76.263259 
L 379.935187 -77.28893 
L 393.111102 -87.830578 
L 406.287017 -104.363183 
L 419.462932 -109.88754 
L 432.638847 -132.562587 
L 445.814762 -130.998077 
L 458.990677 -151.160268 
L 472.166592 -148.728182 
L 485.342507 -165.467853 
L 498.518422 -169.862489 
L 498.518422 -187.327471 
L 498.518422 -187.327471 
L 485.342507 -182.545141 
L 472.166592 -173.609795 
L 458.990677 -171.76726 
L 445.814762 -158.00989 
L 432.638847 -161.702132 
L 419.462932 -132.748357 
L 406.287017 -131.640059 
L 393.111102 -123.647652 
L 379.935187 -103.689402 
L 366.759272 -98.349632 
L 353.583357 -82.332896 
L 340.407442 -90.850131 
L 327.231527 -141.272262 
L 314.055612 -134.933223 
z
" style="stroke: #492d58; stroke-opacity: 0.2"/>
    </defs>
    <g clip-path="url(#p46504a420c)">
     <use xlink:href="#m1e18827f9b" x="0" y="322.278125" style="fill: #492d58; fill-opacity: 0.2; stroke: #492d58; stroke-opacity: 0.2"/>
    </g>
   </g>
   <g id="PolyCollection_25">
    <defs>
     <path id="m3a9a3997ec" d="M 314.055612 -158.18505 
L 314.055612 -73.906111 
L 327.231527 -72.489188 
L 340.407442 -60.044853 
L 353.583357 -62.819235 
L 366.759272 -66.123765 
L 379.935187 -89.297184 
L 393.111102 -82.062567 
L 406.287017 -78.827964 
L 419.462932 -103.077811 
L 432.638847 -124.116175 
L 445.814762 -121.606911 
L 458.990677 -124.023596 
L 472.166592 -144.546456 
L 485.342507 -156.754783 
L 498.518422 -164.514251 
L 498.518422 -183.993709 
L 498.518422 -183.993709 
L 485.342507 -166.416907 
L 472.166592 -170.618016 
L 458.990677 -154.475611 
L 445.814762 -142.787245 
L 432.638847 -149.655015 
L 419.462932 -132.384443 
L 406.287017 -111.656038 
L 393.111102 -119.821385 
L 379.935187 -125.792236 
L 366.759272 -100.829953 
L 353.583357 -95.585758 
L 340.407442 -97.303017 
L 327.231527 -105.826025 
L 314.055612 -158.18505 
z
" style="stroke: #2d1e3e; stroke-opacity: 0.2"/>
    </defs>
    <g clip-path="url(#p46504a420c)">
     <use xlink:href="#m3a9a3997ec" x="0" y="322.278125" style="fill: #2d1e3e; fill-opacity: 0.2; stroke: #2d1e3e; stroke-opacity: 0.2"/>
    </g>
   </g>
   <g id="matplotlib.axis_3">
    <g id="xtick_6">
     <g id="line2d_42">
      <g>
       <use xlink:href="#m146b64b704" x="366.759272" y="284.4" style="stroke: #000000; stroke-width: 0.8"/>
      </g>
     </g>
     <g id="text_24">
      <!-- 100 -->
      <g transform="translate(357.215522 298.998437) scale(0.1 -0.1)">
       <use xlink:href="#DejaVuSans-31"/>
       <use xlink:href="#DejaVuSans-30" x="63.623047"/>
       <use xlink:href="#DejaVuSans-30" x="127.246094"/>
      </g>
     </g>
    </g>
    <g id="xtick_7">
     <g id="line2d_43">
      <g>
       <use xlink:href="#m146b64b704" x="432.638847" y="284.4" style="stroke: #000000; stroke-width: 0.8"/>
      </g>
     </g>
     <g id="text_25">
      <!-- 200 -->
      <g transform="translate(423.095097 298.998437) scale(0.1 -0.1)">
       <use xlink:href="#DejaVuSans-32"/>
       <use xlink:href="#DejaVuSans-30" x="63.623047"/>
       <use xlink:href="#DejaVuSans-30" x="127.246094"/>
      </g>
     </g>
    </g>
    <g id="xtick_8">
     <g id="line2d_44">
      <g>
       <use xlink:href="#m146b64b704" x="498.518422" y="284.4" style="stroke: #000000; stroke-width: 0.8"/>
      </g>
     </g>
     <g id="text_26">
      <!-- 300 -->
      <g transform="translate(488.974672 298.998437) scale(0.1 -0.1)">
       <use xlink:href="#DejaVuSans-33"/>
       <use xlink:href="#DejaVuSans-30" x="63.623047"/>
       <use xlink:href="#DejaVuSans-30" x="127.246094"/>
      </g>
     </g>
    </g>
    <g id="text_27">
     <!-- Sequence length L (bp) -->
     <g transform="translate(347.881548 312.676562) scale(0.1 -0.1)">
      <use xlink:href="#DejaVuSans-53"/>
      <use xlink:href="#DejaVuSans-65" x="63.476562"/>
      <use xlink:href="#DejaVuSans-71" x="125"/>
      <use xlink:href="#DejaVuSans-75" x="188.476562"/>
      <use xlink:href="#DejaVuSans-65" x="251.855469"/>
      <use xlink:href="#DejaVuSans-6e" x="313.378906"/>
      <use xlink:href="#DejaVuSans-63" x="376.757812"/>
      <use xlink:href="#DejaVuSans-65" x="431.738281"/>
      <use xlink:href="#DejaVuSans-20" x="493.261719"/>
      <use xlink:href="#DejaVuSans-6c" x="525.048828"/>
      <use xlink:href="#DejaVuSans-65" x="552.832031"/>
      <use xlink:href="#DejaVuSans-6e" x="614.355469"/>
      <use xlink:href="#DejaVuSans-67" x="677.734375"/>
      <use xlink:href="#DejaVuSans-74" x="741.210938"/>
      <use xlink:href="#DejaVuSans-68" x="780.419922"/>
      <use xlink:href="#DejaVuSans-20" x="843.798828"/>
      <use xlink:href="#DejaVuSans-4c" x="875.585938"/>
      <use xlink:href="#DejaVuSans-20" x="931.298828"/>
      <use xlink:href="#DejaVuSans-28" x="963.085938"/>
      <use xlink:href="#DejaVuSans-62" x="1002.099609"/>
      <use xlink:href="#DejaVuSans-70" x="1065.576172"/>
      <use xlink:href="#DejaVuSans-29" x="1129.052734"/>
     </g>
    </g>
   </g>
   <g id="matplotlib.axis_4">
    <g id="ytick_10">
     <g id="line2d_45">
      <g>
       <use xlink:href="#mecb8b9de99" x="304.832472" y="270.371604" style="stroke: #000000; stroke-width: 0.8"/>
      </g>
     </g>
    </g>
    <g id="ytick_11">
     <g id="line2d_46">
      <g>
       <use xlink:href="#mecb8b9de99" x="304.832472" y="239.050154" style="stroke: #000000; stroke-width: 0.8"/>
      </g>
     </g>
    </g>
    <g id="ytick_12">
     <g id="line2d_47">
      <g>
       <use xlink:href="#mecb8b9de99" x="304.832472" y="207.728703" style="stroke: #000000; stroke-width: 0.8"/>
      </g>
     </g>
    </g>
    <g id="ytick_13">
     <g id="line2d_48">
      <g>
       <use xlink:href="#mecb8b9de99" x="304.832472" y="176.407253" style="stroke: #000000; stroke-width: 0.8"/>
      </g>
     </g>
    </g>
    <g id="ytick_14">
     <g id="line2d_49">
      <g>
       <use xlink:href="#mecb8b9de99" x="304.832472" y="145.085802" style="stroke: #000000; stroke-width: 0.8"/>
      </g>
     </g>
    </g>
    <g id="ytick_15">
     <g id="line2d_50">
      <g>
       <use xlink:href="#mecb8b9de99" x="304.832472" y="113.764352" style="stroke: #000000; stroke-width: 0.8"/>
      </g>
     </g>
    </g>
    <g id="ytick_16">
     <g id="line2d_51">
      <g>
       <use xlink:href="#mecb8b9de99" x="304.832472" y="82.442901" style="stroke: #000000; stroke-width: 0.8"/>
      </g>
     </g>
    </g>
    <g id="ytick_17">
     <g id="line2d_52">
      <g>
       <use xlink:href="#mecb8b9de99" x="304.832472" y="51.121451" style="stroke: #000000; stroke-width: 0.8"/>
      </g>
     </g>
    </g>
    <g id="ytick_18">
     <g id="line2d_53">
      <g>
       <use xlink:href="#mecb8b9de99" x="304.832472" y="19.8" style="stroke: #000000; stroke-width: 0.8"/>
      </g>
     </g>
    </g>
   </g>
   <g id="line2d_54">
    <path d="M 314.055612 56.341692 
L 327.231527 108.69326 
L 340.407442 75.979745 
L 353.583357 26.760322 
L 366.759272 19.8 
L 379.935187 19.8 
L 393.111102 19.8 
L 406.287017 19.8 
L 419.462932 19.8 
L 432.638847 19.8 
L 445.814762 19.8 
L 458.990677 19.8 
L 472.166592 19.8 
L 485.342507 19.8 
L 498.518422 19.8 
" clip-path="url(#p46504a420c)" style="fill: none; stroke: #edd1cb; stroke-width: 1.5; stroke-linecap: square"/>
   </g>
   <g id="line2d_55">
    <path d="M 314.055612 167.010817 
L 327.231527 149.436004 
L 340.407442 111.632449 
L 353.583357 120.691211 
L 366.759272 79.219928 
L 379.935187 70.589882 
L 393.111102 48.298533 
L 406.287017 19.8 
L 419.462932 22.932145 
L 432.638847 19.8 
L 445.814762 19.8 
L 458.990677 19.8 
L 472.166592 19.8 
L 485.342507 19.8 
L 498.518422 19.8 
" clip-path="url(#p46504a420c)" style="fill: none; stroke: #e4b8b8; stroke-width: 1.5; stroke-linecap: square"/>
   </g>
   <g id="line2d_56">
    <path d="M 314.055612 162.834624 
L 327.231527 141.368357 
L 340.407442 167.366482 
L 353.583357 129.804363 
L 366.759272 114.37338 
L 379.935187 117.068948 
L 393.111102 94.59112 
L 406.287017 77.055701 
L 419.462932 53.061523 
L 432.638847 33.760418 
L 445.814762 28.677554 
L 458.990677 26.06429 
L 472.166592 19.8 
L 485.342507 19.8 
L 498.518422 19.8 
" clip-path="url(#p46504a420c)" style="fill: none; stroke: #d8a0aa; stroke-width: 1.5; stroke-linecap: square"/>
   </g>
   <g id="line2d_57">
    <path d="M 314.055612 140.611309 
L 327.231527 191.711444 
L 340.407442 188.787726 
L 353.583357 166.719098 
L 366.759272 162.686902 
L 379.935187 146.617977 
L 393.111102 126.516014 
L 406.287017 115.383459 
L 419.462932 92.829897 
L 432.638847 98.377781 
L 445.814762 73.096182 
L 458.990677 68.970304 
L 472.166592 41.650321 
L 485.342507 35.224704 
L 498.518422 24.578529 
" clip-path="url(#p46504a420c)" style="fill: none; stroke: #c8879e; stroke-width: 1.5; stroke-linecap: square"/>
   </g>
   <g id="line2d_58">
    <path d="M 314.055612 168.27859 
L 327.231527 206.723594 
L 340.407442 217.983706 
L 353.583357 204.930137 
L 366.759272 168.592512 
L 379.935187 175.063698 
L 393.111102 154.325488 
L 406.287017 135.834058 
L 419.462932 130.010719 
L 432.638847 112.596656 
L 445.814762 93.721122 
L 458.990677 89.625227 
L 472.166592 76.430156 
L 485.342507 64.70053 
L 498.518422 52.881575 
" clip-path="url(#p46504a420c)" style="fill: none; stroke: #b57294; stroke-width: 1.5; stroke-linecap: square"/>
   </g>
   <g id="line2d_59">
    <path d="M 314.055612 164.997296 
L 327.231527 202.800503 
L 340.407442 220.619037 
L 353.583357 194.623257 
L 366.759272 198.51873 
L 379.935187 179.83917 
L 393.111102 171.671665 
L 406.287017 167.742862 
L 419.462932 142.084584 
L 432.638847 137.146959 
L 445.814762 124.231353 
L 458.990677 101.241121 
L 472.166592 109.641646 
L 485.342507 97.647687 
L 498.518422 83.817051 
" clip-path="url(#p46504a420c)" style="fill: none; stroke: #9d5d89; stroke-width: 1.5; stroke-linecap: square"/>
   </g>
   <g id="line2d_60">
    <path d="M 314.055612 182.074944 
L 327.231527 250.913296 
L 340.407442 231.205169 
L 353.583357 225.381569 
L 366.759272 216.706372 
L 379.935187 203.32997 
L 393.111102 181.007168 
L 406.287017 164.829179 
L 419.462932 164.878826 
L 432.638847 154.553608 
L 445.814762 126.976124 
L 458.990677 126.557968 
L 472.166592 113.409129 
L 485.342507 113.455573 
L 498.518422 103.33317 
" clip-path="url(#p46504a420c)" style="fill: none; stroke: #834c7d; stroke-width: 1.5; stroke-linecap: square"/>
   </g>
   <g id="line2d_61">
    <path d="M 314.055612 173.797132 
L 327.231527 229.044297 
L 340.407442 230.32343 
L 353.583357 237.417819 
L 366.759272 201.173103 
L 379.935187 217.020133 
L 393.111102 190.05331 
L 406.287017 195.491223 
L 419.462932 176.495252 
L 432.638847 170.507801 
L 445.814762 160.894875 
L 458.990677 147.936152 
L 472.166592 145.123208 
L 485.342507 117.584251 
L 498.518422 126.085904 
" clip-path="url(#p46504a420c)" style="fill: none; stroke: #653b6c; stroke-width: 1.5; stroke-linecap: square"/>
   </g>
   <g id="line2d_62">
    <path d="M 314.055612 215.0619 
L 327.231527 214.620882 
L 340.407442 246.713895 
L 353.583357 254.51629 
L 366.759272 235.484582 
L 379.935187 231.788247 
L 393.111102 217.179286 
L 406.287017 202.856672 
L 419.462932 201.49205 
L 432.638847 173.983273 
L 445.814762 176.925755 
L 458.990677 161.944207 
L 472.166592 161.884902 
L 485.342507 148.044733 
L 498.518422 142.804858 
" clip-path="url(#p46504a420c)" style="fill: none; stroke: #492d58; stroke-width: 1.5; stroke-linecap: square"/>
   </g>
   <g id="line2d_63">
    <path d="M 314.055612 206.61008 
L 327.231527 233.5689 
L 340.407442 244.373635 
L 353.583357 243.208069 
L 366.759272 238.98448 
L 379.935187 215.749352 
L 393.111102 220.94471 
L 406.287017 227.196574 
L 419.462932 206.15703 
L 432.638847 186.013552 
L 445.814762 190.810198 
L 458.990677 183.980409 
L 472.166592 165.581234 
L 485.342507 160.795387 
L 498.518422 148.052801 
" clip-path="url(#p46504a420c)" style="fill: none; stroke: #2d1e3e; stroke-width: 1.5; stroke-linecap: square"/>
   </g>
   <g id="line2d_64"/>
   <g id="line2d_65"/>
   <g id="line2d_66"/>
   <g id="line2d_67"/>
   <g id="line2d_68"/>
   <g id="line2d_69"/>
   <g id="patch_9">
    <path d="M 304.832472 284.4 
L 304.832472 7.2 
" style="fill: none; stroke: #000000; stroke-width: 0.8; stroke-linejoin: miter; stroke-linecap: square"/>
   </g>
   <g id="patch_10">
    <path d="M 507.741562 284.4 
L 507.741562 7.2 
" style="fill: none; stroke: #000000; stroke-width: 0.8; stroke-linejoin: miter; stroke-linecap: square"/>
   </g>
   <g id="patch_11">
    <path d="M 304.832472 284.4 
L 507.741563 284.4 
" style="fill: none; stroke: #000000; stroke-width: 0.8; stroke-linejoin: miter; stroke-linecap: square"/>
   </g>
   <g id="patch_12">
    <path d="M 304.832472 7.2 
L 507.741563 7.2 
" style="fill: none; stroke: #000000; stroke-width: 0.8; stroke-linejoin: miter; stroke-linecap: square"/>
   </g>
   <g id="legend_2">
    <g id="patch_13">
     <path d="M 422.343125 279.4 
L 500.741562 279.4 
Q 502.741562 279.4 502.741562 277.4 
L 502.741562 175.33125 
Q 502.741562 173.33125 500.741562 173.33125 
L 422.343125 173.33125 
Q 420.343125 173.33125 420.343125 175.33125 
L 420.343125 277.4 
Q 420.343125 279.4 422.343125 279.4 
z
" style="fill: #ffffff; opacity: 0.8; stroke: #cccccc; stroke-linejoin: miter"/>
    </g>
    <g id="text_28">
     <!-- Library size |R| -->
     <g transform="translate(424.343125 184.973437) scale(0.1 -0.1)">
      <use xlink:href="#DejaVuSans-4c"/>
      <use xlink:href="#DejaVuSans-69" x="55.712891"/>
      <use xlink:href="#DejaVuSans-62" x="83.496094"/>
      <use xlink:href="#DejaVuSans-72" x="146.972656"/>
      <use xlink:href="#DejaVuSans-61" x="188.085938"/>
      <use xlink:href="#DejaVuSans-72" x="249.365234"/>
      <use xlink:href="#DejaVuSans-79" x="290.478516"/>
      <use xlink:href="#DejaVuSans-20" x="349.658203"/>
      <use xlink:href="#DejaVuSans-73" x="381.445312"/>
      <use xlink:href="#DejaVuSans-69" x="433.544922"/>
      <use xlink:href="#DejaVuSans-7a" x="461.328125"/>
      <use xlink:href="#DejaVuSans-65" x="513.818359"/>
      <use xlink:href="#DejaVuSans-20" x="575.341797"/>
      <use xlink:href="#DejaVuSans-7c" x="607.128906"/>
      <use xlink:href="#DejaVuSans-52" x="640.820312"/>
      <use xlink:href="#DejaVuSans-7c" x="710.302734"/>
     </g>
    </g>
    <g id="line2d_70">
     <path d="M 441.179844 196.429688 
L 451.179844 196.429688 
L 461.179844 196.429688 
" style="fill: none; stroke: #e9c4c1; stroke-width: 1.5; stroke-linecap: square"/>
    </g>
    <g id="text_29">
     <!-- 15 -->
     <g transform="translate(469.179844 199.929688) scale(0.1 -0.1)">
      <use xlink:href="#DejaVuSans-31"/>
      <use xlink:href="#DejaVuSans-35" x="63.623047"/>
     </g>
    </g>
    <g id="line2d_71">
     <path d="M 441.179844 211.107812 
L 451.179844 211.107812 
L 461.179844 211.107812 
" style="fill: none; stroke: #d8a0aa; stroke-width: 1.5; stroke-linecap: square"/>
    </g>
    <g id="text_30">
     <!-- 30 -->
     <g transform="translate(469.179844 214.607812) scale(0.1 -0.1)">
      <use xlink:href="#DejaVuSans-33"/>
      <use xlink:href="#DejaVuSans-30" x="63.623047"/>
     </g>
    </g>
    <g id="line2d_72">
     <path d="M 441.179844 225.785937 
L 451.179844 225.785937 
L 461.179844 225.785937 
" style="fill: none; stroke: #c07d99; stroke-width: 1.5; stroke-linecap: square"/>
    </g>
    <g id="text_31">
     <!-- 45 -->
     <g transform="translate(469.179844 229.285937) scale(0.1 -0.1)">
      <use xlink:href="#DejaVuSans-34"/>
      <use xlink:href="#DejaVuSans-35" x="63.623047"/>
     </g>
    </g>
    <g id="line2d_73">
     <path d="M 441.179844 240.464062 
L 451.179844 240.464062 
L 461.179844 240.464062 
" style="fill: none; stroke: #9d5d89; stroke-width: 1.5; stroke-linecap: square"/>
    </g>
    <g id="text_32">
     <!-- 60 -->
     <g transform="translate(469.179844 243.964062) scale(0.1 -0.1)">
      <use xlink:href="#DejaVuSans-36"/>
      <use xlink:href="#DejaVuSans-30" x="63.623047"/>
     </g>
    </g>
    <g id="line2d_74">
     <path d="M 441.179844 255.142187 
L 451.179844 255.142187 
L 461.179844 255.142187 
" style="fill: none; stroke: #754475; stroke-width: 1.5; stroke-linecap: square"/>
    </g>
    <g id="text_33">
     <!-- 75 -->
     <g transform="translate(469.179844 258.642187) scale(0.1 -0.1)">
      <use xlink:href="#DejaVuSans-37"/>
      <use xlink:href="#DejaVuSans-35" x="63.623047"/>
     </g>
    </g>
    <g id="line2d_75">
     <path d="M 441.179844 269.820312 
L 451.179844 269.820312 
L 461.179844 269.820312 
" style="fill: none; stroke: #492d58; stroke-width: 1.5; stroke-linecap: square"/>
    </g>
    <g id="text_34">
     <!-- 90 -->
     <g transform="translate(469.179844 273.320312) scale(0.1 -0.1)">
      <use xlink:href="#DejaVuSans-39"/>
      <use xlink:href="#DejaVuSans-30" x="63.623047"/>
     </g>
    </g>
   </g>
  </g>
 </g>
 <defs>
  <clipPath id="p86b1c43a60">
   <rect x="61.341563" y="7.2" width="202.909091" height="277.2"/>
  </clipPath>
  <clipPath id="p46504a420c">
   <rect x="304.832472" y="7.2" width="202.909091" height="277.2"/>
  </clipPath>
 </defs>
</svg>
