<?xml version="1.0" encoding="utf-8" standalone="no"?>
<!DOCTYPE svg PUBLIC "-//W3C//DTD SVG 1.1//EN"
  "http://www.w3.org/Graphics/SVG/1.1/DTD/svg11.dtd">
<svg xmlns:xlink="http://www.w3.org/1999/xlink" width="455.963437pt" height="266.51625pt" viewBox="0 0 455.963437 266.51625" xmlns="http://www.w3.org/2000/svg" version="1.1">
 <metadata>
  <rdf:RDF xmlns:dc="http://purl.org/dc/elements/1.1/" xmlns:cc="http://creativecommons.org/ns#" xmlns:rdf="http://www.w3.org/1999/02/22-rdf-syntax-ns#">
   <cc:Work>
    <dc:type rdf:resource="http://purl.org/dc/dcmitype/StillImage"/>
    <dc:date>2024-01-23T15:31:32.849920</dc:date>
    <dc:format>image/svg+xml</dc:format>
    <dc:creator>
     <cc:Agent>
      <dc:title>Matplotlib v3.8.2, https://matplotlib.org/</dc:title>
     </cc:Agent>
    </dc:creator>
   </cc:Work>
  </rdf:RDF>
 </metadata>
 <defs>
  <style type="text/css">*{stroke-linejoin: round; stroke-linecap: butt}</style>
 </defs>
 <g id="figure_1">
  <g id="patch_1">
   <path d="M 0 266.51625 
L 455.963437 266.51625 
L 455.963437 0 
L 0 0 
z
" style="fill: #ffffff"/>
  </g>
  <g id="axes_1">
   <g id="patch_2">
    <path d="M 58.163438 228.96 
L 448.763438 228.96 
L 448.763438 7.2 
L 58.163438 7.2 
z
" style="fill: #ffffff"/>
   </g>
   <g id="matplotlib.axis_1">
    <g id="xtick_1">
     <g id="line2d_1">
      <defs>
       <path id="m5bfc9cf68b" d="M 0 0 
L 0 3.5 
" style="stroke: #000000; stroke-width: 0.8"/>
      </defs>
      <g>
       <use xlink:href="#m5bfc9cf68b" x="75.917983" y="228.96" style="stroke: #000000; stroke-width: 0.8"/>
      </g>
     </g>
     <g id="text_1">
      <!-- 0 -->
      <g transform="translate(72.736733 243.558437) scale(0.1 -0.1)">
       <defs>
        <path id="DejaVuSans-30" d="M 2034 4250 
Q 1547 4250 1301 3770 
Q 1056 3291 1056 2328 
Q 1056 1369 1301 889 
Q 1547 409 2034 409 
Q 2525 409 2770 889 
Q 3016 1369 3016 2328 
Q 3016 3291 2770 3770 
Q 2525 4250 2034 4250 
z
M 2034 4750 
Q 2819 4750 3233 4129 
Q 3647 3509 3647 2328 
Q 3647 1150 3233 529 
Q 2819 -91 2034 -91 
Q 1250 -91 836 529 
Q 422 1150 422 2328 
Q 422 3509 836 4129 
Q 1250 4750 2034 4750 
z
" transform="scale(0.015625)"/>
       </defs>
       <use xlink:href="#DejaVuSans-30"/>
      </g>
     </g>
    </g>
    <g id="xtick_2">
     <g id="line2d_2">
      <g>
       <use xlink:href="#m5bfc9cf68b" x="147.65352" y="228.96" style="stroke: #000000; stroke-width: 0.8"/>
      </g>
     </g>
     <g id="text_2">
      <!-- 20 -->
      <g transform="translate(141.29102 243.558437) scale(0.1 -0.1)">
       <defs>
        <path id="DejaVuSans-32" d="M 1228 531 
L 3431 531 
L 3431 0 
L 469 0 
L 469 531 
Q 828 903 1448 1529 
Q 2069 2156 2228 2338 
Q 2531 2678 2651 2914 
Q 2772 3150 2772 3378 
Q 2772 3750 2511 3984 
Q 2250 4219 1831 4219 
Q 1534 4219 1204 4116 
Q 875 4013 500 3803 
L 500 4441 
Q 881 4594 1212 4672 
Q 1544 4750 1819 4750 
Q 2544 4750 2975 4387 
Q 3406 4025 3406 3419 
Q 3406 3131 3298 2873 
Q 3191 2616 2906 2266 
Q 2828 2175 2409 1742 
Q 1991 1309 1228 531 
z
" transform="scale(0.015625)"/>
       </defs>
       <use xlink:href="#DejaVuSans-32"/>
       <use xlink:href="#DejaVuSans-30" x="63.623047"/>
      </g>
     </g>
    </g>
    <g id="xtick_3">
     <g id="line2d_3">
      <g>
       <use xlink:href="#m5bfc9cf68b" x="219.389057" y="228.96" style="stroke: #000000; stroke-width: 0.8"/>
      </g>
     </g>
     <g id="text_3">
      <!-- 40 -->
      <g transform="translate(213.026557 243.558437) scale(0.1 -0.1)">
       <defs>
        <path id="DejaVuSans-34" d="M 2419 4116 
L 825 1625 
L 2419 1625 
L 2419 4116 
z
M 2253 4666 
L 3047 4666 
L 3047 1625 
L 3713 1625 
L 3713 1100 
L 3047 1100 
L 3047 0 
L 2419 0 
L 2419 1100 
L 313 1100 
L 313 1709 
L 2253 4666 
z
" transform="scale(0.015625)"/>
       </defs>
       <use xlink:href="#DejaVuSans-34"/>
       <use xlink:href="#DejaVuSans-30" x="63.623047"/>
      </g>
     </g>
    </g>
    <g id="xtick_4">
     <g id="line2d_4">
      <g>
       <use xlink:href="#m5bfc9cf68b" x="291.124595" y="228.96" style="stroke: #000000; stroke-width: 0.8"/>
      </g>
     </g>
     <g id="text_4">
      <!-- 60 -->
      <g transform="translate(284.762095 243.558437) scale(0.1 -0.1)">
       <defs>
        <path id="DejaVuSans-36" d="M 2113 2584 
Q 1688 2584 1439 2293 
Q 1191 2003 1191 1497 
Q 1191 994 1439 701 
Q 1688 409 2113 409 
Q 2538 409 2786 701 
Q 3034 994 3034 1497 
Q 3034 2003 2786 2293 
Q 2538 2584 2113 2584 
z
M 3366 4563 
L 3366 3988 
Q 3128 4100 2886 4159 
Q 2644 4219 2406 4219 
Q 1781 4219 1451 3797 
Q 1122 3375 1075 2522 
Q 1259 2794 1537 2939 
Q 1816 3084 2150 3084 
Q 2853 3084 3261 2657 
Q 3669 2231 3669 1497 
Q 3669 778 3244 343 
Q 2819 -91 2113 -91 
Q 1303 -91 875 529 
Q 447 1150 447 2328 
Q 447 3434 972 4092 
Q 1497 4750 2381 4750 
Q 2619 4750 2861 4703 
Q 3103 4656 3366 4563 
z
" transform="scale(0.015625)"/>
       </defs>
       <use xlink:href="#DejaVuSans-36"/>
       <use xlink:href="#DejaVuSans-30" x="63.623047"/>
      </g>
     </g>
    </g>
    <g id="xtick_5">
     <g id="line2d_5">
      <g>
       <use xlink:href="#m5bfc9cf68b" x="362.860132" y="228.96" style="stroke: #000000; stroke-width: 0.8"/>
      </g>
     </g>
     <g id="text_5">
      <!-- 80 -->
      <g transform="translate(356.497632 243.558437) scale(0.1 -0.1)">
       <defs>
        <path id="DejaVuSans-38" d="M 2034 2216 
Q 1584 2216 1326 1975 
Q 1069 1734 1069 1313 
Q 1069 891 1326 650 
Q 1584 409 2034 409 
Q 2484 409 2743 651 
Q 3003 894 3003 1313 
Q 3003 1734 2745 1975 
Q 2488 2216 2034 2216 
z
M 1403 2484 
Q 997 2584 770 2862 
Q 544 3141 544 3541 
Q 544 4100 942 4425 
Q 1341 4750 2034 4750 
Q 2731 4750 3128 4425 
Q 3525 4100 3525 3541 
Q 3525 3141 3298 2862 
Q 3072 2584 2669 2484 
Q 3125 2378 3379 2068 
Q 3634 1759 3634 1313 
Q 3634 634 3220 271 
Q 2806 -91 2034 -91 
Q 1263 -91 848 271 
Q 434 634 434 1313 
Q 434 1759 690 2068 
Q 947 2378 1403 2484 
z
M 1172 3481 
Q 1172 3119 1398 2916 
Q 1625 2713 2034 2713 
Q 2441 2713 2670 2916 
Q 2900 3119 2900 3481 
Q 2900 3844 2670 4047 
Q 2441 4250 2034 4250 
Q 1625 4250 1398 4047 
Q 1172 3844 1172 3481 
z
" transform="scale(0.015625)"/>
       </defs>
       <use xlink:href="#DejaVuSans-38"/>
       <use xlink:href="#DejaVuSans-30" x="63.623047"/>
      </g>
     </g>
    </g>
    <g id="xtick_6">
     <g id="line2d_6">
      <g>
       <use xlink:href="#m5bfc9cf68b" x="434.595669" y="228.96" style="stroke: #000000; stroke-width: 0.8"/>
      </g>
     </g>
     <g id="text_6">
      <!-- 100 -->
      <g transform="translate(425.051919 243.558437) scale(0.1 -0.1)">
       <defs>
        <path id="DejaVuSans-31" d="M 794 531 
L 1825 531 
L 1825 4091 
L 703 3866 
L 703 4441 
L 1819 4666 
L 2450 4666 
L 2450 531 
L 3481 531 
L 3481 0 
L 794 0 
L 794 531 
z
" transform="scale(0.015625)"/>
       </defs>
       <use xlink:href="#DejaVuSans-31"/>
       <use xlink:href="#DejaVuSans-30" x="63.623047"/>
       <use xlink:href="#DejaVuSans-30" x="127.246094"/>
      </g>
     </g>
    </g>
    <g id="text_7">
     <!-- Sequence position (bp) -->
     <g transform="translate(195.565781 257.236562) scale(0.1 -0.1)">
      <defs>
       <path id="DejaVuSans-53" d="M 3425 4513 
L 3425 3897 
Q 3066 4069 2747 4153 
Q 2428 4238 2131 4238 
Q 1616 4238 1336 4038 
Q 1056 3838 1056 3469 
Q 1056 3159 1242 3001 
Q 1428 2844 1947 2747 
L 2328 2669 
Q 3034 2534 3370 2195 
Q 3706 1856 3706 1288 
Q 3706 609 3251 259 
Q 2797 -91 1919 -91 
Q 1588 -91 1214 -16 
Q 841 59 441 206 
L 441 856 
Q 825 641 1194 531 
Q 1563 422 1919 422 
Q 2459 422 2753 634 
Q 3047 847 3047 1241 
Q 3047 1584 2836 1778 
Q 2625 1972 2144 2069 
L 1759 2144 
Q 1053 2284 737 2584 
Q 422 2884 422 3419 
Q 422 4038 858 4394 
Q 1294 4750 2059 4750 
Q 2388 4750 2728 4690 
Q 3069 4631 3425 4513 
z
" transform="scale(0.015625)"/>
       <path id="DejaVuSans-65" d="M 3597 1894 
L 3597 1613 
L 953 1613 
Q 991 1019 1311 708 
Q 1631 397 2203 397 
Q 2534 397 2845 478 
Q 3156 559 3463 722 
L 3463 178 
Q 3153 47 2828 -22 
Q 2503 -91 2169 -91 
Q 1331 -91 842 396 
Q 353 884 353 1716 
Q 353 2575 817 3079 
Q 1281 3584 2069 3584 
Q 2775 3584 3186 3129 
Q 3597 2675 3597 1894 
z
M 3022 2063 
Q 3016 2534 2758 2815 
Q 2500 3097 2075 3097 
Q 1594 3097 1305 2825 
Q 1016 2553 972 2059 
L 3022 2063 
z
" transform="scale(0.015625)"/>
       <path id="DejaVuSans-71" d="M 947 1747 
Q 947 1113 1208 752 
Q 1469 391 1925 391 
Q 2381 391 2643 752 
Q 2906 1113 2906 1747 
Q 2906 2381 2643 2742 
Q 2381 3103 1925 3103 
Q 1469 3103 1208 2742 
Q 947 2381 947 1747 
z
M 2906 525 
Q 2725 213 2448 61 
Q 2172 -91 1784 -91 
Q 1150 -91 751 415 
Q 353 922 353 1747 
Q 353 2572 751 3078 
Q 1150 3584 1784 3584 
Q 2172 3584 2448 3432 
Q 2725 3281 2906 2969 
L 2906 3500 
L 3481 3500 
L 3481 -1331 
L 2906 -1331 
L 2906 525 
z
" transform="scale(0.015625)"/>
       <path id="DejaVuSans-75" d="M 544 1381 
L 544 3500 
L 1119 3500 
L 1119 1403 
Q 1119 906 1312 657 
Q 1506 409 1894 409 
Q 2359 409 2629 706 
Q 2900 1003 2900 1516 
L 2900 3500 
L 3475 3500 
L 3475 0 
L 2900 0 
L 2900 538 
Q 2691 219 2414 64 
Q 2138 -91 1772 -91 
Q 1169 -91 856 284 
Q 544 659 544 1381 
z
M 1991 3584 
L 1991 3584 
z
" transform="scale(0.015625)"/>
       <path id="DejaVuSans-6e" d="M 3513 2113 
L 3513 0 
L 2938 0 
L 2938 2094 
Q 2938 2591 2744 2837 
Q 2550 3084 2163 3084 
Q 1697 3084 1428 2787 
Q 1159 2491 1159 1978 
L 1159 0 
L 581 0 
L 581 3500 
L 1159 3500 
L 1159 2956 
Q 1366 3272 1645 3428 
Q 1925 3584 2291 3584 
Q 2894 3584 3203 3211 
Q 3513 2838 3513 2113 
z
" transform="scale(0.015625)"/>
       <path id="DejaVuSans-63" d="M 3122 3366 
L 3122 2828 
Q 2878 2963 2633 3030 
Q 2388 3097 2138 3097 
Q 1578 3097 1268 2742 
Q 959 2388 959 1747 
Q 959 1106 1268 751 
Q 1578 397 2138 397 
Q 2388 397 2633 464 
Q 2878 531 3122 666 
L 3122 134 
Q 2881 22 2623 -34 
Q 2366 -91 2075 -91 
Q 1284 -91 818 406 
Q 353 903 353 1747 
Q 353 2603 823 3093 
Q 1294 3584 2113 3584 
Q 2378 3584 2631 3529 
Q 2884 3475 3122 3366 
z
" transform="scale(0.015625)"/>
       <path id="DejaVuSans-20" transform="scale(0.015625)"/>
       <path id="DejaVuSans-70" d="M 1159 525 
L 1159 -1331 
L 581 -1331 
L 581 3500 
L 1159 3500 
L 1159 2969 
Q 1341 3281 1617 3432 
Q 1894 3584 2278 3584 
Q 2916 3584 3314 3078 
Q 3713 2572 3713 1747 
Q 3713 922 3314 415 
Q 2916 -91 2278 -91 
Q 1894 -91 1617 61 
Q 1341 213 1159 525 
z
M 3116 1747 
Q 3116 2381 2855 2742 
Q 2594 3103 2138 3103 
Q 1681 3103 1420 2742 
Q 1159 2381 1159 1747 
Q 1159 1113 1420 752 
Q 1681 391 2138 391 
Q 2594 391 2855 752 
Q 3116 1113 3116 1747 
z
" transform="scale(0.015625)"/>
       <path id="DejaVuSans-6f" d="M 1959 3097 
Q 1497 3097 1228 2736 
Q 959 2375 959 1747 
Q 959 1119 1226 758 
Q 1494 397 1959 397 
Q 2419 397 2687 759 
Q 2956 1122 2956 1747 
Q 2956 2369 2687 2733 
Q 2419 3097 1959 3097 
z
M 1959 3584 
Q 2709 3584 3137 3096 
Q 3566 2609 3566 1747 
Q 3566 888 3137 398 
Q 2709 -91 1959 -91 
Q 1206 -91 779 398 
Q 353 888 353 1747 
Q 353 2609 779 3096 
Q 1206 3584 1959 3584 
z
" transform="scale(0.015625)"/>
       <path id="DejaVuSans-73" d="M 2834 3397 
L 2834 2853 
Q 2591 2978 2328 3040 
Q 2066 3103 1784 3103 
Q 1356 3103 1142 2972 
Q 928 2841 928 2578 
Q 928 2378 1081 2264 
Q 1234 2150 1697 2047 
L 1894 2003 
Q 2506 1872 2764 1633 
Q 3022 1394 3022 966 
Q 3022 478 2636 193 
Q 2250 -91 1575 -91 
Q 1294 -91 989 -36 
Q 684 19 347 128 
L 347 722 
Q 666 556 975 473 
Q 1284 391 1588 391 
Q 1994 391 2212 530 
Q 2431 669 2431 922 
Q 2431 1156 2273 1281 
Q 2116 1406 1581 1522 
L 1381 1569 
Q 847 1681 609 1914 
Q 372 2147 372 2553 
Q 372 3047 722 3315 
Q 1072 3584 1716 3584 
Q 2034 3584 2315 3537 
Q 2597 3491 2834 3397 
z
" transform="scale(0.015625)"/>
       <path id="DejaVuSans-69" d="M 603 3500 
L 1178 3500 
L 1178 0 
L 603 0 
L 603 3500 
z
M 603 4863 
L 1178 4863 
L 1178 4134 
L 603 4134 
L 603 4863 
z
" transform="scale(0.015625)"/>
       <path id="DejaVuSans-74" d="M 1172 4494 
L 1172 3500 
L 2356 3500 
L 2356 3053 
L 1172 3053 
L 1172 1153 
Q 1172 725 1289 603 
Q 1406 481 1766 481 
L 2356 481 
L 2356 0 
L 1766 0 
Q 1100 0 847 248 
Q 594 497 594 1153 
L 594 3053 
L 172 3053 
L 172 3500 
L 594 3500 
L 594 4494 
L 1172 4494 
z
" transform="scale(0.015625)"/>
       <path id="DejaVuSans-28" d="M 1984 4856 
Q 1566 4138 1362 3434 
Q 1159 2731 1159 2009 
Q 1159 1288 1364 580 
Q 1569 -128 1984 -844 
L 1484 -844 
Q 1016 -109 783 600 
Q 550 1309 550 2009 
Q 550 2706 781 3412 
Q 1013 4119 1484 4856 
L 1984 4856 
z
" transform="scale(0.015625)"/>
       <path id="DejaVuSans-62" d="M 3116 1747 
Q 3116 2381 2855 2742 
Q 2594 3103 2138 3103 
Q 1681 3103 1420 2742 
Q 1159 2381 1159 1747 
Q 1159 1113 1420 752 
Q 1681 391 2138 391 
Q 2594 391 2855 752 
Q 3116 1113 3116 1747 
z
M 1159 2969 
Q 1341 3281 1617 3432 
Q 1894 3584 2278 3584 
Q 2916 3584 3314 3078 
Q 3713 2572 3713 1747 
Q 3713 922 3314 415 
Q 2916 -91 2278 -91 
Q 1894 -91 1617 61 
Q 1341 213 1159 525 
L 1159 0 
L 581 0 
L 581 4863 
L 1159 4863 
L 1159 2969 
z
" transform="scale(0.015625)"/>
       <path id="DejaVuSans-29" d="M 513 4856 
L 1013 4856 
Q 1481 4119 1714 3412 
Q 1947 2706 1947 2009 
Q 1947 1309 1714 600 
Q 1481 -109 1013 -844 
L 513 -844 
Q 928 -128 1133 580 
Q 1338 1288 1338 2009 
Q 1338 2731 1133 3434 
Q 928 4138 513 4856 
z
" transform="scale(0.015625)"/>
      </defs>
      <use xlink:href="#DejaVuSans-53"/>
      <use xlink:href="#DejaVuSans-65" x="63.476562"/>
      <use xlink:href="#DejaVuSans-71" x="125"/>
      <use xlink:href="#DejaVuSans-75" x="188.476562"/>
      <use xlink:href="#DejaVuSans-65" x="251.855469"/>
      <use xlink:href="#DejaVuSans-6e" x="313.378906"/>
      <use xlink:href="#DejaVuSans-63" x="376.757812"/>
      <use xlink:href="#DejaVuSans-65" x="431.738281"/>
      <use xlink:href="#DejaVuSans-20" x="493.261719"/>
      <use xlink:href="#DejaVuSans-70" x="525.048828"/>
      <use xlink:href="#DejaVuSans-6f" x="588.525391"/>
      <use xlink:href="#DejaVuSans-73" x="649.707031"/>
      <use xlink:href="#DejaVuSans-69" x="701.806641"/>
      <use xlink:href="#DejaVuSans-74" x="729.589844"/>
      <use xlink:href="#DejaVuSans-69" x="768.798828"/>
      <use xlink:href="#DejaVuSans-6f" x="796.582031"/>
      <use xlink:href="#DejaVuSans-6e" x="857.763672"/>
      <use xlink:href="#DejaVuSans-20" x="921.142578"/>
      <use xlink:href="#DejaVuSans-28" x="952.929688"/>
      <use xlink:href="#DejaVuSans-62" x="991.943359"/>
      <use xlink:href="#DejaVuSans-70" x="1055.419922"/>
      <use xlink:href="#DejaVuSans-29" x="1118.896484"/>
     </g>
    </g>
   </g>
   <g id="matplotlib.axis_2">
    <g id="ytick_1">
     <g id="line2d_7">
      <defs>
       <path id="m696f9e56a1" d="M 0 0 
L -3.5 0 
" style="stroke: #000000; stroke-width: 0.8"/>
      </defs>
      <g>
       <use xlink:href="#m696f9e56a1" x="58.163438" y="218.88" style="stroke: #000000; stroke-width: 0.8"/>
      </g>
     </g>
     <g id="text_8">
      <!-- 0 -->
      <g transform="translate(44.800938 222.679219) scale(0.1 -0.1)">
       <use xlink:href="#DejaVuSans-30"/>
      </g>
     </g>
    </g>
    <g id="ytick_2">
     <g id="line2d_8">
      <g>
       <use xlink:href="#m696f9e56a1" x="58.163438" y="179.65821" style="stroke: #000000; stroke-width: 0.8"/>
      </g>
     </g>
     <g id="text_9">
      <!-- 100 -->
      <g transform="translate(32.075938 183.457429) scale(0.1 -0.1)">
       <use xlink:href="#DejaVuSans-31"/>
       <use xlink:href="#DejaVuSans-30" x="63.623047"/>
       <use xlink:href="#DejaVuSans-30" x="127.246094"/>
      </g>
     </g>
    </g>
    <g id="ytick_3">
     <g id="line2d_9">
      <g>
       <use xlink:href="#m696f9e56a1" x="58.163438" y="140.43642" style="stroke: #000000; stroke-width: 0.8"/>
      </g>
     </g>
     <g id="text_10">
      <!-- 200 -->
      <g transform="translate(32.075938 144.235639) scale(0.1 -0.1)">
       <use xlink:href="#DejaVuSans-32"/>
       <use xlink:href="#DejaVuSans-30" x="63.623047"/>
       <use xlink:href="#DejaVuSans-30" x="127.246094"/>
      </g>
     </g>
    </g>
    <g id="ytick_4">
     <g id="line2d_10">
      <g>
       <use xlink:href="#m696f9e56a1" x="58.163438" y="101.21463" style="stroke: #000000; stroke-width: 0.8"/>
      </g>
     </g>
     <g id="text_11">
      <!-- 300 -->
      <g transform="translate(32.075938 105.013849) scale(0.1 -0.1)">
       <defs>
        <path id="DejaVuSans-33" d="M 2597 2516 
Q 3050 2419 3304 2112 
Q 3559 1806 3559 1356 
Q 3559 666 3084 287 
Q 2609 -91 1734 -91 
Q 1441 -91 1130 -33 
Q 819 25 488 141 
L 488 750 
Q 750 597 1062 519 
Q 1375 441 1716 441 
Q 2309 441 2620 675 
Q 2931 909 2931 1356 
Q 2931 1769 2642 2001 
Q 2353 2234 1838 2234 
L 1294 2234 
L 1294 2753 
L 1863 2753 
Q 2328 2753 2575 2939 
Q 2822 3125 2822 3475 
Q 2822 3834 2567 4026 
Q 2313 4219 1838 4219 
Q 1578 4219 1281 4162 
Q 984 4106 628 3988 
L 628 4550 
Q 988 4650 1302 4700 
Q 1616 4750 1894 4750 
Q 2613 4750 3031 4423 
Q 3450 4097 3450 3541 
Q 3450 3153 3228 2886 
Q 3006 2619 2597 2516 
z
" transform="scale(0.015625)"/>
       </defs>
       <use xlink:href="#DejaVuSans-33"/>
       <use xlink:href="#DejaVuSans-30" x="63.623047"/>
       <use xlink:href="#DejaVuSans-30" x="127.246094"/>
      </g>
     </g>
    </g>
    <g id="ytick_5">
     <g id="line2d_11">
      <g>
       <use xlink:href="#m696f9e56a1" x="58.163438" y="61.99284" style="stroke: #000000; stroke-width: 0.8"/>
      </g>
     </g>
     <g id="text_12">
      <!-- 400 -->
      <g transform="translate(32.075938 65.792059) scale(0.1 -0.1)">
       <use xlink:href="#DejaVuSans-34"/>
       <use xlink:href="#DejaVuSans-30" x="63.623047"/>
       <use xlink:href="#DejaVuSans-30" x="127.246094"/>
      </g>
     </g>
    </g>
    <g id="ytick_6">
     <g id="line2d_12">
      <g>
       <use xlink:href="#m696f9e56a1" x="58.163438" y="22.771051" style="stroke: #000000; stroke-width: 0.8"/>
      </g>
     </g>
     <g id="text_13">
      <!-- 500 -->
      <g transform="translate(32.075938 26.570269) scale(0.1 -0.1)">
       <defs>
        <path id="DejaVuSans-35" d="M 691 4666 
L 3169 4666 
L 3169 4134 
L 1269 4134 
L 1269 2991 
Q 1406 3038 1543 3061 
Q 1681 3084 1819 3084 
Q 2600 3084 3056 2656 
Q 3513 2228 3513 1497 
Q 3513 744 3044 326 
Q 2575 -91 1722 -91 
Q 1428 -91 1123 -41 
Q 819 9 494 109 
L 494 744 
Q 775 591 1075 516 
Q 1375 441 1709 441 
Q 2250 441 2565 725 
Q 2881 1009 2881 1497 
Q 2881 1984 2565 2268 
Q 2250 2553 1709 2553 
Q 1456 2553 1204 2497 
Q 953 2441 691 2322 
L 691 4666 
z
" transform="scale(0.015625)"/>
       </defs>
       <use xlink:href="#DejaVuSans-35"/>
       <use xlink:href="#DejaVuSans-30" x="63.623047"/>
       <use xlink:href="#DejaVuSans-30" x="127.246094"/>
      </g>
     </g>
    </g>
    <g id="text_14">
     <!-- Number of motifs -->
     <g transform="translate(14.798438 161.807344) rotate(-90) scale(0.1 -0.1)">
      <defs>
       <path id="DejaVuSans-4e" d="M 628 4666 
L 1478 4666 
L 3547 763 
L 3547 4666 
L 4159 4666 
L 4159 0 
L 3309 0 
L 1241 3903 
L 1241 0 
L 628 0 
L 628 4666 
z
" transform="scale(0.015625)"/>
       <path id="DejaVuSans-6d" d="M 3328 2828 
Q 3544 3216 3844 3400 
Q 4144 3584 4550 3584 
Q 5097 3584 5394 3201 
Q 5691 2819 5691 2113 
L 5691 0 
L 5113 0 
L 5113 2094 
Q 5113 2597 4934 2840 
Q 4756 3084 4391 3084 
Q 3944 3084 3684 2787 
Q 3425 2491 3425 1978 
L 3425 0 
L 2847 0 
L 2847 2094 
Q 2847 2600 2669 2842 
Q 2491 3084 2119 3084 
Q 1678 3084 1418 2786 
Q 1159 2488 1159 1978 
L 1159 0 
L 581 0 
L 581 3500 
L 1159 3500 
L 1159 2956 
Q 1356 3278 1631 3431 
Q 1906 3584 2284 3584 
Q 2666 3584 2933 3390 
Q 3200 3197 3328 2828 
z
" transform="scale(0.015625)"/>
       <path id="DejaVuSans-72" d="M 2631 2963 
Q 2534 3019 2420 3045 
Q 2306 3072 2169 3072 
Q 1681 3072 1420 2755 
Q 1159 2438 1159 1844 
L 1159 0 
L 581 0 
L 581 3500 
L 1159 3500 
L 1159 2956 
Q 1341 3275 1631 3429 
Q 1922 3584 2338 3584 
Q 2397 3584 2469 3576 
Q 2541 3569 2628 3553 
L 2631 2963 
z
" transform="scale(0.015625)"/>
       <path id="DejaVuSans-66" d="M 2375 4863 
L 2375 4384 
L 1825 4384 
Q 1516 4384 1395 4259 
Q 1275 4134 1275 3809 
L 1275 3500 
L 2222 3500 
L 2222 3053 
L 1275 3053 
L 1275 0 
L 697 0 
L 697 3053 
L 147 3053 
L 147 3500 
L 697 3500 
L 697 3744 
Q 697 4328 969 4595 
Q 1241 4863 1831 4863 
L 2375 4863 
z
" transform="scale(0.015625)"/>
      </defs>
      <use xlink:href="#DejaVuSans-4e"/>
      <use xlink:href="#DejaVuSans-75" x="74.804688"/>
      <use xlink:href="#DejaVuSans-6d" x="138.183594"/>
      <use xlink:href="#DejaVuSans-62" x="235.595703"/>
      <use xlink:href="#DejaVuSans-65" x="299.072266"/>
      <use xlink:href="#DejaVuSans-72" x="360.595703"/>
      <use xlink:href="#DejaVuSans-20" x="401.708984"/>
      <use xlink:href="#DejaVuSans-6f" x="433.496094"/>
      <use xlink:href="#DejaVuSans-66" x="494.677734"/>
      <use xlink:href="#DejaVuSans-20" x="529.882812"/>
      <use xlink:href="#DejaVuSans-6d" x="561.669922"/>
      <use xlink:href="#DejaVuSans-6f" x="659.082031"/>
      <use xlink:href="#DejaVuSans-74" x="720.263672"/>
      <use xlink:href="#DejaVuSans-69" x="759.472656"/>
      <use xlink:href="#DejaVuSans-66" x="787.255859"/>
      <use xlink:href="#DejaVuSans-73" x="822.460938"/>
     </g>
     <!-- covering this position -->
     <g transform="translate(25.99625 171.8175) rotate(-90) scale(0.1 -0.1)">
      <defs>
       <path id="DejaVuSans-76" d="M 191 3500 
L 800 3500 
L 1894 563 
L 2988 3500 
L 3597 3500 
L 2284 0 
L 1503 0 
L 191 3500 
z
" transform="scale(0.015625)"/>
       <path id="DejaVuSans-67" d="M 2906 1791 
Q 2906 2416 2648 2759 
Q 2391 3103 1925 3103 
Q 1463 3103 1205 2759 
Q 947 2416 947 1791 
Q 947 1169 1205 825 
Q 1463 481 1925 481 
Q 2391 481 2648 825 
Q 2906 1169 2906 1791 
z
M 3481 434 
Q 3481 -459 3084 -895 
Q 2688 -1331 1869 -1331 
Q 1566 -1331 1297 -1286 
Q 1028 -1241 775 -1147 
L 775 -588 
Q 1028 -725 1275 -790 
Q 1522 -856 1778 -856 
Q 2344 -856 2625 -561 
Q 2906 -266 2906 331 
L 2906 616 
Q 2728 306 2450 153 
Q 2172 0 1784 0 
Q 1141 0 747 490 
Q 353 981 353 1791 
Q 353 2603 747 3093 
Q 1141 3584 1784 3584 
Q 2172 3584 2450 3431 
Q 2728 3278 2906 2969 
L 2906 3500 
L 3481 3500 
L 3481 434 
z
" transform="scale(0.015625)"/>
       <path id="DejaVuSans-68" d="M 3513 2113 
L 3513 0 
L 2938 0 
L 2938 2094 
Q 2938 2591 2744 2837 
Q 2550 3084 2163 3084 
Q 1697 3084 1428 2787 
Q 1159 2491 1159 1978 
L 1159 0 
L 581 0 
L 581 4863 
L 1159 4863 
L 1159 2956 
Q 1366 3272 1645 3428 
Q 1925 3584 2291 3584 
Q 2894 3584 3203 3211 
Q 3513 2838 3513 2113 
z
" transform="scale(0.015625)"/>
      </defs>
      <use xlink:href="#DejaVuSans-63"/>
      <use xlink:href="#DejaVuSans-6f" x="54.980469"/>
      <use xlink:href="#DejaVuSans-76" x="116.162109"/>
      <use xlink:href="#DejaVuSans-65" x="175.341797"/>
      <use xlink:href="#DejaVuSans-72" x="236.865234"/>
      <use xlink:href="#DejaVuSans-69" x="277.978516"/>
      <use xlink:href="#DejaVuSans-6e" x="305.761719"/>
      <use xlink:href="#DejaVuSans-67" x="369.140625"/>
      <use xlink:href="#DejaVuSans-20" x="432.617188"/>
      <use xlink:href="#DejaVuSans-74" x="464.404297"/>
      <use xlink:href="#DejaVuSans-68" x="503.613281"/>
      <use xlink:href="#DejaVuSans-69" x="566.992188"/>
      <use xlink:href="#DejaVuSans-73" x="594.775391"/>
      <use xlink:href="#DejaVuSans-20" x="646.875"/>
      <use xlink:href="#DejaVuSans-70" x="678.662109"/>
      <use xlink:href="#DejaVuSans-6f" x="742.138672"/>
      <use xlink:href="#DejaVuSans-73" x="803.320312"/>
      <use xlink:href="#DejaVuSans-69" x="855.419922"/>
      <use xlink:href="#DejaVuSans-74" x="883.203125"/>
      <use xlink:href="#DejaVuSans-69" x="922.412109"/>
      <use xlink:href="#DejaVuSans-6f" x="950.195312"/>
      <use xlink:href="#DejaVuSans-6e" x="1011.376953"/>
     </g>
    </g>
   </g>
   <g id="line2d_13">
    <path d="M 75.917983 80.427082 
L 79.50476 76.897121 
L 83.091537 66.307237 
L 86.678314 53.364047 
L 90.26509 34.929805 
L 93.851867 29.046537 
L 97.438644 17.28 
L 101.025421 20.025525 
L 104.612198 26.301012 
L 108.198975 25.124358 
L 111.785752 31.792062 
L 115.372528 27.085447 
L 118.959305 28.654319 
L 122.546082 27.085447 
L 126.132859 30.223191 
L 129.719636 32.18428 
L 133.306413 31.007626 
L 136.89319 32.968716 
L 140.479966 34.537588 
L 144.066743 27.085447 
L 147.65352 21.594397 
L 151.240297 32.18428 
L 154.827074 32.576498 
L 158.413851 31.007626 
L 162.000628 31.007626 
L 165.587404 31.792062 
L 169.174181 32.18428 
L 172.760958 25.908794 
L 176.347735 28.654319 
L 179.934512 35.322023 
L 183.521289 34.929805 
L 187.108066 39.244202 
L 190.694842 32.576498 
L 194.281619 29.830973 
L 197.868396 26.69323 
L 201.455173 27.477665 
L 205.04195 30.615409 
L 208.628727 34.14537 
L 212.215504 31.792062 
L 215.80228 35.322023 
L 219.389057 42.381946 
L 222.975834 52.971829 
L 226.562611 66.307237 
L 230.149388 71.013852 
L 233.736165 80.034864 
L 237.322942 87.879222 
L 240.909718 98.076887 
L 244.496495 94.154708 
L 248.083272 96.900233 
L 251.670049 94.939144 
L 255.256826 95.72358 
L 258.843603 96.508016 
L 262.43038 99.645759 
L 266.017157 97.292451 
L 269.603933 95.72358 
L 273.19071 96.900233 
L 276.777487 95.331362 
L 280.364264 91.409183 
L 283.951041 92.193619 
L 287.537818 96.508016 
L 291.124595 103.960156 
L 294.711371 109.843424 
L 298.298148 115.726693 
L 301.884925 117.687782 
L 305.471702 125.139922 
L 309.058479 136.906459 
L 312.645256 147.496342 
L 316.232033 155.732918 
L 319.818809 162.400623 
L 323.405586 171.029416 
L 326.992363 182.795953 
L 330.57914 187.11035 
L 334.165917 187.11035 
L 337.752694 188.679222 
L 341.339471 192.209183 
L 344.926247 194.954708 
L 348.513024 193.778054 
L 352.099801 198.876887 
L 355.686578 199.661323 
L 359.273355 200.837977 
L 362.860132 197.308016 
L 366.446909 193.385837 
L 370.033685 186.325914 
L 373.620462 177.304903 
L 377.207239 168.676109 
L 380.794016 160.047315 
L 384.380793 151.418521 
L 387.96757 146.711907 
L 391.554347 143.181946 
L 395.141123 135.337588 
L 398.7279 123.571051 
L 402.314677 120.041089 
L 405.901454 110.62786 
L 409.488231 97.684669 
L 413.075008 93.370272 
L 416.661785 86.702568 
L 420.248561 99.253541 
L 423.835338 105.921245 
L 427.422115 117.687782 
L 431.008892 135.729805 
" clip-path="url(#p6639cf18ef)" style="fill: none; stroke: #1f77b4; stroke-width: 1.5; stroke-linecap: square"/>
   </g>
   <g id="line2d_14">
    <path d="M 75.917983 218.88 
L 79.50476 218.88 
L 83.091537 218.88 
L 86.678314 218.88 
L 90.26509 218.88 
L 93.851867 218.88 
L 97.438644 218.88 
L 101.025421 218.88 
L 104.612198 218.88 
L 108.198975 218.88 
L 111.785752 218.88 
L 115.372528 218.88 
L 118.959305 218.88 
L 122.546082 218.88 
L 126.132859 218.88 
L 129.719636 218.88 
L 133.306413 218.88 
L 136.89319 218.88 
L 140.479966 218.88 
L 144.066743 218.88 
L 147.65352 218.88 
L 151.240297 218.88 
L 154.827074 218.88 
L 158.413851 218.88 
L 162.000628 218.88 
L 165.587404 218.88 
L 169.174181 218.88 
L 172.760958 218.88 
L 176.347735 218.88 
L 179.934512 218.88 
L 183.521289 218.88 
L 187.108066 218.88 
L 190.694842 218.88 
L 194.281619 218.88 
L 197.868396 218.88 
L 201.455173 218.88 
L 205.04195 218.88 
L 208.628727 218.88 
L 212.215504 218.88 
L 215.80228 218.88 
L 219.389057 207.897899 
L 222.975834 196.915798 
L 226.562611 188.287004 
L 230.149388 177.697121 
L 233.736165 165.930584 
L 237.322942 153.379611 
L 240.909718 154.164047 
L 244.496495 158.086226 
L 248.083272 160.047315 
L 251.670049 165.146148 
L 255.256826 171.421634 
L 258.843603 178.089339 
L 262.43038 185.149261 
L 266.017157 191.032529 
L 269.603933 192.601401 
L 273.19071 194.170272 
L 276.777487 196.131362 
L 280.364264 200.053541 
L 283.951041 200.445759 
L 287.537818 197.308016 
L 291.124595 197.308016 
L 294.711371 201.230195 
L 298.298148 204.760156 
L 301.884925 206.721245 
L 305.471702 209.46677 
L 309.058479 213.781167 
L 312.645256 218.88 
L 316.232033 218.88 
L 319.818809 218.88 
L 323.405586 218.88 
L 326.992363 218.88 
L 330.57914 218.88 
L 334.165917 218.88 
L 337.752694 218.88 
L 341.339471 218.88 
L 344.926247 218.88 
L 348.513024 218.88 
L 352.099801 218.88 
L 355.686578 218.88 
L 359.273355 218.88 
L 362.860132 218.88 
L 366.446909 218.88 
L 370.033685 218.88 
L 373.620462 218.88 
L 377.207239 218.88 
L 380.794016 218.88 
L 384.380793 218.88 
L 387.96757 218.88 
L 391.554347 218.88 
L 395.141123 218.88 
L 398.7279 218.88 
L 402.314677 218.88 
L 405.901454 218.88 
L 409.488231 218.88 
L 413.075008 218.88 
L 416.661785 218.88 
L 420.248561 218.88 
L 423.835338 218.88 
L 427.422115 218.88 
L 431.008892 218.88 
" clip-path="url(#p6639cf18ef)" style="fill: none; stroke: #ff7f0e; stroke-width: 1.5; stroke-linecap: square"/>
   </g>
   <g id="line2d_15">
    <path d="M 75.917983 218.88 
L 79.50476 218.88 
L 83.091537 218.88 
L 86.678314 218.88 
L 90.26509 218.88 
L 93.851867 218.88 
L 97.438644 218.88 
L 101.025421 218.88 
L 104.612198 218.88 
L 108.198975 218.88 
L 111.785752 218.88 
L 115.372528 218.88 
L 118.959305 218.88 
L 122.546082 218.88 
L 126.132859 218.88 
L 129.719636 218.88 
L 133.306413 218.88 
L 136.89319 218.88 
L 140.479966 218.88 
L 144.066743 218.88 
L 147.65352 218.88 
L 151.240297 218.88 
L 154.827074 218.88 
L 158.413851 218.88 
L 162.000628 218.88 
L 165.587404 218.88 
L 169.174181 218.88 
L 172.760958 218.88 
L 176.347735 218.88 
L 179.934512 218.88 
L 183.521289 218.88 
L 187.108066 218.88 
L 190.694842 218.88 
L 194.281619 218.88 
L 197.868396 218.88 
L 201.455173 218.88 
L 205.04195 218.88 
L 208.628727 218.88 
L 212.215504 218.88 
L 215.80228 218.88 
L 219.389057 218.88 
L 222.975834 218.88 
L 226.562611 218.88 
L 230.149388 218.88 
L 233.736165 218.88 
L 237.322942 218.88 
L 240.909718 218.88 
L 244.496495 218.88 
L 248.083272 218.88 
L 251.670049 218.88 
L 255.256826 218.88 
L 258.843603 218.88 
L 262.43038 218.88 
L 266.017157 218.88 
L 269.603933 218.88 
L 273.19071 218.88 
L 276.777487 218.88 
L 280.364264 218.88 
L 283.951041 218.88 
L 287.537818 218.88 
L 291.124595 218.88 
L 294.711371 218.88 
L 298.298148 216.526693 
L 301.884925 209.858988 
L 305.471702 200.053541 
L 309.058479 183.580389 
L 312.645256 176.912685 
L 316.232033 168.283891 
L 319.818809 156.909572 
L 323.405586 153.379611 
L 326.992363 155.732918 
L 330.57914 166.715019 
L 334.165917 167.107237 
L 337.752694 170.244981 
L 341.339471 178.089339 
L 344.926247 184.757043 
L 348.513024 188.679222 
L 352.099801 191.424747 
L 355.686578 194.954708 
L 359.273355 196.52358 
L 362.860132 198.484669 
L 366.446909 199.661323 
L 370.033685 199.661323 
L 373.620462 196.915798 
L 377.207239 199.269105 
L 380.794016 203.191284 
L 384.380793 207.113463 
L 387.96757 209.46677 
L 391.554347 212.996732 
L 395.141123 218.487782 
L 398.7279 218.88 
L 402.314677 218.88 
L 405.901454 218.88 
L 409.488231 218.88 
L 413.075008 218.88 
L 416.661785 218.88 
L 420.248561 218.88 
L 423.835338 218.88 
L 427.422115 218.88 
L 431.008892 218.88 
" clip-path="url(#p6639cf18ef)" style="fill: none; stroke-dasharray: 5.55,2.4; stroke-dashoffset: 0; stroke: #ff7f0e; stroke-width: 1.5"/>
   </g>
   <g id="line2d_16">
    <path d="M 75.917983 218.88 
L 79.50476 218.88 
L 83.091537 218.88 
L 86.678314 218.88 
L 90.26509 218.88 
L 93.851867 218.88 
L 97.438644 218.88 
L 101.025421 218.88 
L 104.612198 218.88 
L 108.198975 218.88 
L 111.785752 218.88 
L 115.372528 218.88 
L 118.959305 218.88 
L 122.546082 218.88 
L 126.132859 218.88 
L 129.719636 218.88 
L 133.306413 218.88 
L 136.89319 218.88 
L 140.479966 218.88 
L 144.066743 218.88 
L 147.65352 218.88 
L 151.240297 218.88 
L 154.827074 218.88 
L 158.413851 218.88 
L 162.000628 218.88 
L 165.587404 218.88 
L 169.174181 218.88 
L 172.760958 218.88 
L 176.347735 218.88 
L 179.934512 218.88 
L 183.521289 218.88 
L 187.108066 218.88 
L 190.694842 218.88 
L 194.281619 218.88 
L 197.868396 218.88 
L 201.455173 218.88 
L 205.04195 218.88 
L 208.628727 218.88 
L 212.215504 218.88 
L 215.80228 218.88 
L 219.389057 218.88 
L 222.975834 218.88 
L 226.562611 218.88 
L 230.149388 218.88 
L 233.736165 218.88 
L 237.322942 218.88 
L 240.909718 218.88 
L 244.496495 218.88 
L 248.083272 218.88 
L 251.670049 218.88 
L 255.256826 210.251206 
L 258.843603 202.799066 
L 262.43038 195.346926 
L 266.017157 191.032529 
L 269.603933 186.718132 
L 273.19071 179.265992 
L 276.777487 183.188171 
L 280.364264 186.325914 
L 283.951041 186.718132 
L 287.537818 182.403735 
L 291.124595 178.481556 
L 294.711371 180.834864 
L 298.298148 176.520467 
L 301.884925 172.990506 
L 305.471702 175.343813 
L 309.058479 180.442646 
L 312.645256 184.757043 
L 316.232033 185.541479 
L 319.818809 189.463658 
L 323.405586 191.032529 
L 326.992363 180.834864 
L 330.57914 184.364825 
L 334.165917 188.287004 
L 337.752694 192.601401 
L 341.339471 197.700233 
L 344.926247 203.97572 
L 348.513024 218.88 
L 352.099801 218.88 
L 355.686578 218.88 
L 359.273355 218.88 
L 362.860132 218.88 
L 366.446909 218.88 
L 370.033685 218.88 
L 373.620462 218.88 
L 377.207239 218.88 
L 380.794016 218.88 
L 384.380793 218.88 
L 387.96757 218.88 
L 391.554347 218.88 
L 395.141123 218.88 
L 398.7279 218.88 
L 402.314677 218.88 
L 405.901454 218.88 
L 409.488231 218.88 
L 413.075008 218.88 
L 416.661785 218.88 
L 420.248561 218.88 
L 423.835338 218.88 
L 427.422115 218.88 
L 431.008892 218.88 
" clip-path="url(#p6639cf18ef)" style="fill: none; stroke: #2ca02c; stroke-width: 1.5; stroke-linecap: square"/>
   </g>
   <g id="line2d_17">
    <path d="M 75.917983 218.88 
L 79.50476 218.88 
L 83.091537 218.88 
L 86.678314 218.88 
L 90.26509 218.88 
L 93.851867 218.88 
L 97.438644 218.88 
L 101.025421 218.88 
L 104.612198 218.88 
L 108.198975 218.88 
L 111.785752 218.88 
L 115.372528 218.88 
L 118.959305 218.88 
L 122.546082 218.88 
L 126.132859 218.88 
L 129.719636 218.88 
L 133.306413 218.88 
L 136.89319 218.88 
L 140.479966 218.88 
L 144.066743 218.88 
L 147.65352 218.88 
L 151.240297 218.88 
L 154.827074 218.88 
L 158.413851 218.88 
L 162.000628 218.88 
L 165.587404 218.88 
L 169.174181 218.88 
L 172.760958 218.88 
L 176.347735 218.88 
L 179.934512 218.88 
L 183.521289 218.88 
L 187.108066 218.88 
L 190.694842 218.88 
L 194.281619 218.88 
L 197.868396 218.88 
L 201.455173 218.88 
L 205.04195 218.88 
L 208.628727 218.88 
L 212.215504 218.88 
L 215.80228 218.88 
L 219.389057 218.88 
L 222.975834 218.88 
L 226.562611 218.88 
L 230.149388 218.88 
L 233.736165 218.88 
L 237.322942 218.88 
L 240.909718 218.88 
L 244.496495 218.88 
L 248.083272 218.88 
L 251.670049 218.88 
L 255.256826 218.88 
L 258.843603 218.88 
L 262.43038 218.88 
L 266.017157 218.88 
L 269.603933 218.88 
L 273.19071 218.88 
L 276.777487 218.88 
L 280.364264 218.88 
L 283.951041 218.88 
L 287.537818 218.88 
L 291.124595 218.88 
L 294.711371 218.88 
L 298.298148 218.88 
L 301.884925 218.88 
L 305.471702 218.88 
L 309.058479 218.88 
L 312.645256 218.88 
L 316.232033 218.88 
L 319.818809 218.88 
L 323.405586 218.88 
L 326.992363 218.88 
L 330.57914 218.88 
L 334.165917 214.565603 
L 337.752694 205.936809 
L 341.339471 201.622412 
L 344.926247 195.739144 
L 348.513024 192.209183 
L 352.099801 187.11035 
L 355.686578 184.757043 
L 359.273355 187.11035 
L 362.860132 185.933696 
L 366.446909 185.541479 
L 370.033685 182.403735 
L 373.620462 179.65821 
L 377.207239 177.697121 
L 380.794016 178.089339 
L 384.380793 175.343813 
L 387.96757 175.343813 
L 391.554347 179.65821 
L 395.141123 182.795953 
L 398.7279 186.325914 
L 402.314677 187.894786 
L 405.901454 189.07144 
L 409.488231 188.287004 
L 413.075008 183.972607 
L 416.661785 188.679222 
L 420.248561 193.778054 
L 423.835338 198.092451 
L 427.422115 205.152374 
L 431.008892 212.212296 
" clip-path="url(#p6639cf18ef)" style="fill: none; stroke-dasharray: 5.55,2.4; stroke-dashoffset: 0; stroke: #2ca02c; stroke-width: 1.5"/>
   </g>
   <g id="line2d_18">
    <path d="M 75.917983 218.88 
L 79.50476 218.88 
L 83.091537 218.88 
L 86.678314 218.88 
L 90.26509 218.88 
L 93.851867 218.88 
L 97.438644 218.88 
L 101.025421 218.88 
L 104.612198 218.88 
L 108.198975 218.88 
L 111.785752 218.88 
L 115.372528 218.88 
L 118.959305 218.88 
L 122.546082 218.88 
L 126.132859 218.88 
L 129.719636 218.88 
L 133.306413 218.88 
L 136.89319 218.88 
L 140.479966 218.88 
L 144.066743 218.88 
L 147.65352 218.88 
L 151.240297 218.88 
L 154.827074 218.88 
L 158.413851 218.88 
L 162.000628 218.88 
L 165.587404 218.88 
L 169.174181 218.88 
L 172.760958 218.88 
L 176.347735 218.88 
L 179.934512 218.88 
L 183.521289 218.88 
L 187.108066 218.88 
L 190.694842 218.88 
L 194.281619 218.88 
L 197.868396 218.88 
L 201.455173 218.88 
L 205.04195 218.88 
L 208.628727 218.88 
L 212.215504 218.88 
L 215.80228 218.88 
L 219.389057 218.88 
L 222.975834 218.88 
L 226.562611 218.88 
L 230.149388 218.88 
L 233.736165 218.88 
L 237.322942 218.88 
L 240.909718 218.88 
L 244.496495 218.88 
L 248.083272 218.88 
L 251.670049 218.88 
L 255.256826 218.88 
L 258.843603 218.88 
L 262.43038 218.88 
L 266.017157 218.88 
L 269.603933 218.88 
L 273.19071 218.88 
L 276.777487 218.88 
L 280.364264 218.88 
L 283.951041 218.88 
L 287.537818 218.88 
L 291.124595 216.918911 
L 294.711371 214.957821 
L 298.298148 211.820078 
L 301.884925 210.643424 
L 305.471702 208.682335 
L 309.058479 205.544591 
L 312.645256 200.445759 
L 316.232033 199.269105 
L 319.818809 196.915798 
L 323.405586 192.993619 
L 326.992363 187.894786 
L 330.57914 182.795953 
L 334.165917 178.873774 
L 337.752694 175.343813 
L 341.339471 169.460545 
L 344.926247 162.79284 
L 348.513024 154.556265 
L 352.099801 150.634086 
L 355.686578 145.535253 
L 359.273355 142.39751 
L 362.860132 143.574163 
L 366.446909 152.595175 
L 370.033685 163.577276 
L 373.620462 178.873774 
L 377.207239 189.07144 
L 380.794016 201.230195 
L 384.380793 211.42786 
L 387.96757 218.88 
L 391.554347 218.88 
L 395.141123 218.88 
L 398.7279 218.88 
L 402.314677 218.88 
L 405.901454 218.88 
L 409.488231 218.88 
L 413.075008 218.88 
L 416.661785 218.88 
L 420.248561 218.88 
L 423.835338 218.88 
L 427.422115 218.88 
L 431.008892 218.88 
" clip-path="url(#p6639cf18ef)" style="fill: none; stroke: #d62728; stroke-width: 1.5; stroke-linecap: square"/>
   </g>
   <g id="line2d_19">
    <path d="M 75.917983 218.487782 
L 79.50476 218.487782 
L 83.091537 218.487782 
L 86.678314 218.487782 
L 90.26509 218.487782 
L 93.851867 218.487782 
L 97.438644 218.487782 
L 101.025421 218.88 
L 104.612198 218.88 
L 108.198975 218.88 
L 111.785752 218.88 
L 115.372528 218.88 
L 118.959305 218.88 
L 122.546082 218.88 
L 126.132859 218.88 
L 129.719636 218.88 
L 133.306413 218.88 
L 136.89319 218.88 
L 140.479966 218.88 
L 144.066743 218.88 
L 147.65352 218.88 
L 151.240297 218.88 
L 154.827074 218.88 
L 158.413851 218.88 
L 162.000628 218.88 
L 165.587404 218.88 
L 169.174181 218.88 
L 172.760958 218.88 
L 176.347735 218.88 
L 179.934512 218.88 
L 183.521289 218.88 
L 187.108066 218.88 
L 190.694842 218.88 
L 194.281619 218.88 
L 197.868396 218.88 
L 201.455173 218.88 
L 205.04195 218.88 
L 208.628727 218.88 
L 212.215504 218.88 
L 215.80228 218.88 
L 219.389057 218.88 
L 222.975834 218.88 
L 226.562611 218.88 
L 230.149388 218.88 
L 233.736165 218.88 
L 237.322942 218.88 
L 240.909718 218.88 
L 244.496495 218.88 
L 248.083272 218.88 
L 251.670049 218.88 
L 255.256826 218.88 
L 258.843603 218.88 
L 262.43038 218.88 
L 266.017157 218.88 
L 269.603933 218.88 
L 273.19071 218.88 
L 276.777487 218.88 
L 280.364264 218.88 
L 283.951041 218.88 
L 287.537818 218.88 
L 291.124595 218.88 
L 294.711371 218.88 
L 298.298148 218.88 
L 301.884925 218.88 
L 305.471702 218.88 
L 309.058479 218.88 
L 312.645256 218.88 
L 316.232033 218.88 
L 319.818809 218.88 
L 323.405586 218.88 
L 326.992363 218.88 
L 330.57914 218.487782 
L 334.165917 216.526693 
L 337.752694 214.565603 
L 341.339471 211.42786 
L 344.926247 210.251206 
L 348.513024 208.290117 
L 352.099801 205.152374 
L 355.686578 200.445759 
L 359.273355 199.269105 
L 362.860132 196.915798 
L 366.446909 192.993619 
L 370.033685 187.894786 
L 373.620462 182.795953 
L 377.207239 178.481556 
L 380.794016 173.774942 
L 384.380793 166.322802 
L 387.96757 157.30179 
L 391.554347 150.241868 
L 395.141123 143.574163 
L 398.7279 141.613074 
L 402.314677 142.005292 
L 405.901454 145.927471 
L 409.488231 156.517354 
L 413.075008 169.852763 
L 416.661785 183.972607 
L 420.248561 196.915798 
L 423.835338 205.936809 
L 427.422115 212.996732 
L 431.008892 218.88 
" clip-path="url(#p6639cf18ef)" style="fill: none; stroke-dasharray: 5.55,2.4; stroke-dashoffset: 0; stroke: #d62728; stroke-width: 1.5"/>
   </g>
   <g id="patch_3">
    <path d="M 58.163438 228.96 
L 58.163438 7.2 
" style="fill: none; stroke: #000000; stroke-width: 0.8; stroke-linejoin: miter; stroke-linecap: square"/>
   </g>
   <g id="patch_4">
    <path d="M 448.763438 228.96 
L 448.763438 7.2 
" style="fill: none; stroke: #000000; stroke-width: 0.8; stroke-linejoin: miter; stroke-linecap: square"/>
   </g>
   <g id="patch_5">
    <path d="M 58.163438 228.96 
L 448.763438 228.96 
" style="fill: none; stroke: #000000; stroke-width: 0.8; stroke-linejoin: miter; stroke-linecap: square"/>
   </g>
   <g id="patch_6">
    <path d="M 58.163438 7.2 
L 448.763438 7.2 
" style="fill: none; stroke: #000000; stroke-width: 0.8; stroke-linejoin: miter; stroke-linecap: square"/>
   </g>
   <g id="legend_1">
    <g id="patch_7">
     <path d="M 65.163438 223.96 
L 166.668125 223.96 
Q 168.668125 223.96 168.668125 221.96 
L 168.668125 120.213125 
Q 168.668125 118.213125 166.668125 118.213125 
L 65.163438 118.213125 
Q 63.163438 118.213125 63.163438 120.213125 
L 63.163438 221.96 
Q 63.163438 223.96 65.163438 223.96 
z
" style="fill: #ffffff; opacity: 0.8; stroke: #cccccc; stroke-linejoin: miter"/>
    </g>
    <g id="line2d_20">
     <path d="M 67.163438 126.311562 
L 77.163438 126.311562 
L 87.163438 126.311562 
" style="fill: none; stroke: #1f77b4; stroke-width: 1.5; stroke-linecap: square"/>
    </g>
    <g id="text_15">
     <!-- normal motifs -->
     <g transform="translate(95.163438 129.811562) scale(0.1 -0.1)">
      <defs>
       <path id="DejaVuSans-61" d="M 2194 1759 
Q 1497 1759 1228 1600 
Q 959 1441 959 1056 
Q 959 750 1161 570 
Q 1363 391 1709 391 
Q 2188 391 2477 730 
Q 2766 1069 2766 1631 
L 2766 1759 
L 2194 1759 
z
M 3341 1997 
L 3341 0 
L 2766 0 
L 2766 531 
Q 2569 213 2275 61 
Q 1981 -91 1556 -91 
Q 1019 -91 701 211 
Q 384 513 384 1019 
Q 384 1609 779 1909 
Q 1175 2209 1959 2209 
L 2766 2209 
L 2766 2266 
Q 2766 2663 2505 2880 
Q 2244 3097 1772 3097 
Q 1472 3097 1187 3025 
Q 903 2953 641 2809 
L 641 3341 
Q 956 3463 1253 3523 
Q 1550 3584 1831 3584 
Q 2591 3584 2966 3190 
Q 3341 2797 3341 1997 
z
" transform="scale(0.015625)"/>
       <path id="DejaVuSans-6c" d="M 603 4863 
L 1178 4863 
L 1178 0 
L 603 0 
L 603 4863 
z
" transform="scale(0.015625)"/>
      </defs>
      <use xlink:href="#DejaVuSans-6e"/>
      <use xlink:href="#DejaVuSans-6f" x="63.378906"/>
      <use xlink:href="#DejaVuSans-72" x="124.560547"/>
      <use xlink:href="#DejaVuSans-6d" x="163.923828"/>
      <use xlink:href="#DejaVuSans-61" x="261.335938"/>
      <use xlink:href="#DejaVuSans-6c" x="322.615234"/>
      <use xlink:href="#DejaVuSans-20" x="350.398438"/>
      <use xlink:href="#DejaVuSans-6d" x="382.185547"/>
      <use xlink:href="#DejaVuSans-6f" x="479.597656"/>
      <use xlink:href="#DejaVuSans-74" x="540.779297"/>
      <use xlink:href="#DejaVuSans-69" x="579.988281"/>
      <use xlink:href="#DejaVuSans-66" x="607.771484"/>
      <use xlink:href="#DejaVuSans-73" x="642.976562"/>
     </g>
    </g>
    <g id="line2d_21">
     <path d="M 67.163438 140.989688 
L 77.163438 140.989688 
L 87.163438 140.989688 
" style="fill: none; stroke: #ff7f0e; stroke-width: 1.5; stroke-linecap: square"/>
    </g>
    <g id="text_16">
     <!-- #1 up -->
     <g transform="translate(95.163438 144.489688) scale(0.1 -0.1)">
      <defs>
       <path id="DejaVuSans-23" d="M 3272 2816 
L 2363 2816 
L 2100 1772 
L 3016 1772 
L 3272 2816 
z
M 2803 4594 
L 2478 3297 
L 3391 3297 
L 3719 4594 
L 4219 4594 
L 3897 3297 
L 4872 3297 
L 4872 2816 
L 3775 2816 
L 3519 1772 
L 4513 1772 
L 4513 1294 
L 3397 1294 
L 3072 0 
L 2572 0 
L 2894 1294 
L 1978 1294 
L 1656 0 
L 1153 0 
L 1478 1294 
L 494 1294 
L 494 1772 
L 1594 1772 
L 1856 2816 
L 850 2816 
L 850 3297 
L 1978 3297 
L 2297 4594 
L 2803 4594 
z
" transform="scale(0.015625)"/>
      </defs>
      <use xlink:href="#DejaVuSans-23"/>
      <use xlink:href="#DejaVuSans-31" x="83.789062"/>
      <use xlink:href="#DejaVuSans-20" x="147.412109"/>
      <use xlink:href="#DejaVuSans-75" x="179.199219"/>
      <use xlink:href="#DejaVuSans-70" x="242.578125"/>
     </g>
    </g>
    <g id="line2d_22">
     <path d="M 67.163438 155.667812 
L 77.163438 155.667812 
L 87.163438 155.667812 
" style="fill: none; stroke-dasharray: 5.55,2.4; stroke-dashoffset: 0; stroke: #ff7f0e; stroke-width: 1.5"/>
    </g>
    <g id="text_17">
     <!-- #1 down -->
     <g transform="translate(95.163438 159.167812) scale(0.1 -0.1)">
      <defs>
       <path id="DejaVuSans-64" d="M 2906 2969 
L 2906 4863 
L 3481 4863 
L 3481 0 
L 2906 0 
L 2906 525 
Q 2725 213 2448 61 
Q 2172 -91 1784 -91 
Q 1150 -91 751 415 
Q 353 922 353 1747 
Q 353 2572 751 3078 
Q 1150 3584 1784 3584 
Q 2172 3584 2448 3432 
Q 2725 3281 2906 2969 
z
M 947 1747 
Q 947 1113 1208 752 
Q 1469 391 1925 391 
Q 2381 391 2643 752 
Q 2906 1113 2906 1747 
Q 2906 2381 2643 2742 
Q 2381 3103 1925 3103 
Q 1469 3103 1208 2742 
Q 947 2381 947 1747 
z
" transform="scale(0.015625)"/>
       <path id="DejaVuSans-77" d="M 269 3500 
L 844 3500 
L 1563 769 
L 2278 3500 
L 2956 3500 
L 3675 769 
L 4391 3500 
L 4966 3500 
L 4050 0 
L 3372 0 
L 2619 2869 
L 1863 0 
L 1184 0 
L 269 3500 
z
" transform="scale(0.015625)"/>
      </defs>
      <use xlink:href="#DejaVuSans-23"/>
      <use xlink:href="#DejaVuSans-31" x="83.789062"/>
      <use xlink:href="#DejaVuSans-20" x="147.412109"/>
      <use xlink:href="#DejaVuSans-64" x="179.199219"/>
      <use xlink:href="#DejaVuSans-6f" x="242.675781"/>
      <use xlink:href="#DejaVuSans-77" x="303.857422"/>
      <use xlink:href="#DejaVuSans-6e" x="385.644531"/>
     </g>
    </g>
    <g id="line2d_23">
     <path d="M 67.163438 170.345937 
L 77.163438 170.345937 
L 87.163438 170.345937 
" style="fill: none; stroke: #2ca02c; stroke-width: 1.5; stroke-linecap: square"/>
    </g>
    <g id="text_18">
     <!-- #2 up -->
     <g transform="translate(95.163438 173.845937) scale(0.1 -0.1)">
      <use xlink:href="#DejaVuSans-23"/>
      <use xlink:href="#DejaVuSans-32" x="83.789062"/>
      <use xlink:href="#DejaVuSans-20" x="147.412109"/>
      <use xlink:href="#DejaVuSans-75" x="179.199219"/>
      <use xlink:href="#DejaVuSans-70" x="242.578125"/>
     </g>
    </g>
    <g id="line2d_24">
     <path d="M 67.163438 185.024062 
L 77.163438 185.024062 
L 87.163438 185.024062 
" style="fill: none; stroke-dasharray: 5.55,2.4; stroke-dashoffset: 0; stroke: #2ca02c; stroke-width: 1.5"/>
    </g>
    <g id="text_19">
     <!-- #2 down -->
     <g transform="translate(95.163438 188.524062) scale(0.1 -0.1)">
      <use xlink:href="#DejaVuSans-23"/>
      <use xlink:href="#DejaVuSans-32" x="83.789062"/>
      <use xlink:href="#DejaVuSans-20" x="147.412109"/>
      <use xlink:href="#DejaVuSans-64" x="179.199219"/>
      <use xlink:href="#DejaVuSans-6f" x="242.675781"/>
      <use xlink:href="#DejaVuSans-77" x="303.857422"/>
      <use xlink:href="#DejaVuSans-6e" x="385.644531"/>
     </g>
    </g>
    <g id="line2d_25">
     <path d="M 67.163438 199.702187 
L 77.163438 199.702187 
L 87.163438 199.702187 
" style="fill: none; stroke: #d62728; stroke-width: 1.5; stroke-linecap: square"/>
    </g>
    <g id="text_20">
     <!-- #3 up -->
     <g transform="translate(95.163438 203.202187) scale(0.1 -0.1)">
      <use xlink:href="#DejaVuSans-23"/>
      <use xlink:href="#DejaVuSans-33" x="83.789062"/>
      <use xlink:href="#DejaVuSans-20" x="147.412109"/>
      <use xlink:href="#DejaVuSans-75" x="179.199219"/>
      <use xlink:href="#DejaVuSans-70" x="242.578125"/>
     </g>
    </g>
    <g id="line2d_26">
     <path d="M 67.163438 214.380312 
L 77.163438 214.380312 
L 87.163438 214.380312 
" style="fill: none; stroke-dasharray: 5.55,2.4; stroke-dashoffset: 0; stroke: #d62728; stroke-width: 1.5"/>
    </g>
    <g id="text_21">
     <!-- #3 down -->
     <g transform="translate(95.163438 217.880312) scale(0.1 -0.1)">
      <use xlink:href="#DejaVuSans-23"/>
      <use xlink:href="#DejaVuSans-33" x="83.789062"/>
      <use xlink:href="#DejaVuSans-20" x="147.412109"/>
      <use xlink:href="#DejaVuSans-64" x="179.199219"/>
      <use xlink:href="#DejaVuSans-6f" x="242.675781"/>
      <use xlink:href="#DejaVuSans-77" x="303.857422"/>
      <use xlink:href="#DejaVuSans-6e" x="385.644531"/>
     </g>
    </g>
   </g>
  </g>
 </g>
 <defs>
  <clipPath id="p6639cf18ef">
   <rect x="58.163438" y="7.2" width="390.6" height="221.76"/>
  </clipPath>
 </defs>
</svg>
