<?xml version="1.0" encoding="utf-8" standalone="no"?>
<!DOCTYPE svg PUBLIC "-//W3C//DTD SVG 1.1//EN"
  "http://www.w3.org/Graphics/SVG/1.1/DTD/svg11.dtd">
<svg xmlns:xlink="http://www.w3.org/1999/xlink" width="414.46375pt" height="311.890125pt" viewBox="0 0 414.46375 311.890125" xmlns="http://www.w3.org/2000/svg" version="1.1">
 <metadata>
  <rdf:RDF xmlns:dc="http://purl.org/dc/elements/1.1/" xmlns:cc="http://creativecommons.org/ns#" xmlns:rdf="http://www.w3.org/1999/02/22-rdf-syntax-ns#">
   <cc:Work>
    <dc:type rdf:resource="http://purl.org/dc/dcmitype/StillImage"/>
    <dc:date>2024-06-06T14:39:51.120647</dc:date>
    <dc:format>image/svg+xml</dc:format>
    <dc:creator>
     <cc:Agent>
      <dc:title>Matplotlib v3.8.4, https://matplotlib.org/</dc:title>
     </cc:Agent>
    </dc:creator>
   </cc:Work>
  </rdf:RDF>
 </metadata>
 <defs>
  <style type="text/css">*{stroke-linejoin: round; stroke-linecap: butt}</style>
 </defs>
 <g id="figure_1">
  <g id="patch_1">
   <path d="M 0 311.890125 
L 414.46375 311.890125 
L 414.46375 0 
L 0 0 
z
" style="fill: #ffffff"/>
  </g>
  <g id="axes_1">
   <g id="patch_2">
    <path d="M 50.14375 273.312 
L 407.26375 273.312 
L 407.26375 7.2 
L 50.14375 7.2 
z
" style="fill: #ffffff"/>
   </g>
   <g id="PathCollection_1">
    <defs>
     <path id="m93dba06f11" d="M 0 3 
C 0.795609 3 1.55874 2.683901 2.12132 2.12132 
C 2.683901 1.55874 3 0.795609 3 0 
C 3 -0.795609 2.683901 -1.55874 2.12132 -2.12132 
C 1.55874 -2.683901 0.795609 -3 0 -3 
C -0.795609 -3 -1.55874 -2.683901 -2.12132 -2.12132 
C -2.683901 -1.55874 -3 -0.795609 -3 0 
C -3 0.795609 -2.683901 1.55874 -2.12132 2.12132 
C -1.55874 2.683901 -0.795609 3 0 3 
z
" style="stroke: #1f77b4"/>
    </defs>
    <g clip-path="url(#p7ae5d4ea64)">
     <use xlink:href="#m93dba06f11" x="391.031023" y="85.545902" style="fill: #1f77b4; stroke: #1f77b4"/>
     <use xlink:href="#m93dba06f11" x="184.432676" y="105.573438" style="fill: #1f77b4; stroke: #1f77b4"/>
     <use xlink:href="#m93dba06f11" x="213.946725" y="156.786707" style="fill: #1f77b4; stroke: #1f77b4"/>
     <use xlink:href="#m93dba06f11" x="302.488874" y="261.216" style="fill: #1f77b4; stroke: #1f77b4"/>
     <use xlink:href="#m93dba06f11" x="213.946725" y="55.790706" style="fill: #1f77b4; stroke: #1f77b4"/>
     <use xlink:href="#m93dba06f11" x="332.002924" y="237.182957" style="fill: #1f77b4; stroke: #1f77b4"/>
     <use xlink:href="#m93dba06f11" x="243.460775" y="132.753664" style="fill: #1f77b4; stroke: #1f77b4"/>
     <use xlink:href="#m93dba06f11" x="332.002924" y="237.182957" style="fill: #1f77b4; stroke: #1f77b4"/>
     <use xlink:href="#m93dba06f11" x="184.432676" y="67.52112" style="fill: #1f77b4; stroke: #1f77b4"/>
     <use xlink:href="#m93dba06f11" x="213.946725" y="107.576191" style="fill: #1f77b4; stroke: #1f77b4"/>
    </g>
   </g>
   <g id="PathCollection_2">
    <defs>
     <path id="mc9fea23254" d="M -3 3 
L 3 -3 
M -3 -3 
L 3 3 
" style="stroke: #ff7f0e; stroke-width: 1.5"/>
    </defs>
    <g clip-path="url(#p7ae5d4ea64)">
     <use xlink:href="#mc9fea23254" x="213.946725" y="185.12581" style="fill: #ff7f0e; stroke: #ff7f0e; stroke-width: 1.5"/>
     <use xlink:href="#mc9fea23254" x="272.974824" y="227.897071" style="fill: #ff7f0e; stroke: #ff7f0e; stroke-width: 1.5"/>
     <use xlink:href="#mc9fea23254" x="213.946725" y="141.555086" style="fill: #ff7f0e; stroke: #ff7f0e; stroke-width: 1.5"/>
     <use xlink:href="#mc9fea23254" x="272.974824" y="186.52487" style="fill: #ff7f0e; stroke: #ff7f0e; stroke-width: 1.5"/>
     <use xlink:href="#mc9fea23254" x="243.460775" y="172.334405" style="fill: #ff7f0e; stroke: #ff7f0e; stroke-width: 1.5"/>
     <use xlink:href="#mc9fea23254" x="302.488874" y="227.897071" style="fill: #ff7f0e; stroke: #ff7f0e; stroke-width: 1.5"/>
     <use xlink:href="#mc9fea23254" x="302.488874" y="41.622233" style="fill: #ff7f0e; stroke: #ff7f0e; stroke-width: 1.5"/>
     <use xlink:href="#mc9fea23254" x="213.946725" y="50.216458" style="fill: #ff7f0e; stroke: #ff7f0e; stroke-width: 1.5"/>
     <use xlink:href="#mc9fea23254" x="272.974824" y="66.605446" style="fill: #ff7f0e; stroke: #ff7f0e; stroke-width: 1.5"/>
     <use xlink:href="#mc9fea23254" x="125.404576" y="147.351192" style="fill: #ff7f0e; stroke: #ff7f0e; stroke-width: 1.5"/>
    </g>
   </g>
   <g id="PathCollection_3">
    <defs>
     <path id="m9710f3561e" d="M -1 3 
L 1 3 
L 1 1 
L 3 1 
L 3 -1 
L 1 -1 
L 1 -3 
L -1 -3 
L -1 -1 
L -3 -1 
L -3 1 
L -1 1 
z
" style="stroke: #2ca02c"/>
    </defs>
    <g clip-path="url(#p7ae5d4ea64)">
     <use xlink:href="#m9710f3561e" x="184.432676" y="141.245314" style="fill: #2ca02c; stroke: #2ca02c"/>
     <use xlink:href="#m9710f3561e" x="184.432676" y="174.901916" style="fill: #2ca02c; stroke: #2ca02c"/>
     <use xlink:href="#m9710f3561e" x="302.488874" y="165.431444" style="fill: #2ca02c; stroke: #2ca02c"/>
     <use xlink:href="#m9710f3561e" x="66.376477" y="58.536522" style="fill: #2ca02c; stroke: #2ca02c"/>
     <use xlink:href="#m9710f3561e" x="95.890527" y="51.202977" style="fill: #2ca02c; stroke: #2ca02c"/>
     <use xlink:href="#m9710f3561e" x="272.974824" y="212.638106" style="fill: #2ca02c; stroke: #2ca02c"/>
     <use xlink:href="#m9710f3561e" x="332.002924" y="197.63105" style="fill: #2ca02c; stroke: #2ca02c"/>
     <use xlink:href="#m9710f3561e" x="272.974824" y="167.422671" style="fill: #2ca02c; stroke: #2ca02c"/>
     <use xlink:href="#m9710f3561e" x="243.460775" y="177.913041" style="fill: #2ca02c; stroke: #2ca02c"/>
     <use xlink:href="#m9710f3561e" x="184.432676" y="100.206601" style="fill: #2ca02c; stroke: #2ca02c"/>
    </g>
   </g>
   <g id="PolyCollection_1">
    <path d="M 66.376477 19.296 
L 66.376477 128.010724 
L 73.00208 129.884983 
L 79.627683 130.658134 
L 86.253286 131.139834 
L 92.878889 131.885555 
L 99.504492 133.548656 
L 106.130095 134.525905 
L 112.755698 135.821372 
L 119.381301 136.057438 
L 126.006904 136.030166 
L 132.632507 137.56708 
L 139.25811 139.111597 
L 145.883713 139.880135 
L 152.509316 141.167416 
L 159.134919 141.837907 
L 165.760522 143.053025 
L 172.386125 144.745154 
L 179.011728 144.587302 
L 185.637331 147.112521 
L 192.262934 148.514276 
L 198.888537 150.030785 
L 205.51414 153.524546 
L 212.139743 154.410784 
L 218.765346 155.984862 
L 225.390949 159.656942 
L 232.016551 161.25922 
L 238.642154 163.865608 
L 245.267757 167.850046 
L 251.89336 172.094451 
L 258.518963 174.77067 
L 265.144566 178.023803 
L 271.770169 179.84819 
L 278.395772 183.251054 
L 285.021375 186.91406 
L 291.646978 191.585983 
L 298.272581 195.29181 
L 304.898184 199.804911 
L 311.523787 204.472863 
L 318.14939 209.032553 
L 324.774993 214.04321 
L 331.400596 218.58497 
L 338.026199 222.688017 
L 344.651802 227.138598 
L 351.277405 231.559282 
L 357.903008 236.552616 
L 364.528611 241.794924 
L 371.154214 244.748592 
L 377.779817 249.449016 
L 384.40542 254.193441 
L 391.031023 258.717711 
L 391.031023 162.297434 
L 391.031023 162.297434 
L 384.40542 161.325977 
L 377.779817 159.958992 
L 371.154214 158.376197 
L 364.528611 158.949418 
L 357.903008 157.10335 
L 351.277405 155.95279 
L 344.651802 154.309772 
L 338.026199 152.961297 
L 331.400596 151.559823 
L 324.774993 149.825756 
L 318.14939 147.756826 
L 311.523787 146.351681 
L 304.898184 144.245202 
L 298.272581 142.586216 
L 291.646978 141.188905 
L 285.021375 138.849358 
L 278.395772 137.183485 
L 271.770169 135.297457 
L 265.144566 134.95826 
L 258.518963 132.67592 
L 251.89336 130.722663 
L 245.267757 127.272874 
L 238.642154 123.515227 
L 232.016551 120.698457 
L 225.390949 118.334176 
L 218.765346 113.911231 
L 212.139743 111.047925 
L 205.51414 108.555642 
L 198.888537 103.188098 
L 192.262934 99.500816 
L 185.637331 95.921139 
L 179.011728 90.695609 
L 172.386125 87.965547 
L 165.760522 83.362208 
L 159.134919 79.403103 
L 152.509316 75.881983 
L 145.883713 71.492096 
L 139.25811 67.844837 
L 132.632507 63.200453 
L 126.006904 58.415729 
L 119.381301 54.725762 
L 112.755698 51.054429 
L 106.130095 46.562972 
L 99.504492 42.037693 
L 92.878889 37.309443 
L 86.253286 33.023335 
L 79.627683 28.955465 
L 73.00208 24.715406 
L 66.376477 19.296 
z
" clip-path="url(#p7ae5d4ea64)" style="fill: #d62728; fill-opacity: 0.4"/>
   </g>
   <g id="matplotlib.axis_1">
    <g id="xtick_1">
     <g id="line2d_1">
      <defs>
       <path id="m06d7486937" d="M 0 0 
L 0 3.5 
" style="stroke: #000000; stroke-width: 0.8"/>
      </defs>
      <g>
       <use xlink:href="#m06d7486937" x="95.890527" y="273.312" style="stroke: #000000; stroke-width: 0.8"/>
      </g>
     </g>
     <g id="text_1">
      <!-- 9.4 -->
      <g transform="translate(87.938964 287.910437) scale(0.1 -0.1)">
       <defs>
        <path id="DejaVuSans-39" d="M 703 97 
L 703 672 
Q 941 559 1184 500 
Q 1428 441 1663 441 
Q 2288 441 2617 861 
Q 2947 1281 2994 2138 
Q 2813 1869 2534 1725 
Q 2256 1581 1919 1581 
Q 1219 1581 811 2004 
Q 403 2428 403 3163 
Q 403 3881 828 4315 
Q 1253 4750 1959 4750 
Q 2769 4750 3195 4129 
Q 3622 3509 3622 2328 
Q 3622 1225 3098 567 
Q 2575 -91 1691 -91 
Q 1453 -91 1209 -44 
Q 966 3 703 97 
z
M 1959 2075 
Q 2384 2075 2632 2365 
Q 2881 2656 2881 3163 
Q 2881 3666 2632 3958 
Q 2384 4250 1959 4250 
Q 1534 4250 1286 3958 
Q 1038 3666 1038 3163 
Q 1038 2656 1286 2365 
Q 1534 2075 1959 2075 
z
" transform="scale(0.015625)"/>
        <path id="DejaVuSans-2e" d="M 684 794 
L 1344 794 
L 1344 0 
L 684 0 
L 684 794 
z
" transform="scale(0.015625)"/>
        <path id="DejaVuSans-34" d="M 2419 4116 
L 825 1625 
L 2419 1625 
L 2419 4116 
z
M 2253 4666 
L 3047 4666 
L 3047 1625 
L 3713 1625 
L 3713 1100 
L 3047 1100 
L 3047 0 
L 2419 0 
L 2419 1100 
L 313 1100 
L 313 1709 
L 2253 4666 
z
" transform="scale(0.015625)"/>
       </defs>
       <use xlink:href="#DejaVuSans-39"/>
       <use xlink:href="#DejaVuSans-2e" x="63.623047"/>
       <use xlink:href="#DejaVuSans-34" x="95.410156"/>
      </g>
     </g>
    </g>
    <g id="xtick_2">
     <g id="line2d_2">
      <g>
       <use xlink:href="#m06d7486937" x="154.918626" y="273.312" style="stroke: #000000; stroke-width: 0.8"/>
      </g>
     </g>
     <g id="text_2">
      <!-- 9.5 -->
      <g transform="translate(146.967064 287.910437) scale(0.1 -0.1)">
       <defs>
        <path id="DejaVuSans-35" d="M 691 4666 
L 3169 4666 
L 3169 4134 
L 1269 4134 
L 1269 2991 
Q 1406 3038 1543 3061 
Q 1681 3084 1819 3084 
Q 2600 3084 3056 2656 
Q 3513 2228 3513 1497 
Q 3513 744 3044 326 
Q 2575 -91 1722 -91 
Q 1428 -91 1123 -41 
Q 819 9 494 109 
L 494 744 
Q 775 591 1075 516 
Q 1375 441 1709 441 
Q 2250 441 2565 725 
Q 2881 1009 2881 1497 
Q 2881 1984 2565 2268 
Q 2250 2553 1709 2553 
Q 1456 2553 1204 2497 
Q 953 2441 691 2322 
L 691 4666 
z
" transform="scale(0.015625)"/>
       </defs>
       <use xlink:href="#DejaVuSans-39"/>
       <use xlink:href="#DejaVuSans-2e" x="63.623047"/>
       <use xlink:href="#DejaVuSans-35" x="95.410156"/>
      </g>
     </g>
    </g>
    <g id="xtick_3">
     <g id="line2d_3">
      <g>
       <use xlink:href="#m06d7486937" x="213.946725" y="273.312" style="stroke: #000000; stroke-width: 0.8"/>
      </g>
     </g>
     <g id="text_3">
      <!-- 9.6 -->
      <g transform="translate(205.995163 287.910437) scale(0.1 -0.1)">
       <defs>
        <path id="DejaVuSans-36" d="M 2113 2584 
Q 1688 2584 1439 2293 
Q 1191 2003 1191 1497 
Q 1191 994 1439 701 
Q 1688 409 2113 409 
Q 2538 409 2786 701 
Q 3034 994 3034 1497 
Q 3034 2003 2786 2293 
Q 2538 2584 2113 2584 
z
M 3366 4563 
L 3366 3988 
Q 3128 4100 2886 4159 
Q 2644 4219 2406 4219 
Q 1781 4219 1451 3797 
Q 1122 3375 1075 2522 
Q 1259 2794 1537 2939 
Q 1816 3084 2150 3084 
Q 2853 3084 3261 2657 
Q 3669 2231 3669 1497 
Q 3669 778 3244 343 
Q 2819 -91 2113 -91 
Q 1303 -91 875 529 
Q 447 1150 447 2328 
Q 447 3434 972 4092 
Q 1497 4750 2381 4750 
Q 2619 4750 2861 4703 
Q 3103 4656 3366 4563 
z
" transform="scale(0.015625)"/>
       </defs>
       <use xlink:href="#DejaVuSans-39"/>
       <use xlink:href="#DejaVuSans-2e" x="63.623047"/>
       <use xlink:href="#DejaVuSans-36" x="95.410156"/>
      </g>
     </g>
    </g>
    <g id="xtick_4">
     <g id="line2d_4">
      <g>
       <use xlink:href="#m06d7486937" x="272.974824" y="273.312" style="stroke: #000000; stroke-width: 0.8"/>
      </g>
     </g>
     <g id="text_4">
      <!-- 9.7 -->
      <g transform="translate(265.023262 287.910437) scale(0.1 -0.1)">
       <defs>
        <path id="DejaVuSans-37" d="M 525 4666 
L 3525 4666 
L 3525 4397 
L 1831 0 
L 1172 0 
L 2766 4134 
L 525 4134 
L 525 4666 
z
" transform="scale(0.015625)"/>
       </defs>
       <use xlink:href="#DejaVuSans-39"/>
       <use xlink:href="#DejaVuSans-2e" x="63.623047"/>
       <use xlink:href="#DejaVuSans-37" x="95.410156"/>
      </g>
     </g>
    </g>
    <g id="xtick_5">
     <g id="line2d_5">
      <g>
       <use xlink:href="#m06d7486937" x="332.002924" y="273.312" style="stroke: #000000; stroke-width: 0.8"/>
      </g>
     </g>
     <g id="text_5">
      <!-- 9.8 -->
      <g transform="translate(324.051361 287.910437) scale(0.1 -0.1)">
       <defs>
        <path id="DejaVuSans-38" d="M 2034 2216 
Q 1584 2216 1326 1975 
Q 1069 1734 1069 1313 
Q 1069 891 1326 650 
Q 1584 409 2034 409 
Q 2484 409 2743 651 
Q 3003 894 3003 1313 
Q 3003 1734 2745 1975 
Q 2488 2216 2034 2216 
z
M 1403 2484 
Q 997 2584 770 2862 
Q 544 3141 544 3541 
Q 544 4100 942 4425 
Q 1341 4750 2034 4750 
Q 2731 4750 3128 4425 
Q 3525 4100 3525 3541 
Q 3525 3141 3298 2862 
Q 3072 2584 2669 2484 
Q 3125 2378 3379 2068 
Q 3634 1759 3634 1313 
Q 3634 634 3220 271 
Q 2806 -91 2034 -91 
Q 1263 -91 848 271 
Q 434 634 434 1313 
Q 434 1759 690 2068 
Q 947 2378 1403 2484 
z
M 1172 3481 
Q 1172 3119 1398 2916 
Q 1625 2713 2034 2713 
Q 2441 2713 2670 2916 
Q 2900 3119 2900 3481 
Q 2900 3844 2670 4047 
Q 2441 4250 2034 4250 
Q 1625 4250 1398 4047 
Q 1172 3844 1172 3481 
z
" transform="scale(0.015625)"/>
       </defs>
       <use xlink:href="#DejaVuSans-39"/>
       <use xlink:href="#DejaVuSans-2e" x="63.623047"/>
       <use xlink:href="#DejaVuSans-38" x="95.410156"/>
      </g>
     </g>
    </g>
    <g id="xtick_6">
     <g id="line2d_6">
      <g>
       <use xlink:href="#m06d7486937" x="391.031023" y="273.312" style="stroke: #000000; stroke-width: 0.8"/>
      </g>
     </g>
     <g id="text_6">
      <!-- 9.9 -->
      <g transform="translate(383.07946 287.910437) scale(0.1 -0.1)">
       <use xlink:href="#DejaVuSans-39"/>
       <use xlink:href="#DejaVuSans-2e" x="63.623047"/>
       <use xlink:href="#DejaVuSans-39" x="95.410156"/>
      </g>
     </g>
    </g>
    <g id="text_7">
     <!-- Average $d_{ij}$ to and from other binding sites -->
     <g transform="translate(121.70375 301.590125) scale(0.1 -0.1)">
      <defs>
       <path id="DejaVuSans-41" d="M 2188 4044 
L 1331 1722 
L 3047 1722 
L 2188 4044 
z
M 1831 4666 
L 2547 4666 
L 4325 0 
L 3669 0 
L 3244 1197 
L 1141 1197 
L 716 0 
L 50 0 
L 1831 4666 
z
" transform="scale(0.015625)"/>
       <path id="DejaVuSans-76" d="M 191 3500 
L 800 3500 
L 1894 563 
L 2988 3500 
L 3597 3500 
L 2284 0 
L 1503 0 
L 191 3500 
z
" transform="scale(0.015625)"/>
       <path id="DejaVuSans-65" d="M 3597 1894 
L 3597 1613 
L 953 1613 
Q 991 1019 1311 708 
Q 1631 397 2203 397 
Q 2534 397 2845 478 
Q 3156 559 3463 722 
L 3463 178 
Q 3153 47 2828 -22 
Q 2503 -91 2169 -91 
Q 1331 -91 842 396 
Q 353 884 353 1716 
Q 353 2575 817 3079 
Q 1281 3584 2069 3584 
Q 2775 3584 3186 3129 
Q 3597 2675 3597 1894 
z
M 3022 2063 
Q 3016 2534 2758 2815 
Q 2500 3097 2075 3097 
Q 1594 3097 1305 2825 
Q 1016 2553 972 2059 
L 3022 2063 
z
" transform="scale(0.015625)"/>
       <path id="DejaVuSans-72" d="M 2631 2963 
Q 2534 3019 2420 3045 
Q 2306 3072 2169 3072 
Q 1681 3072 1420 2755 
Q 1159 2438 1159 1844 
L 1159 0 
L 581 0 
L 581 3500 
L 1159 3500 
L 1159 2956 
Q 1341 3275 1631 3429 
Q 1922 3584 2338 3584 
Q 2397 3584 2469 3576 
Q 2541 3569 2628 3553 
L 2631 2963 
z
" transform="scale(0.015625)"/>
       <path id="DejaVuSans-61" d="M 2194 1759 
Q 1497 1759 1228 1600 
Q 959 1441 959 1056 
Q 959 750 1161 570 
Q 1363 391 1709 391 
Q 2188 391 2477 730 
Q 2766 1069 2766 1631 
L 2766 1759 
L 2194 1759 
z
M 3341 1997 
L 3341 0 
L 2766 0 
L 2766 531 
Q 2569 213 2275 61 
Q 1981 -91 1556 -91 
Q 1019 -91 701 211 
Q 384 513 384 1019 
Q 384 1609 779 1909 
Q 1175 2209 1959 2209 
L 2766 2209 
L 2766 2266 
Q 2766 2663 2505 2880 
Q 2244 3097 1772 3097 
Q 1472 3097 1187 3025 
Q 903 2953 641 2809 
L 641 3341 
Q 956 3463 1253 3523 
Q 1550 3584 1831 3584 
Q 2591 3584 2966 3190 
Q 3341 2797 3341 1997 
z
" transform="scale(0.015625)"/>
       <path id="DejaVuSans-67" d="M 2906 1791 
Q 2906 2416 2648 2759 
Q 2391 3103 1925 3103 
Q 1463 3103 1205 2759 
Q 947 2416 947 1791 
Q 947 1169 1205 825 
Q 1463 481 1925 481 
Q 2391 481 2648 825 
Q 2906 1169 2906 1791 
z
M 3481 434 
Q 3481 -459 3084 -895 
Q 2688 -1331 1869 -1331 
Q 1566 -1331 1297 -1286 
Q 1028 -1241 775 -1147 
L 775 -588 
Q 1028 -725 1275 -790 
Q 1522 -856 1778 -856 
Q 2344 -856 2625 -561 
Q 2906 -266 2906 331 
L 2906 616 
Q 2728 306 2450 153 
Q 2172 0 1784 0 
Q 1141 0 747 490 
Q 353 981 353 1791 
Q 353 2603 747 3093 
Q 1141 3584 1784 3584 
Q 2172 3584 2450 3431 
Q 2728 3278 2906 2969 
L 2906 3500 
L 3481 3500 
L 3481 434 
z
" transform="scale(0.015625)"/>
       <path id="DejaVuSans-20" transform="scale(0.015625)"/>
       <path id="DejaVuSans-Oblique-64" d="M 2675 525 
Q 2444 222 2128 65 
Q 1813 -91 1428 -91 
Q 903 -91 598 267 
Q 294 625 294 1247 
Q 294 1766 478 2236 
Q 663 2706 1013 3078 
Q 1244 3325 1534 3454 
Q 1825 3584 2144 3584 
Q 2481 3584 2739 3421 
Q 2997 3259 3138 2956 
L 3513 4863 
L 4091 4863 
L 3144 0 
L 2566 0 
L 2675 525 
z
M 891 1350 
Q 891 897 1095 644 
Q 1300 391 1663 391 
Q 1931 391 2161 520 
Q 2391 650 2566 903 
Q 2750 1166 2856 1509 
Q 2963 1853 2963 2188 
Q 2963 2622 2758 2865 
Q 2553 3109 2194 3109 
Q 1922 3109 1687 2981 
Q 1453 2853 1288 2613 
Q 1106 2353 998 2009 
Q 891 1666 891 1350 
z
" transform="scale(0.015625)"/>
       <path id="DejaVuSans-Oblique-69" d="M 1172 4863 
L 1747 4863 
L 1606 4134 
L 1031 4134 
L 1172 4863 
z
M 909 3500 
L 1484 3500 
L 800 0 
L 225 0 
L 909 3500 
z
" transform="scale(0.015625)"/>
       <path id="DejaVuSans-Oblique-6a" d="M 928 3500 
L 1503 3500 
L 813 -63 
L 809 -78 
Q 694 -675 544 -897 
Q 403 -1106 132 -1218 
Q -138 -1331 -506 -1331 
L -722 -1331 
L -628 -844 
L -481 -844 
Q -144 -844 -1 -703 
Q 141 -563 238 -63 
L 928 3500 
z
M 1197 4863 
L 1772 4863 
L 1631 4134 
L 1056 4134 
L 1197 4863 
z
" transform="scale(0.015625)"/>
       <path id="DejaVuSans-74" d="M 1172 4494 
L 1172 3500 
L 2356 3500 
L 2356 3053 
L 1172 3053 
L 1172 1153 
Q 1172 725 1289 603 
Q 1406 481 1766 481 
L 2356 481 
L 2356 0 
L 1766 0 
Q 1100 0 847 248 
Q 594 497 594 1153 
L 594 3053 
L 172 3053 
L 172 3500 
L 594 3500 
L 594 4494 
L 1172 4494 
z
" transform="scale(0.015625)"/>
       <path id="DejaVuSans-6f" d="M 1959 3097 
Q 1497 3097 1228 2736 
Q 959 2375 959 1747 
Q 959 1119 1226 758 
Q 1494 397 1959 397 
Q 2419 397 2687 759 
Q 2956 1122 2956 1747 
Q 2956 2369 2687 2733 
Q 2419 3097 1959 3097 
z
M 1959 3584 
Q 2709 3584 3137 3096 
Q 3566 2609 3566 1747 
Q 3566 888 3137 398 
Q 2709 -91 1959 -91 
Q 1206 -91 779 398 
Q 353 888 353 1747 
Q 353 2609 779 3096 
Q 1206 3584 1959 3584 
z
" transform="scale(0.015625)"/>
       <path id="DejaVuSans-6e" d="M 3513 2113 
L 3513 0 
L 2938 0 
L 2938 2094 
Q 2938 2591 2744 2837 
Q 2550 3084 2163 3084 
Q 1697 3084 1428 2787 
Q 1159 2491 1159 1978 
L 1159 0 
L 581 0 
L 581 3500 
L 1159 3500 
L 1159 2956 
Q 1366 3272 1645 3428 
Q 1925 3584 2291 3584 
Q 2894 3584 3203 3211 
Q 3513 2838 3513 2113 
z
" transform="scale(0.015625)"/>
       <path id="DejaVuSans-64" d="M 2906 2969 
L 2906 4863 
L 3481 4863 
L 3481 0 
L 2906 0 
L 2906 525 
Q 2725 213 2448 61 
Q 2172 -91 1784 -91 
Q 1150 -91 751 415 
Q 353 922 353 1747 
Q 353 2572 751 3078 
Q 1150 3584 1784 3584 
Q 2172 3584 2448 3432 
Q 2725 3281 2906 2969 
z
M 947 1747 
Q 947 1113 1208 752 
Q 1469 391 1925 391 
Q 2381 391 2643 752 
Q 2906 1113 2906 1747 
Q 2906 2381 2643 2742 
Q 2381 3103 1925 3103 
Q 1469 3103 1208 2742 
Q 947 2381 947 1747 
z
" transform="scale(0.015625)"/>
       <path id="DejaVuSans-66" d="M 2375 4863 
L 2375 4384 
L 1825 4384 
Q 1516 4384 1395 4259 
Q 1275 4134 1275 3809 
L 1275 3500 
L 2222 3500 
L 2222 3053 
L 1275 3053 
L 1275 0 
L 697 0 
L 697 3053 
L 147 3053 
L 147 3500 
L 697 3500 
L 697 3744 
Q 697 4328 969 4595 
Q 1241 4863 1831 4863 
L 2375 4863 
z
" transform="scale(0.015625)"/>
       <path id="DejaVuSans-6d" d="M 3328 2828 
Q 3544 3216 3844 3400 
Q 4144 3584 4550 3584 
Q 5097 3584 5394 3201 
Q 5691 2819 5691 2113 
L 5691 0 
L 5113 0 
L 5113 2094 
Q 5113 2597 4934 2840 
Q 4756 3084 4391 3084 
Q 3944 3084 3684 2787 
Q 3425 2491 3425 1978 
L 3425 0 
L 2847 0 
L 2847 2094 
Q 2847 2600 2669 2842 
Q 2491 3084 2119 3084 
Q 1678 3084 1418 2786 
Q 1159 2488 1159 1978 
L 1159 0 
L 581 0 
L 581 3500 
L 1159 3500 
L 1159 2956 
Q 1356 3278 1631 3431 
Q 1906 3584 2284 3584 
Q 2666 3584 2933 3390 
Q 3200 3197 3328 2828 
z
" transform="scale(0.015625)"/>
       <path id="DejaVuSans-68" d="M 3513 2113 
L 3513 0 
L 2938 0 
L 2938 2094 
Q 2938 2591 2744 2837 
Q 2550 3084 2163 3084 
Q 1697 3084 1428 2787 
Q 1159 2491 1159 1978 
L 1159 0 
L 581 0 
L 581 4863 
L 1159 4863 
L 1159 2956 
Q 1366 3272 1645 3428 
Q 1925 3584 2291 3584 
Q 2894 3584 3203 3211 
Q 3513 2838 3513 2113 
z
" transform="scale(0.015625)"/>
       <path id="DejaVuSans-62" d="M 3116 1747 
Q 3116 2381 2855 2742 
Q 2594 3103 2138 3103 
Q 1681 3103 1420 2742 
Q 1159 2381 1159 1747 
Q 1159 1113 1420 752 
Q 1681 391 2138 391 
Q 2594 391 2855 752 
Q 3116 1113 3116 1747 
z
M 1159 2969 
Q 1341 3281 1617 3432 
Q 1894 3584 2278 3584 
Q 2916 3584 3314 3078 
Q 3713 2572 3713 1747 
Q 3713 922 3314 415 
Q 2916 -91 2278 -91 
Q 1894 -91 1617 61 
Q 1341 213 1159 525 
L 1159 0 
L 581 0 
L 581 4863 
L 1159 4863 
L 1159 2969 
z
" transform="scale(0.015625)"/>
       <path id="DejaVuSans-69" d="M 603 3500 
L 1178 3500 
L 1178 0 
L 603 0 
L 603 3500 
z
M 603 4863 
L 1178 4863 
L 1178 4134 
L 603 4134 
L 603 4863 
z
" transform="scale(0.015625)"/>
       <path id="DejaVuSans-73" d="M 2834 3397 
L 2834 2853 
Q 2591 2978 2328 3040 
Q 2066 3103 1784 3103 
Q 1356 3103 1142 2972 
Q 928 2841 928 2578 
Q 928 2378 1081 2264 
Q 1234 2150 1697 2047 
L 1894 2003 
Q 2506 1872 2764 1633 
Q 3022 1394 3022 966 
Q 3022 478 2636 193 
Q 2250 -91 1575 -91 
Q 1294 -91 989 -36 
Q 684 19 347 128 
L 347 722 
Q 666 556 975 473 
Q 1284 391 1588 391 
Q 1994 391 2212 530 
Q 2431 669 2431 922 
Q 2431 1156 2273 1281 
Q 2116 1406 1581 1522 
L 1381 1569 
Q 847 1681 609 1914 
Q 372 2147 372 2553 
Q 372 3047 722 3315 
Q 1072 3584 1716 3584 
Q 2034 3584 2315 3537 
Q 2597 3491 2834 3397 
z
" transform="scale(0.015625)"/>
      </defs>
      <use xlink:href="#DejaVuSans-41" transform="translate(0 0.015625)"/>
      <use xlink:href="#DejaVuSans-76" transform="translate(68.408203 0.015625)"/>
      <use xlink:href="#DejaVuSans-65" transform="translate(127.587891 0.015625)"/>
      <use xlink:href="#DejaVuSans-72" transform="translate(189.111328 0.015625)"/>
      <use xlink:href="#DejaVuSans-61" transform="translate(230.224609 0.015625)"/>
      <use xlink:href="#DejaVuSans-67" transform="translate(291.503906 0.015625)"/>
      <use xlink:href="#DejaVuSans-65" transform="translate(354.980469 0.015625)"/>
      <use xlink:href="#DejaVuSans-20" transform="translate(416.503906 0.015625)"/>
      <use xlink:href="#DejaVuSans-Oblique-64" transform="translate(448.291016 0.015625)"/>
      <use xlink:href="#DejaVuSans-Oblique-69" transform="translate(511.767578 -16.390625) scale(0.7)"/>
      <use xlink:href="#DejaVuSans-Oblique-6a" transform="translate(531.21582 -16.390625) scale(0.7)"/>
      <use xlink:href="#DejaVuSans-20" transform="translate(553.398438 0.015625)"/>
      <use xlink:href="#DejaVuSans-74" transform="translate(585.185547 0.015625)"/>
      <use xlink:href="#DejaVuSans-6f" transform="translate(624.394531 0.015625)"/>
      <use xlink:href="#DejaVuSans-20" transform="translate(685.576172 0.015625)"/>
      <use xlink:href="#DejaVuSans-61" transform="translate(717.363281 0.015625)"/>
      <use xlink:href="#DejaVuSans-6e" transform="translate(778.642578 0.015625)"/>
      <use xlink:href="#DejaVuSans-64" transform="translate(842.021484 0.015625)"/>
      <use xlink:href="#DejaVuSans-20" transform="translate(905.498047 0.015625)"/>
      <use xlink:href="#DejaVuSans-66" transform="translate(937.285156 0.015625)"/>
      <use xlink:href="#DejaVuSans-72" transform="translate(972.490234 0.015625)"/>
      <use xlink:href="#DejaVuSans-6f" transform="translate(1013.603516 0.015625)"/>
      <use xlink:href="#DejaVuSans-6d" transform="translate(1074.785156 0.015625)"/>
      <use xlink:href="#DejaVuSans-20" transform="translate(1172.197266 0.015625)"/>
      <use xlink:href="#DejaVuSans-6f" transform="translate(1203.984375 0.015625)"/>
      <use xlink:href="#DejaVuSans-74" transform="translate(1265.166016 0.015625)"/>
      <use xlink:href="#DejaVuSans-68" transform="translate(1304.375 0.015625)"/>
      <use xlink:href="#DejaVuSans-65" transform="translate(1367.753906 0.015625)"/>
      <use xlink:href="#DejaVuSans-72" transform="translate(1429.277344 0.015625)"/>
      <use xlink:href="#DejaVuSans-20" transform="translate(1470.390625 0.015625)"/>
      <use xlink:href="#DejaVuSans-62" transform="translate(1502.177734 0.015625)"/>
      <use xlink:href="#DejaVuSans-69" transform="translate(1565.654297 0.015625)"/>
      <use xlink:href="#DejaVuSans-6e" transform="translate(1593.4375 0.015625)"/>
      <use xlink:href="#DejaVuSans-64" transform="translate(1656.816406 0.015625)"/>
      <use xlink:href="#DejaVuSans-69" transform="translate(1720.292969 0.015625)"/>
      <use xlink:href="#DejaVuSans-6e" transform="translate(1748.076172 0.015625)"/>
      <use xlink:href="#DejaVuSans-67" transform="translate(1811.455078 0.015625)"/>
      <use xlink:href="#DejaVuSans-20" transform="translate(1874.931641 0.015625)"/>
      <use xlink:href="#DejaVuSans-73" transform="translate(1906.71875 0.015625)"/>
      <use xlink:href="#DejaVuSans-69" transform="translate(1958.818359 0.015625)"/>
      <use xlink:href="#DejaVuSans-74" transform="translate(1986.601562 0.015625)"/>
      <use xlink:href="#DejaVuSans-65" transform="translate(2025.810547 0.015625)"/>
      <use xlink:href="#DejaVuSans-73" transform="translate(2087.333984 0.015625)"/>
     </g>
    </g>
   </g>
   <g id="matplotlib.axis_2">
    <g id="ytick_1">
     <g id="line2d_7">
      <defs>
       <path id="m9e8f946b45" d="M 0 0 
L -3.5 0 
" style="stroke: #000000; stroke-width: 0.8"/>
      </defs>
      <g>
       <use xlink:href="#m9e8f946b45" x="50.14375" y="272.019425" style="stroke: #000000; stroke-width: 0.8"/>
      </g>
     </g>
     <g id="text_8">
      <!-- 0.02 -->
      <g transform="translate(20.878125 275.818644) scale(0.1 -0.1)">
       <defs>
        <path id="DejaVuSans-30" d="M 2034 4250 
Q 1547 4250 1301 3770 
Q 1056 3291 1056 2328 
Q 1056 1369 1301 889 
Q 1547 409 2034 409 
Q 2525 409 2770 889 
Q 3016 1369 3016 2328 
Q 3016 3291 2770 3770 
Q 2525 4250 2034 4250 
z
M 2034 4750 
Q 2819 4750 3233 4129 
Q 3647 3509 3647 2328 
Q 3647 1150 3233 529 
Q 2819 -91 2034 -91 
Q 1250 -91 836 529 
Q 422 1150 422 2328 
Q 422 3509 836 4129 
Q 1250 4750 2034 4750 
z
" transform="scale(0.015625)"/>
        <path id="DejaVuSans-32" d="M 1228 531 
L 3431 531 
L 3431 0 
L 469 0 
L 469 531 
Q 828 903 1448 1529 
Q 2069 2156 2228 2338 
Q 2531 2678 2651 2914 
Q 2772 3150 2772 3378 
Q 2772 3750 2511 3984 
Q 2250 4219 1831 4219 
Q 1534 4219 1204 4116 
Q 875 4013 500 3803 
L 500 4441 
Q 881 4594 1212 4672 
Q 1544 4750 1819 4750 
Q 2544 4750 2975 4387 
Q 3406 4025 3406 3419 
Q 3406 3131 3298 2873 
Q 3191 2616 2906 2266 
Q 2828 2175 2409 1742 
Q 1991 1309 1228 531 
z
" transform="scale(0.015625)"/>
       </defs>
       <use xlink:href="#DejaVuSans-30"/>
       <use xlink:href="#DejaVuSans-2e" x="63.623047"/>
       <use xlink:href="#DejaVuSans-30" x="95.410156"/>
       <use xlink:href="#DejaVuSans-32" x="159.033203"/>
      </g>
     </g>
    </g>
    <g id="ytick_2">
     <g id="line2d_8">
      <g>
       <use xlink:href="#m9e8f946b45" x="50.14375" y="240.19281" style="stroke: #000000; stroke-width: 0.8"/>
      </g>
     </g>
     <g id="text_9">
      <!-- 0.04 -->
      <g transform="translate(20.878125 243.992029) scale(0.1 -0.1)">
       <use xlink:href="#DejaVuSans-30"/>
       <use xlink:href="#DejaVuSans-2e" x="63.623047"/>
       <use xlink:href="#DejaVuSans-30" x="95.410156"/>
       <use xlink:href="#DejaVuSans-34" x="159.033203"/>
      </g>
     </g>
    </g>
    <g id="ytick_3">
     <g id="line2d_9">
      <g>
       <use xlink:href="#m9e8f946b45" x="50.14375" y="208.366195" style="stroke: #000000; stroke-width: 0.8"/>
      </g>
     </g>
     <g id="text_10">
      <!-- 0.06 -->
      <g transform="translate(20.878125 212.165413) scale(0.1 -0.1)">
       <use xlink:href="#DejaVuSans-30"/>
       <use xlink:href="#DejaVuSans-2e" x="63.623047"/>
       <use xlink:href="#DejaVuSans-30" x="95.410156"/>
       <use xlink:href="#DejaVuSans-36" x="159.033203"/>
      </g>
     </g>
    </g>
    <g id="ytick_4">
     <g id="line2d_10">
      <g>
       <use xlink:href="#m9e8f946b45" x="50.14375" y="176.539579" style="stroke: #000000; stroke-width: 0.8"/>
      </g>
     </g>
     <g id="text_11">
      <!-- 0.08 -->
      <g transform="translate(20.878125 180.338798) scale(0.1 -0.1)">
       <use xlink:href="#DejaVuSans-30"/>
       <use xlink:href="#DejaVuSans-2e" x="63.623047"/>
       <use xlink:href="#DejaVuSans-30" x="95.410156"/>
       <use xlink:href="#DejaVuSans-38" x="159.033203"/>
      </g>
     </g>
    </g>
    <g id="ytick_5">
     <g id="line2d_11">
      <g>
       <use xlink:href="#m9e8f946b45" x="50.14375" y="144.712964" style="stroke: #000000; stroke-width: 0.8"/>
      </g>
     </g>
     <g id="text_12">
      <!-- 0.10 -->
      <g transform="translate(20.878125 148.512183) scale(0.1 -0.1)">
       <defs>
        <path id="DejaVuSans-31" d="M 794 531 
L 1825 531 
L 1825 4091 
L 703 3866 
L 703 4441 
L 1819 4666 
L 2450 4666 
L 2450 531 
L 3481 531 
L 3481 0 
L 794 0 
L 794 531 
z
" transform="scale(0.015625)"/>
       </defs>
       <use xlink:href="#DejaVuSans-30"/>
       <use xlink:href="#DejaVuSans-2e" x="63.623047"/>
       <use xlink:href="#DejaVuSans-31" x="95.410156"/>
       <use xlink:href="#DejaVuSans-30" x="159.033203"/>
      </g>
     </g>
    </g>
    <g id="ytick_6">
     <g id="line2d_12">
      <g>
       <use xlink:href="#m9e8f946b45" x="50.14375" y="112.886349" style="stroke: #000000; stroke-width: 0.8"/>
      </g>
     </g>
     <g id="text_13">
      <!-- 0.12 -->
      <g transform="translate(20.878125 116.685568) scale(0.1 -0.1)">
       <use xlink:href="#DejaVuSans-30"/>
       <use xlink:href="#DejaVuSans-2e" x="63.623047"/>
       <use xlink:href="#DejaVuSans-31" x="95.410156"/>
       <use xlink:href="#DejaVuSans-32" x="159.033203"/>
      </g>
     </g>
    </g>
    <g id="ytick_7">
     <g id="line2d_13">
      <g>
       <use xlink:href="#m9e8f946b45" x="50.14375" y="81.059734" style="stroke: #000000; stroke-width: 0.8"/>
      </g>
     </g>
     <g id="text_14">
      <!-- 0.14 -->
      <g transform="translate(20.878125 84.858953) scale(0.1 -0.1)">
       <use xlink:href="#DejaVuSans-30"/>
       <use xlink:href="#DejaVuSans-2e" x="63.623047"/>
       <use xlink:href="#DejaVuSans-31" x="95.410156"/>
       <use xlink:href="#DejaVuSans-34" x="159.033203"/>
      </g>
     </g>
    </g>
    <g id="ytick_8">
     <g id="line2d_14">
      <g>
       <use xlink:href="#m9e8f946b45" x="50.14375" y="49.233119" style="stroke: #000000; stroke-width: 0.8"/>
      </g>
     </g>
     <g id="text_15">
      <!-- 0.16 -->
      <g transform="translate(20.878125 53.032338) scale(0.1 -0.1)">
       <use xlink:href="#DejaVuSans-30"/>
       <use xlink:href="#DejaVuSans-2e" x="63.623047"/>
       <use xlink:href="#DejaVuSans-31" x="95.410156"/>
       <use xlink:href="#DejaVuSans-36" x="159.033203"/>
      </g>
     </g>
    </g>
    <g id="ytick_9">
     <g id="line2d_15">
      <g>
       <use xlink:href="#m9e8f946b45" x="50.14375" y="17.406504" style="stroke: #000000; stroke-width: 0.8"/>
      </g>
     </g>
     <g id="text_16">
      <!-- 0.18 -->
      <g transform="translate(20.878125 21.205722) scale(0.1 -0.1)">
       <use xlink:href="#DejaVuSans-30"/>
       <use xlink:href="#DejaVuSans-2e" x="63.623047"/>
       <use xlink:href="#DejaVuSans-31" x="95.410156"/>
       <use xlink:href="#DejaVuSans-38" x="159.033203"/>
      </g>
     </g>
    </g>
    <g id="text_17">
     <!-- Relative abundance in the top-scoring solutions -->
     <g transform="translate(14.798438 259.539594) rotate(-90) scale(0.1 -0.1)">
      <defs>
       <path id="DejaVuSans-52" d="M 2841 2188 
Q 3044 2119 3236 1894 
Q 3428 1669 3622 1275 
L 4263 0 
L 3584 0 
L 2988 1197 
Q 2756 1666 2539 1819 
Q 2322 1972 1947 1972 
L 1259 1972 
L 1259 0 
L 628 0 
L 628 4666 
L 2053 4666 
Q 2853 4666 3247 4331 
Q 3641 3997 3641 3322 
Q 3641 2881 3436 2590 
Q 3231 2300 2841 2188 
z
M 1259 4147 
L 1259 2491 
L 2053 2491 
Q 2509 2491 2742 2702 
Q 2975 2913 2975 3322 
Q 2975 3731 2742 3939 
Q 2509 4147 2053 4147 
L 1259 4147 
z
" transform="scale(0.015625)"/>
       <path id="DejaVuSans-6c" d="M 603 4863 
L 1178 4863 
L 1178 0 
L 603 0 
L 603 4863 
z
" transform="scale(0.015625)"/>
       <path id="DejaVuSans-75" d="M 544 1381 
L 544 3500 
L 1119 3500 
L 1119 1403 
Q 1119 906 1312 657 
Q 1506 409 1894 409 
Q 2359 409 2629 706 
Q 2900 1003 2900 1516 
L 2900 3500 
L 3475 3500 
L 3475 0 
L 2900 0 
L 2900 538 
Q 2691 219 2414 64 
Q 2138 -91 1772 -91 
Q 1169 -91 856 284 
Q 544 659 544 1381 
z
M 1991 3584 
L 1991 3584 
z
" transform="scale(0.015625)"/>
       <path id="DejaVuSans-63" d="M 3122 3366 
L 3122 2828 
Q 2878 2963 2633 3030 
Q 2388 3097 2138 3097 
Q 1578 3097 1268 2742 
Q 959 2388 959 1747 
Q 959 1106 1268 751 
Q 1578 397 2138 397 
Q 2388 397 2633 464 
Q 2878 531 3122 666 
L 3122 134 
Q 2881 22 2623 -34 
Q 2366 -91 2075 -91 
Q 1284 -91 818 406 
Q 353 903 353 1747 
Q 353 2603 823 3093 
Q 1294 3584 2113 3584 
Q 2378 3584 2631 3529 
Q 2884 3475 3122 3366 
z
" transform="scale(0.015625)"/>
       <path id="DejaVuSans-70" d="M 1159 525 
L 1159 -1331 
L 581 -1331 
L 581 3500 
L 1159 3500 
L 1159 2969 
Q 1341 3281 1617 3432 
Q 1894 3584 2278 3584 
Q 2916 3584 3314 3078 
Q 3713 2572 3713 1747 
Q 3713 922 3314 415 
Q 2916 -91 2278 -91 
Q 1894 -91 1617 61 
Q 1341 213 1159 525 
z
M 3116 1747 
Q 3116 2381 2855 2742 
Q 2594 3103 2138 3103 
Q 1681 3103 1420 2742 
Q 1159 2381 1159 1747 
Q 1159 1113 1420 752 
Q 1681 391 2138 391 
Q 2594 391 2855 752 
Q 3116 1113 3116 1747 
z
" transform="scale(0.015625)"/>
       <path id="DejaVuSans-2d" d="M 313 2009 
L 1997 2009 
L 1997 1497 
L 313 1497 
L 313 2009 
z
" transform="scale(0.015625)"/>
      </defs>
      <use xlink:href="#DejaVuSans-52"/>
      <use xlink:href="#DejaVuSans-65" x="64.982422"/>
      <use xlink:href="#DejaVuSans-6c" x="126.505859"/>
      <use xlink:href="#DejaVuSans-61" x="154.289062"/>
      <use xlink:href="#DejaVuSans-74" x="215.568359"/>
      <use xlink:href="#DejaVuSans-69" x="254.777344"/>
      <use xlink:href="#DejaVuSans-76" x="282.560547"/>
      <use xlink:href="#DejaVuSans-65" x="341.740234"/>
      <use xlink:href="#DejaVuSans-20" x="403.263672"/>
      <use xlink:href="#DejaVuSans-61" x="435.050781"/>
      <use xlink:href="#DejaVuSans-62" x="496.330078"/>
      <use xlink:href="#DejaVuSans-75" x="559.806641"/>
      <use xlink:href="#DejaVuSans-6e" x="623.185547"/>
      <use xlink:href="#DejaVuSans-64" x="686.564453"/>
      <use xlink:href="#DejaVuSans-61" x="750.041016"/>
      <use xlink:href="#DejaVuSans-6e" x="811.320312"/>
      <use xlink:href="#DejaVuSans-63" x="874.699219"/>
      <use xlink:href="#DejaVuSans-65" x="929.679688"/>
      <use xlink:href="#DejaVuSans-20" x="991.203125"/>
      <use xlink:href="#DejaVuSans-69" x="1022.990234"/>
      <use xlink:href="#DejaVuSans-6e" x="1050.773438"/>
      <use xlink:href="#DejaVuSans-20" x="1114.152344"/>
      <use xlink:href="#DejaVuSans-74" x="1145.939453"/>
      <use xlink:href="#DejaVuSans-68" x="1185.148438"/>
      <use xlink:href="#DejaVuSans-65" x="1248.527344"/>
      <use xlink:href="#DejaVuSans-20" x="1310.050781"/>
      <use xlink:href="#DejaVuSans-74" x="1341.837891"/>
      <use xlink:href="#DejaVuSans-6f" x="1381.046875"/>
      <use xlink:href="#DejaVuSans-70" x="1442.228516"/>
      <use xlink:href="#DejaVuSans-2d" x="1505.705078"/>
      <use xlink:href="#DejaVuSans-73" x="1541.789062"/>
      <use xlink:href="#DejaVuSans-63" x="1593.888672"/>
      <use xlink:href="#DejaVuSans-6f" x="1648.869141"/>
      <use xlink:href="#DejaVuSans-72" x="1710.050781"/>
      <use xlink:href="#DejaVuSans-69" x="1751.164062"/>
      <use xlink:href="#DejaVuSans-6e" x="1778.947266"/>
      <use xlink:href="#DejaVuSans-67" x="1842.326172"/>
      <use xlink:href="#DejaVuSans-20" x="1905.802734"/>
      <use xlink:href="#DejaVuSans-73" x="1937.589844"/>
      <use xlink:href="#DejaVuSans-6f" x="1989.689453"/>
      <use xlink:href="#DejaVuSans-6c" x="2050.871094"/>
      <use xlink:href="#DejaVuSans-75" x="2078.654297"/>
      <use xlink:href="#DejaVuSans-74" x="2142.033203"/>
      <use xlink:href="#DejaVuSans-69" x="2181.242188"/>
      <use xlink:href="#DejaVuSans-6f" x="2209.025391"/>
      <use xlink:href="#DejaVuSans-6e" x="2270.207031"/>
      <use xlink:href="#DejaVuSans-73" x="2333.585938"/>
     </g>
    </g>
   </g>
   <g id="line2d_16">
    <path d="M 66.376477 71.643516 
L 73.00208 74.444376 
L 79.627683 77.245235 
L 86.253286 80.046094 
L 92.878889 82.846953 
L 99.504492 85.647813 
L 106.130095 88.448672 
L 112.755698 91.249531 
L 119.381301 94.05039 
L 126.006904 96.85125 
L 132.632507 99.652109 
L 139.25811 102.452968 
L 145.883713 105.253827 
L 152.509316 108.054687 
L 159.134919 110.855546 
L 165.760522 113.656405 
L 172.386125 116.457265 
L 179.011728 119.258124 
L 185.637331 122.058983 
L 192.262934 124.859842 
L 198.888537 127.660702 
L 205.51414 130.461561 
L 212.139743 133.26242 
L 218.765346 136.063279 
L 225.390949 138.864139 
L 232.016551 141.664998 
L 238.642154 144.465857 
L 245.267757 147.266716 
L 251.89336 150.067576 
L 258.518963 152.868435 
L 265.144566 155.669294 
L 271.770169 158.470154 
L 278.395772 161.271013 
L 285.021375 164.071872 
L 291.646978 166.872731 
L 298.272581 169.673591 
L 304.898184 172.47445 
L 311.523787 175.275309 
L 318.14939 178.076168 
L 324.774993 180.877028 
L 331.400596 183.677887 
L 338.026199 186.478746 
L 344.651802 189.279605 
L 351.277405 192.080465 
L 357.903008 194.881324 
L 364.528611 197.682183 
L 371.154214 200.483043 
L 377.779817 203.283902 
L 384.40542 206.084761 
L 391.031023 208.88562 
" clip-path="url(#p7ae5d4ea64)" style="fill: none; stroke: #1f77b4; stroke-width: 1.5"/>
   </g>
   <g id="patch_3">
    <path d="M 50.14375 273.312 
L 50.14375 7.2 
" style="fill: none; stroke: #000000; stroke-width: 0.8; stroke-linejoin: miter; stroke-linecap: square"/>
   </g>
   <g id="patch_4">
    <path d="M 407.26375 273.312 
L 407.26375 7.2 
" style="fill: none; stroke: #000000; stroke-width: 0.8; stroke-linejoin: miter; stroke-linecap: square"/>
   </g>
   <g id="patch_5">
    <path d="M 50.14375 273.312 
L 407.26375 273.312 
" style="fill: none; stroke: #000000; stroke-width: 0.8; stroke-linejoin: miter; stroke-linecap: square"/>
   </g>
   <g id="patch_6">
    <path d="M 50.14375 7.2 
L 407.26375 7.2 
" style="fill: none; stroke: #000000; stroke-width: 0.8; stroke-linejoin: miter; stroke-linecap: square"/>
   </g>
   <g id="legend_1">
    <g id="patch_7">
     <path d="M 57.14375 268.312 
L 148.148438 268.312 
Q 150.148438 268.312 150.148438 266.312 
L 150.148438 223.277625 
Q 150.148438 221.277625 148.148438 221.277625 
L 57.14375 221.277625 
Q 55.14375 221.277625 55.14375 223.277625 
L 55.14375 266.312 
Q 55.14375 268.312 57.14375 268.312 
z
" style="fill: #ffffff; opacity: 0.8; stroke: #cccccc; stroke-linejoin: miter"/>
    </g>
    <g id="PathCollection_4">
     <g>
      <use xlink:href="#m93dba06f11" x="69.14375" y="230.251062" style="fill: #1f77b4; stroke: #1f77b4"/>
     </g>
    </g>
    <g id="text_18">
     <!-- Collection 1 -->
     <g transform="translate(87.14375 232.876062) scale(0.1 -0.1)">
      <defs>
       <path id="DejaVuSans-43" d="M 4122 4306 
L 4122 3641 
Q 3803 3938 3442 4084 
Q 3081 4231 2675 4231 
Q 1875 4231 1450 3742 
Q 1025 3253 1025 2328 
Q 1025 1406 1450 917 
Q 1875 428 2675 428 
Q 3081 428 3442 575 
Q 3803 722 4122 1019 
L 4122 359 
Q 3791 134 3420 21 
Q 3050 -91 2638 -91 
Q 1578 -91 968 557 
Q 359 1206 359 2328 
Q 359 3453 968 4101 
Q 1578 4750 2638 4750 
Q 3056 4750 3426 4639 
Q 3797 4528 4122 4306 
z
" transform="scale(0.015625)"/>
      </defs>
      <use xlink:href="#DejaVuSans-43"/>
      <use xlink:href="#DejaVuSans-6f" x="69.824219"/>
      <use xlink:href="#DejaVuSans-6c" x="131.005859"/>
      <use xlink:href="#DejaVuSans-6c" x="158.789062"/>
      <use xlink:href="#DejaVuSans-65" x="186.572266"/>
      <use xlink:href="#DejaVuSans-63" x="248.095703"/>
      <use xlink:href="#DejaVuSans-74" x="303.076172"/>
      <use xlink:href="#DejaVuSans-69" x="342.285156"/>
      <use xlink:href="#DejaVuSans-6f" x="370.068359"/>
      <use xlink:href="#DejaVuSans-6e" x="431.25"/>
      <use xlink:href="#DejaVuSans-20" x="494.628906"/>
      <use xlink:href="#DejaVuSans-31" x="526.416016"/>
     </g>
    </g>
    <g id="PathCollection_5">
     <g>
      <use xlink:href="#mc9fea23254" x="69.14375" y="244.929187" style="fill: #ff7f0e; stroke: #ff7f0e; stroke-width: 1.5"/>
     </g>
    </g>
    <g id="text_19">
     <!-- Collection 2 -->
     <g transform="translate(87.14375 247.554187) scale(0.1 -0.1)">
      <use xlink:href="#DejaVuSans-43"/>
      <use xlink:href="#DejaVuSans-6f" x="69.824219"/>
      <use xlink:href="#DejaVuSans-6c" x="131.005859"/>
      <use xlink:href="#DejaVuSans-6c" x="158.789062"/>
      <use xlink:href="#DejaVuSans-65" x="186.572266"/>
      <use xlink:href="#DejaVuSans-63" x="248.095703"/>
      <use xlink:href="#DejaVuSans-74" x="303.076172"/>
      <use xlink:href="#DejaVuSans-69" x="342.285156"/>
      <use xlink:href="#DejaVuSans-6f" x="370.068359"/>
      <use xlink:href="#DejaVuSans-6e" x="431.25"/>
      <use xlink:href="#DejaVuSans-20" x="494.628906"/>
      <use xlink:href="#DejaVuSans-32" x="526.416016"/>
     </g>
    </g>
    <g id="PathCollection_6">
     <g>
      <use xlink:href="#m9710f3561e" x="69.14375" y="259.607312" style="fill: #2ca02c; stroke: #2ca02c"/>
     </g>
    </g>
    <g id="text_20">
     <!-- Collection 3 -->
     <g transform="translate(87.14375 262.232312) scale(0.1 -0.1)">
      <defs>
       <path id="DejaVuSans-33" d="M 2597 2516 
Q 3050 2419 3304 2112 
Q 3559 1806 3559 1356 
Q 3559 666 3084 287 
Q 2609 -91 1734 -91 
Q 1441 -91 1130 -33 
Q 819 25 488 141 
L 488 750 
Q 750 597 1062 519 
Q 1375 441 1716 441 
Q 2309 441 2620 675 
Q 2931 909 2931 1356 
Q 2931 1769 2642 2001 
Q 2353 2234 1838 2234 
L 1294 2234 
L 1294 2753 
L 1863 2753 
Q 2328 2753 2575 2939 
Q 2822 3125 2822 3475 
Q 2822 3834 2567 4026 
Q 2313 4219 1838 4219 
Q 1578 4219 1281 4162 
Q 984 4106 628 3988 
L 628 4550 
Q 988 4650 1302 4700 
Q 1616 4750 1894 4750 
Q 2613 4750 3031 4423 
Q 3450 4097 3450 3541 
Q 3450 3153 3228 2886 
Q 3006 2619 2597 2516 
z
" transform="scale(0.015625)"/>
      </defs>
      <use xlink:href="#DejaVuSans-43"/>
      <use xlink:href="#DejaVuSans-6f" x="69.824219"/>
      <use xlink:href="#DejaVuSans-6c" x="131.005859"/>
      <use xlink:href="#DejaVuSans-6c" x="158.789062"/>
      <use xlink:href="#DejaVuSans-65" x="186.572266"/>
      <use xlink:href="#DejaVuSans-63" x="248.095703"/>
      <use xlink:href="#DejaVuSans-74" x="303.076172"/>
      <use xlink:href="#DejaVuSans-69" x="342.285156"/>
      <use xlink:href="#DejaVuSans-6f" x="370.068359"/>
      <use xlink:href="#DejaVuSans-6e" x="431.25"/>
      <use xlink:href="#DejaVuSans-20" x="494.628906"/>
      <use xlink:href="#DejaVuSans-33" x="526.416016"/>
     </g>
    </g>
   </g>
  </g>
 </g>
 <defs>
  <clipPath id="p7ae5d4ea64">
   <rect x="50.14375" y="7.2" width="357.12" height="266.112"/>
  </clipPath>
 </defs>
</svg>
