<?xml version="1.0" encoding="utf-8" standalone="no"?>
<!DOCTYPE svg PUBLIC "-//W3C//DTD SVG 1.1//EN"
  "http://www.w3.org/Graphics/SVG/1.1/DTD/svg11.dtd">
<svg xmlns:xlink="http://www.w3.org/1999/xlink" width="505.298735pt" height="322.278125pt" viewBox="0 0 505.298735 322.278125" xmlns="http://www.w3.org/2000/svg" version="1.1">
 <metadata>
  <rdf:RDF xmlns:dc="http://purl.org/dc/elements/1.1/" xmlns:cc="http://creativecommons.org/ns#" xmlns:rdf="http://www.w3.org/1999/02/22-rdf-syntax-ns#">
   <cc:Work>
    <dc:type rdf:resource="http://purl.org/dc/dcmitype/StillImage"/>
    <dc:date>2024-01-08T19:29:34.638192</dc:date>
    <dc:format>image/svg+xml</dc:format>
    <dc:creator>
     <cc:Agent>
      <dc:title>Matplotlib v3.8.2, https://matplotlib.org/</dc:title>
     </cc:Agent>
    </dc:creator>
   </cc:Work>
  </rdf:RDF>
 </metadata>
 <defs>
  <style type="text/css">*{stroke-linejoin: round; stroke-linecap: butt}</style>
 </defs>
 <g id="figure_1">
  <g id="patch_1">
   <path d="M 0 322.278125 
L 505.298735 322.278125 
L 505.298735 0 
L 0 0 
z
" style="fill: #ffffff"/>
  </g>
  <g id="axes_1">
   <g id="patch_2">
    <path d="M 51.378125 284.4 
L 254.287216 284.4 
L 254.287216 7.2 
L 51.378125 7.2 
z
" style="fill: #ffffff"/>
   </g>
   <g id="PolyCollection_1">
    <defs>
     <path id="me937de08cc" d="M 60.601265 -63.381593 
L 60.601265 -56.837272 
L 81.097133 -105.66052 
L 101.593001 -116.027601 
L 122.088869 -135.140768 
L 142.584737 -157.813948 
L 163.080604 -166.680212 
L 183.576472 -176.649805 
L 204.07234 -188.617848 
L 224.568208 -195.974495 
L 245.064075 -204.664432 
L 245.064075 -210.885778 
L 245.064075 -210.885778 
L 224.568208 -200.585074 
L 204.07234 -191.370296 
L 183.576472 -178.667977 
L 163.080604 -174.567844 
L 142.584737 -165.754617 
L 122.088869 -140.766286 
L 101.593001 -128.33641 
L 81.097133 -107.710273 
L 60.601265 -63.381593 
z
" style="stroke: #edd1cb; stroke-opacity: 0.2"/>
    </defs>
    <g clip-path="url(#pe05c8319dc)">
     <use xlink:href="#me937de08cc" x="0" y="322.278125" style="fill: #edd1cb; fill-opacity: 0.2; stroke: #edd1cb; stroke-opacity: 0.2"/>
    </g>
   </g>
   <g id="PolyCollection_2">
    <defs>
     <path id="m029c4c8e0a" d="M 60.601265 -56.874328 
L 60.601265 -53.3925 
L 81.097133 -93.400976 
L 101.593001 -118.146431 
L 122.088869 -140.665186 
L 142.584737 -155.335329 
L 163.080604 -165.64886 
L 183.576472 -174.973301 
L 204.07234 -184.571574 
L 224.568208 -196.083853 
L 245.064075 -202.576787 
L 245.064075 -211.111812 
L 245.064075 -211.111812 
L 224.568208 -201.576882 
L 204.07234 -190.218873 
L 183.576472 -181.722446 
L 163.080604 -170.086433 
L 142.584737 -163.905173 
L 122.088869 -151.170988 
L 101.593001 -126.809587 
L 81.097133 -101.065706 
L 60.601265 -56.874328 
z
" style="stroke: #e7c1be; stroke-opacity: 0.2"/>
    </defs>
    <g clip-path="url(#pe05c8319dc)">
     <use xlink:href="#m029c4c8e0a" x="0" y="322.278125" style="fill: #e7c1be; fill-opacity: 0.2; stroke: #e7c1be; stroke-opacity: 0.2"/>
    </g>
   </g>
   <g id="PolyCollection_3">
    <defs>
     <path id="m9e94d3dbe5" d="M 60.601265 -68.08477 
L 60.601265 -54.791705 
L 81.097133 -94.836884 
L 101.593001 -118.871036 
L 122.088869 -146.799026 
L 142.584737 -159.278506 
L 163.080604 -168.715936 
L 183.576472 -178.613434 
L 204.07234 -186.663826 
L 224.568208 -194.985666 
L 245.064075 -201.468478 
L 245.064075 -211.112629 
L 245.064075 -211.112629 
L 224.568208 -200.560993 
L 204.07234 -193.032278 
L 183.576472 -184.73603 
L 163.080604 -179.021538 
L 142.584737 -174.672093 
L 122.088869 -153.258372 
L 101.593001 -123.575296 
L 81.097133 -104.492425 
L 60.601265 -68.08477 
z
" style="stroke: #e1b1b4; stroke-opacity: 0.2"/>
    </defs>
    <g clip-path="url(#pe05c8319dc)">
     <use xlink:href="#m9e94d3dbe5" x="0" y="322.278125" style="fill: #e1b1b4; fill-opacity: 0.2; stroke: #e1b1b4; stroke-opacity: 0.2"/>
    </g>
   </g>
   <g id="PolyCollection_4">
    <defs>
     <path id="m5bb8ed541f" d="M 60.601265 -64.884815 
L 60.601265 -55.182963 
L 81.097133 -100.514649 
L 101.593001 -121.299693 
L 122.088869 -146.476707 
L 142.584737 -162.733761 
L 163.080604 -165.156837 
L 183.576472 -178.814699 
L 204.07234 -187.341761 
L 224.568208 -195.64359 
L 245.064075 -201.172233 
L 245.064075 -206.958246 
L 245.064075 -206.958246 
L 224.568208 -201.406143 
L 204.07234 -198.562103 
L 183.576472 -186.379138 
L 163.080604 -178.324168 
L 142.584737 -177.627148 
L 122.088869 -194.469863 
L 101.593001 -125.078982 
L 81.097133 -117.98541 
L 60.601265 -64.884815 
z
" style="stroke: #d9a1ab; stroke-opacity: 0.2"/>
    </defs>
    <g clip-path="url(#pe05c8319dc)">
     <use xlink:href="#m5bb8ed541f" x="0" y="322.278125" style="fill: #d9a1ab; fill-opacity: 0.2; stroke: #d9a1ab; stroke-opacity: 0.2"/>
    </g>
   </g>
   <g id="PolyCollection_5">
    <defs>
     <path id="m855c112924" d="M 60.601265 -54.042877 
L 60.601265 -51.473333 
L 81.097133 -97.387251 
L 101.593001 -123.641316 
L 122.088869 -143.08323 
L 142.584737 -158.813394 
L 163.080604 -169.897629 
L 183.576472 -180.431768 
L 204.07234 -190.224065 
L 224.568208 -194.464699 
L 245.064075 -205.001737 
L 245.064075 -211.296057 
L 245.064075 -211.296057 
L 224.568208 -207.998934 
L 204.07234 -201.999342 
L 183.576472 -189.891492 
L 163.080604 -181.662901 
L 142.584737 -168.061084 
L 122.088869 -152.367818 
L 101.593001 -128.520248 
L 81.097133 -109.668382 
L 60.601265 -54.042877 
z
" style="stroke: #cf91a3; stroke-opacity: 0.2"/>
    </defs>
    <g clip-path="url(#pe05c8319dc)">
     <use xlink:href="#m855c112924" x="0" y="322.278125" style="fill: #cf91a3; fill-opacity: 0.2; stroke: #cf91a3; stroke-opacity: 0.2"/>
    </g>
   </g>
   <g id="PolyCollection_6">
    <defs>
     <path id="m7a4bdfa518" d="M 60.601265 -51.731725 
L 60.601265 -50.478125 
L 81.097133 -98.951408 
L 101.593001 -124.357399 
L 122.088869 -143.810022 
L 142.584737 -157.465995 
L 163.080604 -171.184637 
L 183.576472 -181.383028 
L 204.07234 -187.490562 
L 224.568208 -199.869264 
L 245.064075 -211.735603 
L 245.064075 -224.463231 
L 245.064075 -224.463231 
L 224.568208 -259.30916 
L 204.07234 -192.007779 
L 183.576472 -194.085017 
L 163.080604 -180.141732 
L 142.584737 -164.396848 
L 122.088869 -155.275929 
L 101.593001 -131.730648 
L 81.097133 -119.395464 
L 60.601265 -51.731725 
z
" style="stroke: #c4829c; stroke-opacity: 0.2"/>
    </defs>
    <g clip-path="url(#pe05c8319dc)">
     <use xlink:href="#m7a4bdfa518" x="0" y="322.278125" style="fill: #c4829c; fill-opacity: 0.2; stroke: #c4829c; stroke-opacity: 0.2"/>
    </g>
   </g>
   <g id="PolyCollection_7">
    <defs>
     <path id="m97c336b3e4" d="M 60.601265 -53.178063 
L 60.601265 -50.770666 
L 81.097133 -93.644615 
L 101.593001 -123.717696 
L 122.088869 -145.984378 
L 142.584737 -159.06089 
L 163.080604 -170.718506 
L 183.576472 -178.924066 
L 204.07234 -191.395724 
L 224.568208 -197.57809 
L 245.064075 -207.069173 
L 245.064075 -227.990337 
L 245.064075 -227.990337 
L 224.568208 -209.836479 
L 204.07234 -200.898387 
L 183.576472 -193.893438 
L 163.080604 -181.067476 
L 142.584737 -179.68266 
L 122.088869 -152.477543 
L 101.593001 -129.430162 
L 81.097133 -104.619339 
L 60.601265 -53.178063 
z
" style="stroke: #b97596; stroke-opacity: 0.2"/>
    </defs>
    <g clip-path="url(#pe05c8319dc)">
     <use xlink:href="#m97c336b3e4" x="0" y="322.278125" style="fill: #b97596; fill-opacity: 0.2; stroke: #b97596; stroke-opacity: 0.2"/>
    </g>
   </g>
   <g id="PolyCollection_8">
    <defs>
     <path id="m476374373f" d="M 60.601265 -51.126767 
L 60.601265 -50.764899 
L 81.097133 -103.714844 
L 101.593001 -127.530126 
L 122.088869 -146.748297 
L 142.584737 -159.18259 
L 163.080604 -172.643239 
L 183.576472 -184.151971 
L 204.07234 -189.598724 
L 224.568208 -202.432858 
L 245.064075 -209.594273 
L 245.064075 -274.615663 
L 245.064075 -274.615663 
L 224.568208 -302.393114 
L 204.07234 -197.20043 
L 183.576472 -210.515761 
L 163.080604 -191.989531 
L 142.584737 -174.377317 
L 122.088869 -154.959026 
L 101.593001 -143.210687 
L 81.097133 -117.631775 
L 60.601265 -51.126767 
z
" style="stroke: #a9678f; stroke-opacity: 0.2"/>
    </defs>
    <g clip-path="url(#pe05c8319dc)">
     <use xlink:href="#m476374373f" x="0" y="322.278125" style="fill: #a9678f; fill-opacity: 0.2; stroke: #a9678f; stroke-opacity: 0.2"/>
    </g>
   </g>
   <g id="PolyCollection_9">
    <defs>
     <path id="m61d0d2c88b" d="M 60.601265 -53.734484 
L 60.601265 -50.784408 
L 81.097133 -97.388106 
L 101.593001 -124.282038 
L 122.088869 -148.94174 
L 142.584737 -159.184914 
L 163.080604 -169.584219 
L 183.576472 -186.680779 
L 204.07234 -190.462613 
L 224.568208 -200.748587 
L 245.064075 -208.540762 
L 245.064075 -221.45891 
L 245.064075 -221.45891 
L 224.568208 -220.390298 
L 204.07234 -255.253074 
L 183.576472 -195.059552 
L 163.080604 -179.776878 
L 142.584737 -165.903819 
L 122.088869 -159.109873 
L 101.593001 -142.983455 
L 81.097133 -106.837703 
L 60.601265 -53.734484 
z
" style="stroke: #995a88; stroke-opacity: 0.2"/>
    </defs>
    <g clip-path="url(#pe05c8319dc)">
     <use xlink:href="#m61d0d2c88b" x="0" y="322.278125" style="fill: #995a88; fill-opacity: 0.2; stroke: #995a88; stroke-opacity: 0.2"/>
    </g>
   </g>
   <g id="PolyCollection_10">
    <defs>
     <path id="m016697b7f9" d="M 60.601265 -53.364953 
L 60.601265 -50.651428 
L 81.097133 -93.124122 
L 101.593001 -122.60438 
L 122.088869 -142.229568 
L 142.584737 -158.460979 
L 163.080604 -170.191902 
L 183.576472 -181.818668 
L 204.07234 -193.562192 
L 224.568208 -199.877584 
L 245.064075 -213.802528 
L 245.064075 -256.119422 
L 245.064075 -256.119422 
L 224.568208 -208.47809 
L 204.07234 -206.713969 
L 183.576472 -190.660735 
L 163.080604 -190.837347 
L 142.584737 -167.982475 
L 122.088869 -152.995291 
L 101.593001 -132.00091 
L 81.097133 -97.482193 
L 60.601265 -53.364953 
z
" style="stroke: #894f80; stroke-opacity: 0.2"/>
    </defs>
    <g clip-path="url(#pe05c8319dc)">
     <use xlink:href="#m016697b7f9" x="0" y="322.278125" style="fill: #894f80; fill-opacity: 0.2; stroke: #894f80; stroke-opacity: 0.2"/>
    </g>
   </g>
   <g id="PolyCollection_11">
    <defs>
     <path id="m5a474c6cff" d="M 60.601265 -51.119685 
L 60.601265 -50.669702 
L 81.097133 -92.821271 
L 101.593001 -120.644391 
L 122.088869 -146.839754 
L 142.584737 -161.638972 
L 163.080604 -171.451307 
L 183.576472 -181.369653 
L 204.07234 -196.202497 
L 224.568208 -201.21522 
L 245.064075 -209.63957 
L 245.064075 -222.547045 
L 245.064075 -222.547045 
L 224.568208 -214.978311 
L 204.07234 -215.402948 
L 183.576472 -225.452307 
L 163.080604 -181.632495 
L 142.584737 -170.904226 
L 122.088869 -157.383281 
L 101.593001 -129.887349 
L 81.097133 -96.091121 
L 60.601265 -51.119685 
z
" style="stroke: #774576; stroke-opacity: 0.2"/>
    </defs>
    <g clip-path="url(#pe05c8319dc)">
     <use xlink:href="#m5a474c6cff" x="0" y="322.278125" style="fill: #774576; fill-opacity: 0.2; stroke: #774576; stroke-opacity: 0.2"/>
    </g>
   </g>
   <g id="PolyCollection_12">
    <defs>
     <path id="m69d659722f" d="M 60.601265 -53.91433 
L 60.601265 -50.775579 
L 81.097133 -92.879266 
L 101.593001 -130.197169 
L 122.088869 -142.976929 
L 142.584737 -160.607896 
L 163.080604 -174.36761 
L 183.576472 -183.880168 
L 204.07234 -201.950475 
L 224.568208 -200.004505 
L 245.064075 -215.065819 
L 245.064075 -229.956036 
L 245.064075 -229.956036 
L 224.568208 -211.02261 
L 204.07234 -227.718274 
L 183.576472 -196.635277 
L 163.080604 -189.544843 
L 142.584737 -168.641516 
L 122.088869 -152.560677 
L 101.593001 -145.743819 
L 81.097133 -94.257806 
L 60.601265 -53.91433 
z
" style="stroke: #643a6b; stroke-opacity: 0.2"/>
    </defs>
    <g clip-path="url(#pe05c8319dc)">
     <use xlink:href="#m69d659722f" x="0" y="322.278125" style="fill: #643a6b; fill-opacity: 0.2; stroke: #643a6b; stroke-opacity: 0.2"/>
    </g>
   </g>
   <g id="PolyCollection_13">
    <defs>
     <path id="m3636eb3504" d="M 60.601265 -54.518638 
L 60.601265 -50.745826 
L 81.097133 -92.605432 
L 101.593001 -131.057645 
L 122.088869 -153.63055 
L 142.584737 -161.898658 
L 163.080604 -173.534379 
L 183.576472 -187.920111 
L 204.07234 -205.618727 
L 224.568208 -205.001357 
L 245.064075 -212.665184 
L 245.064075 -222.518656 
L 245.064075 -222.518656 
L 224.568208 -218.02227 
L 204.07234 -209.867586 
L 183.576472 -200.621064 
L 163.080604 -186.180891 
L 142.584737 -170.819713 
L 122.088869 -166.757453 
L 101.593001 -146.26751 
L 81.097133 -93.684572 
L 60.601265 -54.518638 
z
" style="stroke: #50305d; stroke-opacity: 0.2"/>
    </defs>
    <g clip-path="url(#pe05c8319dc)">
     <use xlink:href="#m3636eb3504" x="0" y="322.278125" style="fill: #50305d; fill-opacity: 0.2; stroke: #50305d; stroke-opacity: 0.2"/>
    </g>
   </g>
   <g id="PolyCollection_14">
    <defs>
     <path id="mc1a0a673a4" d="M 60.601265 -56.294344 
L 60.601265 -50.755409 
L 81.097133 -93.097605 
L 101.593001 -125.085085 
L 122.088869 -149.304361 
L 142.584737 -161.03112 
L 163.080604 -173.332768 
L 183.576472 -193.475846 
L 204.07234 -199.279592 
L 224.568208 -201.194588 
L 245.064075 -210.402775 
L 245.064075 -253.859676 
L 245.064075 -253.859676 
L 224.568208 -210.883143 
L 204.07234 -218.757886 
L 183.576472 -219.164947 
L 163.080604 -182.821003 
L 142.584737 -170.325981 
L 122.088869 -160.325476 
L 101.593001 -131.754974 
L 81.097133 -94.18998 
L 60.601265 -56.294344 
z
" style="stroke: #3f284f; stroke-opacity: 0.2"/>
    </defs>
    <g clip-path="url(#pe05c8319dc)">
     <use xlink:href="#mc1a0a673a4" x="0" y="322.278125" style="fill: #3f284f; fill-opacity: 0.2; stroke: #3f284f; stroke-opacity: 0.2"/>
    </g>
   </g>
   <g id="PolyCollection_15">
    <defs>
     <path id="m7149de530b" d="M 60.601265 -51.346523 
L 60.601265 -50.947961 
L 81.097133 -92.818111 
L 101.593001 -126.523209 
L 122.088869 -157.88345 
L 142.584737 -163.35515 
L 163.080604 -175.178243 
L 183.576472 -193.261331 
L 204.07234 -202.434013 
L 224.568208 -206.547735 
L 245.064075 -213.262855 
L 245.064075 -231.459404 
L 245.064075 -231.459404 
L 224.568208 -217.137646 
L 204.07234 -213.665494 
L 183.576472 -237.541158 
L 163.080604 -188.317574 
L 142.584737 -175.397289 
L 122.088869 -171.709151 
L 101.593001 -131.086916 
L 81.097133 -94.778147 
L 60.601265 -51.346523 
z
" style="stroke: #2d1e3e; stroke-opacity: 0.2"/>
    </defs>
    <g clip-path="url(#pe05c8319dc)">
     <use xlink:href="#m7149de530b" x="0" y="322.278125" style="fill: #2d1e3e; fill-opacity: 0.2; stroke: #2d1e3e; stroke-opacity: 0.2"/>
    </g>
   </g>
   <g id="matplotlib.axis_1">
    <g id="xtick_1">
     <g id="line2d_1">
      <defs>
       <path id="mebf2b47140" d="M 0 0 
L 0 3.5 
" style="stroke: #000000; stroke-width: 0.8"/>
      </defs>
      <g>
       <use xlink:href="#mebf2b47140" x="81.097133" y="284.4" style="stroke: #000000; stroke-width: 0.8"/>
      </g>
     </g>
     <g id="text_1">
      <!-- 20 -->
      <g transform="translate(74.734633 298.998437) scale(0.1 -0.1)">
       <defs>
        <path id="DejaVuSans-32" d="M 1228 531 
L 3431 531 
L 3431 0 
L 469 0 
L 469 531 
Q 828 903 1448 1529 
Q 2069 2156 2228 2338 
Q 2531 2678 2651 2914 
Q 2772 3150 2772 3378 
Q 2772 3750 2511 3984 
Q 2250 4219 1831 4219 
Q 1534 4219 1204 4116 
Q 875 4013 500 3803 
L 500 4441 
Q 881 4594 1212 4672 
Q 1544 4750 1819 4750 
Q 2544 4750 2975 4387 
Q 3406 4025 3406 3419 
Q 3406 3131 3298 2873 
Q 3191 2616 2906 2266 
Q 2828 2175 2409 1742 
Q 1991 1309 1228 531 
z
" transform="scale(0.015625)"/>
        <path id="DejaVuSans-30" d="M 2034 4250 
Q 1547 4250 1301 3770 
Q 1056 3291 1056 2328 
Q 1056 1369 1301 889 
Q 1547 409 2034 409 
Q 2525 409 2770 889 
Q 3016 1369 3016 2328 
Q 3016 3291 2770 3770 
Q 2525 4250 2034 4250 
z
M 2034 4750 
Q 2819 4750 3233 4129 
Q 3647 3509 3647 2328 
Q 3647 1150 3233 529 
Q 2819 -91 2034 -91 
Q 1250 -91 836 529 
Q 422 1150 422 2328 
Q 422 3509 836 4129 
Q 1250 4750 2034 4750 
z
" transform="scale(0.015625)"/>
       </defs>
       <use xlink:href="#DejaVuSans-32"/>
       <use xlink:href="#DejaVuSans-30" x="63.623047"/>
      </g>
     </g>
    </g>
    <g id="xtick_2">
     <g id="line2d_2">
      <g>
       <use xlink:href="#mebf2b47140" x="122.088869" y="284.4" style="stroke: #000000; stroke-width: 0.8"/>
      </g>
     </g>
     <g id="text_2">
      <!-- 40 -->
      <g transform="translate(115.726369 298.998437) scale(0.1 -0.1)">
       <defs>
        <path id="DejaVuSans-34" d="M 2419 4116 
L 825 1625 
L 2419 1625 
L 2419 4116 
z
M 2253 4666 
L 3047 4666 
L 3047 1625 
L 3713 1625 
L 3713 1100 
L 3047 1100 
L 3047 0 
L 2419 0 
L 2419 1100 
L 313 1100 
L 313 1709 
L 2253 4666 
z
" transform="scale(0.015625)"/>
       </defs>
       <use xlink:href="#DejaVuSans-34"/>
       <use xlink:href="#DejaVuSans-30" x="63.623047"/>
      </g>
     </g>
    </g>
    <g id="xtick_3">
     <g id="line2d_3">
      <g>
       <use xlink:href="#mebf2b47140" x="163.080604" y="284.4" style="stroke: #000000; stroke-width: 0.8"/>
      </g>
     </g>
     <g id="text_3">
      <!-- 60 -->
      <g transform="translate(156.718104 298.998437) scale(0.1 -0.1)">
       <defs>
        <path id="DejaVuSans-36" d="M 2113 2584 
Q 1688 2584 1439 2293 
Q 1191 2003 1191 1497 
Q 1191 994 1439 701 
Q 1688 409 2113 409 
Q 2538 409 2786 701 
Q 3034 994 3034 1497 
Q 3034 2003 2786 2293 
Q 2538 2584 2113 2584 
z
M 3366 4563 
L 3366 3988 
Q 3128 4100 2886 4159 
Q 2644 4219 2406 4219 
Q 1781 4219 1451 3797 
Q 1122 3375 1075 2522 
Q 1259 2794 1537 2939 
Q 1816 3084 2150 3084 
Q 2853 3084 3261 2657 
Q 3669 2231 3669 1497 
Q 3669 778 3244 343 
Q 2819 -91 2113 -91 
Q 1303 -91 875 529 
Q 447 1150 447 2328 
Q 447 3434 972 4092 
Q 1497 4750 2381 4750 
Q 2619 4750 2861 4703 
Q 3103 4656 3366 4563 
z
" transform="scale(0.015625)"/>
       </defs>
       <use xlink:href="#DejaVuSans-36"/>
       <use xlink:href="#DejaVuSans-30" x="63.623047"/>
      </g>
     </g>
    </g>
    <g id="xtick_4">
     <g id="line2d_4">
      <g>
       <use xlink:href="#mebf2b47140" x="204.07234" y="284.4" style="stroke: #000000; stroke-width: 0.8"/>
      </g>
     </g>
     <g id="text_4">
      <!-- 80 -->
      <g transform="translate(197.70984 298.998437) scale(0.1 -0.1)">
       <defs>
        <path id="DejaVuSans-38" d="M 2034 2216 
Q 1584 2216 1326 1975 
Q 1069 1734 1069 1313 
Q 1069 891 1326 650 
Q 1584 409 2034 409 
Q 2484 409 2743 651 
Q 3003 894 3003 1313 
Q 3003 1734 2745 1975 
Q 2488 2216 2034 2216 
z
M 1403 2484 
Q 997 2584 770 2862 
Q 544 3141 544 3541 
Q 544 4100 942 4425 
Q 1341 4750 2034 4750 
Q 2731 4750 3128 4425 
Q 3525 4100 3525 3541 
Q 3525 3141 3298 2862 
Q 3072 2584 2669 2484 
Q 3125 2378 3379 2068 
Q 3634 1759 3634 1313 
Q 3634 634 3220 271 
Q 2806 -91 2034 -91 
Q 1263 -91 848 271 
Q 434 634 434 1313 
Q 434 1759 690 2068 
Q 947 2378 1403 2484 
z
M 1172 3481 
Q 1172 3119 1398 2916 
Q 1625 2713 2034 2713 
Q 2441 2713 2670 2916 
Q 2900 3119 2900 3481 
Q 2900 3844 2670 4047 
Q 2441 4250 2034 4250 
Q 1625 4250 1398 4047 
Q 1172 3844 1172 3481 
z
" transform="scale(0.015625)"/>
       </defs>
       <use xlink:href="#DejaVuSans-38"/>
       <use xlink:href="#DejaVuSans-30" x="63.623047"/>
      </g>
     </g>
    </g>
    <g id="xtick_5">
     <g id="line2d_5">
      <g>
       <use xlink:href="#mebf2b47140" x="245.064075" y="284.4" style="stroke: #000000; stroke-width: 0.8"/>
      </g>
     </g>
     <g id="text_5">
      <!-- 100 -->
      <g transform="translate(235.520325 298.998437) scale(0.1 -0.1)">
       <defs>
        <path id="DejaVuSans-31" d="M 794 531 
L 1825 531 
L 1825 4091 
L 703 3866 
L 703 4441 
L 1819 4666 
L 2450 4666 
L 2450 531 
L 3481 531 
L 3481 0 
L 794 0 
L 794 531 
z
" transform="scale(0.015625)"/>
       </defs>
       <use xlink:href="#DejaVuSans-31"/>
       <use xlink:href="#DejaVuSans-30" x="63.623047"/>
       <use xlink:href="#DejaVuSans-30" x="127.246094"/>
      </g>
     </g>
    </g>
    <g id="text_6">
     <!-- Library size |R| -->
     <g transform="translate(115.633452 312.720312) scale(0.1 -0.1)">
      <defs>
       <path id="DejaVuSans-4c" d="M 628 4666 
L 1259 4666 
L 1259 531 
L 3531 531 
L 3531 0 
L 628 0 
L 628 4666 
z
" transform="scale(0.015625)"/>
       <path id="DejaVuSans-69" d="M 603 3500 
L 1178 3500 
L 1178 0 
L 603 0 
L 603 3500 
z
M 603 4863 
L 1178 4863 
L 1178 4134 
L 603 4134 
L 603 4863 
z
" transform="scale(0.015625)"/>
       <path id="DejaVuSans-62" d="M 3116 1747 
Q 3116 2381 2855 2742 
Q 2594 3103 2138 3103 
Q 1681 3103 1420 2742 
Q 1159 2381 1159 1747 
Q 1159 1113 1420 752 
Q 1681 391 2138 391 
Q 2594 391 2855 752 
Q 3116 1113 3116 1747 
z
M 1159 2969 
Q 1341 3281 1617 3432 
Q 1894 3584 2278 3584 
Q 2916 3584 3314 3078 
Q 3713 2572 3713 1747 
Q 3713 922 3314 415 
Q 2916 -91 2278 -91 
Q 1894 -91 1617 61 
Q 1341 213 1159 525 
L 1159 0 
L 581 0 
L 581 4863 
L 1159 4863 
L 1159 2969 
z
" transform="scale(0.015625)"/>
       <path id="DejaVuSans-72" d="M 2631 2963 
Q 2534 3019 2420 3045 
Q 2306 3072 2169 3072 
Q 1681 3072 1420 2755 
Q 1159 2438 1159 1844 
L 1159 0 
L 581 0 
L 581 3500 
L 1159 3500 
L 1159 2956 
Q 1341 3275 1631 3429 
Q 1922 3584 2338 3584 
Q 2397 3584 2469 3576 
Q 2541 3569 2628 3553 
L 2631 2963 
z
" transform="scale(0.015625)"/>
       <path id="DejaVuSans-61" d="M 2194 1759 
Q 1497 1759 1228 1600 
Q 959 1441 959 1056 
Q 959 750 1161 570 
Q 1363 391 1709 391 
Q 2188 391 2477 730 
Q 2766 1069 2766 1631 
L 2766 1759 
L 2194 1759 
z
M 3341 1997 
L 3341 0 
L 2766 0 
L 2766 531 
Q 2569 213 2275 61 
Q 1981 -91 1556 -91 
Q 1019 -91 701 211 
Q 384 513 384 1019 
Q 384 1609 779 1909 
Q 1175 2209 1959 2209 
L 2766 2209 
L 2766 2266 
Q 2766 2663 2505 2880 
Q 2244 3097 1772 3097 
Q 1472 3097 1187 3025 
Q 903 2953 641 2809 
L 641 3341 
Q 956 3463 1253 3523 
Q 1550 3584 1831 3584 
Q 2591 3584 2966 3190 
Q 3341 2797 3341 1997 
z
" transform="scale(0.015625)"/>
       <path id="DejaVuSans-79" d="M 2059 -325 
Q 1816 -950 1584 -1140 
Q 1353 -1331 966 -1331 
L 506 -1331 
L 506 -850 
L 844 -850 
Q 1081 -850 1212 -737 
Q 1344 -625 1503 -206 
L 1606 56 
L 191 3500 
L 800 3500 
L 1894 763 
L 2988 3500 
L 3597 3500 
L 2059 -325 
z
" transform="scale(0.015625)"/>
       <path id="DejaVuSans-20" transform="scale(0.015625)"/>
       <path id="DejaVuSans-73" d="M 2834 3397 
L 2834 2853 
Q 2591 2978 2328 3040 
Q 2066 3103 1784 3103 
Q 1356 3103 1142 2972 
Q 928 2841 928 2578 
Q 928 2378 1081 2264 
Q 1234 2150 1697 2047 
L 1894 2003 
Q 2506 1872 2764 1633 
Q 3022 1394 3022 966 
Q 3022 478 2636 193 
Q 2250 -91 1575 -91 
Q 1294 -91 989 -36 
Q 684 19 347 128 
L 347 722 
Q 666 556 975 473 
Q 1284 391 1588 391 
Q 1994 391 2212 530 
Q 2431 669 2431 922 
Q 2431 1156 2273 1281 
Q 2116 1406 1581 1522 
L 1381 1569 
Q 847 1681 609 1914 
Q 372 2147 372 2553 
Q 372 3047 722 3315 
Q 1072 3584 1716 3584 
Q 2034 3584 2315 3537 
Q 2597 3491 2834 3397 
z
" transform="scale(0.015625)"/>
       <path id="DejaVuSans-7a" d="M 353 3500 
L 3084 3500 
L 3084 2975 
L 922 459 
L 3084 459 
L 3084 0 
L 275 0 
L 275 525 
L 2438 3041 
L 353 3041 
L 353 3500 
z
" transform="scale(0.015625)"/>
       <path id="DejaVuSans-65" d="M 3597 1894 
L 3597 1613 
L 953 1613 
Q 991 1019 1311 708 
Q 1631 397 2203 397 
Q 2534 397 2845 478 
Q 3156 559 3463 722 
L 3463 178 
Q 3153 47 2828 -22 
Q 2503 -91 2169 -91 
Q 1331 -91 842 396 
Q 353 884 353 1716 
Q 353 2575 817 3079 
Q 1281 3584 2069 3584 
Q 2775 3584 3186 3129 
Q 3597 2675 3597 1894 
z
M 3022 2063 
Q 3016 2534 2758 2815 
Q 2500 3097 2075 3097 
Q 1594 3097 1305 2825 
Q 1016 2553 972 2059 
L 3022 2063 
z
" transform="scale(0.015625)"/>
       <path id="DejaVuSans-7c" d="M 1344 4891 
L 1344 -1509 
L 813 -1509 
L 813 4891 
L 1344 4891 
z
" transform="scale(0.015625)"/>
       <path id="DejaVuSans-52" d="M 2841 2188 
Q 3044 2119 3236 1894 
Q 3428 1669 3622 1275 
L 4263 0 
L 3584 0 
L 2988 1197 
Q 2756 1666 2539 1819 
Q 2322 1972 1947 1972 
L 1259 1972 
L 1259 0 
L 628 0 
L 628 4666 
L 2053 4666 
Q 2853 4666 3247 4331 
Q 3641 3997 3641 3322 
Q 3641 2881 3436 2590 
Q 3231 2300 2841 2188 
z
M 1259 4147 
L 1259 2491 
L 2053 2491 
Q 2509 2491 2742 2702 
Q 2975 2913 2975 3322 
Q 2975 3731 2742 3939 
Q 2509 4147 2053 4147 
L 1259 4147 
z
" transform="scale(0.015625)"/>
      </defs>
      <use xlink:href="#DejaVuSans-4c"/>
      <use xlink:href="#DejaVuSans-69" x="55.712891"/>
      <use xlink:href="#DejaVuSans-62" x="83.496094"/>
      <use xlink:href="#DejaVuSans-72" x="146.972656"/>
      <use xlink:href="#DejaVuSans-61" x="188.085938"/>
      <use xlink:href="#DejaVuSans-72" x="249.365234"/>
      <use xlink:href="#DejaVuSans-79" x="290.478516"/>
      <use xlink:href="#DejaVuSans-20" x="349.658203"/>
      <use xlink:href="#DejaVuSans-73" x="381.445312"/>
      <use xlink:href="#DejaVuSans-69" x="433.544922"/>
      <use xlink:href="#DejaVuSans-7a" x="461.328125"/>
      <use xlink:href="#DejaVuSans-65" x="513.818359"/>
      <use xlink:href="#DejaVuSans-20" x="575.341797"/>
      <use xlink:href="#DejaVuSans-7c" x="607.128906"/>
      <use xlink:href="#DejaVuSans-52" x="640.820312"/>
      <use xlink:href="#DejaVuSans-7c" x="710.302734"/>
     </g>
    </g>
   </g>
   <g id="matplotlib.axis_2">
    <g id="ytick_1">
     <g id="line2d_6">
      <defs>
       <path id="m17f023a62a" d="M 0 0 
L -3.5 0 
" style="stroke: #000000; stroke-width: 0.8"/>
      </defs>
      <g>
       <use xlink:href="#m17f023a62a" x="51.378125" y="245.952291" style="stroke: #000000; stroke-width: 0.8"/>
      </g>
     </g>
     <g id="text_7">
      <!-- $\mathdefault{10^{-1}}$ -->
      <g transform="translate(20.878125 249.751509) scale(0.1 -0.1)">
       <defs>
        <path id="DejaVuSans-2212" d="M 678 2272 
L 4684 2272 
L 4684 1741 
L 678 1741 
L 678 2272 
z
" transform="scale(0.015625)"/>
       </defs>
       <use xlink:href="#DejaVuSans-31" transform="translate(0 0.684375)"/>
       <use xlink:href="#DejaVuSans-30" transform="translate(63.623047 0.684375)"/>
       <use xlink:href="#DejaVuSans-2212" transform="translate(128.203125 38.965625) scale(0.7)"/>
       <use xlink:href="#DejaVuSans-31" transform="translate(186.855469 38.965625) scale(0.7)"/>
      </g>
     </g>
    </g>
    <g id="ytick_2">
     <g id="line2d_7">
      <g>
       <use xlink:href="#m17f023a62a" x="51.378125" y="172.639204" style="stroke: #000000; stroke-width: 0.8"/>
      </g>
     </g>
     <g id="text_8">
      <!-- $\mathdefault{10^{0}}$ -->
      <g transform="translate(26.778125 176.438423) scale(0.1 -0.1)">
       <use xlink:href="#DejaVuSans-31" transform="translate(0 0.765625)"/>
       <use xlink:href="#DejaVuSans-30" transform="translate(63.623047 0.765625)"/>
       <use xlink:href="#DejaVuSans-30" transform="translate(128.203125 39.046875) scale(0.7)"/>
      </g>
     </g>
    </g>
    <g id="ytick_3">
     <g id="line2d_8">
      <g>
       <use xlink:href="#m17f023a62a" x="51.378125" y="99.326118" style="stroke: #000000; stroke-width: 0.8"/>
      </g>
     </g>
     <g id="text_9">
      <!-- $\mathdefault{10^{1}}$ -->
      <g transform="translate(26.778125 103.125337) scale(0.1 -0.1)">
       <use xlink:href="#DejaVuSans-31" transform="translate(0 0.684375)"/>
       <use xlink:href="#DejaVuSans-30" transform="translate(63.623047 0.684375)"/>
       <use xlink:href="#DejaVuSans-31" transform="translate(128.203125 38.965625) scale(0.7)"/>
      </g>
     </g>
    </g>
    <g id="ytick_4">
     <g id="line2d_9">
      <g>
       <use xlink:href="#m17f023a62a" x="51.378125" y="26.013032" style="stroke: #000000; stroke-width: 0.8"/>
      </g>
     </g>
     <g id="text_10">
      <!-- $\mathdefault{10^{2}}$ -->
      <g transform="translate(26.778125 29.812251) scale(0.1 -0.1)">
       <use xlink:href="#DejaVuSans-31" transform="translate(0 0.765625)"/>
       <use xlink:href="#DejaVuSans-30" transform="translate(63.623047 0.765625)"/>
       <use xlink:href="#DejaVuSans-32" transform="translate(128.203125 39.046875) scale(0.7)"/>
      </g>
     </g>
    </g>
    <g id="ytick_5">
     <g id="line2d_10">
      <defs>
       <path id="m4b2a41c941" d="M 0 0 
L -2 0 
" style="stroke: #000000; stroke-width: 0.6"/>
      </defs>
      <g>
       <use xlink:href="#m4b2a41c941" x="51.378125" y="284.286145" style="stroke: #000000; stroke-width: 0.6"/>
      </g>
     </g>
    </g>
    <g id="ytick_6">
     <g id="line2d_11">
      <g>
       <use xlink:href="#m4b2a41c941" x="51.378125" y="275.126501" style="stroke: #000000; stroke-width: 0.6"/>
      </g>
     </g>
    </g>
    <g id="ytick_7">
     <g id="line2d_12">
      <g>
       <use xlink:href="#m4b2a41c941" x="51.378125" y="268.021729" style="stroke: #000000; stroke-width: 0.6"/>
      </g>
     </g>
    </g>
    <g id="ytick_8">
     <g id="line2d_13">
      <g>
       <use xlink:href="#m4b2a41c941" x="51.378125" y="262.216707" style="stroke: #000000; stroke-width: 0.6"/>
      </g>
     </g>
    </g>
    <g id="ytick_9">
     <g id="line2d_14">
      <g>
       <use xlink:href="#m4b2a41c941" x="51.378125" y="257.308631" style="stroke: #000000; stroke-width: 0.6"/>
      </g>
     </g>
    </g>
    <g id="ytick_10">
     <g id="line2d_15">
      <g>
       <use xlink:href="#m4b2a41c941" x="51.378125" y="253.057063" style="stroke: #000000; stroke-width: 0.6"/>
      </g>
     </g>
    </g>
    <g id="ytick_11">
     <g id="line2d_16">
      <g>
       <use xlink:href="#m4b2a41c941" x="51.378125" y="249.306913" style="stroke: #000000; stroke-width: 0.6"/>
      </g>
     </g>
    </g>
    <g id="ytick_12">
     <g id="line2d_17">
      <g>
       <use xlink:href="#m4b2a41c941" x="51.378125" y="223.882853" style="stroke: #000000; stroke-width: 0.6"/>
      </g>
     </g>
    </g>
    <g id="ytick_13">
     <g id="line2d_18">
      <g>
       <use xlink:href="#m4b2a41c941" x="51.378125" y="210.973059" style="stroke: #000000; stroke-width: 0.6"/>
      </g>
     </g>
    </g>
    <g id="ytick_14">
     <g id="line2d_19">
      <g>
       <use xlink:href="#m4b2a41c941" x="51.378125" y="201.813415" style="stroke: #000000; stroke-width: 0.6"/>
      </g>
     </g>
    </g>
    <g id="ytick_15">
     <g id="line2d_20">
      <g>
       <use xlink:href="#m4b2a41c941" x="51.378125" y="194.708642" style="stroke: #000000; stroke-width: 0.6"/>
      </g>
     </g>
    </g>
    <g id="ytick_16">
     <g id="line2d_21">
      <g>
       <use xlink:href="#m4b2a41c941" x="51.378125" y="188.903621" style="stroke: #000000; stroke-width: 0.6"/>
      </g>
     </g>
    </g>
    <g id="ytick_17">
     <g id="line2d_22">
      <g>
       <use xlink:href="#m4b2a41c941" x="51.378125" y="183.995545" style="stroke: #000000; stroke-width: 0.6"/>
      </g>
     </g>
    </g>
    <g id="ytick_18">
     <g id="line2d_23">
      <g>
       <use xlink:href="#m4b2a41c941" x="51.378125" y="179.743977" style="stroke: #000000; stroke-width: 0.6"/>
      </g>
     </g>
    </g>
    <g id="ytick_19">
     <g id="line2d_24">
      <g>
       <use xlink:href="#m4b2a41c941" x="51.378125" y="175.993827" style="stroke: #000000; stroke-width: 0.6"/>
      </g>
     </g>
    </g>
    <g id="ytick_20">
     <g id="line2d_25">
      <g>
       <use xlink:href="#m4b2a41c941" x="51.378125" y="150.569766" style="stroke: #000000; stroke-width: 0.6"/>
      </g>
     </g>
    </g>
    <g id="ytick_21">
     <g id="line2d_26">
      <g>
       <use xlink:href="#m4b2a41c941" x="51.378125" y="137.659973" style="stroke: #000000; stroke-width: 0.6"/>
      </g>
     </g>
    </g>
    <g id="ytick_22">
     <g id="line2d_27">
      <g>
       <use xlink:href="#m4b2a41c941" x="51.378125" y="128.500328" style="stroke: #000000; stroke-width: 0.6"/>
      </g>
     </g>
    </g>
    <g id="ytick_23">
     <g id="line2d_28">
      <g>
       <use xlink:href="#m4b2a41c941" x="51.378125" y="121.395556" style="stroke: #000000; stroke-width: 0.6"/>
      </g>
     </g>
    </g>
    <g id="ytick_24">
     <g id="line2d_29">
      <g>
       <use xlink:href="#m4b2a41c941" x="51.378125" y="115.590535" style="stroke: #000000; stroke-width: 0.6"/>
      </g>
     </g>
    </g>
    <g id="ytick_25">
     <g id="line2d_30">
      <g>
       <use xlink:href="#m4b2a41c941" x="51.378125" y="110.682459" style="stroke: #000000; stroke-width: 0.6"/>
      </g>
     </g>
    </g>
    <g id="ytick_26">
     <g id="line2d_31">
      <g>
       <use xlink:href="#m4b2a41c941" x="51.378125" y="106.43089" style="stroke: #000000; stroke-width: 0.6"/>
      </g>
     </g>
    </g>
    <g id="ytick_27">
     <g id="line2d_32">
      <g>
       <use xlink:href="#m4b2a41c941" x="51.378125" y="102.680741" style="stroke: #000000; stroke-width: 0.6"/>
      </g>
     </g>
    </g>
    <g id="ytick_28">
     <g id="line2d_33">
      <g>
       <use xlink:href="#m4b2a41c941" x="51.378125" y="77.25668" style="stroke: #000000; stroke-width: 0.6"/>
      </g>
     </g>
    </g>
    <g id="ytick_29">
     <g id="line2d_34">
      <g>
       <use xlink:href="#m4b2a41c941" x="51.378125" y="64.346887" style="stroke: #000000; stroke-width: 0.6"/>
      </g>
     </g>
    </g>
    <g id="ytick_30">
     <g id="line2d_35">
      <g>
       <use xlink:href="#m4b2a41c941" x="51.378125" y="55.187242" style="stroke: #000000; stroke-width: 0.6"/>
      </g>
     </g>
    </g>
    <g id="ytick_31">
     <g id="line2d_36">
      <g>
       <use xlink:href="#m4b2a41c941" x="51.378125" y="48.08247" style="stroke: #000000; stroke-width: 0.6"/>
      </g>
     </g>
    </g>
    <g id="ytick_32">
     <g id="line2d_37">
      <g>
       <use xlink:href="#m4b2a41c941" x="51.378125" y="42.277449" style="stroke: #000000; stroke-width: 0.6"/>
      </g>
     </g>
    </g>
    <g id="ytick_33">
     <g id="line2d_38">
      <g>
       <use xlink:href="#m4b2a41c941" x="51.378125" y="37.369373" style="stroke: #000000; stroke-width: 0.6"/>
      </g>
     </g>
    </g>
    <g id="ytick_34">
     <g id="line2d_39">
      <g>
       <use xlink:href="#m4b2a41c941" x="51.378125" y="33.117804" style="stroke: #000000; stroke-width: 0.6"/>
      </g>
     </g>
    </g>
    <g id="ytick_35">
     <g id="line2d_40">
      <g>
       <use xlink:href="#m4b2a41c941" x="51.378125" y="29.367655" style="stroke: #000000; stroke-width: 0.6"/>
      </g>
     </g>
    </g>
    <g id="text_11">
     <!-- Solve time (s) -->
     <g transform="translate(14.798437 180.439062) rotate(-90) scale(0.1 -0.1)">
      <defs>
       <path id="DejaVuSans-53" d="M 3425 4513 
L 3425 3897 
Q 3066 4069 2747 4153 
Q 2428 4238 2131 4238 
Q 1616 4238 1336 4038 
Q 1056 3838 1056 3469 
Q 1056 3159 1242 3001 
Q 1428 2844 1947 2747 
L 2328 2669 
Q 3034 2534 3370 2195 
Q 3706 1856 3706 1288 
Q 3706 609 3251 259 
Q 2797 -91 1919 -91 
Q 1588 -91 1214 -16 
Q 841 59 441 206 
L 441 856 
Q 825 641 1194 531 
Q 1563 422 1919 422 
Q 2459 422 2753 634 
Q 3047 847 3047 1241 
Q 3047 1584 2836 1778 
Q 2625 1972 2144 2069 
L 1759 2144 
Q 1053 2284 737 2584 
Q 422 2884 422 3419 
Q 422 4038 858 4394 
Q 1294 4750 2059 4750 
Q 2388 4750 2728 4690 
Q 3069 4631 3425 4513 
z
" transform="scale(0.015625)"/>
       <path id="DejaVuSans-6f" d="M 1959 3097 
Q 1497 3097 1228 2736 
Q 959 2375 959 1747 
Q 959 1119 1226 758 
Q 1494 397 1959 397 
Q 2419 397 2687 759 
Q 2956 1122 2956 1747 
Q 2956 2369 2687 2733 
Q 2419 3097 1959 3097 
z
M 1959 3584 
Q 2709 3584 3137 3096 
Q 3566 2609 3566 1747 
Q 3566 888 3137 398 
Q 2709 -91 1959 -91 
Q 1206 -91 779 398 
Q 353 888 353 1747 
Q 353 2609 779 3096 
Q 1206 3584 1959 3584 
z
" transform="scale(0.015625)"/>
       <path id="DejaVuSans-6c" d="M 603 4863 
L 1178 4863 
L 1178 0 
L 603 0 
L 603 4863 
z
" transform="scale(0.015625)"/>
       <path id="DejaVuSans-76" d="M 191 3500 
L 800 3500 
L 1894 563 
L 2988 3500 
L 3597 3500 
L 2284 0 
L 1503 0 
L 191 3500 
z
" transform="scale(0.015625)"/>
       <path id="DejaVuSans-74" d="M 1172 4494 
L 1172 3500 
L 2356 3500 
L 2356 3053 
L 1172 3053 
L 1172 1153 
Q 1172 725 1289 603 
Q 1406 481 1766 481 
L 2356 481 
L 2356 0 
L 1766 0 
Q 1100 0 847 248 
Q 594 497 594 1153 
L 594 3053 
L 172 3053 
L 172 3500 
L 594 3500 
L 594 4494 
L 1172 4494 
z
" transform="scale(0.015625)"/>
       <path id="DejaVuSans-6d" d="M 3328 2828 
Q 3544 3216 3844 3400 
Q 4144 3584 4550 3584 
Q 5097 3584 5394 3201 
Q 5691 2819 5691 2113 
L 5691 0 
L 5113 0 
L 5113 2094 
Q 5113 2597 4934 2840 
Q 4756 3084 4391 3084 
Q 3944 3084 3684 2787 
Q 3425 2491 3425 1978 
L 3425 0 
L 2847 0 
L 2847 2094 
Q 2847 2600 2669 2842 
Q 2491 3084 2119 3084 
Q 1678 3084 1418 2786 
Q 1159 2488 1159 1978 
L 1159 0 
L 581 0 
L 581 3500 
L 1159 3500 
L 1159 2956 
Q 1356 3278 1631 3431 
Q 1906 3584 2284 3584 
Q 2666 3584 2933 3390 
Q 3200 3197 3328 2828 
z
" transform="scale(0.015625)"/>
       <path id="DejaVuSans-28" d="M 1984 4856 
Q 1566 4138 1362 3434 
Q 1159 2731 1159 2009 
Q 1159 1288 1364 580 
Q 1569 -128 1984 -844 
L 1484 -844 
Q 1016 -109 783 600 
Q 550 1309 550 2009 
Q 550 2706 781 3412 
Q 1013 4119 1484 4856 
L 1984 4856 
z
" transform="scale(0.015625)"/>
       <path id="DejaVuSans-29" d="M 513 4856 
L 1013 4856 
Q 1481 4119 1714 3412 
Q 1947 2706 1947 2009 
Q 1947 1309 1714 600 
Q 1481 -109 1013 -844 
L 513 -844 
Q 928 -128 1133 580 
Q 1338 1288 1338 2009 
Q 1338 2731 1133 3434 
Q 928 4138 513 4856 
z
" transform="scale(0.015625)"/>
      </defs>
      <use xlink:href="#DejaVuSans-53"/>
      <use xlink:href="#DejaVuSans-6f" x="63.476562"/>
      <use xlink:href="#DejaVuSans-6c" x="124.658203"/>
      <use xlink:href="#DejaVuSans-76" x="152.441406"/>
      <use xlink:href="#DejaVuSans-65" x="211.621094"/>
      <use xlink:href="#DejaVuSans-20" x="273.144531"/>
      <use xlink:href="#DejaVuSans-74" x="304.931641"/>
      <use xlink:href="#DejaVuSans-69" x="344.140625"/>
      <use xlink:href="#DejaVuSans-6d" x="371.923828"/>
      <use xlink:href="#DejaVuSans-65" x="469.335938"/>
      <use xlink:href="#DejaVuSans-20" x="530.859375"/>
      <use xlink:href="#DejaVuSans-28" x="562.646484"/>
      <use xlink:href="#DejaVuSans-73" x="601.660156"/>
      <use xlink:href="#DejaVuSans-29" x="653.759766"/>
     </g>
    </g>
   </g>
   <g id="line2d_41">
    <path d="M 60.601265 262.320995 
L 81.097133 215.625989 
L 101.593001 200.33971 
L 122.088869 184.202926 
L 142.584737 160.720672 
L 163.080604 151.660479 
L 183.576472 144.569324 
L 204.07234 132.209487 
L 224.568208 124.023869 
L 245.064075 114.457878 
" clip-path="url(#pe05c8319dc)" style="fill: none; stroke: #edd1cb; stroke-width: 1.5; stroke-linecap: square"/>
   </g>
   <g id="line2d_42">
    <path d="M 60.601265 267.13362 
L 81.097133 225.515303 
L 101.593001 199.66842 
L 122.088869 176.348857 
L 142.584737 162.723719 
L 163.080604 154.293957 
L 183.576472 144.222052 
L 204.07234 134.814495 
L 224.568208 123.474299 
L 245.064075 115.883435 
" clip-path="url(#pe05c8319dc)" style="fill: none; stroke: #e7c1be; stroke-width: 1.5; stroke-linecap: square"/>
   </g>
   <g id="line2d_43">
    <path d="M 60.601265 261.443211 
L 81.097133 222.191333 
L 101.593001 200.949834 
L 122.088869 172.125649 
L 142.584737 155.211481 
L 163.080604 148.831808 
L 183.576472 140.651777 
L 204.07234 132.316596 
L 224.568208 124.5559 
L 245.064075 116.091386 
" clip-path="url(#pe05c8319dc)" style="fill: none; stroke: #e1b1b4; stroke-width: 1.5; stroke-linecap: square"/>
   </g>
   <g id="line2d_44">
    <path d="M 60.601265 262.382554 
L 81.097133 213.247231 
L 101.593001 198.884006 
L 122.088869 150.227634 
L 142.584737 151.681339 
L 163.080604 150.779639 
L 183.576472 139.442313 
L 204.07234 129.208333 
L 224.568208 124.078613 
L 245.064075 118.485762 
" clip-path="url(#pe05c8319dc)" style="fill: none; stroke: #d9a1ab; stroke-width: 1.5; stroke-linecap: square"/>
   </g>
   <g id="line2d_45">
    <path d="M 60.601265 269.576993 
L 81.097133 218.757589 
L 101.593001 196.467821 
L 122.088869 174.764953 
L 142.584737 158.657629 
L 163.080604 146.120548 
L 183.576472 137.049725 
L 204.07234 126.462028 
L 224.568208 121.500584 
L 245.064075 114.099857 
" clip-path="url(#pe05c8319dc)" style="fill: none; stroke: #cf91a3; stroke-width: 1.5; stroke-linecap: square"/>
   </g>
   <g id="line2d_46">
    <path d="M 60.601265 271.311872 
L 81.097133 213.476659 
L 101.593001 194.306332 
L 122.088869 172.441591 
L 142.584737 161.359265 
L 163.080604 146.534216 
L 183.576472 134.835995 
L 204.07234 132.54989 
L 224.568208 88.5249 
L 245.064075 104.165064 
" clip-path="url(#pe05c8319dc)" style="fill: none; stroke: #c4829c; stroke-width: 1.5; stroke-linecap: square"/>
   </g>
   <g id="line2d_47">
    <path d="M 60.601265 270.607778 
L 81.097133 223.454859 
L 101.593001 196.09587 
L 122.088869 173.098595 
L 142.584737 152.939635 
L 163.080604 146.247832 
L 183.576472 135.4949 
L 204.07234 125.849034 
L 224.568208 118.493289 
L 245.064075 104.452305 
" clip-path="url(#pe05c8319dc)" style="fill: none; stroke: #b97596; stroke-width: 1.5; stroke-linecap: square"/>
   </g>
   <g id="line2d_48">
    <path d="M 60.601265 271.322733 
L 81.097133 211.356296 
L 101.593001 186.716317 
L 122.088869 171.310921 
L 142.584737 155.191449 
L 163.080604 140.320237 
L 183.576472 124.997812 
L 204.07234 128.689065 
L 224.568208 51.995504 
L 245.064075 74.558693 
" clip-path="url(#pe05c8319dc)" style="fill: none; stroke: #a9678f; stroke-width: 1.5; stroke-linecap: square"/>
   </g>
   <g id="line2d_49">
    <path d="M 60.601265 270.305194 
L 81.097133 220.272043 
L 101.593001 188.312743 
L 122.088869 167.978849 
L 142.584737 159.389992 
L 163.080604 147.675194 
L 183.576472 131.121494 
L 204.07234 93.593352 
L 224.568208 111.804038 
L 245.064075 107.700376 
" clip-path="url(#pe05c8319dc)" style="fill: none; stroke: #995a88; stroke-width: 1.5; stroke-linecap: square"/>
   </g>
   <g id="line2d_50">
    <path d="M 60.601265 270.593093 
L 81.097133 227.041538 
L 101.593001 195.32875 
L 122.088869 175.222565 
L 142.584737 159.395354 
L 163.080604 141.077723 
L 183.576472 135.857983 
L 204.07234 122.27443 
L 224.568208 117.696257 
L 245.064075 85.75844 
" clip-path="url(#pe05c8319dc)" style="fill: none; stroke: #894f80; stroke-width: 1.5; stroke-linecap: square"/>
   </g>
   <g id="line2d_51">
    <path d="M 60.601265 271.36407 
L 81.097133 228.094946 
L 101.593001 196.96377 
L 122.088869 170.493252 
L 142.584737 155.695171 
L 163.080604 145.257576 
L 183.576472 117.444759 
L 204.07234 115.459254 
L 224.568208 113.744008 
L 245.064075 105.579575 
" clip-path="url(#pe05c8319dc)" style="fill: none; stroke: #774576; stroke-width: 1.5; stroke-linecap: square"/>
   </g>
   <g id="line2d_52">
    <path d="M 60.601265 270.198031 
L 81.097133 228.735043 
L 101.593001 183.420315 
L 122.088869 174.614608 
L 142.584737 157.85888 
L 163.080604 140.008882 
L 183.576472 131.502151 
L 204.07234 107.343091 
L 224.568208 116.516763 
L 245.064075 99.610836 
" clip-path="url(#pe05c8319dc)" style="fill: none; stroke: #643a6b; stroke-width: 1.5; stroke-linecap: square"/>
   </g>
   <g id="line2d_53">
    <path d="M 60.601265 269.89255 
L 81.097133 229.177292 
L 101.593001 184.075563 
L 122.088869 161.880734 
L 142.584737 155.950942 
L 163.080604 142.449636 
L 183.576472 127.704505 
L 204.07234 114.406128 
L 224.568208 110.391582 
L 245.064075 104.081727 
" clip-path="url(#pe05c8319dc)" style="fill: none; stroke: #50305d; stroke-width: 1.5; stroke-linecap: square"/>
   </g>
   <g id="line2d_54">
    <path d="M 60.601265 269.03817 
L 81.097133 228.613383 
L 101.593001 193.860651 
L 122.088869 167.156512 
L 142.584737 156.413012 
L 163.080604 144.017759 
L 183.576472 115.927335 
L 204.07234 113.30755 
L 224.568208 115.855038 
L 245.064075 87.688441 
" clip-path="url(#pe05c8319dc)" style="fill: none; stroke: #3f284f; stroke-width: 1.5; stroke-linecap: square"/>
   </g>
   <g id="line2d_55">
    <path d="M 60.601265 271.140884 
L 81.097133 228.55382 
L 101.593001 193.581465 
L 122.088869 157.345731 
L 142.584737 152.211319 
L 163.080604 140.402868 
L 183.576472 105.832595 
L 204.07234 113.595896 
L 224.568208 109.757998 
L 245.064075 99.0075 
" clip-path="url(#pe05c8319dc)" style="fill: none; stroke: #2d1e3e; stroke-width: 1.5; stroke-linecap: square"/>
   </g>
   <g id="line2d_56"/>
   <g id="line2d_57"/>
   <g id="line2d_58"/>
   <g id="line2d_59"/>
   <g id="line2d_60"/>
   <g id="line2d_61"/>
   <g id="patch_3">
    <path d="M 51.378125 284.4 
L 51.378125 7.2 
" style="fill: none; stroke: #000000; stroke-width: 0.8; stroke-linejoin: miter; stroke-linecap: square"/>
   </g>
   <g id="patch_4">
    <path d="M 254.287216 284.4 
L 254.287216 7.2 
" style="fill: none; stroke: #000000; stroke-width: 0.8; stroke-linejoin: miter; stroke-linecap: square"/>
   </g>
   <g id="patch_5">
    <path d="M 51.378125 284.4 
L 254.287216 284.4 
" style="fill: none; stroke: #000000; stroke-width: 0.8; stroke-linejoin: miter; stroke-linecap: square"/>
   </g>
   <g id="patch_6">
    <path d="M 51.378125 7.2 
L 254.287216 7.2 
" style="fill: none; stroke: #000000; stroke-width: 0.8; stroke-linejoin: miter; stroke-linecap: square"/>
   </g>
   <g id="legend_1">
    <g id="patch_7">
     <path d="M 58.378125 117.946875 
L 179.189063 117.946875 
Q 181.189063 117.946875 181.189063 115.946875 
L 181.189063 14.2 
Q 181.189063 12.2 179.189063 12.2 
L 58.378125 12.2 
Q 56.378125 12.2 56.378125 14.2 
L 56.378125 115.946875 
Q 56.378125 117.946875 58.378125 117.946875 
z
" style="fill: #ffffff; opacity: 0.8; stroke: #cccccc; stroke-linejoin: miter"/>
    </g>
    <g id="text_12">
     <!-- Sequence length L (bp) -->
     <g transform="translate(60.378125 23.798437) scale(0.1 -0.1)">
      <defs>
       <path id="DejaVuSans-71" d="M 947 1747 
Q 947 1113 1208 752 
Q 1469 391 1925 391 
Q 2381 391 2643 752 
Q 2906 1113 2906 1747 
Q 2906 2381 2643 2742 
Q 2381 3103 1925 3103 
Q 1469 3103 1208 2742 
Q 947 2381 947 1747 
z
M 2906 525 
Q 2725 213 2448 61 
Q 2172 -91 1784 -91 
Q 1150 -91 751 415 
Q 353 922 353 1747 
Q 353 2572 751 3078 
Q 1150 3584 1784 3584 
Q 2172 3584 2448 3432 
Q 2725 3281 2906 2969 
L 2906 3500 
L 3481 3500 
L 3481 -1331 
L 2906 -1331 
L 2906 525 
z
" transform="scale(0.015625)"/>
       <path id="DejaVuSans-75" d="M 544 1381 
L 544 3500 
L 1119 3500 
L 1119 1403 
Q 1119 906 1312 657 
Q 1506 409 1894 409 
Q 2359 409 2629 706 
Q 2900 1003 2900 1516 
L 2900 3500 
L 3475 3500 
L 3475 0 
L 2900 0 
L 2900 538 
Q 2691 219 2414 64 
Q 2138 -91 1772 -91 
Q 1169 -91 856 284 
Q 544 659 544 1381 
z
M 1991 3584 
L 1991 3584 
z
" transform="scale(0.015625)"/>
       <path id="DejaVuSans-6e" d="M 3513 2113 
L 3513 0 
L 2938 0 
L 2938 2094 
Q 2938 2591 2744 2837 
Q 2550 3084 2163 3084 
Q 1697 3084 1428 2787 
Q 1159 2491 1159 1978 
L 1159 0 
L 581 0 
L 581 3500 
L 1159 3500 
L 1159 2956 
Q 1366 3272 1645 3428 
Q 1925 3584 2291 3584 
Q 2894 3584 3203 3211 
Q 3513 2838 3513 2113 
z
" transform="scale(0.015625)"/>
       <path id="DejaVuSans-63" d="M 3122 3366 
L 3122 2828 
Q 2878 2963 2633 3030 
Q 2388 3097 2138 3097 
Q 1578 3097 1268 2742 
Q 959 2388 959 1747 
Q 959 1106 1268 751 
Q 1578 397 2138 397 
Q 2388 397 2633 464 
Q 2878 531 3122 666 
L 3122 134 
Q 2881 22 2623 -34 
Q 2366 -91 2075 -91 
Q 1284 -91 818 406 
Q 353 903 353 1747 
Q 353 2603 823 3093 
Q 1294 3584 2113 3584 
Q 2378 3584 2631 3529 
Q 2884 3475 3122 3366 
z
" transform="scale(0.015625)"/>
       <path id="DejaVuSans-67" d="M 2906 1791 
Q 2906 2416 2648 2759 
Q 2391 3103 1925 3103 
Q 1463 3103 1205 2759 
Q 947 2416 947 1791 
Q 947 1169 1205 825 
Q 1463 481 1925 481 
Q 2391 481 2648 825 
Q 2906 1169 2906 1791 
z
M 3481 434 
Q 3481 -459 3084 -895 
Q 2688 -1331 1869 -1331 
Q 1566 -1331 1297 -1286 
Q 1028 -1241 775 -1147 
L 775 -588 
Q 1028 -725 1275 -790 
Q 1522 -856 1778 -856 
Q 2344 -856 2625 -561 
Q 2906 -266 2906 331 
L 2906 616 
Q 2728 306 2450 153 
Q 2172 0 1784 0 
Q 1141 0 747 490 
Q 353 981 353 1791 
Q 353 2603 747 3093 
Q 1141 3584 1784 3584 
Q 2172 3584 2450 3431 
Q 2728 3278 2906 2969 
L 2906 3500 
L 3481 3500 
L 3481 434 
z
" transform="scale(0.015625)"/>
       <path id="DejaVuSans-68" d="M 3513 2113 
L 3513 0 
L 2938 0 
L 2938 2094 
Q 2938 2591 2744 2837 
Q 2550 3084 2163 3084 
Q 1697 3084 1428 2787 
Q 1159 2491 1159 1978 
L 1159 0 
L 581 0 
L 581 4863 
L 1159 4863 
L 1159 2956 
Q 1366 3272 1645 3428 
Q 1925 3584 2291 3584 
Q 2894 3584 3203 3211 
Q 3513 2838 3513 2113 
z
" transform="scale(0.015625)"/>
       <path id="DejaVuSans-70" d="M 1159 525 
L 1159 -1331 
L 581 -1331 
L 581 3500 
L 1159 3500 
L 1159 2969 
Q 1341 3281 1617 3432 
Q 1894 3584 2278 3584 
Q 2916 3584 3314 3078 
Q 3713 2572 3713 1747 
Q 3713 922 3314 415 
Q 2916 -91 2278 -91 
Q 1894 -91 1617 61 
Q 1341 213 1159 525 
z
M 3116 1747 
Q 3116 2381 2855 2742 
Q 2594 3103 2138 3103 
Q 1681 3103 1420 2742 
Q 1159 2381 1159 1747 
Q 1159 1113 1420 752 
Q 1681 391 2138 391 
Q 2594 391 2855 752 
Q 3116 1113 3116 1747 
z
" transform="scale(0.015625)"/>
      </defs>
      <use xlink:href="#DejaVuSans-53"/>
      <use xlink:href="#DejaVuSans-65" x="63.476562"/>
      <use xlink:href="#DejaVuSans-71" x="125"/>
      <use xlink:href="#DejaVuSans-75" x="188.476562"/>
      <use xlink:href="#DejaVuSans-65" x="251.855469"/>
      <use xlink:href="#DejaVuSans-6e" x="313.378906"/>
      <use xlink:href="#DejaVuSans-63" x="376.757812"/>
      <use xlink:href="#DejaVuSans-65" x="431.738281"/>
      <use xlink:href="#DejaVuSans-20" x="493.261719"/>
      <use xlink:href="#DejaVuSans-6c" x="525.048828"/>
      <use xlink:href="#DejaVuSans-65" x="552.832031"/>
      <use xlink:href="#DejaVuSans-6e" x="614.355469"/>
      <use xlink:href="#DejaVuSans-67" x="677.734375"/>
      <use xlink:href="#DejaVuSans-74" x="741.210938"/>
      <use xlink:href="#DejaVuSans-68" x="780.419922"/>
      <use xlink:href="#DejaVuSans-20" x="843.798828"/>
      <use xlink:href="#DejaVuSans-4c" x="875.585938"/>
      <use xlink:href="#DejaVuSans-20" x="931.298828"/>
      <use xlink:href="#DejaVuSans-28" x="963.085938"/>
      <use xlink:href="#DejaVuSans-62" x="1002.099609"/>
      <use xlink:href="#DejaVuSans-70" x="1065.576172"/>
      <use xlink:href="#DejaVuSans-29" x="1129.052734"/>
     </g>
    </g>
    <g id="line2d_62">
     <path d="M 95.239844 34.976562 
L 105.239844 34.976562 
L 115.239844 34.976562 
" style="fill: none; stroke: #e4b9b9; stroke-width: 1.5; stroke-linecap: square"/>
    </g>
    <g id="text_13">
     <!-- 50 -->
     <g transform="translate(123.239844 38.476562) scale(0.1 -0.1)">
      <defs>
       <path id="DejaVuSans-35" d="M 691 4666 
L 3169 4666 
L 3169 4134 
L 1269 4134 
L 1269 2991 
Q 1406 3038 1543 3061 
Q 1681 3084 1819 3084 
Q 2600 3084 3056 2656 
Q 3513 2228 3513 1497 
Q 3513 744 3044 326 
Q 2575 -91 1722 -91 
Q 1428 -91 1123 -41 
Q 819 9 494 109 
L 494 744 
Q 775 591 1075 516 
Q 1375 441 1709 441 
Q 2250 441 2565 725 
Q 2881 1009 2881 1497 
Q 2881 1984 2565 2268 
Q 2250 2553 1709 2553 
Q 1456 2553 1204 2497 
Q 953 2441 691 2322 
L 691 4666 
z
" transform="scale(0.015625)"/>
      </defs>
      <use xlink:href="#DejaVuSans-35"/>
      <use xlink:href="#DejaVuSans-30" x="63.623047"/>
     </g>
    </g>
    <g id="line2d_63">
     <path d="M 95.239844 49.654688 
L 105.239844 49.654688 
L 115.239844 49.654688 
" style="fill: none; stroke: #cf91a3; stroke-width: 1.5; stroke-linecap: square"/>
    </g>
    <g id="text_14">
     <!-- 100 -->
     <g transform="translate(123.239844 53.154688) scale(0.1 -0.1)">
      <use xlink:href="#DejaVuSans-31"/>
      <use xlink:href="#DejaVuSans-30" x="63.623047"/>
      <use xlink:href="#DejaVuSans-30" x="127.246094"/>
     </g>
    </g>
    <g id="line2d_64">
     <path d="M 95.239844 64.332812 
L 105.239844 64.332812 
L 115.239844 64.332812 
" style="fill: none; stroke: #b16e92; stroke-width: 1.5; stroke-linecap: square"/>
    </g>
    <g id="text_15">
     <!-- 150 -->
     <g transform="translate(123.239844 67.832812) scale(0.1 -0.1)">
      <use xlink:href="#DejaVuSans-31"/>
      <use xlink:href="#DejaVuSans-35" x="63.623047"/>
      <use xlink:href="#DejaVuSans-30" x="127.246094"/>
     </g>
    </g>
    <g id="line2d_65">
     <path d="M 95.239844 79.010938 
L 105.239844 79.010938 
L 115.239844 79.010938 
" style="fill: none; stroke: #894f80; stroke-width: 1.5; stroke-linecap: square"/>
    </g>
    <g id="text_16">
     <!-- 200 -->
     <g transform="translate(123.239844 82.510938) scale(0.1 -0.1)">
      <use xlink:href="#DejaVuSans-32"/>
      <use xlink:href="#DejaVuSans-30" x="63.623047"/>
      <use xlink:href="#DejaVuSans-30" x="127.246094"/>
     </g>
    </g>
    <g id="line2d_66">
     <path d="M 95.239844 93.689063 
L 105.239844 93.689063 
L 115.239844 93.689063 
" style="fill: none; stroke: #5b3665; stroke-width: 1.5; stroke-linecap: square"/>
    </g>
    <g id="text_17">
     <!-- 250 -->
     <g transform="translate(123.239844 97.189063) scale(0.1 -0.1)">
      <use xlink:href="#DejaVuSans-32"/>
      <use xlink:href="#DejaVuSans-35" x="63.623047"/>
      <use xlink:href="#DejaVuSans-30" x="127.246094"/>
     </g>
    </g>
    <g id="line2d_67">
     <path d="M 95.239844 108.367188 
L 105.239844 108.367188 
L 115.239844 108.367188 
" style="fill: none; stroke: #2d1e3e; stroke-width: 1.5; stroke-linecap: square"/>
    </g>
    <g id="text_18">
     <!-- 300 -->
     <g transform="translate(123.239844 111.867188) scale(0.1 -0.1)">
      <defs>
       <path id="DejaVuSans-33" d="M 2597 2516 
Q 3050 2419 3304 2112 
Q 3559 1806 3559 1356 
Q 3559 666 3084 287 
Q 2609 -91 1734 -91 
Q 1441 -91 1130 -33 
Q 819 25 488 141 
L 488 750 
Q 750 597 1062 519 
Q 1375 441 1716 441 
Q 2309 441 2620 675 
Q 2931 909 2931 1356 
Q 2931 1769 2642 2001 
Q 2353 2234 1838 2234 
L 1294 2234 
L 1294 2753 
L 1863 2753 
Q 2328 2753 2575 2939 
Q 2822 3125 2822 3475 
Q 2822 3834 2567 4026 
Q 2313 4219 1838 4219 
Q 1578 4219 1281 4162 
Q 984 4106 628 3988 
L 628 4550 
Q 988 4650 1302 4700 
Q 1616 4750 1894 4750 
Q 2613 4750 3031 4423 
Q 3450 4097 3450 3541 
Q 3450 3153 3228 2886 
Q 3006 2619 2597 2516 
z
" transform="scale(0.015625)"/>
      </defs>
      <use xlink:href="#DejaVuSans-33"/>
      <use xlink:href="#DejaVuSans-30" x="63.623047"/>
      <use xlink:href="#DejaVuSans-30" x="127.246094"/>
     </g>
    </g>
   </g>
  </g>
  <g id="axes_2">
   <g id="patch_8">
    <path d="M 294.869034 284.4 
L 497.778125 284.4 
L 497.778125 7.2 
L 294.869034 7.2 
z
" style="fill: #ffffff"/>
   </g>
   <g id="PolyCollection_16">
    <defs>
     <path id="m9767c15031" d="M 304.092175 -63.585536 
L 304.092175 -56.853459 
L 317.26809 -53.434277 
L 330.444005 -54.768866 
L 343.61992 -55.349985 
L 356.795835 -51.383523 
L 369.97175 -50.486339 
L 383.147665 -50.767771 
L 396.32358 -50.750277 
L 409.499495 -50.8197 
L 422.67541 -50.636867 
L 435.851325 -50.686378 
L 449.02724 -50.777019 
L 462.203155 -50.733545 
L 475.37907 -50.755878 
L 488.554985 -50.932617 
L 488.554985 -51.342357 
L 488.554985 -51.342357 
L 475.37907 -56.329471 
L 462.203155 -54.030257 
L 449.02724 -53.931226 
L 435.851325 -51.11835 
L 422.67541 -53.362841 
L 409.499495 -53.744845 
L 396.32358 -51.125573 
L 383.147665 -53.197003 
L 369.97175 -51.645381 
L 356.795835 -54.02698 
L 343.61992 -65.032471 
L 330.444005 -67.680693 
L 317.26809 -56.896883 
L 304.092175 -63.585536 
z
" style="stroke: #edd1cb; stroke-opacity: 0.2"/>
    </defs>
    <g clip-path="url(#p0eb0d7bf9a)">
     <use xlink:href="#m9767c15031" x="0" y="322.278125" style="fill: #edd1cb; fill-opacity: 0.2; stroke: #edd1cb; stroke-opacity: 0.2"/>
    </g>
   </g>
   <g id="PolyCollection_17">
    <defs>
     <path id="me99c962282" d="M 304.092175 -107.793575 
L 304.092175 -105.570412 
L 317.26809 -93.382594 
L 330.444005 -95.579707 
L 343.61992 -100.027007 
L 356.795835 -97.462212 
L 369.97175 -99.277869 
L 383.147665 -93.720513 
L 396.32358 -102.948205 
L 409.499495 -96.965216 
L 422.67541 -93.098355 
L 435.851325 -92.744435 
L 449.02724 -92.90023 
L 462.203155 -92.595175 
L 475.37907 -93.132436 
L 488.554985 -92.8232 
L 488.554985 -94.757004 
L 488.554985 -94.757004 
L 475.37907 -94.184135 
L 462.203155 -93.678723 
L 449.02724 -94.236139 
L 435.851325 -96.161097 
L 422.67541 -97.403847 
L 409.499495 -106.980205 
L 396.32358 -117.538296 
L 383.147665 -104.088032 
L 369.97175 -118.864589 
L 356.795835 -109.430731 
L 343.61992 -117.662784 
L 330.444005 -104.669955 
L 317.26809 -101.422505 
L 304.092175 -107.793575 
z
" style="stroke: #e4b8b8; stroke-opacity: 0.2"/>
    </defs>
    <g clip-path="url(#p0eb0d7bf9a)">
     <use xlink:href="#me99c962282" x="0" y="322.278125" style="fill: #e4b8b8; fill-opacity: 0.2; stroke: #e4b8b8; stroke-opacity: 0.2"/>
    </g>
   </g>
   <g id="PolyCollection_18">
    <defs>
     <path id="m6a5b819129" d="M 304.092175 -128.263225 
L 304.092175 -115.939175 
L 317.26809 -118.402174 
L 330.444005 -118.798637 
L 343.61992 -121.423286 
L 356.795835 -123.522231 
L 369.97175 -124.260654 
L 383.147665 -123.783629 
L 396.32358 -126.694243 
L 409.499495 -124.213619 
L 422.67541 -122.694562 
L 435.851325 -120.767401 
L 449.02724 -130.470479 
L 462.203155 -130.573705 
L 475.37907 -125.366717 
L 488.554985 -126.440819 
L 488.554985 -131.24303 
L 488.554985 -131.24303 
L 475.37907 -131.633353 
L 462.203155 -146.105192 
L 449.02724 -145.95496 
L 435.851325 -129.61642 
L 422.67541 -132.079415 
L 409.499495 -143.10363 
L 396.32358 -143.045525 
L 383.147665 -129.443634 
L 369.97175 -131.254729 
L 356.795835 -128.256903 
L 343.61992 -125.026991 
L 330.444005 -123.525082 
L 317.26809 -127.598188 
L 304.092175 -128.263225 
z
" style="stroke: #d8a0aa; stroke-opacity: 0.2"/>
    </defs>
    <g clip-path="url(#p0eb0d7bf9a)">
     <use xlink:href="#m6a5b819129" x="0" y="322.278125" style="fill: #d8a0aa; fill-opacity: 0.2; stroke: #d8a0aa; stroke-opacity: 0.2"/>
    </g>
   </g>
   <g id="PolyCollection_19">
    <defs>
     <path id="m9d711aeb1c" d="M 304.092175 -140.693715 
L 304.092175 -135.261203 
L 317.26809 -140.555215 
L 330.444005 -146.75938 
L 343.61992 -146.306061 
L 356.795835 -143.043046 
L 369.97175 -144.07803 
L 383.147665 -145.898655 
L 396.32358 -146.943289 
L 409.499495 -148.714601 
L 422.67541 -142.304551 
L 435.851325 -147.266114 
L 449.02724 -143.154508 
L 462.203155 -153.312924 
L 475.37907 -149.627202 
L 488.554985 -157.18058 
L 488.554985 -171.301891 
L 488.554985 -171.301891 
L 475.37907 -160.215033 
L 462.203155 -166.607747 
L 449.02724 -152.728262 
L 435.851325 -157.081087 
L 422.67541 -152.541106 
L 409.499495 -159.003112 
L 396.32358 -155.132697 
L 383.147665 -152.558333 
L 369.97175 -155.316411 
L 356.795835 -152.322238 
L 343.61992 -194.655482 
L 330.444005 -153.326907 
L 317.26809 -151.347568 
L 304.092175 -140.693715 
z
" style="stroke: #c8879e; stroke-opacity: 0.2"/>
    </defs>
    <g clip-path="url(#p0eb0d7bf9a)">
     <use xlink:href="#m9d711aeb1c" x="0" y="322.278125" style="fill: #c8879e; fill-opacity: 0.2; stroke: #c8879e; stroke-opacity: 0.2"/>
    </g>
   </g>
   <g id="PolyCollection_20">
    <defs>
     <path id="m1458cb0c6a" d="M 304.092175 -165.592355 
L 304.092175 -157.620441 
L 317.26809 -155.215677 
L 330.444005 -159.351792 
L 343.61992 -162.315583 
L 356.795835 -159.03217 
L 369.97175 -157.471349 
L 383.147665 -158.578293 
L 396.32358 -158.651073 
L 409.499495 -159.49405 
L 422.67541 -158.308332 
L 435.851325 -161.86968 
L 449.02724 -160.648475 
L 462.203155 -161.686129 
L 475.37907 -160.792472 
L 488.554985 -164.283835 
L 488.554985 -175.419173 
L 488.554985 -175.419173 
L 475.37907 -170.419603 
L 462.203155 -171.059429 
L 449.02724 -168.734113 
L 435.851325 -170.964516 
L 422.67541 -168.354068 
L 409.499495 -165.859304 
L 396.32358 -174.88603 
L 383.147665 -179.748117 
L 369.97175 -164.51911 
L 356.795835 -168.352394 
L 343.61992 -177.641149 
L 330.444005 -173.935381 
L 317.26809 -163.730764 
L 304.092175 -165.592355 
z
" style="stroke: #b57294; stroke-opacity: 0.2"/>
    </defs>
    <g clip-path="url(#p0eb0d7bf9a)">
     <use xlink:href="#m1458cb0c6a" x="0" y="322.278125" style="fill: #b57294; fill-opacity: 0.2; stroke: #b57294; stroke-opacity: 0.2"/>
    </g>
   </g>
   <g id="PolyCollection_21">
    <defs>
     <path id="m35242fd86d" d="M 304.092175 -174.608998 
L 304.092175 -166.623031 
L 317.26809 -165.5765 
L 330.444005 -168.52132 
L 343.61992 -165.01042 
L 356.795835 -169.665031 
L 369.97175 -171.093368 
L 383.147665 -170.361785 
L 396.32358 -173.289919 
L 409.499495 -169.411629 
L 422.67541 -170.191392 
L 435.851325 -171.49628 
L 449.02724 -174.469676 
L 462.203155 -173.711988 
L 475.37907 -172.944293 
L 488.554985 -175.440128 
L 488.554985 -188.488668 
L 488.554985 -188.488668 
L 475.37907 -182.888532 
L 462.203155 -185.948858 
L 449.02724 -189.644917 
L 435.851325 -181.664858 
L 422.67541 -190.208796 
L 409.499495 -180.075995 
L 396.32358 -191.479431 
L 383.147665 -180.67567 
L 369.97175 -180.37889 
L 356.795835 -181.550573 
L 343.61992 -177.954557 
L 330.444005 -178.845871 
L 317.26809 -170.228752 
L 304.092175 -174.608998 
z
" style="stroke: #9d5d89; stroke-opacity: 0.2"/>
    </defs>
    <g clip-path="url(#p0eb0d7bf9a)">
     <use xlink:href="#m35242fd86d" x="0" y="322.278125" style="fill: #9d5d89; fill-opacity: 0.2; stroke: #9d5d89; stroke-opacity: 0.2"/>
    </g>
   </g>
   <g id="PolyCollection_22">
    <defs>
     <path id="m6584c35301" d="M 304.092175 -178.685759 
L 304.092175 -176.604368 
L 317.26809 -175.006724 
L 330.444005 -178.386534 
L 343.61992 -178.782928 
L 356.795835 -180.430448 
L 369.97175 -181.627648 
L 383.147665 -178.464691 
L 396.32358 -183.898602 
L 409.499495 -186.700673 
L 422.67541 -182.672637 
L 435.851325 -180.764479 
L 449.02724 -184.000581 
L 462.203155 -188.474603 
L 475.37907 -192.68308 
L 488.554985 -193.515686 
L 488.554985 -237.396305 
L 488.554985 -237.396305 
L 475.37907 -219.130428 
L 462.203155 -200.37795 
L 449.02724 -197.240232 
L 435.851325 -225.350371 
L 422.67541 -190.398471 
L 409.499495 -194.802305 
L 396.32358 -211.227813 
L 383.147665 -194.473582 
L 369.97175 -193.96828 
L 356.795835 -189.794916 
L 343.61992 -186.384787 
L 330.444005 -185.102921 
L 317.26809 -181.820183 
L 304.092175 -178.685759 
z
" style="stroke: #834c7d; stroke-opacity: 0.2"/>
    </defs>
    <g clip-path="url(#p0eb0d7bf9a)">
     <use xlink:href="#m6584c35301" x="0" y="322.278125" style="fill: #834c7d; fill-opacity: 0.2; stroke: #834c7d; stroke-opacity: 0.2"/>
    </g>
   </g>
   <g id="PolyCollection_23">
    <defs>
     <path id="md31f0a238b" d="M 304.092175 -191.412078 
L 304.092175 -188.631093 
L 317.26809 -184.808976 
L 330.444005 -186.801594 
L 343.61992 -187.646515 
L 356.795835 -190.086626 
L 369.97175 -187.5839 
L 383.147665 -191.205226 
L 396.32358 -189.734765 
L 409.499495 -190.766196 
L 422.67541 -193.584134 
L 435.851325 -196.883588 
L 449.02724 -201.610796 
L 462.203155 -205.249321 
L 475.37907 -199.052499 
L 488.554985 -202.675548 
L 488.554985 -213.617636 
L 488.554985 -213.617636 
L 475.37907 -218.978604 
L 462.203155 -209.879688 
L 449.02724 -227.337341 
L 435.851325 -214.722292 
L 422.67541 -206.42482 
L 409.499495 -255.200452 
L 396.32358 -197.234192 
L 383.147665 -201.278884 
L 369.97175 -192.169137 
L 356.795835 -202.098275 
L 343.61992 -198.624975 
L 330.444005 -193.052797 
L 317.26809 -190.268181 
L 304.092175 -191.412078 
z
" style="stroke: #653b6c; stroke-opacity: 0.2"/>
    </defs>
    <g clip-path="url(#p0eb0d7bf9a)">
     <use xlink:href="#md31f0a238b" x="0" y="322.278125" style="fill: #653b6c; fill-opacity: 0.2; stroke: #653b6c; stroke-opacity: 0.2"/>
    </g>
   </g>
   <g id="PolyCollection_24">
    <defs>
     <path id="mcc4343e70b" d="M 304.092175 -200.744013 
L 304.092175 -196.025295 
L 317.26809 -196.093409 
L 330.444005 -195.060135 
L 343.61992 -195.655222 
L 356.795835 -194.55024 
L 369.97175 -200.229219 
L 383.147665 -197.013552 
L 396.32358 -201.666644 
L 409.499495 -201.075822 
L 422.67541 -200.407345 
L 435.851325 -200.755191 
L 449.02724 -199.742131 
L 462.203155 -205.109679 
L 475.37907 -200.847178 
L 488.554985 -206.892879 
L 488.554985 -217.144004 
L 488.554985 -217.144004 
L 475.37907 -210.805852 
L 462.203155 -218.006808 
L 449.02724 -211.289447 
L 435.851325 -215.035365 
L 422.67541 -208.560996 
L 409.499495 -219.97988 
L 396.32358 -302.478125 
L 383.147665 -209.538199 
L 369.97175 -259.491931 
L 356.795835 -207.787756 
L 343.61992 -201.515542 
L 330.444005 -200.4366 
L 317.26809 -201.582365 
L 304.092175 -200.744013 
z
" style="stroke: #492d58; stroke-opacity: 0.2"/>
    </defs>
    <g clip-path="url(#p0eb0d7bf9a)">
     <use xlink:href="#mcc4343e70b" x="0" y="322.278125" style="fill: #492d58; fill-opacity: 0.2; stroke: #492d58; stroke-opacity: 0.2"/>
    </g>
   </g>
   <g id="PolyCollection_25">
    <defs>
     <path id="ma36b3590df" d="M 304.092175 -210.781424 
L 304.092175 -204.549668 
L 317.26809 -202.451122 
L 330.444005 -201.864995 
L 343.61992 -200.971182 
L 356.795835 -205.043384 
L 369.97175 -211.03075 
L 383.147665 -207.168579 
L 396.32358 -210.167556 
L 409.499495 -207.531641 
L 422.67541 -212.589711 
L 435.851325 -210.050709 
L 449.02724 -214.750524 
L 462.203155 -212.622291 
L 475.37907 -211.583867 
L 488.554985 -212.681189 
L 488.554985 -231.990047 
L 488.554985 -231.990047 
L 475.37907 -253.424466 
L 462.203155 -222.496812 
L 449.02724 -230.111391 
L 435.851325 -223.216853 
L 422.67541 -256.713935 
L 409.499495 -221.916867 
L 396.32358 -274.864653 
L 383.147665 -227.472816 
L 369.97175 -224.741369 
L 356.795835 -211.123506 
L 343.61992 -206.475384 
L 330.444005 -211.255468 
L 317.26809 -211.050562 
L 304.092175 -210.781424 
z
" style="stroke: #2d1e3e; stroke-opacity: 0.2"/>
    </defs>
    <g clip-path="url(#p0eb0d7bf9a)">
     <use xlink:href="#ma36b3590df" x="0" y="322.278125" style="fill: #2d1e3e; fill-opacity: 0.2; stroke: #2d1e3e; stroke-opacity: 0.2"/>
    </g>
   </g>
   <g id="matplotlib.axis_3">
    <g id="xtick_6">
     <g id="line2d_68">
      <g>
       <use xlink:href="#mebf2b47140" x="356.795835" y="284.4" style="stroke: #000000; stroke-width: 0.8"/>
      </g>
     </g>
     <g id="text_19">
      <!-- 100 -->
      <g transform="translate(347.252085 298.998437) scale(0.1 -0.1)">
       <use xlink:href="#DejaVuSans-31"/>
       <use xlink:href="#DejaVuSans-30" x="63.623047"/>
       <use xlink:href="#DejaVuSans-30" x="127.246094"/>
      </g>
     </g>
    </g>
    <g id="xtick_7">
     <g id="line2d_69">
      <g>
       <use xlink:href="#mebf2b47140" x="422.67541" y="284.4" style="stroke: #000000; stroke-width: 0.8"/>
      </g>
     </g>
     <g id="text_20">
      <!-- 200 -->
      <g transform="translate(413.13166 298.998437) scale(0.1 -0.1)">
       <use xlink:href="#DejaVuSans-32"/>
       <use xlink:href="#DejaVuSans-30" x="63.623047"/>
       <use xlink:href="#DejaVuSans-30" x="127.246094"/>
      </g>
     </g>
    </g>
    <g id="xtick_8">
     <g id="line2d_70">
      <g>
       <use xlink:href="#mebf2b47140" x="488.554985" y="284.4" style="stroke: #000000; stroke-width: 0.8"/>
      </g>
     </g>
     <g id="text_21">
      <!-- 300 -->
      <g transform="translate(479.011235 298.998437) scale(0.1 -0.1)">
       <use xlink:href="#DejaVuSans-33"/>
       <use xlink:href="#DejaVuSans-30" x="63.623047"/>
       <use xlink:href="#DejaVuSans-30" x="127.246094"/>
      </g>
     </g>
    </g>
    <g id="text_22">
     <!-- Sequence length L (bp) -->
     <g transform="translate(337.918111 312.676562) scale(0.1 -0.1)">
      <use xlink:href="#DejaVuSans-53"/>
      <use xlink:href="#DejaVuSans-65" x="63.476562"/>
      <use xlink:href="#DejaVuSans-71" x="125"/>
      <use xlink:href="#DejaVuSans-75" x="188.476562"/>
      <use xlink:href="#DejaVuSans-65" x="251.855469"/>
      <use xlink:href="#DejaVuSans-6e" x="313.378906"/>
      <use xlink:href="#DejaVuSans-63" x="376.757812"/>
      <use xlink:href="#DejaVuSans-65" x="431.738281"/>
      <use xlink:href="#DejaVuSans-20" x="493.261719"/>
      <use xlink:href="#DejaVuSans-6c" x="525.048828"/>
      <use xlink:href="#DejaVuSans-65" x="552.832031"/>
      <use xlink:href="#DejaVuSans-6e" x="614.355469"/>
      <use xlink:href="#DejaVuSans-67" x="677.734375"/>
      <use xlink:href="#DejaVuSans-74" x="741.210938"/>
      <use xlink:href="#DejaVuSans-68" x="780.419922"/>
      <use xlink:href="#DejaVuSans-20" x="843.798828"/>
      <use xlink:href="#DejaVuSans-4c" x="875.585938"/>
      <use xlink:href="#DejaVuSans-20" x="931.298828"/>
      <use xlink:href="#DejaVuSans-28" x="963.085938"/>
      <use xlink:href="#DejaVuSans-62" x="1002.099609"/>
      <use xlink:href="#DejaVuSans-70" x="1065.576172"/>
      <use xlink:href="#DejaVuSans-29" x="1129.052734"/>
     </g>
    </g>
   </g>
   <g id="matplotlib.axis_4">
    <g id="ytick_36">
     <g id="line2d_71">
      <g>
       <use xlink:href="#m17f023a62a" x="294.869034" y="245.952291" style="stroke: #000000; stroke-width: 0.8"/>
      </g>
     </g>
    </g>
    <g id="ytick_37">
     <g id="line2d_72">
      <g>
       <use xlink:href="#m17f023a62a" x="294.869034" y="172.639204" style="stroke: #000000; stroke-width: 0.8"/>
      </g>
     </g>
    </g>
    <g id="ytick_38">
     <g id="line2d_73">
      <g>
       <use xlink:href="#m17f023a62a" x="294.869034" y="99.326118" style="stroke: #000000; stroke-width: 0.8"/>
      </g>
     </g>
    </g>
    <g id="ytick_39">
     <g id="line2d_74">
      <g>
       <use xlink:href="#m17f023a62a" x="294.869034" y="26.013032" style="stroke: #000000; stroke-width: 0.8"/>
      </g>
     </g>
    </g>
    <g id="ytick_40">
     <g id="line2d_75">
      <g>
       <use xlink:href="#m4b2a41c941" x="294.869034" y="284.286145" style="stroke: #000000; stroke-width: 0.6"/>
      </g>
     </g>
    </g>
    <g id="ytick_41">
     <g id="line2d_76">
      <g>
       <use xlink:href="#m4b2a41c941" x="294.869034" y="275.126501" style="stroke: #000000; stroke-width: 0.6"/>
      </g>
     </g>
    </g>
    <g id="ytick_42">
     <g id="line2d_77">
      <g>
       <use xlink:href="#m4b2a41c941" x="294.869034" y="268.021729" style="stroke: #000000; stroke-width: 0.6"/>
      </g>
     </g>
    </g>
    <g id="ytick_43">
     <g id="line2d_78">
      <g>
       <use xlink:href="#m4b2a41c941" x="294.869034" y="262.216707" style="stroke: #000000; stroke-width: 0.6"/>
      </g>
     </g>
    </g>
    <g id="ytick_44">
     <g id="line2d_79">
      <g>
       <use xlink:href="#m4b2a41c941" x="294.869034" y="257.308631" style="stroke: #000000; stroke-width: 0.6"/>
      </g>
     </g>
    </g>
    <g id="ytick_45">
     <g id="line2d_80">
      <g>
       <use xlink:href="#m4b2a41c941" x="294.869034" y="253.057063" style="stroke: #000000; stroke-width: 0.6"/>
      </g>
     </g>
    </g>
    <g id="ytick_46">
     <g id="line2d_81">
      <g>
       <use xlink:href="#m4b2a41c941" x="294.869034" y="249.306913" style="stroke: #000000; stroke-width: 0.6"/>
      </g>
     </g>
    </g>
    <g id="ytick_47">
     <g id="line2d_82">
      <g>
       <use xlink:href="#m4b2a41c941" x="294.869034" y="223.882853" style="stroke: #000000; stroke-width: 0.6"/>
      </g>
     </g>
    </g>
    <g id="ytick_48">
     <g id="line2d_83">
      <g>
       <use xlink:href="#m4b2a41c941" x="294.869034" y="210.973059" style="stroke: #000000; stroke-width: 0.6"/>
      </g>
     </g>
    </g>
    <g id="ytick_49">
     <g id="line2d_84">
      <g>
       <use xlink:href="#m4b2a41c941" x="294.869034" y="201.813415" style="stroke: #000000; stroke-width: 0.6"/>
      </g>
     </g>
    </g>
    <g id="ytick_50">
     <g id="line2d_85">
      <g>
       <use xlink:href="#m4b2a41c941" x="294.869034" y="194.708642" style="stroke: #000000; stroke-width: 0.6"/>
      </g>
     </g>
    </g>
    <g id="ytick_51">
     <g id="line2d_86">
      <g>
       <use xlink:href="#m4b2a41c941" x="294.869034" y="188.903621" style="stroke: #000000; stroke-width: 0.6"/>
      </g>
     </g>
    </g>
    <g id="ytick_52">
     <g id="line2d_87">
      <g>
       <use xlink:href="#m4b2a41c941" x="294.869034" y="183.995545" style="stroke: #000000; stroke-width: 0.6"/>
      </g>
     </g>
    </g>
    <g id="ytick_53">
     <g id="line2d_88">
      <g>
       <use xlink:href="#m4b2a41c941" x="294.869034" y="179.743977" style="stroke: #000000; stroke-width: 0.6"/>
      </g>
     </g>
    </g>
    <g id="ytick_54">
     <g id="line2d_89">
      <g>
       <use xlink:href="#m4b2a41c941" x="294.869034" y="175.993827" style="stroke: #000000; stroke-width: 0.6"/>
      </g>
     </g>
    </g>
    <g id="ytick_55">
     <g id="line2d_90">
      <g>
       <use xlink:href="#m4b2a41c941" x="294.869034" y="150.569766" style="stroke: #000000; stroke-width: 0.6"/>
      </g>
     </g>
    </g>
    <g id="ytick_56">
     <g id="line2d_91">
      <g>
       <use xlink:href="#m4b2a41c941" x="294.869034" y="137.659973" style="stroke: #000000; stroke-width: 0.6"/>
      </g>
     </g>
    </g>
    <g id="ytick_57">
     <g id="line2d_92">
      <g>
       <use xlink:href="#m4b2a41c941" x="294.869034" y="128.500328" style="stroke: #000000; stroke-width: 0.6"/>
      </g>
     </g>
    </g>
    <g id="ytick_58">
     <g id="line2d_93">
      <g>
       <use xlink:href="#m4b2a41c941" x="294.869034" y="121.395556" style="stroke: #000000; stroke-width: 0.6"/>
      </g>
     </g>
    </g>
    <g id="ytick_59">
     <g id="line2d_94">
      <g>
       <use xlink:href="#m4b2a41c941" x="294.869034" y="115.590535" style="stroke: #000000; stroke-width: 0.6"/>
      </g>
     </g>
    </g>
    <g id="ytick_60">
     <g id="line2d_95">
      <g>
       <use xlink:href="#m4b2a41c941" x="294.869034" y="110.682459" style="stroke: #000000; stroke-width: 0.6"/>
      </g>
     </g>
    </g>
    <g id="ytick_61">
     <g id="line2d_96">
      <g>
       <use xlink:href="#m4b2a41c941" x="294.869034" y="106.43089" style="stroke: #000000; stroke-width: 0.6"/>
      </g>
     </g>
    </g>
    <g id="ytick_62">
     <g id="line2d_97">
      <g>
       <use xlink:href="#m4b2a41c941" x="294.869034" y="102.680741" style="stroke: #000000; stroke-width: 0.6"/>
      </g>
     </g>
    </g>
    <g id="ytick_63">
     <g id="line2d_98">
      <g>
       <use xlink:href="#m4b2a41c941" x="294.869034" y="77.25668" style="stroke: #000000; stroke-width: 0.6"/>
      </g>
     </g>
    </g>
    <g id="ytick_64">
     <g id="line2d_99">
      <g>
       <use xlink:href="#m4b2a41c941" x="294.869034" y="64.346887" style="stroke: #000000; stroke-width: 0.6"/>
      </g>
     </g>
    </g>
    <g id="ytick_65">
     <g id="line2d_100">
      <g>
       <use xlink:href="#m4b2a41c941" x="294.869034" y="55.187242" style="stroke: #000000; stroke-width: 0.6"/>
      </g>
     </g>
    </g>
    <g id="ytick_66">
     <g id="line2d_101">
      <g>
       <use xlink:href="#m4b2a41c941" x="294.869034" y="48.08247" style="stroke: #000000; stroke-width: 0.6"/>
      </g>
     </g>
    </g>
    <g id="ytick_67">
     <g id="line2d_102">
      <g>
       <use xlink:href="#m4b2a41c941" x="294.869034" y="42.277449" style="stroke: #000000; stroke-width: 0.6"/>
      </g>
     </g>
    </g>
    <g id="ytick_68">
     <g id="line2d_103">
      <g>
       <use xlink:href="#m4b2a41c941" x="294.869034" y="37.369373" style="stroke: #000000; stroke-width: 0.6"/>
      </g>
     </g>
    </g>
    <g id="ytick_69">
     <g id="line2d_104">
      <g>
       <use xlink:href="#m4b2a41c941" x="294.869034" y="33.117804" style="stroke: #000000; stroke-width: 0.6"/>
      </g>
     </g>
    </g>
    <g id="ytick_70">
     <g id="line2d_105">
      <g>
       <use xlink:href="#m4b2a41c941" x="294.869034" y="29.367655" style="stroke: #000000; stroke-width: 0.6"/>
      </g>
     </g>
    </g>
   </g>
   <g id="line2d_106">
    <path d="M 304.092175 262.320995 
L 317.26809 267.13362 
L 330.444005 261.443211 
L 343.61992 262.382554 
L 356.795835 269.576993 
L 369.97175 271.311872 
L 383.147665 270.607778 
L 396.32358 271.322733 
L 409.499495 270.305194 
L 422.67541 270.593093 
L 435.851325 271.36407 
L 449.02724 270.198031 
L 462.203155 269.89255 
L 475.37907 269.03817 
L 488.554985 271.140884 
" clip-path="url(#p0eb0d7bf9a)" style="fill: none; stroke: #edd1cb; stroke-width: 1.5; stroke-linecap: square"/>
   </g>
   <g id="line2d_107">
    <path d="M 304.092175 215.625989 
L 317.26809 225.515303 
L 330.444005 222.191333 
L 343.61992 213.247231 
L 356.795835 218.757589 
L 369.97175 213.476659 
L 383.147665 223.454859 
L 396.32358 211.356296 
L 409.499495 220.272043 
L 422.67541 227.041538 
L 435.851325 228.094946 
L 449.02724 228.735043 
L 462.203155 229.177292 
L 475.37907 228.613383 
L 488.554985 228.55382 
" clip-path="url(#p0eb0d7bf9a)" style="fill: none; stroke: #e4b8b8; stroke-width: 1.5; stroke-linecap: square"/>
   </g>
   <g id="line2d_108">
    <path d="M 304.092175 200.33971 
L 317.26809 199.66842 
L 330.444005 200.949834 
L 343.61992 198.884006 
L 356.795835 196.467821 
L 369.97175 194.306332 
L 383.147665 196.09587 
L 396.32358 186.716317 
L 409.499495 188.312743 
L 422.67541 195.32875 
L 435.851325 196.96377 
L 449.02724 183.420315 
L 462.203155 184.075563 
L 475.37907 193.860651 
L 488.554985 193.581465 
" clip-path="url(#p0eb0d7bf9a)" style="fill: none; stroke: #d8a0aa; stroke-width: 1.5; stroke-linecap: square"/>
   </g>
   <g id="line2d_109">
    <path d="M 304.092175 184.202926 
L 317.26809 176.348857 
L 330.444005 172.125649 
L 343.61992 150.227634 
L 356.795835 174.764953 
L 369.97175 172.441591 
L 383.147665 173.098595 
L 396.32358 171.310921 
L 409.499495 167.978849 
L 422.67541 175.222565 
L 435.851325 170.493252 
L 449.02724 174.614608 
L 462.203155 161.880734 
L 475.37907 167.156512 
L 488.554985 157.345731 
" clip-path="url(#p0eb0d7bf9a)" style="fill: none; stroke: #c8879e; stroke-width: 1.5; stroke-linecap: square"/>
   </g>
   <g id="line2d_110">
    <path d="M 304.092175 160.720672 
L 317.26809 162.723719 
L 330.444005 155.211481 
L 343.61992 151.681339 
L 356.795835 158.657629 
L 369.97175 161.359265 
L 383.147665 152.939635 
L 396.32358 155.191449 
L 409.499495 159.389992 
L 422.67541 159.395354 
L 435.851325 155.695171 
L 449.02724 157.85888 
L 462.203155 155.950942 
L 475.37907 156.413012 
L 488.554985 152.211319 
" clip-path="url(#p0eb0d7bf9a)" style="fill: none; stroke: #b57294; stroke-width: 1.5; stroke-linecap: square"/>
   </g>
   <g id="line2d_111">
    <path d="M 304.092175 151.660479 
L 317.26809 154.293957 
L 330.444005 148.831808 
L 343.61992 150.779639 
L 356.795835 146.120548 
L 369.97175 146.534216 
L 383.147665 146.247832 
L 396.32358 140.320237 
L 409.499495 147.675194 
L 422.67541 141.077723 
L 435.851325 145.257576 
L 449.02724 140.008882 
L 462.203155 142.449636 
L 475.37907 144.017759 
L 488.554985 140.402868 
" clip-path="url(#p0eb0d7bf9a)" style="fill: none; stroke: #9d5d89; stroke-width: 1.5; stroke-linecap: square"/>
   </g>
   <g id="line2d_112">
    <path d="M 304.092175 144.569324 
L 317.26809 144.222052 
L 330.444005 140.651777 
L 343.61992 139.442313 
L 356.795835 137.049725 
L 369.97175 134.835995 
L 383.147665 135.4949 
L 396.32358 124.997812 
L 409.499495 131.121494 
L 422.67541 135.857983 
L 435.851325 117.444759 
L 449.02724 131.502151 
L 462.203155 127.704505 
L 475.37907 115.927335 
L 488.554985 105.832595 
" clip-path="url(#p0eb0d7bf9a)" style="fill: none; stroke: #834c7d; stroke-width: 1.5; stroke-linecap: square"/>
   </g>
   <g id="line2d_113">
    <path d="M 304.092175 132.209487 
L 317.26809 134.814495 
L 330.444005 132.316596 
L 343.61992 129.208333 
L 356.795835 126.462028 
L 369.97175 132.54989 
L 383.147665 125.849034 
L 396.32358 128.689065 
L 409.499495 93.593352 
L 422.67541 122.27443 
L 435.851325 115.459254 
L 449.02724 107.343091 
L 462.203155 114.406128 
L 475.37907 113.30755 
L 488.554985 113.595896 
" clip-path="url(#p0eb0d7bf9a)" style="fill: none; stroke: #653b6c; stroke-width: 1.5; stroke-linecap: square"/>
   </g>
   <g id="line2d_114">
    <path d="M 304.092175 124.023869 
L 317.26809 123.474299 
L 330.444005 124.5559 
L 343.61992 124.078613 
L 356.795835 121.500584 
L 369.97175 88.5249 
L 383.147665 118.493289 
L 396.32358 51.995504 
L 409.499495 111.804038 
L 422.67541 117.696257 
L 435.851325 113.744008 
L 449.02724 116.516763 
L 462.203155 110.391582 
L 475.37907 115.855038 
L 488.554985 109.757998 
" clip-path="url(#p0eb0d7bf9a)" style="fill: none; stroke: #492d58; stroke-width: 1.5; stroke-linecap: square"/>
   </g>
   <g id="line2d_115">
    <path d="M 304.092175 114.457878 
L 317.26809 115.883435 
L 330.444005 116.091386 
L 343.61992 118.485762 
L 356.795835 114.099857 
L 369.97175 104.165064 
L 383.147665 104.452305 
L 396.32358 74.558693 
L 409.499495 107.700376 
L 422.67541 85.75844 
L 435.851325 105.579575 
L 449.02724 99.610836 
L 462.203155 104.081727 
L 475.37907 87.688441 
L 488.554985 99.0075 
" clip-path="url(#p0eb0d7bf9a)" style="fill: none; stroke: #2d1e3e; stroke-width: 1.5; stroke-linecap: square"/>
   </g>
   <g id="line2d_116"/>
   <g id="line2d_117"/>
   <g id="line2d_118"/>
   <g id="line2d_119"/>
   <g id="line2d_120"/>
   <g id="line2d_121"/>
   <g id="patch_9">
    <path d="M 294.869034 284.4 
L 294.869034 7.2 
" style="fill: none; stroke: #000000; stroke-width: 0.8; stroke-linejoin: miter; stroke-linecap: square"/>
   </g>
   <g id="patch_10">
    <path d="M 497.778125 284.4 
L 497.778125 7.2 
" style="fill: none; stroke: #000000; stroke-width: 0.8; stroke-linejoin: miter; stroke-linecap: square"/>
   </g>
   <g id="patch_11">
    <path d="M 294.869034 284.4 
L 497.778125 284.4 
" style="fill: none; stroke: #000000; stroke-width: 0.8; stroke-linejoin: miter; stroke-linecap: square"/>
   </g>
   <g id="patch_12">
    <path d="M 294.869034 7.2 
L 497.778125 7.2 
" style="fill: none; stroke: #000000; stroke-width: 0.8; stroke-linejoin: miter; stroke-linecap: square"/>
   </g>
   <g id="legend_2">
    <g id="patch_13">
     <path d="M 301.869034 118.26875 
L 380.267472 118.26875 
Q 382.267472 118.26875 382.267472 116.26875 
L 382.267472 14.2 
Q 382.267472 12.2 380.267472 12.2 
L 301.869034 12.2 
Q 299.869034 12.2 299.869034 14.2 
L 299.869034 116.26875 
Q 299.869034 118.26875 301.869034 118.26875 
z
" style="fill: #ffffff; opacity: 0.8; stroke: #cccccc; stroke-linejoin: miter"/>
    </g>
    <g id="text_23">
     <!-- Library size |R| -->
     <g transform="translate(303.869034 23.842187) scale(0.1 -0.1)">
      <use xlink:href="#DejaVuSans-4c"/>
      <use xlink:href="#DejaVuSans-69" x="55.712891"/>
      <use xlink:href="#DejaVuSans-62" x="83.496094"/>
      <use xlink:href="#DejaVuSans-72" x="146.972656"/>
      <use xlink:href="#DejaVuSans-61" x="188.085938"/>
      <use xlink:href="#DejaVuSans-72" x="249.365234"/>
      <use xlink:href="#DejaVuSans-79" x="290.478516"/>
      <use xlink:href="#DejaVuSans-20" x="349.658203"/>
      <use xlink:href="#DejaVuSans-73" x="381.445312"/>
      <use xlink:href="#DejaVuSans-69" x="433.544922"/>
      <use xlink:href="#DejaVuSans-7a" x="461.328125"/>
      <use xlink:href="#DejaVuSans-65" x="513.818359"/>
      <use xlink:href="#DejaVuSans-20" x="575.341797"/>
      <use xlink:href="#DejaVuSans-7c" x="607.128906"/>
      <use xlink:href="#DejaVuSans-52" x="640.820312"/>
      <use xlink:href="#DejaVuSans-7c" x="710.302734"/>
     </g>
    </g>
    <g id="line2d_122">
     <path d="M 320.705753 35.298437 
L 330.705753 35.298437 
L 340.705753 35.298437 
" style="fill: none; stroke: #e9c4c1; stroke-width: 1.5; stroke-linecap: square"/>
    </g>
    <g id="text_24">
     <!-- 15 -->
     <g transform="translate(348.705753 38.798437) scale(0.1 -0.1)">
      <use xlink:href="#DejaVuSans-31"/>
      <use xlink:href="#DejaVuSans-35" x="63.623047"/>
     </g>
    </g>
    <g id="line2d_123">
     <path d="M 320.705753 49.976562 
L 330.705753 49.976562 
L 340.705753 49.976562 
" style="fill: none; stroke: #d8a0aa; stroke-width: 1.5; stroke-linecap: square"/>
    </g>
    <g id="text_25">
     <!-- 30 -->
     <g transform="translate(348.705753 53.476562) scale(0.1 -0.1)">
      <use xlink:href="#DejaVuSans-33"/>
      <use xlink:href="#DejaVuSans-30" x="63.623047"/>
     </g>
    </g>
    <g id="line2d_124">
     <path d="M 320.705753 64.654687 
L 330.705753 64.654687 
L 340.705753 64.654687 
" style="fill: none; stroke: #c07d99; stroke-width: 1.5; stroke-linecap: square"/>
    </g>
    <g id="text_26">
     <!-- 45 -->
     <g transform="translate(348.705753 68.154687) scale(0.1 -0.1)">
      <use xlink:href="#DejaVuSans-34"/>
      <use xlink:href="#DejaVuSans-35" x="63.623047"/>
     </g>
    </g>
    <g id="line2d_125">
     <path d="M 320.705753 79.332812 
L 330.705753 79.332812 
L 340.705753 79.332812 
" style="fill: none; stroke: #9d5d89; stroke-width: 1.5; stroke-linecap: square"/>
    </g>
    <g id="text_27">
     <!-- 60 -->
     <g transform="translate(348.705753 82.832812) scale(0.1 -0.1)">
      <use xlink:href="#DejaVuSans-36"/>
      <use xlink:href="#DejaVuSans-30" x="63.623047"/>
     </g>
    </g>
    <g id="line2d_126">
     <path d="M 320.705753 94.010937 
L 330.705753 94.010937 
L 340.705753 94.010937 
" style="fill: none; stroke: #754475; stroke-width: 1.5; stroke-linecap: square"/>
    </g>
    <g id="text_28">
     <!-- 75 -->
     <g transform="translate(348.705753 97.510937) scale(0.1 -0.1)">
      <defs>
       <path id="DejaVuSans-37" d="M 525 4666 
L 3525 4666 
L 3525 4397 
L 1831 0 
L 1172 0 
L 2766 4134 
L 525 4134 
L 525 4666 
z
" transform="scale(0.015625)"/>
      </defs>
      <use xlink:href="#DejaVuSans-37"/>
      <use xlink:href="#DejaVuSans-35" x="63.623047"/>
     </g>
    </g>
    <g id="line2d_127">
     <path d="M 320.705753 108.689062 
L 330.705753 108.689062 
L 340.705753 108.689062 
" style="fill: none; stroke: #492d58; stroke-width: 1.5; stroke-linecap: square"/>
    </g>
    <g id="text_29">
     <!-- 90 -->
     <g transform="translate(348.705753 112.189062) scale(0.1 -0.1)">
      <defs>
       <path id="DejaVuSans-39" d="M 703 97 
L 703 672 
Q 941 559 1184 500 
Q 1428 441 1663 441 
Q 2288 441 2617 861 
Q 2947 1281 2994 2138 
Q 2813 1869 2534 1725 
Q 2256 1581 1919 1581 
Q 1219 1581 811 2004 
Q 403 2428 403 3163 
Q 403 3881 828 4315 
Q 1253 4750 1959 4750 
Q 2769 4750 3195 4129 
Q 3622 3509 3622 2328 
Q 3622 1225 3098 567 
Q 2575 -91 1691 -91 
Q 1453 -91 1209 -44 
Q 966 3 703 97 
z
M 1959 2075 
Q 2384 2075 2632 2365 
Q 2881 2656 2881 3163 
Q 2881 3666 2632 3958 
Q 2384 4250 1959 4250 
Q 1534 4250 1286 3958 
Q 1038 3666 1038 3163 
Q 1038 2656 1286 2365 
Q 1534 2075 1959 2075 
z
" transform="scale(0.015625)"/>
      </defs>
      <use xlink:href="#DejaVuSans-39"/>
      <use xlink:href="#DejaVuSans-30" x="63.623047"/>
     </g>
    </g>
   </g>
  </g>
 </g>
 <defs>
  <clipPath id="pe05c8319dc">
   <rect x="51.378125" y="7.2" width="202.909091" height="277.2"/>
  </clipPath>
  <clipPath id="p0eb0d7bf9a">
   <rect x="294.869034" y="7.2" width="202.909091" height="277.2"/>
  </clipPath>
 </defs>
</svg>
