<?xml version="1.0" encoding="utf-8" standalone="no"?>
<!DOCTYPE svg PUBLIC "-//W3C//DTD SVG 1.1//EN"
  "http://www.w3.org/Graphics/SVG/1.1/DTD/svg11.dtd">
<svg xmlns:xlink="http://www.w3.org/1999/xlink" width="422.483437pt" height="325.986375pt" viewBox="0 0 422.483437 325.986375" xmlns="http://www.w3.org/2000/svg" version="1.1">
 <metadata>
  <rdf:RDF xmlns:dc="http://purl.org/dc/elements/1.1/" xmlns:cc="http://creativecommons.org/ns#" xmlns:rdf="http://www.w3.org/1999/02/22-rdf-syntax-ns#">
   <cc:Work>
    <dc:type rdf:resource="http://purl.org/dc/dcmitype/StillImage"/>
    <dc:date>2024-01-24T11:52:00.512660</dc:date>
    <dc:format>image/svg+xml</dc:format>
    <dc:creator>
     <cc:Agent>
      <dc:title>Matplotlib v3.8.2, https://matplotlib.org/</dc:title>
     </cc:Agent>
    </dc:creator>
   </cc:Work>
  </rdf:RDF>
 </metadata>
 <defs>
  <style type="text/css">*{stroke-linejoin: round; stroke-linecap: butt}</style>
 </defs>
 <g id="figure_1">
  <g id="patch_1">
   <path d="M 0 325.986375 
L 422.483437 325.986375 
L 422.483437 0 
L 0 0 
z
" style="fill: #ffffff"/>
  </g>
  <g id="axes_1">
   <g id="patch_2">
    <path d="M 58.163438 143.278125 
L 415.283438 143.278125 
L 415.283438 22.318125 
L 58.163438 22.318125 
z
" style="fill: #ffffff"/>
   </g>
   <g id="PolyCollection_1">
    <defs>
     <path id="md179274ed3" d="M 287.55319 -303.66825 
L 287.55319 -182.70825 
L 317.067239 -182.70825 
L 317.067239 -303.66825 
L 317.067239 -303.66825 
L 287.55319 -303.66825 
z
" style="stroke: #2ca02c; stroke-opacity: 0.3"/>
    </defs>
    <g clip-path="url(#pfe42effe68)">
     <use xlink:href="#md179274ed3" x="0" y="325.986375" style="fill: #2ca02c; fill-opacity: 0.3; stroke: #2ca02c; stroke-opacity: 0.3"/>
    </g>
   </g>
   <g id="PolyCollection_2">
    <defs>
     <path id="mc2ebab3c6f" d="M 366.257322 -303.66825 
L 366.257322 -182.70825 
L 389.212694 -182.70825 
L 389.212694 -303.66825 
L 389.212694 -303.66825 
L 366.257322 -303.66825 
z
" style="stroke: #d62728; stroke-opacity: 0.3"/>
    </defs>
    <g clip-path="url(#pfe42effe68)">
     <use xlink:href="#mc2ebab3c6f" x="0" y="325.986375" style="fill: #d62728; fill-opacity: 0.3; stroke: #d62728; stroke-opacity: 0.3"/>
    </g>
   </g>
   <g id="matplotlib.axis_1">
    <g id="xtick_1">
     <g id="line2d_1">
      <defs>
       <path id="mb6d4ee5349" d="M 0 0 
L 0 3.5 
" style="stroke: #000000; stroke-width: 0.8"/>
      </defs>
      <g>
       <use xlink:href="#mb6d4ee5349" x="74.396165" y="143.278125" style="stroke: #000000; stroke-width: 0.8"/>
      </g>
     </g>
    </g>
    <g id="xtick_2">
     <g id="line2d_2">
      <g>
       <use xlink:href="#mb6d4ee5349" x="139.982942" y="143.278125" style="stroke: #000000; stroke-width: 0.8"/>
      </g>
     </g>
    </g>
    <g id="xtick_3">
     <g id="line2d_3">
      <g>
       <use xlink:href="#mb6d4ee5349" x="205.569718" y="143.278125" style="stroke: #000000; stroke-width: 0.8"/>
      </g>
     </g>
    </g>
    <g id="xtick_4">
     <g id="line2d_4">
      <g>
       <use xlink:href="#mb6d4ee5349" x="271.156495" y="143.278125" style="stroke: #000000; stroke-width: 0.8"/>
      </g>
     </g>
    </g>
    <g id="xtick_5">
     <g id="line2d_5">
      <g>
       <use xlink:href="#mb6d4ee5349" x="336.743272" y="143.278125" style="stroke: #000000; stroke-width: 0.8"/>
      </g>
     </g>
    </g>
    <g id="xtick_6">
     <g id="line2d_6">
      <g>
       <use xlink:href="#mb6d4ee5349" x="402.330049" y="143.278125" style="stroke: #000000; stroke-width: 0.8"/>
      </g>
     </g>
    </g>
   </g>
   <g id="matplotlib.axis_2">
    <g id="ytick_1">
     <g id="line2d_7">
      <defs>
       <path id="maa3b1fafe4" d="M 0 0 
L -3.5 0 
" style="stroke: #000000; stroke-width: 0.8"/>
      </defs>
      <g>
       <use xlink:href="#maa3b1fafe4" x="58.163438" y="137.779943" style="stroke: #000000; stroke-width: 0.8"/>
      </g>
     </g>
     <g id="text_1">
      <!-- 0 -->
      <g transform="translate(44.800938 141.579162) scale(0.1 -0.1)">
       <defs>
        <path id="DejaVuSans-30" d="M 2034 4250 
Q 1547 4250 1301 3770 
Q 1056 3291 1056 2328 
Q 1056 1369 1301 889 
Q 1547 409 2034 409 
Q 2525 409 2770 889 
Q 3016 1369 3016 2328 
Q 3016 3291 2770 3770 
Q 2525 4250 2034 4250 
z
M 2034 4750 
Q 2819 4750 3233 4129 
Q 3647 3509 3647 2328 
Q 3647 1150 3233 529 
Q 2819 -91 2034 -91 
Q 1250 -91 836 529 
Q 422 1150 422 2328 
Q 422 3509 836 4129 
Q 1250 4750 2034 4750 
z
" transform="scale(0.015625)"/>
       </defs>
       <use xlink:href="#DejaVuSans-30"/>
      </g>
     </g>
    </g>
    <g id="ytick_2">
     <g id="line2d_8">
      <g>
       <use xlink:href="#maa3b1fafe4" x="58.163438" y="103.416307" style="stroke: #000000; stroke-width: 0.8"/>
      </g>
     </g>
     <g id="text_2">
      <!-- 50 -->
      <g transform="translate(38.438438 107.215526) scale(0.1 -0.1)">
       <defs>
        <path id="DejaVuSans-35" d="M 691 4666 
L 3169 4666 
L 3169 4134 
L 1269 4134 
L 1269 2991 
Q 1406 3038 1543 3061 
Q 1681 3084 1819 3084 
Q 2600 3084 3056 2656 
Q 3513 2228 3513 1497 
Q 3513 744 3044 326 
Q 2575 -91 1722 -91 
Q 1428 -91 1123 -41 
Q 819 9 494 109 
L 494 744 
Q 775 591 1075 516 
Q 1375 441 1709 441 
Q 2250 441 2565 725 
Q 2881 1009 2881 1497 
Q 2881 1984 2565 2268 
Q 2250 2553 1709 2553 
Q 1456 2553 1204 2497 
Q 953 2441 691 2322 
L 691 4666 
z
" transform="scale(0.015625)"/>
       </defs>
       <use xlink:href="#DejaVuSans-35"/>
       <use xlink:href="#DejaVuSans-30" x="63.623047"/>
      </g>
     </g>
    </g>
    <g id="ytick_3">
     <g id="line2d_9">
      <g>
       <use xlink:href="#maa3b1fafe4" x="58.163438" y="69.05267" style="stroke: #000000; stroke-width: 0.8"/>
      </g>
     </g>
     <g id="text_3">
      <!-- 100 -->
      <g transform="translate(32.075938 72.851889) scale(0.1 -0.1)">
       <defs>
        <path id="DejaVuSans-31" d="M 794 531 
L 1825 531 
L 1825 4091 
L 703 3866 
L 703 4441 
L 1819 4666 
L 2450 4666 
L 2450 531 
L 3481 531 
L 3481 0 
L 794 0 
L 794 531 
z
" transform="scale(0.015625)"/>
       </defs>
       <use xlink:href="#DejaVuSans-31"/>
       <use xlink:href="#DejaVuSans-30" x="63.623047"/>
       <use xlink:href="#DejaVuSans-30" x="127.246094"/>
      </g>
     </g>
    </g>
    <g id="ytick_4">
     <g id="line2d_10">
      <g>
       <use xlink:href="#maa3b1fafe4" x="58.163438" y="34.689034" style="stroke: #000000; stroke-width: 0.8"/>
      </g>
     </g>
     <g id="text_4">
      <!-- 150 -->
      <g transform="translate(32.075938 38.488253) scale(0.1 -0.1)">
       <use xlink:href="#DejaVuSans-31"/>
       <use xlink:href="#DejaVuSans-35" x="63.623047"/>
       <use xlink:href="#DejaVuSans-30" x="127.246094"/>
      </g>
     </g>
    </g>
    <g id="text_5">
     <!-- Number of motifs -->
     <g transform="translate(14.798438 126.525469) rotate(-90) scale(0.1 -0.1)">
      <defs>
       <path id="DejaVuSans-4e" d="M 628 4666 
L 1478 4666 
L 3547 763 
L 3547 4666 
L 4159 4666 
L 4159 0 
L 3309 0 
L 1241 3903 
L 1241 0 
L 628 0 
L 628 4666 
z
" transform="scale(0.015625)"/>
       <path id="DejaVuSans-75" d="M 544 1381 
L 544 3500 
L 1119 3500 
L 1119 1403 
Q 1119 906 1312 657 
Q 1506 409 1894 409 
Q 2359 409 2629 706 
Q 2900 1003 2900 1516 
L 2900 3500 
L 3475 3500 
L 3475 0 
L 2900 0 
L 2900 538 
Q 2691 219 2414 64 
Q 2138 -91 1772 -91 
Q 1169 -91 856 284 
Q 544 659 544 1381 
z
M 1991 3584 
L 1991 3584 
z
" transform="scale(0.015625)"/>
       <path id="DejaVuSans-6d" d="M 3328 2828 
Q 3544 3216 3844 3400 
Q 4144 3584 4550 3584 
Q 5097 3584 5394 3201 
Q 5691 2819 5691 2113 
L 5691 0 
L 5113 0 
L 5113 2094 
Q 5113 2597 4934 2840 
Q 4756 3084 4391 3084 
Q 3944 3084 3684 2787 
Q 3425 2491 3425 1978 
L 3425 0 
L 2847 0 
L 2847 2094 
Q 2847 2600 2669 2842 
Q 2491 3084 2119 3084 
Q 1678 3084 1418 2786 
Q 1159 2488 1159 1978 
L 1159 0 
L 581 0 
L 581 3500 
L 1159 3500 
L 1159 2956 
Q 1356 3278 1631 3431 
Q 1906 3584 2284 3584 
Q 2666 3584 2933 3390 
Q 3200 3197 3328 2828 
z
" transform="scale(0.015625)"/>
       <path id="DejaVuSans-62" d="M 3116 1747 
Q 3116 2381 2855 2742 
Q 2594 3103 2138 3103 
Q 1681 3103 1420 2742 
Q 1159 2381 1159 1747 
Q 1159 1113 1420 752 
Q 1681 391 2138 391 
Q 2594 391 2855 752 
Q 3116 1113 3116 1747 
z
M 1159 2969 
Q 1341 3281 1617 3432 
Q 1894 3584 2278 3584 
Q 2916 3584 3314 3078 
Q 3713 2572 3713 1747 
Q 3713 922 3314 415 
Q 2916 -91 2278 -91 
Q 1894 -91 1617 61 
Q 1341 213 1159 525 
L 1159 0 
L 581 0 
L 581 4863 
L 1159 4863 
L 1159 2969 
z
" transform="scale(0.015625)"/>
       <path id="DejaVuSans-65" d="M 3597 1894 
L 3597 1613 
L 953 1613 
Q 991 1019 1311 708 
Q 1631 397 2203 397 
Q 2534 397 2845 478 
Q 3156 559 3463 722 
L 3463 178 
Q 3153 47 2828 -22 
Q 2503 -91 2169 -91 
Q 1331 -91 842 396 
Q 353 884 353 1716 
Q 353 2575 817 3079 
Q 1281 3584 2069 3584 
Q 2775 3584 3186 3129 
Q 3597 2675 3597 1894 
z
M 3022 2063 
Q 3016 2534 2758 2815 
Q 2500 3097 2075 3097 
Q 1594 3097 1305 2825 
Q 1016 2553 972 2059 
L 3022 2063 
z
" transform="scale(0.015625)"/>
       <path id="DejaVuSans-72" d="M 2631 2963 
Q 2534 3019 2420 3045 
Q 2306 3072 2169 3072 
Q 1681 3072 1420 2755 
Q 1159 2438 1159 1844 
L 1159 0 
L 581 0 
L 581 3500 
L 1159 3500 
L 1159 2956 
Q 1341 3275 1631 3429 
Q 1922 3584 2338 3584 
Q 2397 3584 2469 3576 
Q 2541 3569 2628 3553 
L 2631 2963 
z
" transform="scale(0.015625)"/>
       <path id="DejaVuSans-20" transform="scale(0.015625)"/>
       <path id="DejaVuSans-6f" d="M 1959 3097 
Q 1497 3097 1228 2736 
Q 959 2375 959 1747 
Q 959 1119 1226 758 
Q 1494 397 1959 397 
Q 2419 397 2687 759 
Q 2956 1122 2956 1747 
Q 2956 2369 2687 2733 
Q 2419 3097 1959 3097 
z
M 1959 3584 
Q 2709 3584 3137 3096 
Q 3566 2609 3566 1747 
Q 3566 888 3137 398 
Q 2709 -91 1959 -91 
Q 1206 -91 779 398 
Q 353 888 353 1747 
Q 353 2609 779 3096 
Q 1206 3584 1959 3584 
z
" transform="scale(0.015625)"/>
       <path id="DejaVuSans-66" d="M 2375 4863 
L 2375 4384 
L 1825 4384 
Q 1516 4384 1395 4259 
Q 1275 4134 1275 3809 
L 1275 3500 
L 2222 3500 
L 2222 3053 
L 1275 3053 
L 1275 0 
L 697 0 
L 697 3053 
L 147 3053 
L 147 3500 
L 697 3500 
L 697 3744 
Q 697 4328 969 4595 
Q 1241 4863 1831 4863 
L 2375 4863 
z
" transform="scale(0.015625)"/>
       <path id="DejaVuSans-74" d="M 1172 4494 
L 1172 3500 
L 2356 3500 
L 2356 3053 
L 1172 3053 
L 1172 1153 
Q 1172 725 1289 603 
Q 1406 481 1766 481 
L 2356 481 
L 2356 0 
L 1766 0 
Q 1100 0 847 248 
Q 594 497 594 1153 
L 594 3053 
L 172 3053 
L 172 3500 
L 594 3500 
L 594 4494 
L 1172 4494 
z
" transform="scale(0.015625)"/>
       <path id="DejaVuSans-69" d="M 603 3500 
L 1178 3500 
L 1178 0 
L 603 0 
L 603 3500 
z
M 603 4863 
L 1178 4863 
L 1178 4134 
L 603 4134 
L 603 4863 
z
" transform="scale(0.015625)"/>
       <path id="DejaVuSans-73" d="M 2834 3397 
L 2834 2853 
Q 2591 2978 2328 3040 
Q 2066 3103 1784 3103 
Q 1356 3103 1142 2972 
Q 928 2841 928 2578 
Q 928 2378 1081 2264 
Q 1234 2150 1697 2047 
L 1894 2003 
Q 2506 1872 2764 1633 
Q 3022 1394 3022 966 
Q 3022 478 2636 193 
Q 2250 -91 1575 -91 
Q 1294 -91 989 -36 
Q 684 19 347 128 
L 347 722 
Q 666 556 975 473 
Q 1284 391 1588 391 
Q 1994 391 2212 530 
Q 2431 669 2431 922 
Q 2431 1156 2273 1281 
Q 2116 1406 1581 1522 
L 1381 1569 
Q 847 1681 609 1914 
Q 372 2147 372 2553 
Q 372 3047 722 3315 
Q 1072 3584 1716 3584 
Q 2034 3584 2315 3537 
Q 2597 3491 2834 3397 
z
" transform="scale(0.015625)"/>
      </defs>
      <use xlink:href="#DejaVuSans-4e"/>
      <use xlink:href="#DejaVuSans-75" x="74.804688"/>
      <use xlink:href="#DejaVuSans-6d" x="138.183594"/>
      <use xlink:href="#DejaVuSans-62" x="235.595703"/>
      <use xlink:href="#DejaVuSans-65" x="299.072266"/>
      <use xlink:href="#DejaVuSans-72" x="360.595703"/>
      <use xlink:href="#DejaVuSans-20" x="401.708984"/>
      <use xlink:href="#DejaVuSans-6f" x="433.496094"/>
      <use xlink:href="#DejaVuSans-66" x="494.677734"/>
      <use xlink:href="#DejaVuSans-20" x="529.882812"/>
      <use xlink:href="#DejaVuSans-6d" x="561.669922"/>
      <use xlink:href="#DejaVuSans-6f" x="659.082031"/>
      <use xlink:href="#DejaVuSans-74" x="720.263672"/>
      <use xlink:href="#DejaVuSans-69" x="759.472656"/>
      <use xlink:href="#DejaVuSans-66" x="787.255859"/>
      <use xlink:href="#DejaVuSans-73" x="822.460938"/>
     </g>
     <!-- covering this position -->
     <g transform="translate(25.99625 136.535625) rotate(-90) scale(0.1 -0.1)">
      <defs>
       <path id="DejaVuSans-63" d="M 3122 3366 
L 3122 2828 
Q 2878 2963 2633 3030 
Q 2388 3097 2138 3097 
Q 1578 3097 1268 2742 
Q 959 2388 959 1747 
Q 959 1106 1268 751 
Q 1578 397 2138 397 
Q 2388 397 2633 464 
Q 2878 531 3122 666 
L 3122 134 
Q 2881 22 2623 -34 
Q 2366 -91 2075 -91 
Q 1284 -91 818 406 
Q 353 903 353 1747 
Q 353 2603 823 3093 
Q 1294 3584 2113 3584 
Q 2378 3584 2631 3529 
Q 2884 3475 3122 3366 
z
" transform="scale(0.015625)"/>
       <path id="DejaVuSans-76" d="M 191 3500 
L 800 3500 
L 1894 563 
L 2988 3500 
L 3597 3500 
L 2284 0 
L 1503 0 
L 191 3500 
z
" transform="scale(0.015625)"/>
       <path id="DejaVuSans-6e" d="M 3513 2113 
L 3513 0 
L 2938 0 
L 2938 2094 
Q 2938 2591 2744 2837 
Q 2550 3084 2163 3084 
Q 1697 3084 1428 2787 
Q 1159 2491 1159 1978 
L 1159 0 
L 581 0 
L 581 3500 
L 1159 3500 
L 1159 2956 
Q 1366 3272 1645 3428 
Q 1925 3584 2291 3584 
Q 2894 3584 3203 3211 
Q 3513 2838 3513 2113 
z
" transform="scale(0.015625)"/>
       <path id="DejaVuSans-67" d="M 2906 1791 
Q 2906 2416 2648 2759 
Q 2391 3103 1925 3103 
Q 1463 3103 1205 2759 
Q 947 2416 947 1791 
Q 947 1169 1205 825 
Q 1463 481 1925 481 
Q 2391 481 2648 825 
Q 2906 1169 2906 1791 
z
M 3481 434 
Q 3481 -459 3084 -895 
Q 2688 -1331 1869 -1331 
Q 1566 -1331 1297 -1286 
Q 1028 -1241 775 -1147 
L 775 -588 
Q 1028 -725 1275 -790 
Q 1522 -856 1778 -856 
Q 2344 -856 2625 -561 
Q 2906 -266 2906 331 
L 2906 616 
Q 2728 306 2450 153 
Q 2172 0 1784 0 
Q 1141 0 747 490 
Q 353 981 353 1791 
Q 353 2603 747 3093 
Q 1141 3584 1784 3584 
Q 2172 3584 2450 3431 
Q 2728 3278 2906 2969 
L 2906 3500 
L 3481 3500 
L 3481 434 
z
" transform="scale(0.015625)"/>
       <path id="DejaVuSans-68" d="M 3513 2113 
L 3513 0 
L 2938 0 
L 2938 2094 
Q 2938 2591 2744 2837 
Q 2550 3084 2163 3084 
Q 1697 3084 1428 2787 
Q 1159 2491 1159 1978 
L 1159 0 
L 581 0 
L 581 4863 
L 1159 4863 
L 1159 2956 
Q 1366 3272 1645 3428 
Q 1925 3584 2291 3584 
Q 2894 3584 3203 3211 
Q 3513 2838 3513 2113 
z
" transform="scale(0.015625)"/>
       <path id="DejaVuSans-70" d="M 1159 525 
L 1159 -1331 
L 581 -1331 
L 581 3500 
L 1159 3500 
L 1159 2969 
Q 1341 3281 1617 3432 
Q 1894 3584 2278 3584 
Q 2916 3584 3314 3078 
Q 3713 2572 3713 1747 
Q 3713 922 3314 415 
Q 2916 -91 2278 -91 
Q 1894 -91 1617 61 
Q 1341 213 1159 525 
z
M 3116 1747 
Q 3116 2381 2855 2742 
Q 2594 3103 2138 3103 
Q 1681 3103 1420 2742 
Q 1159 2381 1159 1747 
Q 1159 1113 1420 752 
Q 1681 391 2138 391 
Q 2594 391 2855 752 
Q 3116 1113 3116 1747 
z
" transform="scale(0.015625)"/>
      </defs>
      <use xlink:href="#DejaVuSans-63"/>
      <use xlink:href="#DejaVuSans-6f" x="54.980469"/>
      <use xlink:href="#DejaVuSans-76" x="116.162109"/>
      <use xlink:href="#DejaVuSans-65" x="175.341797"/>
      <use xlink:href="#DejaVuSans-72" x="236.865234"/>
      <use xlink:href="#DejaVuSans-69" x="277.978516"/>
      <use xlink:href="#DejaVuSans-6e" x="305.761719"/>
      <use xlink:href="#DejaVuSans-67" x="369.140625"/>
      <use xlink:href="#DejaVuSans-20" x="432.617188"/>
      <use xlink:href="#DejaVuSans-74" x="464.404297"/>
      <use xlink:href="#DejaVuSans-68" x="503.613281"/>
      <use xlink:href="#DejaVuSans-69" x="566.992188"/>
      <use xlink:href="#DejaVuSans-73" x="594.775391"/>
      <use xlink:href="#DejaVuSans-20" x="646.875"/>
      <use xlink:href="#DejaVuSans-70" x="678.662109"/>
      <use xlink:href="#DejaVuSans-6f" x="742.138672"/>
      <use xlink:href="#DejaVuSans-73" x="803.320312"/>
      <use xlink:href="#DejaVuSans-69" x="855.419922"/>
      <use xlink:href="#DejaVuSans-74" x="883.203125"/>
      <use xlink:href="#DejaVuSans-69" x="922.412109"/>
      <use xlink:href="#DejaVuSans-6f" x="950.195312"/>
      <use xlink:href="#DejaVuSans-6e" x="1011.376953"/>
     </g>
    </g>
   </g>
   <g id="line2d_11">
    <path d="M 74.396165 91.045398 
L 77.675504 89.670852 
L 80.954842 86.921761 
L 84.234181 82.110852 
L 87.51352 76.61267 
L 90.792859 80.049034 
L 94.072198 75.925398 
L 97.351537 72.489034 
L 100.630876 78.674489 
L 103.910214 80.736307 
L 107.189553 83.485398 
L 110.468892 85.547216 
L 113.748231 82.110852 
L 117.02757 82.110852 
L 120.306909 83.485398 
L 123.586247 82.110852 
L 126.865586 81.42358 
L 130.144925 80.049034 
L 133.424264 77.299943 
L 136.703603 75.925398 
L 139.982942 72.489034 
L 143.26228 72.489034 
L 146.541619 69.739943 
L 149.820958 73.176307 
L 153.100297 72.489034 
L 156.379636 74.550852 
L 159.658975 74.550852 
L 162.938314 71.801761 
L 166.217652 75.238125 
L 169.496991 77.987216 
L 172.77633 78.674489 
L 176.055669 77.299943 
L 179.335008 78.674489 
L 182.614347 76.61267 
L 185.893685 74.550852 
L 189.173024 75.238125 
L 192.452363 74.550852 
L 195.731702 72.489034 
L 199.011041 76.61267 
L 202.29038 73.176307 
L 205.569718 77.987216 
L 208.849057 77.299943 
L 212.128396 76.61267 
L 215.407735 77.299943 
L 218.687074 77.987216 
L 221.966413 79.361761 
L 225.245752 78.674489 
L 228.52509 82.798125 
L 231.804429 82.110852 
L 235.083768 81.42358 
L 238.363107 79.361761 
L 241.642446 76.61267 
L 244.921785 75.238125 
L 248.201123 73.86358 
L 251.480462 77.299943 
L 254.759801 76.61267 
L 258.03914 78.674489 
L 261.318479 77.987216 
L 264.597818 81.42358 
L 267.877157 80.049034 
L 271.156495 75.925398 
L 274.435834 83.485398 
L 277.715173 83.485398 
L 280.994512 89.670852 
L 284.273851 89.670852 
L 287.55319 90.358125 
L 290.832528 91.73267 
L 294.111867 99.29267 
L 297.391206 104.10358 
L 300.670545 110.289034 
L 303.949884 108.914489 
L 307.229223 104.790852 
L 310.508561 98.605398 
L 313.7879 93.794489 
L 317.067239 90.358125 
L 320.346578 84.859943 
L 323.625917 82.798125 
L 326.905256 84.859943 
L 330.184595 82.110852 
L 333.463933 82.110852 
L 336.743272 77.987216 
L 340.022611 75.238125 
L 343.30195 79.361761 
L 346.581289 79.361761 
L 349.860628 82.798125 
L 353.139966 88.296307 
L 356.419305 88.296307 
L 359.698644 91.73267 
L 362.977983 93.794489 
L 366.257322 97.918125 
L 369.536661 101.354489 
L 372.815999 109.601761 
L 376.095338 113.038125 
L 379.374677 116.474489 
L 382.654016 106.85267 
L 385.933355 102.041761 
L 389.212694 102.729034 
L 392.492033 104.10358 
L 395.771371 104.790852 
L 399.05071 110.976307 
" clip-path="url(#pfe42effe68)" style="fill: none; stroke: #1f77b4; stroke-width: 1.5; stroke-linecap: square"/>
   </g>
   <g id="line2d_12">
    <path d="M 74.396165 102.041761 
L 77.675504 101.354489 
L 80.954842 97.230852 
L 84.234181 94.481761 
L 87.51352 86.234489 
L 90.792859 88.296307 
L 94.072198 84.859943 
L 97.351537 79.361761 
L 100.630876 79.361761 
L 103.910214 77.987216 
L 107.189553 77.987216 
L 110.468892 75.238125 
L 113.748231 75.238125 
L 117.02757 76.61267 
L 120.306909 77.987216 
L 123.586247 81.42358 
L 126.865586 77.299943 
L 130.144925 80.736307 
L 133.424264 86.234489 
L 136.703603 86.234489 
L 139.982942 90.358125 
L 143.26228 93.794489 
L 146.541619 91.73267 
L 149.820958 92.419943 
L 153.100297 86.921761 
L 156.379636 87.609034 
L 159.658975 83.485398 
L 162.938314 86.921761 
L 166.217652 91.045398 
L 169.496991 89.670852 
L 172.77633 86.921761 
L 176.055669 91.73267 
L 179.335008 88.296307 
L 182.614347 86.234489 
L 185.893685 85.547216 
L 189.173024 88.296307 
L 192.452363 89.670852 
L 195.731702 86.234489 
L 199.011041 84.859943 
L 202.29038 86.234489 
L 205.569718 83.485398 
L 208.849057 84.859943 
L 212.128396 83.485398 
L 215.407735 84.859943 
L 218.687074 83.485398 
L 221.966413 80.736307 
L 225.245752 85.547216 
L 228.52509 84.859943 
L 231.804429 82.110852 
L 235.083768 82.110852 
L 238.363107 81.42358 
L 241.642446 85.547216 
L 244.921785 84.17267 
L 248.201123 87.609034 
L 251.480462 85.547216 
L 254.759801 85.547216 
L 258.03914 84.859943 
L 261.318479 86.234489 
L 264.597818 82.110852 
L 267.877157 77.299943 
L 271.156495 82.110852 
L 274.435834 80.049034 
L 277.715173 79.361761 
L 280.994512 81.42358 
L 284.273851 83.485398 
L 287.55319 84.17267 
L 290.832528 93.794489 
L 294.111867 97.230852 
L 297.391206 105.478125 
L 300.670545 113.038125 
L 303.949884 111.66358 
L 307.229223 107.539943 
L 310.508561 103.416307 
L 313.7879 98.605398 
L 317.067239 95.856307 
L 320.346578 89.670852 
L 323.625917 87.609034 
L 326.905256 87.609034 
L 330.184595 88.98358 
L 333.463933 85.547216 
L 336.743272 87.609034 
L 340.022611 88.296307 
L 343.30195 86.234489 
L 346.581289 86.234489 
L 349.860628 84.859943 
L 353.139966 83.485398 
L 356.419305 81.42358 
L 359.698644 84.17267 
L 362.977983 85.547216 
L 366.257322 88.98358 
L 369.536661 94.481761 
L 372.815999 109.601761 
L 376.095338 115.099943 
L 379.374677 119.910852 
L 382.654016 111.66358 
L 385.933355 98.605398 
L 389.212694 98.605398 
L 392.492033 99.979943 
L 395.771371 99.979943 
L 399.05071 102.729034 
" clip-path="url(#pfe42effe68)" style="fill: none; stroke: #ff7f0e; stroke-width: 1.5; stroke-linecap: square"/>
   </g>
   <g id="line2d_13">
    <path d="M 74.396165 137.779943 
L 77.675504 137.779943 
L 80.954842 137.779943 
L 84.234181 137.779943 
L 87.51352 137.779943 
L 90.792859 137.779943 
L 94.072198 137.779943 
L 97.351537 137.779943 
L 100.630876 137.779943 
L 103.910214 137.779943 
L 107.189553 137.779943 
L 110.468892 137.779943 
L 113.748231 137.779943 
L 117.02757 137.779943 
L 120.306909 137.779943 
L 123.586247 137.779943 
L 126.865586 137.779943 
L 130.144925 137.779943 
L 133.424264 137.779943 
L 136.703603 137.779943 
L 139.982942 137.779943 
L 143.26228 137.779943 
L 146.541619 137.779943 
L 149.820958 137.779943 
L 153.100297 137.779943 
L 156.379636 137.779943 
L 159.658975 137.779943 
L 162.938314 137.779943 
L 166.217652 137.779943 
L 169.496991 137.779943 
L 172.77633 137.779943 
L 176.055669 137.779943 
L 179.335008 137.779943 
L 182.614347 137.779943 
L 185.893685 137.779943 
L 189.173024 137.779943 
L 192.452363 137.779943 
L 195.731702 137.779943 
L 199.011041 137.779943 
L 202.29038 137.779943 
L 205.569718 137.779943 
L 208.849057 137.779943 
L 212.128396 137.779943 
L 215.407735 137.779943 
L 218.687074 137.779943 
L 221.966413 137.779943 
L 225.245752 137.779943 
L 228.52509 137.779943 
L 231.804429 137.779943 
L 235.083768 137.779943 
L 238.363107 137.779943 
L 241.642446 137.779943 
L 244.921785 137.779943 
L 248.201123 137.779943 
L 251.480462 137.779943 
L 254.759801 137.779943 
L 258.03914 137.779943 
L 261.318479 137.779943 
L 264.597818 137.779943 
L 267.877157 137.779943 
L 271.156495 137.779943 
L 274.435834 137.779943 
L 277.715173 137.779943 
L 280.994512 137.779943 
L 284.273851 137.779943 
L 287.55319 126.78358 
L 290.832528 108.914489 
L 294.111867 80.049034 
L 297.391206 65.616307 
L 300.670545 55.307216 
L 303.949884 55.307216 
L 307.229223 66.30358 
L 310.508561 84.17267 
L 313.7879 113.038125 
L 317.067239 127.470852 
L 320.346578 137.779943 
L 323.625917 137.779943 
L 326.905256 137.779943 
L 330.184595 137.779943 
L 333.463933 137.779943 
L 336.743272 137.779943 
L 340.022611 137.779943 
L 343.30195 137.779943 
L 346.581289 137.779943 
L 349.860628 137.779943 
L 353.139966 137.779943 
L 356.419305 137.779943 
L 359.698644 137.779943 
L 362.977983 137.779943 
L 366.257322 137.779943 
L 369.536661 137.779943 
L 372.815999 137.779943 
L 376.095338 137.779943 
L 379.374677 137.779943 
L 382.654016 137.779943 
L 385.933355 137.779943 
L 389.212694 137.779943 
L 392.492033 137.779943 
L 395.771371 137.779943 
L 399.05071 137.779943 
" clip-path="url(#pfe42effe68)" style="fill: none; stroke: #2ca02c; stroke-width: 1.5; stroke-linecap: square"/>
   </g>
   <g id="line2d_14">
    <path d="M 74.396165 137.779943 
L 77.675504 137.779943 
L 80.954842 137.779943 
L 84.234181 137.779943 
L 87.51352 137.779943 
L 90.792859 137.779943 
L 94.072198 137.779943 
L 97.351537 137.779943 
L 100.630876 137.779943 
L 103.910214 137.779943 
L 107.189553 137.779943 
L 110.468892 137.779943 
L 113.748231 137.779943 
L 117.02757 137.779943 
L 120.306909 137.779943 
L 123.586247 137.779943 
L 126.865586 137.779943 
L 130.144925 137.779943 
L 133.424264 137.779943 
L 136.703603 137.779943 
L 139.982942 137.779943 
L 143.26228 137.779943 
L 146.541619 137.779943 
L 149.820958 137.779943 
L 153.100297 137.779943 
L 156.379636 137.779943 
L 159.658975 137.779943 
L 162.938314 137.779943 
L 166.217652 137.779943 
L 169.496991 137.779943 
L 172.77633 137.779943 
L 176.055669 137.779943 
L 179.335008 137.779943 
L 182.614347 137.779943 
L 185.893685 137.779943 
L 189.173024 137.779943 
L 192.452363 137.779943 
L 195.731702 137.779943 
L 199.011041 137.779943 
L 202.29038 137.779943 
L 205.569718 137.779943 
L 208.849057 137.779943 
L 212.128396 137.779943 
L 215.407735 137.779943 
L 218.687074 137.779943 
L 221.966413 137.779943 
L 225.245752 137.779943 
L 228.52509 137.779943 
L 231.804429 137.779943 
L 235.083768 137.779943 
L 238.363107 137.779943 
L 241.642446 137.779943 
L 244.921785 137.779943 
L 248.201123 137.779943 
L 251.480462 137.779943 
L 254.759801 137.779943 
L 258.03914 137.779943 
L 261.318479 137.779943 
L 264.597818 137.779943 
L 267.877157 137.779943 
L 271.156495 137.779943 
L 274.435834 137.779943 
L 277.715173 137.779943 
L 280.994512 137.779943 
L 284.273851 137.779943 
L 287.55319 137.779943 
L 290.832528 137.779943 
L 294.111867 137.779943 
L 297.391206 137.779943 
L 300.670545 137.779943 
L 303.949884 137.779943 
L 307.229223 137.779943 
L 310.508561 137.779943 
L 313.7879 137.779943 
L 317.067239 137.779943 
L 320.346578 137.779943 
L 323.625917 137.779943 
L 326.905256 137.779943 
L 330.184595 137.779943 
L 333.463933 137.779943 
L 336.743272 137.779943 
L 340.022611 137.779943 
L 343.30195 137.779943 
L 346.581289 137.779943 
L 349.860628 137.779943 
L 353.139966 137.779943 
L 356.419305 137.779943 
L 359.698644 137.779943 
L 362.977983 137.779943 
L 366.257322 105.478125 
L 369.536661 77.987216 
L 372.815999 55.307216 
L 376.095338 55.307216 
L 379.374677 55.307216 
L 382.654016 55.307216 
L 385.933355 87.609034 
L 389.212694 115.099943 
L 392.492033 137.779943 
L 395.771371 137.779943 
L 399.05071 137.779943 
" clip-path="url(#pfe42effe68)" style="fill: none; stroke-dasharray: 5.55,2.4; stroke-dashoffset: 0; stroke: #d62728; stroke-width: 1.5"/>
   </g>
   <g id="patch_3">
    <path d="M 58.163438 143.278125 
L 58.163438 22.318125 
" style="fill: none; stroke: #000000; stroke-width: 0.8; stroke-linejoin: miter; stroke-linecap: square"/>
   </g>
   <g id="patch_4">
    <path d="M 415.283438 143.278125 
L 415.283438 22.318125 
" style="fill: none; stroke: #000000; stroke-width: 0.8; stroke-linejoin: miter; stroke-linecap: square"/>
   </g>
   <g id="patch_5">
    <path d="M 58.163438 143.278125 
L 415.283438 143.278125 
" style="fill: none; stroke: #000000; stroke-width: 0.8; stroke-linejoin: miter; stroke-linecap: square"/>
   </g>
   <g id="patch_6">
    <path d="M 58.163438 22.318125 
L 415.283438 22.318125 
" style="fill: none; stroke: #000000; stroke-width: 0.8; stroke-linejoin: miter; stroke-linecap: square"/>
   </g>
   <g id="text_6">
    <!-- No side bias -->
    <g transform="translate(200.177813 16.318125) scale(0.12 -0.12)">
     <defs>
      <path id="DejaVuSans-64" d="M 2906 2969 
L 2906 4863 
L 3481 4863 
L 3481 0 
L 2906 0 
L 2906 525 
Q 2725 213 2448 61 
Q 2172 -91 1784 -91 
Q 1150 -91 751 415 
Q 353 922 353 1747 
Q 353 2572 751 3078 
Q 1150 3584 1784 3584 
Q 2172 3584 2448 3432 
Q 2725 3281 2906 2969 
z
M 947 1747 
Q 947 1113 1208 752 
Q 1469 391 1925 391 
Q 2381 391 2643 752 
Q 2906 1113 2906 1747 
Q 2906 2381 2643 2742 
Q 2381 3103 1925 3103 
Q 1469 3103 1208 2742 
Q 947 2381 947 1747 
z
" transform="scale(0.015625)"/>
      <path id="DejaVuSans-61" d="M 2194 1759 
Q 1497 1759 1228 1600 
Q 959 1441 959 1056 
Q 959 750 1161 570 
Q 1363 391 1709 391 
Q 2188 391 2477 730 
Q 2766 1069 2766 1631 
L 2766 1759 
L 2194 1759 
z
M 3341 1997 
L 3341 0 
L 2766 0 
L 2766 531 
Q 2569 213 2275 61 
Q 1981 -91 1556 -91 
Q 1019 -91 701 211 
Q 384 513 384 1019 
Q 384 1609 779 1909 
Q 1175 2209 1959 2209 
L 2766 2209 
L 2766 2266 
Q 2766 2663 2505 2880 
Q 2244 3097 1772 3097 
Q 1472 3097 1187 3025 
Q 903 2953 641 2809 
L 641 3341 
Q 956 3463 1253 3523 
Q 1550 3584 1831 3584 
Q 2591 3584 2966 3190 
Q 3341 2797 3341 1997 
z
" transform="scale(0.015625)"/>
     </defs>
     <use xlink:href="#DejaVuSans-4e"/>
     <use xlink:href="#DejaVuSans-6f" x="74.804688"/>
     <use xlink:href="#DejaVuSans-20" x="135.986328"/>
     <use xlink:href="#DejaVuSans-73" x="167.773438"/>
     <use xlink:href="#DejaVuSans-69" x="219.873047"/>
     <use xlink:href="#DejaVuSans-64" x="247.65625"/>
     <use xlink:href="#DejaVuSans-65" x="311.132812"/>
     <use xlink:href="#DejaVuSans-20" x="372.65625"/>
     <use xlink:href="#DejaVuSans-62" x="404.443359"/>
     <use xlink:href="#DejaVuSans-69" x="467.919922"/>
     <use xlink:href="#DejaVuSans-61" x="495.703125"/>
     <use xlink:href="#DejaVuSans-73" x="556.982422"/>
    </g>
   </g>
   <g id="legend_1">
    <g id="patch_7">
     <path d="M 65.163438 89.030625 
L 184.722813 89.030625 
Q 186.722813 89.030625 186.722813 87.030625 
L 186.722813 29.318125 
Q 186.722813 27.318125 184.722813 27.318125 
L 65.163438 27.318125 
Q 63.163438 27.318125 63.163438 29.318125 
L 63.163438 87.030625 
Q 63.163438 89.030625 65.163438 89.030625 
z
" style="fill: #ffffff; opacity: 0.8; stroke: #cccccc; stroke-linejoin: miter"/>
    </g>
    <g id="line2d_15">
     <path d="M 67.163438 35.416562 
L 77.163438 35.416562 
L 87.163438 35.416562 
" style="fill: none; stroke: #1f77b4; stroke-width: 1.5; stroke-linecap: square"/>
    </g>
    <g id="text_7">
     <!-- upstream pref. -->
     <g transform="translate(95.163438 38.916562) scale(0.1 -0.1)">
      <defs>
       <path id="DejaVuSans-2e" d="M 684 794 
L 1344 794 
L 1344 0 
L 684 0 
L 684 794 
z
" transform="scale(0.015625)"/>
      </defs>
      <use xlink:href="#DejaVuSans-75"/>
      <use xlink:href="#DejaVuSans-70" x="63.378906"/>
      <use xlink:href="#DejaVuSans-73" x="126.855469"/>
      <use xlink:href="#DejaVuSans-74" x="178.955078"/>
      <use xlink:href="#DejaVuSans-72" x="218.164062"/>
      <use xlink:href="#DejaVuSans-65" x="257.027344"/>
      <use xlink:href="#DejaVuSans-61" x="318.550781"/>
      <use xlink:href="#DejaVuSans-6d" x="379.830078"/>
      <use xlink:href="#DejaVuSans-20" x="477.242188"/>
      <use xlink:href="#DejaVuSans-70" x="509.029297"/>
      <use xlink:href="#DejaVuSans-72" x="572.505859"/>
      <use xlink:href="#DejaVuSans-65" x="611.369141"/>
      <use xlink:href="#DejaVuSans-66" x="672.892578"/>
      <use xlink:href="#DejaVuSans-2e" x="700.847656"/>
     </g>
    </g>
    <g id="line2d_16">
     <path d="M 67.163438 50.094688 
L 77.163438 50.094688 
L 87.163438 50.094688 
" style="fill: none; stroke: #ff7f0e; stroke-width: 1.5; stroke-linecap: square"/>
    </g>
    <g id="text_8">
     <!-- downstream pref. -->
     <g transform="translate(95.163438 53.594688) scale(0.1 -0.1)">
      <defs>
       <path id="DejaVuSans-77" d="M 269 3500 
L 844 3500 
L 1563 769 
L 2278 3500 
L 2956 3500 
L 3675 769 
L 4391 3500 
L 4966 3500 
L 4050 0 
L 3372 0 
L 2619 2869 
L 1863 0 
L 1184 0 
L 269 3500 
z
" transform="scale(0.015625)"/>
      </defs>
      <use xlink:href="#DejaVuSans-64"/>
      <use xlink:href="#DejaVuSans-6f" x="63.476562"/>
      <use xlink:href="#DejaVuSans-77" x="124.658203"/>
      <use xlink:href="#DejaVuSans-6e" x="206.445312"/>
      <use xlink:href="#DejaVuSans-73" x="269.824219"/>
      <use xlink:href="#DejaVuSans-74" x="321.923828"/>
      <use xlink:href="#DejaVuSans-72" x="361.132812"/>
      <use xlink:href="#DejaVuSans-65" x="399.996094"/>
      <use xlink:href="#DejaVuSans-61" x="461.519531"/>
      <use xlink:href="#DejaVuSans-6d" x="522.798828"/>
      <use xlink:href="#DejaVuSans-20" x="620.210938"/>
      <use xlink:href="#DejaVuSans-70" x="651.998047"/>
      <use xlink:href="#DejaVuSans-72" x="715.474609"/>
      <use xlink:href="#DejaVuSans-65" x="754.337891"/>
      <use xlink:href="#DejaVuSans-66" x="815.861328"/>
      <use xlink:href="#DejaVuSans-2e" x="843.816406"/>
     </g>
    </g>
    <g id="line2d_17">
     <path d="M 67.163438 64.772812 
L 77.163438 64.772812 
L 87.163438 64.772812 
" style="fill: none; stroke: #2ca02c; stroke-width: 1.5; stroke-linecap: square"/>
    </g>
    <g id="text_9">
     <!-- -35 -->
     <g transform="translate(95.163438 68.272812) scale(0.1 -0.1)">
      <defs>
       <path id="DejaVuSans-2d" d="M 313 2009 
L 1997 2009 
L 1997 1497 
L 313 1497 
L 313 2009 
z
" transform="scale(0.015625)"/>
       <path id="DejaVuSans-33" d="M 2597 2516 
Q 3050 2419 3304 2112 
Q 3559 1806 3559 1356 
Q 3559 666 3084 287 
Q 2609 -91 1734 -91 
Q 1441 -91 1130 -33 
Q 819 25 488 141 
L 488 750 
Q 750 597 1062 519 
Q 1375 441 1716 441 
Q 2309 441 2620 675 
Q 2931 909 2931 1356 
Q 2931 1769 2642 2001 
Q 2353 2234 1838 2234 
L 1294 2234 
L 1294 2753 
L 1863 2753 
Q 2328 2753 2575 2939 
Q 2822 3125 2822 3475 
Q 2822 3834 2567 4026 
Q 2313 4219 1838 4219 
Q 1578 4219 1281 4162 
Q 984 4106 628 3988 
L 628 4550 
Q 988 4650 1302 4700 
Q 1616 4750 1894 4750 
Q 2613 4750 3031 4423 
Q 3450 4097 3450 3541 
Q 3450 3153 3228 2886 
Q 3006 2619 2597 2516 
z
" transform="scale(0.015625)"/>
      </defs>
      <use xlink:href="#DejaVuSans-2d"/>
      <use xlink:href="#DejaVuSans-33" x="36.083984"/>
      <use xlink:href="#DejaVuSans-35" x="99.707031"/>
     </g>
    </g>
    <g id="line2d_18">
     <path d="M 67.163438 79.450938 
L 77.163438 79.450938 
L 87.163438 79.450938 
" style="fill: none; stroke-dasharray: 5.55,2.4; stroke-dashoffset: 0; stroke: #d62728; stroke-width: 1.5"/>
    </g>
    <g id="text_10">
     <!-- -10 -->
     <g transform="translate(95.163438 82.950938) scale(0.1 -0.1)">
      <use xlink:href="#DejaVuSans-2d"/>
      <use xlink:href="#DejaVuSans-31" x="36.083984"/>
      <use xlink:href="#DejaVuSans-30" x="99.707031"/>
     </g>
    </g>
   </g>
  </g>
  <g id="axes_2">
   <g id="patch_8">
    <path d="M 58.163438 288.430125 
L 415.283438 288.430125 
L 415.283438 167.470125 
L 58.163438 167.470125 
z
" style="fill: #ffffff"/>
   </g>
   <g id="PolyCollection_3">
    <defs>
     <path id="m073216b7a1" d="M 287.55319 -158.51625 
L 287.55319 -37.55625 
L 317.067239 -37.55625 
L 317.067239 -158.51625 
L 317.067239 -158.51625 
L 287.55319 -158.51625 
z
" style="stroke: #2ca02c; stroke-opacity: 0.3"/>
    </defs>
    <g clip-path="url(#p55e717c407)">
     <use xlink:href="#m073216b7a1" x="0" y="325.986375" style="fill: #2ca02c; fill-opacity: 0.3; stroke: #2ca02c; stroke-opacity: 0.3"/>
    </g>
   </g>
   <g id="PolyCollection_4">
    <defs>
     <path id="meb3c946df4" d="M 366.257322 -158.51625 
L 366.257322 -37.55625 
L 389.212694 -37.55625 
L 389.212694 -158.51625 
L 389.212694 -158.51625 
L 366.257322 -158.51625 
z
" style="stroke: #d62728; stroke-opacity: 0.3"/>
    </defs>
    <g clip-path="url(#p55e717c407)">
     <use xlink:href="#meb3c946df4" x="0" y="325.986375" style="fill: #d62728; fill-opacity: 0.3; stroke: #d62728; stroke-opacity: 0.3"/>
    </g>
   </g>
   <g id="matplotlib.axis_3">
    <g id="xtick_7">
     <g id="line2d_19">
      <g>
       <use xlink:href="#mb6d4ee5349" x="74.396165" y="288.430125" style="stroke: #000000; stroke-width: 0.8"/>
      </g>
     </g>
     <g id="text_11">
      <!-- 0 -->
      <g transform="translate(71.214915 303.028563) scale(0.1 -0.1)">
       <use xlink:href="#DejaVuSans-30"/>
      </g>
     </g>
    </g>
    <g id="xtick_8">
     <g id="line2d_20">
      <g>
       <use xlink:href="#mb6d4ee5349" x="139.982942" y="288.430125" style="stroke: #000000; stroke-width: 0.8"/>
      </g>
     </g>
     <g id="text_12">
      <!-- 20 -->
      <g transform="translate(133.620442 303.028563) scale(0.1 -0.1)">
       <defs>
        <path id="DejaVuSans-32" d="M 1228 531 
L 3431 531 
L 3431 0 
L 469 0 
L 469 531 
Q 828 903 1448 1529 
Q 2069 2156 2228 2338 
Q 2531 2678 2651 2914 
Q 2772 3150 2772 3378 
Q 2772 3750 2511 3984 
Q 2250 4219 1831 4219 
Q 1534 4219 1204 4116 
Q 875 4013 500 3803 
L 500 4441 
Q 881 4594 1212 4672 
Q 1544 4750 1819 4750 
Q 2544 4750 2975 4387 
Q 3406 4025 3406 3419 
Q 3406 3131 3298 2873 
Q 3191 2616 2906 2266 
Q 2828 2175 2409 1742 
Q 1991 1309 1228 531 
z
" transform="scale(0.015625)"/>
       </defs>
       <use xlink:href="#DejaVuSans-32"/>
       <use xlink:href="#DejaVuSans-30" x="63.623047"/>
      </g>
     </g>
    </g>
    <g id="xtick_9">
     <g id="line2d_21">
      <g>
       <use xlink:href="#mb6d4ee5349" x="205.569718" y="288.430125" style="stroke: #000000; stroke-width: 0.8"/>
      </g>
     </g>
     <g id="text_13">
      <!-- 40 -->
      <g transform="translate(199.207218 303.028563) scale(0.1 -0.1)">
       <defs>
        <path id="DejaVuSans-34" d="M 2419 4116 
L 825 1625 
L 2419 1625 
L 2419 4116 
z
M 2253 4666 
L 3047 4666 
L 3047 1625 
L 3713 1625 
L 3713 1100 
L 3047 1100 
L 3047 0 
L 2419 0 
L 2419 1100 
L 313 1100 
L 313 1709 
L 2253 4666 
z
" transform="scale(0.015625)"/>
       </defs>
       <use xlink:href="#DejaVuSans-34"/>
       <use xlink:href="#DejaVuSans-30" x="63.623047"/>
      </g>
     </g>
    </g>
    <g id="xtick_10">
     <g id="line2d_22">
      <g>
       <use xlink:href="#mb6d4ee5349" x="271.156495" y="288.430125" style="stroke: #000000; stroke-width: 0.8"/>
      </g>
     </g>
     <g id="text_14">
      <!-- 60 -->
      <g transform="translate(264.793995 303.028563) scale(0.1 -0.1)">
       <defs>
        <path id="DejaVuSans-36" d="M 2113 2584 
Q 1688 2584 1439 2293 
Q 1191 2003 1191 1497 
Q 1191 994 1439 701 
Q 1688 409 2113 409 
Q 2538 409 2786 701 
Q 3034 994 3034 1497 
Q 3034 2003 2786 2293 
Q 2538 2584 2113 2584 
z
M 3366 4563 
L 3366 3988 
Q 3128 4100 2886 4159 
Q 2644 4219 2406 4219 
Q 1781 4219 1451 3797 
Q 1122 3375 1075 2522 
Q 1259 2794 1537 2939 
Q 1816 3084 2150 3084 
Q 2853 3084 3261 2657 
Q 3669 2231 3669 1497 
Q 3669 778 3244 343 
Q 2819 -91 2113 -91 
Q 1303 -91 875 529 
Q 447 1150 447 2328 
Q 447 3434 972 4092 
Q 1497 4750 2381 4750 
Q 2619 4750 2861 4703 
Q 3103 4656 3366 4563 
z
" transform="scale(0.015625)"/>
       </defs>
       <use xlink:href="#DejaVuSans-36"/>
       <use xlink:href="#DejaVuSans-30" x="63.623047"/>
      </g>
     </g>
    </g>
    <g id="xtick_11">
     <g id="line2d_23">
      <g>
       <use xlink:href="#mb6d4ee5349" x="336.743272" y="288.430125" style="stroke: #000000; stroke-width: 0.8"/>
      </g>
     </g>
     <g id="text_15">
      <!-- 80 -->
      <g transform="translate(330.380772 303.028563) scale(0.1 -0.1)">
       <defs>
        <path id="DejaVuSans-38" d="M 2034 2216 
Q 1584 2216 1326 1975 
Q 1069 1734 1069 1313 
Q 1069 891 1326 650 
Q 1584 409 2034 409 
Q 2484 409 2743 651 
Q 3003 894 3003 1313 
Q 3003 1734 2745 1975 
Q 2488 2216 2034 2216 
z
M 1403 2484 
Q 997 2584 770 2862 
Q 544 3141 544 3541 
Q 544 4100 942 4425 
Q 1341 4750 2034 4750 
Q 2731 4750 3128 4425 
Q 3525 4100 3525 3541 
Q 3525 3141 3298 2862 
Q 3072 2584 2669 2484 
Q 3125 2378 3379 2068 
Q 3634 1759 3634 1313 
Q 3634 634 3220 271 
Q 2806 -91 2034 -91 
Q 1263 -91 848 271 
Q 434 634 434 1313 
Q 434 1759 690 2068 
Q 947 2378 1403 2484 
z
M 1172 3481 
Q 1172 3119 1398 2916 
Q 1625 2713 2034 2713 
Q 2441 2713 2670 2916 
Q 2900 3119 2900 3481 
Q 2900 3844 2670 4047 
Q 2441 4250 2034 4250 
Q 1625 4250 1398 4047 
Q 1172 3844 1172 3481 
z
" transform="scale(0.015625)"/>
       </defs>
       <use xlink:href="#DejaVuSans-38"/>
       <use xlink:href="#DejaVuSans-30" x="63.623047"/>
      </g>
     </g>
    </g>
    <g id="xtick_12">
     <g id="line2d_24">
      <g>
       <use xlink:href="#mb6d4ee5349" x="402.330049" y="288.430125" style="stroke: #000000; stroke-width: 0.8"/>
      </g>
     </g>
     <g id="text_16">
      <!-- 100 -->
      <g transform="translate(392.786299 303.028563) scale(0.1 -0.1)">
       <use xlink:href="#DejaVuSans-31"/>
       <use xlink:href="#DejaVuSans-30" x="63.623047"/>
       <use xlink:href="#DejaVuSans-30" x="127.246094"/>
      </g>
     </g>
    </g>
    <g id="text_17">
     <!-- Sequence position (bp) -->
     <g transform="translate(178.825781 316.706687) scale(0.1 -0.1)">
      <defs>
       <path id="DejaVuSans-53" d="M 3425 4513 
L 3425 3897 
Q 3066 4069 2747 4153 
Q 2428 4238 2131 4238 
Q 1616 4238 1336 4038 
Q 1056 3838 1056 3469 
Q 1056 3159 1242 3001 
Q 1428 2844 1947 2747 
L 2328 2669 
Q 3034 2534 3370 2195 
Q 3706 1856 3706 1288 
Q 3706 609 3251 259 
Q 2797 -91 1919 -91 
Q 1588 -91 1214 -16 
Q 841 59 441 206 
L 441 856 
Q 825 641 1194 531 
Q 1563 422 1919 422 
Q 2459 422 2753 634 
Q 3047 847 3047 1241 
Q 3047 1584 2836 1778 
Q 2625 1972 2144 2069 
L 1759 2144 
Q 1053 2284 737 2584 
Q 422 2884 422 3419 
Q 422 4038 858 4394 
Q 1294 4750 2059 4750 
Q 2388 4750 2728 4690 
Q 3069 4631 3425 4513 
z
" transform="scale(0.015625)"/>
       <path id="DejaVuSans-71" d="M 947 1747 
Q 947 1113 1208 752 
Q 1469 391 1925 391 
Q 2381 391 2643 752 
Q 2906 1113 2906 1747 
Q 2906 2381 2643 2742 
Q 2381 3103 1925 3103 
Q 1469 3103 1208 2742 
Q 947 2381 947 1747 
z
M 2906 525 
Q 2725 213 2448 61 
Q 2172 -91 1784 -91 
Q 1150 -91 751 415 
Q 353 922 353 1747 
Q 353 2572 751 3078 
Q 1150 3584 1784 3584 
Q 2172 3584 2448 3432 
Q 2725 3281 2906 2969 
L 2906 3500 
L 3481 3500 
L 3481 -1331 
L 2906 -1331 
L 2906 525 
z
" transform="scale(0.015625)"/>
       <path id="DejaVuSans-28" d="M 1984 4856 
Q 1566 4138 1362 3434 
Q 1159 2731 1159 2009 
Q 1159 1288 1364 580 
Q 1569 -128 1984 -844 
L 1484 -844 
Q 1016 -109 783 600 
Q 550 1309 550 2009 
Q 550 2706 781 3412 
Q 1013 4119 1484 4856 
L 1984 4856 
z
" transform="scale(0.015625)"/>
       <path id="DejaVuSans-29" d="M 513 4856 
L 1013 4856 
Q 1481 4119 1714 3412 
Q 1947 2706 1947 2009 
Q 1947 1309 1714 600 
Q 1481 -109 1013 -844 
L 513 -844 
Q 928 -128 1133 580 
Q 1338 1288 1338 2009 
Q 1338 2731 1133 3434 
Q 928 4138 513 4856 
z
" transform="scale(0.015625)"/>
      </defs>
      <use xlink:href="#DejaVuSans-53"/>
      <use xlink:href="#DejaVuSans-65" x="63.476562"/>
      <use xlink:href="#DejaVuSans-71" x="125"/>
      <use xlink:href="#DejaVuSans-75" x="188.476562"/>
      <use xlink:href="#DejaVuSans-65" x="251.855469"/>
      <use xlink:href="#DejaVuSans-6e" x="313.378906"/>
      <use xlink:href="#DejaVuSans-63" x="376.757812"/>
      <use xlink:href="#DejaVuSans-65" x="431.738281"/>
      <use xlink:href="#DejaVuSans-20" x="493.261719"/>
      <use xlink:href="#DejaVuSans-70" x="525.048828"/>
      <use xlink:href="#DejaVuSans-6f" x="588.525391"/>
      <use xlink:href="#DejaVuSans-73" x="649.707031"/>
      <use xlink:href="#DejaVuSans-69" x="701.806641"/>
      <use xlink:href="#DejaVuSans-74" x="729.589844"/>
      <use xlink:href="#DejaVuSans-69" x="768.798828"/>
      <use xlink:href="#DejaVuSans-6f" x="796.582031"/>
      <use xlink:href="#DejaVuSans-6e" x="857.763672"/>
      <use xlink:href="#DejaVuSans-20" x="921.142578"/>
      <use xlink:href="#DejaVuSans-28" x="952.929688"/>
      <use xlink:href="#DejaVuSans-62" x="991.943359"/>
      <use xlink:href="#DejaVuSans-70" x="1055.419922"/>
      <use xlink:href="#DejaVuSans-29" x="1118.896484"/>
     </g>
    </g>
   </g>
   <g id="matplotlib.axis_4">
    <g id="ytick_5">
     <g id="line2d_25">
      <g>
       <use xlink:href="#maa3b1fafe4" x="58.163438" y="282.931943" style="stroke: #000000; stroke-width: 0.8"/>
      </g>
     </g>
     <g id="text_18">
      <!-- 0 -->
      <g transform="translate(44.800938 286.731162) scale(0.1 -0.1)">
       <use xlink:href="#DejaVuSans-30"/>
      </g>
     </g>
    </g>
    <g id="ytick_6">
     <g id="line2d_26">
      <g>
       <use xlink:href="#maa3b1fafe4" x="58.163438" y="248.568307" style="stroke: #000000; stroke-width: 0.8"/>
      </g>
     </g>
     <g id="text_19">
      <!-- 50 -->
      <g transform="translate(38.438438 252.367526) scale(0.1 -0.1)">
       <use xlink:href="#DejaVuSans-35"/>
       <use xlink:href="#DejaVuSans-30" x="63.623047"/>
      </g>
     </g>
    </g>
    <g id="ytick_7">
     <g id="line2d_27">
      <g>
       <use xlink:href="#maa3b1fafe4" x="58.163438" y="214.20467" style="stroke: #000000; stroke-width: 0.8"/>
      </g>
     </g>
     <g id="text_20">
      <!-- 100 -->
      <g transform="translate(32.075938 218.003889) scale(0.1 -0.1)">
       <use xlink:href="#DejaVuSans-31"/>
       <use xlink:href="#DejaVuSans-30" x="63.623047"/>
       <use xlink:href="#DejaVuSans-30" x="127.246094"/>
      </g>
     </g>
    </g>
    <g id="ytick_8">
     <g id="line2d_28">
      <g>
       <use xlink:href="#maa3b1fafe4" x="58.163438" y="179.841034" style="stroke: #000000; stroke-width: 0.8"/>
      </g>
     </g>
     <g id="text_21">
      <!-- 150 -->
      <g transform="translate(32.075938 183.640253) scale(0.1 -0.1)">
       <use xlink:href="#DejaVuSans-31"/>
       <use xlink:href="#DejaVuSans-35" x="63.623047"/>
       <use xlink:href="#DejaVuSans-30" x="127.246094"/>
      </g>
     </g>
    </g>
    <g id="text_22">
     <!-- Number of motifs -->
     <g transform="translate(14.798438 271.677469) rotate(-90) scale(0.1 -0.1)">
      <use xlink:href="#DejaVuSans-4e"/>
      <use xlink:href="#DejaVuSans-75" x="74.804688"/>
      <use xlink:href="#DejaVuSans-6d" x="138.183594"/>
      <use xlink:href="#DejaVuSans-62" x="235.595703"/>
      <use xlink:href="#DejaVuSans-65" x="299.072266"/>
      <use xlink:href="#DejaVuSans-72" x="360.595703"/>
      <use xlink:href="#DejaVuSans-20" x="401.708984"/>
      <use xlink:href="#DejaVuSans-6f" x="433.496094"/>
      <use xlink:href="#DejaVuSans-66" x="494.677734"/>
      <use xlink:href="#DejaVuSans-20" x="529.882812"/>
      <use xlink:href="#DejaVuSans-6d" x="561.669922"/>
      <use xlink:href="#DejaVuSans-6f" x="659.082031"/>
      <use xlink:href="#DejaVuSans-74" x="720.263672"/>
      <use xlink:href="#DejaVuSans-69" x="759.472656"/>
      <use xlink:href="#DejaVuSans-66" x="787.255859"/>
      <use xlink:href="#DejaVuSans-73" x="822.460938"/>
     </g>
     <!-- covering this position -->
     <g transform="translate(25.99625 281.687625) rotate(-90) scale(0.1 -0.1)">
      <use xlink:href="#DejaVuSans-63"/>
      <use xlink:href="#DejaVuSans-6f" x="54.980469"/>
      <use xlink:href="#DejaVuSans-76" x="116.162109"/>
      <use xlink:href="#DejaVuSans-65" x="175.341797"/>
      <use xlink:href="#DejaVuSans-72" x="236.865234"/>
      <use xlink:href="#DejaVuSans-69" x="277.978516"/>
      <use xlink:href="#DejaVuSans-6e" x="305.761719"/>
      <use xlink:href="#DejaVuSans-67" x="369.140625"/>
      <use xlink:href="#DejaVuSans-20" x="432.617188"/>
      <use xlink:href="#DejaVuSans-74" x="464.404297"/>
      <use xlink:href="#DejaVuSans-68" x="503.613281"/>
      <use xlink:href="#DejaVuSans-69" x="566.992188"/>
      <use xlink:href="#DejaVuSans-73" x="594.775391"/>
      <use xlink:href="#DejaVuSans-20" x="646.875"/>
      <use xlink:href="#DejaVuSans-70" x="678.662109"/>
      <use xlink:href="#DejaVuSans-6f" x="742.138672"/>
      <use xlink:href="#DejaVuSans-73" x="803.320312"/>
      <use xlink:href="#DejaVuSans-69" x="855.419922"/>
      <use xlink:href="#DejaVuSans-74" x="883.203125"/>
      <use xlink:href="#DejaVuSans-69" x="922.412109"/>
      <use xlink:href="#DejaVuSans-6f" x="950.195312"/>
      <use xlink:href="#DejaVuSans-6e" x="1011.376953"/>
     </g>
    </g>
   </g>
   <g id="line2d_29">
    <path d="M 74.396165 205.270125 
L 77.675504 203.89558 
L 80.954842 199.771943 
L 84.234181 188.088307 
L 87.51352 177.779216 
L 90.792859 181.902852 
L 94.072198 175.717398 
L 97.351537 172.968307 
L 100.630876 173.65558 
L 103.910214 175.030125 
L 107.189553 176.40467 
L 110.468892 187.401034 
L 113.748231 185.339216 
L 117.02757 186.026489 
L 120.306909 184.651943 
L 123.586247 183.96467 
L 126.865586 193.586489 
L 130.144925 198.397398 
L 133.424264 194.961034 
L 136.703603 192.211943 
L 139.982942 199.08467 
L 143.26228 198.397398 
L 146.541619 199.771943 
L 149.820958 199.771943 
L 153.100297 202.521034 
L 156.379636 202.521034 
L 159.658975 203.89558 
L 162.938314 198.397398 
L 166.217652 197.710125 
L 169.496991 202.521034 
L 172.77633 203.89558 
L 176.055669 205.270125 
L 179.335008 201.833761 
L 182.614347 203.89558 
L 185.893685 208.706489 
L 189.173024 210.081034 
L 192.452363 210.768307 
L 195.731702 214.891943 
L 199.011041 214.891943 
L 202.29038 216.266489 
L 205.569718 219.01558 
L 208.849057 220.390125 
L 212.128396 226.57558 
L 215.407735 230.011943 
L 218.687074 230.699216 
L 221.966413 230.699216 
L 225.245752 235.510125 
L 228.52509 241.008307 
L 231.804429 243.070125 
L 235.083768 240.321034 
L 238.363107 239.633761 
L 241.642446 243.070125 
L 244.921785 240.321034 
L 248.201123 239.633761 
L 251.480462 245.819216 
L 254.759801 246.506489 
L 258.03914 245.819216 
L 261.318479 246.506489 
L 264.597818 247.881034 
L 267.877157 248.568307 
L 271.156495 247.881034 
L 274.435834 248.568307 
L 277.715173 256.81558 
L 280.994512 258.190125 
L 284.273851 261.626489 
L 287.55319 265.062852 
L 290.832528 265.062852 
L 294.111867 263.001034 
L 297.391206 265.062852 
L 300.670545 264.37558 
L 303.949884 261.626489 
L 307.229223 258.190125 
L 310.508561 252.691943 
L 313.7879 252.00467 
L 317.067239 250.630125 
L 320.346578 246.506489 
L 323.625917 243.070125 
L 326.905256 247.881034 
L 330.184595 245.819216 
L 333.463933 245.819216 
L 336.743272 249.942852 
L 340.022611 252.00467 
L 343.30195 256.81558 
L 346.581289 257.502852 
L 349.860628 260.939216 
L 353.139966 263.688307 
L 356.419305 265.750125 
L 359.698644 263.001034 
L 362.977983 262.313761 
L 366.257322 264.37558 
L 369.536661 265.062852 
L 372.815999 266.437398 
L 376.095338 268.499216 
L 379.374677 267.12467 
L 382.654016 263.001034 
L 385.933355 258.190125 
L 389.212694 258.877398 
L 392.492033 258.877398 
L 395.771371 259.56467 
L 399.05071 263.001034 
" clip-path="url(#p55e717c407)" style="fill: none; stroke: #1f77b4; stroke-width: 1.5; stroke-linecap: square"/>
   </g>
   <g id="line2d_30">
    <path d="M 74.396165 277.433761 
L 77.675504 277.433761 
L 80.954842 277.433761 
L 84.234181 276.746489 
L 87.51352 274.68467 
L 90.792859 274.68467 
L 94.072198 274.68467 
L 97.351537 272.622852 
L 100.630876 271.93558 
L 103.910214 274.68467 
L 107.189553 271.248307 
L 110.468892 270.561034 
L 113.748231 269.873761 
L 117.02757 266.437398 
L 120.306909 265.750125 
L 123.586247 265.062852 
L 126.865586 265.062852 
L 130.144925 264.37558 
L 133.424264 259.56467 
L 136.703603 258.877398 
L 139.982942 258.190125 
L 143.26228 254.753761 
L 146.541619 254.753761 
L 149.820958 253.379216 
L 153.100297 254.753761 
L 156.379636 252.00467 
L 159.658975 250.630125 
L 162.938314 253.379216 
L 166.217652 253.379216 
L 169.496991 254.066489 
L 172.77633 254.753761 
L 176.055669 250.630125 
L 179.335008 249.25558 
L 182.614347 247.193761 
L 185.893685 243.757398 
L 189.173024 242.382852 
L 192.452363 238.946489 
L 195.731702 241.69558 
L 199.011041 239.633761 
L 202.29038 235.510125 
L 205.569718 234.822852 
L 208.849057 234.13558 
L 212.128396 227.262852 
L 215.407735 225.888307 
L 218.687074 218.328307 
L 221.966413 214.20467 
L 225.245752 213.517398 
L 228.52509 213.517398 
L 231.804429 209.393761 
L 235.083768 213.517398 
L 238.363107 214.20467 
L 241.642446 207.331943 
L 244.921785 203.208307 
L 248.201123 206.64467 
L 251.480462 212.142852 
L 254.759801 210.081034 
L 258.03914 209.393761 
L 261.318479 210.768307 
L 264.597818 210.768307 
L 267.877157 203.208307 
L 271.156495 205.270125 
L 274.435834 199.08467 
L 277.715173 197.710125 
L 280.994512 199.08467 
L 284.273851 203.89558 
L 287.55319 205.957398 
L 290.832528 212.830125 
L 294.111867 226.57558 
L 297.391206 241.008307 
L 300.670545 247.881034 
L 303.949884 252.691943 
L 307.229223 249.942852 
L 310.508561 238.259216 
L 313.7879 234.13558 
L 317.067239 227.950125 
L 320.346578 221.76467 
L 323.625917 214.891943 
L 326.905256 215.579216 
L 330.184595 211.45558 
L 333.463933 208.019216 
L 336.743272 203.89558 
L 340.022611 202.521034 
L 343.30195 199.771943 
L 346.581289 201.146489 
L 349.860628 197.710125 
L 353.139966 192.899216 
L 356.419305 192.899216 
L 359.698644 201.833761 
L 362.977983 207.331943 
L 366.257322 212.142852 
L 369.536661 227.950125 
L 372.815999 247.881034 
L 376.095338 258.190125 
L 379.374677 263.688307 
L 382.654016 247.193761 
L 385.933355 223.826489 
L 389.212694 223.826489 
L 392.492033 225.201034 
L 395.771371 225.201034 
L 399.05071 227.950125 
" clip-path="url(#p55e717c407)" style="fill: none; stroke: #ff7f0e; stroke-width: 1.5; stroke-linecap: square"/>
   </g>
   <g id="line2d_31">
    <path d="M 74.396165 282.931943 
L 77.675504 282.931943 
L 80.954842 282.931943 
L 84.234181 282.931943 
L 87.51352 282.931943 
L 90.792859 282.931943 
L 94.072198 282.931943 
L 97.351537 282.931943 
L 100.630876 282.931943 
L 103.910214 282.931943 
L 107.189553 282.931943 
L 110.468892 282.931943 
L 113.748231 282.931943 
L 117.02757 282.931943 
L 120.306909 282.931943 
L 123.586247 282.931943 
L 126.865586 282.931943 
L 130.144925 282.931943 
L 133.424264 282.931943 
L 136.703603 282.931943 
L 139.982942 282.931943 
L 143.26228 282.931943 
L 146.541619 282.931943 
L 149.820958 282.931943 
L 153.100297 282.931943 
L 156.379636 282.931943 
L 159.658975 282.931943 
L 162.938314 282.931943 
L 166.217652 282.931943 
L 169.496991 282.931943 
L 172.77633 282.931943 
L 176.055669 282.931943 
L 179.335008 282.931943 
L 182.614347 282.931943 
L 185.893685 282.931943 
L 189.173024 282.931943 
L 192.452363 282.931943 
L 195.731702 282.931943 
L 199.011041 282.931943 
L 202.29038 282.931943 
L 205.569718 282.931943 
L 208.849057 282.931943 
L 212.128396 282.931943 
L 215.407735 282.931943 
L 218.687074 282.931943 
L 221.966413 282.931943 
L 225.245752 282.931943 
L 228.52509 282.931943 
L 231.804429 282.931943 
L 235.083768 282.931943 
L 238.363107 282.931943 
L 241.642446 282.931943 
L 244.921785 282.931943 
L 248.201123 282.931943 
L 251.480462 282.931943 
L 254.759801 282.931943 
L 258.03914 282.931943 
L 261.318479 282.931943 
L 264.597818 282.931943 
L 267.877157 282.931943 
L 271.156495 282.931943 
L 274.435834 282.931943 
L 277.715173 282.931943 
L 280.994512 282.931943 
L 284.273851 282.931943 
L 287.55319 270.561034 
L 290.832528 252.691943 
L 294.111867 227.262852 
L 297.391206 209.393761 
L 300.670545 200.459216 
L 303.949884 200.459216 
L 307.229223 212.830125 
L 310.508561 230.699216 
L 313.7879 256.128307 
L 317.067239 273.997398 
L 320.346578 282.931943 
L 323.625917 282.931943 
L 326.905256 282.931943 
L 330.184595 282.931943 
L 333.463933 282.931943 
L 336.743272 282.931943 
L 340.022611 282.931943 
L 343.30195 282.931943 
L 346.581289 282.931943 
L 349.860628 282.931943 
L 353.139966 282.931943 
L 356.419305 282.931943 
L 359.698644 282.931943 
L 362.977983 282.931943 
L 366.257322 282.931943 
L 369.536661 282.931943 
L 372.815999 282.931943 
L 376.095338 282.931943 
L 379.374677 282.931943 
L 382.654016 282.931943 
L 385.933355 282.931943 
L 389.212694 282.931943 
L 392.492033 282.931943 
L 395.771371 282.931943 
L 399.05071 282.931943 
" clip-path="url(#p55e717c407)" style="fill: none; stroke: #2ca02c; stroke-width: 1.5; stroke-linecap: square"/>
   </g>
   <g id="line2d_32">
    <path d="M 74.396165 282.931943 
L 77.675504 282.931943 
L 80.954842 282.931943 
L 84.234181 282.931943 
L 87.51352 282.931943 
L 90.792859 282.931943 
L 94.072198 282.931943 
L 97.351537 282.931943 
L 100.630876 282.931943 
L 103.910214 282.931943 
L 107.189553 282.931943 
L 110.468892 282.931943 
L 113.748231 282.931943 
L 117.02757 282.931943 
L 120.306909 282.931943 
L 123.586247 282.931943 
L 126.865586 282.931943 
L 130.144925 282.931943 
L 133.424264 282.931943 
L 136.703603 282.931943 
L 139.982942 282.931943 
L 143.26228 282.931943 
L 146.541619 282.931943 
L 149.820958 282.931943 
L 153.100297 282.931943 
L 156.379636 282.931943 
L 159.658975 282.931943 
L 162.938314 282.931943 
L 166.217652 282.931943 
L 169.496991 282.931943 
L 172.77633 282.931943 
L 176.055669 282.931943 
L 179.335008 282.931943 
L 182.614347 282.931943 
L 185.893685 282.931943 
L 189.173024 282.931943 
L 192.452363 282.931943 
L 195.731702 282.931943 
L 199.011041 282.931943 
L 202.29038 282.931943 
L 205.569718 282.931943 
L 208.849057 282.931943 
L 212.128396 282.931943 
L 215.407735 282.931943 
L 218.687074 282.931943 
L 221.966413 282.931943 
L 225.245752 282.931943 
L 228.52509 282.931943 
L 231.804429 282.931943 
L 235.083768 282.931943 
L 238.363107 282.931943 
L 241.642446 282.931943 
L 244.921785 282.931943 
L 248.201123 282.931943 
L 251.480462 282.931943 
L 254.759801 282.931943 
L 258.03914 282.931943 
L 261.318479 282.931943 
L 264.597818 282.931943 
L 267.877157 282.931943 
L 271.156495 282.931943 
L 274.435834 282.931943 
L 277.715173 282.931943 
L 280.994512 282.931943 
L 284.273851 282.931943 
L 287.55319 282.931943 
L 290.832528 282.931943 
L 294.111867 282.931943 
L 297.391206 282.931943 
L 300.670545 282.931943 
L 303.949884 282.931943 
L 307.229223 282.931943 
L 310.508561 282.931943 
L 313.7879 282.931943 
L 317.067239 282.931943 
L 320.346578 282.931943 
L 323.625917 282.931943 
L 326.905256 282.931943 
L 330.184595 282.931943 
L 333.463933 282.931943 
L 336.743272 282.931943 
L 340.022611 282.931943 
L 343.30195 282.931943 
L 346.581289 282.931943 
L 349.860628 282.931943 
L 353.139966 282.931943 
L 356.419305 282.931943 
L 359.698644 282.931943 
L 362.977983 282.931943 
L 366.257322 250.630125 
L 369.536661 225.201034 
L 372.815999 200.459216 
L 376.095338 200.459216 
L 379.374677 200.459216 
L 382.654016 200.459216 
L 385.933355 232.761034 
L 389.212694 258.190125 
L 392.492033 282.931943 
L 395.771371 282.931943 
L 399.05071 282.931943 
" clip-path="url(#p55e717c407)" style="fill: none; stroke-dasharray: 5.55,2.4; stroke-dashoffset: 0; stroke: #d62728; stroke-width: 1.5"/>
   </g>
   <g id="patch_9">
    <path d="M 58.163438 288.430125 
L 58.163438 167.470125 
" style="fill: none; stroke: #000000; stroke-width: 0.8; stroke-linejoin: miter; stroke-linecap: square"/>
   </g>
   <g id="patch_10">
    <path d="M 415.283438 288.430125 
L 415.283438 167.470125 
" style="fill: none; stroke: #000000; stroke-width: 0.8; stroke-linejoin: miter; stroke-linecap: square"/>
   </g>
   <g id="patch_11">
    <path d="M 58.163438 288.430125 
L 415.283438 288.430125 
" style="fill: none; stroke: #000000; stroke-width: 0.8; stroke-linejoin: miter; stroke-linecap: square"/>
   </g>
   <g id="patch_12">
    <path d="M 58.163438 167.470125 
L 415.283438 167.470125 
" style="fill: none; stroke: #000000; stroke-width: 0.8; stroke-linejoin: miter; stroke-linecap: square"/>
   </g>
   <g id="text_23">
    <!-- With side bias -->
    <g transform="translate(194.71875 161.470125) scale(0.12 -0.12)">
     <defs>
      <path id="DejaVuSans-57" d="M 213 4666 
L 850 4666 
L 1831 722 
L 2809 4666 
L 3519 4666 
L 4500 722 
L 5478 4666 
L 6119 4666 
L 4947 0 
L 4153 0 
L 3169 4050 
L 2175 0 
L 1381 0 
L 213 4666 
z
" transform="scale(0.015625)"/>
     </defs>
     <use xlink:href="#DejaVuSans-57"/>
     <use xlink:href="#DejaVuSans-69" x="96.626953"/>
     <use xlink:href="#DejaVuSans-74" x="124.410156"/>
     <use xlink:href="#DejaVuSans-68" x="163.619141"/>
     <use xlink:href="#DejaVuSans-20" x="226.998047"/>
     <use xlink:href="#DejaVuSans-73" x="258.785156"/>
     <use xlink:href="#DejaVuSans-69" x="310.884766"/>
     <use xlink:href="#DejaVuSans-64" x="338.667969"/>
     <use xlink:href="#DejaVuSans-65" x="402.144531"/>
     <use xlink:href="#DejaVuSans-20" x="463.667969"/>
     <use xlink:href="#DejaVuSans-62" x="495.455078"/>
     <use xlink:href="#DejaVuSans-69" x="558.931641"/>
     <use xlink:href="#DejaVuSans-61" x="586.714844"/>
     <use xlink:href="#DejaVuSans-73" x="647.994141"/>
    </g>
   </g>
  </g>
 </g>
 <defs>
  <clipPath id="pfe42effe68">
   <rect x="58.163438" y="22.318125" width="357.12" height="120.96"/>
  </clipPath>
  <clipPath id="p55e717c407">
   <rect x="58.163438" y="167.470125" width="357.12" height="120.96"/>
  </clipPath>
 </defs>
</svg>
